<?xml version="1.0" encoding="utf-8"?>
<!-- Generator: Adobe Illustrator 24.3.0, SVG Export Plug-In . SVG Version: 6.00 Build 0)  -->
<svg version="1.0" id="katman_1" xmlns="http://www.w3.org/2000/svg" xmlns:xlink="http://www.w3.org/1999/xlink" x="0px" y="0px"
	 viewBox="0 0 841.89 595.28" style="enable-background:new 0 0 841.89 595.28;" xml:space="preserve">
<style type="text/css">
	.st0{fill:#FFFFFF;}
	.st1{clip-path:url(#SVGID_2_);fill:#929496;}
	.st2{fill:#929496;}
	.st3{clip-path:url(#SVGID_4_);fill:#929496;}
	.st4{clip-path:url(#SVGID_4_);fill:#395989;}
</style>
<rect x="69.14" y="125.51" class="st0" width="704.23" height="343.86"/>
<g>
	<defs>
		<rect id="SVGID_1_" x="69.14" y="125.51" width="704.23" height="343.86"/>
	</defs>
	<clipPath id="SVGID_2_">
		<use xlink:href="#SVGID_1_"  style="overflow:visible;"/>
	</clipPath>
	<path class="st1" d="M501.75,169.79v-9.64c0-1.33-0.41-2.46-1.24-3.38c-0.9-1.05-2.19-1.6-3.87-1.6c-1.74,0-3.16,0.82-4.24,2.42
		c-0.97,1.42-1.46,3.02-1.46,4.76c0,1.82,0.4,3.46,1.27,4.87c1.04,1.74,2.46,2.61,4.25,2.61L501.75,169.79z M510.97,172.98h-6.29
		c-0.92,4.69-4.02,7.17-9.28,7.5v-3.06h0.41c2.93,0,4.79-1.5,5.57-4.43h-4.98c-2.56,0-4.65-0.96-6.31-2.91
		c-1.64-1.97-2.46-4.45-2.46-7.4c0-2.97,0.88-5.44,2.61-7.46c1.76-2,3.97-3,6.57-3c5.08,0,8.22,3.09,8.22,9.12v8.5h5.94V172.98z"/>
	<path class="st1" d="M520.98,179.98h-3.26v-3.87h3.26V179.98z M514.98,179.98h-3.24v-3.87h3.24V179.98z M521.02,152.25v12.7
		c0,5.35-2.24,8.04-6.72,8.04h-4.01v-3.15h2.97c1.96,0,3.24-0.66,3.87-1.92c0.47-0.83,0.7-2.3,0.7-4.39v-11.29H521.02z"/>
</g>
<rect x="528.32" y="143.44" class="st2" width="3.2" height="29.55"/>
<g>
	<defs>
		<rect id="SVGID_3_" x="69.14" y="125.51" width="704.23" height="343.86"/>
	</defs>
	<clipPath id="SVGID_4_">
		<use xlink:href="#SVGID_3_"  style="overflow:visible;"/>
	</clipPath>
	<path class="st3" d="M552.57,172.98h-7.85c-0.86,4.71-3.98,7.17-9.26,7.5v-3.06c4.24,0,6.39-2.33,6.39-7.72v-17.44h3.19v17.54h7.54
		V172.98z"/>
	<path class="st3" d="M581.93,168.37v4.61h-31.64v-3.19h27.77c0.03-0.55,0.08-1.09,0.08-1.64c0-3.53-0.82-6.35-2.52-8.45
		c-1.96-2.46-4.88-3.69-8.77-3.69h-9.4c1.64-2.98,3.97-7.13,6.99-12.52h3.79l-5.45,9.37h4.06c4.61,0,8.32,1.41,11.05,4.28
		C580.61,159.97,581.93,163.72,581.93,168.37"/>
	<path class="st3" d="M626.09,144.94h-3.24v-3.89h3.24V144.94z M624.9,166.77c3.9-1.64,6.32-4.94,6.32-8.54
		c0-3.69-2.52-6.25-6.36-6.25c-3.95,0-6.35,2.74-6.35,6.2C618.51,161.8,621.03,165.13,624.9,166.77 M640.11,172.98h-4.51
		c-6.36,0-7.09-0.41-10.7-2.46c-3.6,2.09-4.38,2.46-10.78,2.46h-7.48c-8.77,0-13.15-4.43-13.15-13.28v-6.57h3.2v6.57
		c0,6.8,3.24,10.1,9.67,10.1h10.47c1.68,0,3.23-0.37,4.64-1.11c-3.95-1.87-6.47-5.79-6.47-10c0-5.53,4.01-9.49,9.86-9.49
		c5.88,0,9.86,3.97,9.86,9.49c0,4.35-2.52,8.13-6.48,10c1.42,0.74,2.98,1.11,4.65,1.11h7.22V172.98z"/>
	<path class="st3" d="M649.69,143.44v21.51c0,5.34-2.23,8.04-6.7,8.04h-3.97v-3.16h2.91c1.97,0,3.24-0.64,3.87-1.92
		c0.47-0.82,0.68-2.28,0.68-4.39v-20.08H649.69z"/>
	<path class="st3" d="M665.86,172.98h-3.6c-1.66,0-3.02-0.59-4.16-1.72c-1.33-1.29-1.97-3.11-1.97-5.54v-22.29h3.3v20.38
		c0,2.08,0.31,3.6,0.9,4.51c0.51,0.77,1.37,1.23,2.6,1.41c0.33,0.05,0.7,0.05,2.93,0.05V172.98z"/>
	<path class="st3" d="M683.82,179.91h-3.3v-3.89h3.3V179.91z M696.42,168.37v4.61h-31.64v-3.19h27.76c0.05-0.6,0.1-1.15,0.1-1.64
		c0-7.72-4.08-12.15-11.23-12.15c-3.89,0-6.76,1.5-8.59,4.51c-0.45-0.51-1.37-1.41-2.78-2.83c2.6-3.24,6.35-4.84,11.31-4.84
		C690.44,152.84,696.42,158.87,696.42,168.37"/>
	<path class="st4" d="M503.86,408.58h-16.05v-87.09h16.05V408.58z M546.46,337.58c-27.12,0-36.92,17.21-36.92,17.21
		c0-32.48,36.92-33.16,36.92-33.16V337.58z"/>
	<path class="st3" d="M475.94,224.26h-31.81c0,0,14.28,6.73,15.76,18.3v24.04c0,8.18-5.12,12.42-10.81,14.6
		c-2.65,0.92-5.31,1.42-7.91,1.68c5.95,0.88,12.34,2.5,19.11,5.05c9.89-5.98,14.38-13.48,15.65-15.38V224.26z M429.06,185.9
		c19.32,0,33.05,4.5,46.88,21.21v-18.59c-13.9-11.14-32.01-15.1-46.58-15.1c-18.03,0-32.77,5.88-44.2,17.65
		c-11.33,11.6-16.96,26.42-16.96,44.48c0,16.35,5.39,30.3,16.21,41.84c4.38,4.64,9.23,8.39,14.58,11.27
		c5.72-2.72,13.94-5.57,24.31-6.4c-19.43-3.89-38.69-23.41-38.69-47.8C384.61,207.64,406.06,185.9,429.06,185.9"/>
	<path class="st3" d="M520.44,283.5c-10.82-2.71-16.64-10.48-16.64-22.12v-52.81h-16.05v57.84c0,10.19,5.4,22.78,19.36,27.58
		c16.13,5.55,31.74-3.9,34.64-12.74c1.27-3.84,0.85-5.83,0.85-5.83S535.47,287.25,520.44,283.5 M549.63,295.68h16.03v-87.09h-16.03
		V295.68z"/>
	<path class="st4" d="M557.98,321.49h19.39l35.13,64.97l25.58-64.97h17.95L610.9,432.53c-1.7,4.06-11.3,25.53-33.24,20.55
		c-9.65-2.18-14.86-10.1-14.86-10.1s12.57,4.32,23.09-3.52c10.14-7.1,18.8-34.86,18.8-34.86L557.98,321.49z"/>
	<path class="st4" d="M475.94,320.13c-13.83-16.7-27.57-21.2-46.88-21.2c-23,0-44.45,21.72-44.45,48.54
		c0,26.8,23.27,47.8,44.45,48.54c12.5,0.44,25.72-1.76,46.66-10.37c-2.22,3.3-13.57,23.16-46.36,23.16
		c-18.37,0-33.37-6.13-44.95-18.4c-10.82-11.53-16.21-25.5-16.21-41.85c0-18.04,5.64-32.86,16.96-44.45
		c11.44-11.78,26.17-17.68,44.2-17.68c14.57,0,32.68,3.97,46.58,15.12V320.13z"/>
	<path class="st4" d="M728.76,333.45c8.4,8.18,12.61,18.7,12.61,31.59c0,12.89-4.21,23.42-12.61,31.59
		c-8.22,7.99-18.48,11.97-30.81,11.97c-13.08,0-23.75-4.36-32.01-13.11c-7.67-8.21-11.52-18.14-11.52-29.8
		c0-12.83,4.01-23.38,12.08-31.64c8.13-8.39,18.62-12.57,31.45-12.57C710.32,321.48,720.58,325.48,728.76,333.45 M670.61,364.88
		c0,19.08,12.22,34.57,27.28,34.57c15.09,0,27.31-15.49,27.31-34.57c0-19.08-12.22-34.56-27.31-34.56
		C682.82,330.32,670.61,345.79,670.61,364.88"/>
	<path class="st3" d="M577.52,266.43v-84.2h16.03v79.16c0,11.63,5.81,19.41,16.64,22.12c15.05,3.75,22.18-8.07,22.18-8.07
		s0.41,1.98-0.85,5.83c-2.91,8.84-18.52,18.29-34.65,12.74C582.91,289.19,577.52,276.61,577.52,266.43"/>
	<path class="st3" d="M644.44,211.46c0-10.18,5.4-22.76,19.33-27.57c16.14-5.54,31.75,3.91,34.67,12.74
		c1.27,3.86,0.85,5.83,0.85,5.83s-7.14-11.81-22.16-8.06c-10.82,2.71-16.65,10.48-16.65,22.11v9.43h28.96v7.43h-28.96v62.3h-16.03
		v-62.3h-12.08v-7.43h12.08V211.46z"/>
	<path class="st4" d="M101.14,173.11h235.65v235.66h-85.09c42.1-18.88,71.21-59.41,71.21-106.35c0-65-55.75-117.68-124.51-117.68
		c-39.36,0-74.45,17.25-97.26,44.19V173.11z M156.01,408.77h-54.87v-34.93c16.23,16.5,40.65,22.38,70.95,16.54
		c-30.08-12.94-51.59-47.44-51.59-87.97c0-51.63,34.86-93.47,77.9-93.47c43.03,0,77.9,41.84,77.9,93.47
		c0,33.01-14.27,62.03-35.83,78.65C235.63,385.65,211.99,405.14,156.01,408.77"/>
</g>
</svg>
