<svg version="1.2" xmlns="http://www.w3.org/2000/svg" viewBox="110 25 1380 212" width="1457" height="212">
	<style>
		.s0 { fill: #194299 } 
		.s1 { fill: #939598 } 
		.s2 { fill: #ffffff } 
	</style>
	<g id="Layer_1">
		<g>
			<g>
				<g>
					<g>
						<path fill-rule="evenodd" class="s0" d="m113.13 110.16l13.45 39.29h-8.26l-2.67-7.85h-14.57l-2.71 7.85h-8.26l13.68-39.29zm-4.64 9.42l-4.85 15.27h10.04z"/>
						<path class="s0" d="m131.03 149.45v-29.2h7.52v5.67h0.11q0.78-2.6 3.52-4.6 2.3-1.67 4.34-1.67 0.48 0 1.04 0.11v7.68q-1.63-0.15-2.6-0.15-5.59 0-6.41 5.71v16.45z"/>
						<path fill-rule="evenodd" class="s0" d="m176.84 137.22h-19.38q-0.34 3.04 0.89 4.67 1.92 2.71 5.11 2.71 2 0 3.65-1.02 1.65-1.02 1.95-2.36h7.45q-0.93 4.01-5.23 6.82-3.97 2.64-8.08 2.64-4.23 0-7.6-2.19-3.96-2.59-5.22-6.97-0.37-1.26-0.56-3.56-0.26-3.15 0.26-6.26 2-11.94 13.16-11.94 7.52 0 11.12 5.79 2.52 4 2.52 9.52 0 0.85-0.04 2.15zm-19.38-5.04h11.56q0-5.85-5.3-6.12-3.15-0.14-4.89 1.93-1.45 1.75-1.37 4.19z"/>
						<path fill-rule="evenodd" class="s0" d="m206.82 137.22h-19.38q-0.33 3.04 0.89 4.67 1.93 2.71 5.11 2.71 2.01 0 3.66-1.02 1.64-1.02 1.94-2.36h7.45q-0.93 4.01-5.22 6.82-3.97 2.64-8.09 2.64-4.22 0-7.59-2.19-3.97-2.59-5.23-6.97-0.37-1.26-0.56-3.56-0.26-3.15 0.26-6.26 2-11.94 13.16-11.94 7.52 0 11.12 5.79 2.52 4 2.52 9.52 0 0.85-0.04 2.15zm-19.38-5.04h11.56q0-5.85-5.3-6.12-3.15-0.14-4.89 1.93-1.45 1.75-1.37 4.19z"/>
						<path class="s0" d="m212.35 153.01v-32.76h7.52v34.65q0 2.11-1.22 3.84-1.22 1.72-3.19 2.09-2.37 0.45-6.67 0.45v-6.23q1.93 0 2.26-0.11 1.3-0.3 1.3-1.93zm0-36.1v-6.75h7.52v6.75z"/>
						<path class="s0" d="m239.59 110.16h31.46v6.75h-11.52v32.54h-8.05v-32.54h-11.89z"/>
						<path class="s0" d="m275.13 149.45v-29.2h7.53v5.67h0.11q0.78-2.6 3.52-4.6 2.3-1.67 4.34-1.67 0.48 0 1.03 0.11v7.68q-1.63-0.15-2.59-0.15-5.6 0-6.41 5.71v16.45z"/>
						<path fill-rule="evenodd" class="s0" d="m320.94 149.45h-7.97q-0.92-1.18-0.81-2.92-2.26 2.14-4.04 3.03-2.26 1.12-5.34 1.12-8.93 0-8.63-8.97 0.33-7.82 8.48-9.23 4.15-0.15 7.6-1.34 1.97-0.7 1.85-3.3-0.11-2.67-4.92-2.67-4.71 0.01-4.97 4.79h-7.12q0.11-10.19 12.09-10.2 4.26 0 6.89 1.08 5.22 2.15 5.22 8.19v15.94q0.01 1.96 1.67 3.44zm-8.86-12.08v-1.67q-1.33 0.82-3.55 1.15-1.71 0.22-3.45 0.41-1.48 0.26-2.47 1.3-0.98 1.04-0.98 2.41 0 1.33 0.74 2.22 0.89 1.37 3.04 1.37 0.67 0 1.41-0.11 5.26-0.85 5.26-7.08z"/>
						<path class="s0" d="m323.46 120.25h7.97l6.08 21.38 6.08-21.38h8l-10.15 29.2h-7.9z"/>
						<path fill-rule="evenodd" class="s0" d="m380.91 137.22h-19.38q-0.34 3.04 0.89 4.67 1.92 2.71 5.11 2.71 2 0 3.65-1.02 1.65-1.02 1.95-2.36h7.45q-0.93 4.01-5.23 6.82-3.96 2.64-8.08 2.64-4.22 0-7.6-2.19-3.96-2.59-5.22-6.97-0.37-1.26-0.56-3.56-0.26-3.15 0.26-6.26 2-11.94 13.16-11.94 7.52 0 11.12 5.79 2.52 4 2.52 9.52 0 0.85-0.04 2.15zm-19.38-5.04h11.56q0-5.85-5.3-6.12-3.15-0.14-4.89 1.93-1.45 1.75-1.37 4.19z"/>
						<path class="s0" d="m386.25 110.16h7.56v39.29h-7.56z"/>
						<path fill-rule="evenodd" class="s1" d="m444.92 131.33q0 4.11-3.11 9.15l7.34 8.9h-7.9l-3.04-3.63q-1.33 1.37-2.54 2.31-1.2 0.95-2.52 1.52-1.31 0.58-2.81 0.84-1.5 0.25-3.43 0.26-2.63 0-4.73-0.86-2.09-0.85-3.57-2.31-1.49-1.47-2.32-3.41-0.83-1.95-0.91-4.14v-0.59q0-1.81 0.35-3.31 0.36-1.51 1.08-2.75 0.72-1.24 1.85-2.33 1.13-1.1 2.73-2.17l2.18-1.52-1.37-1.82q-2.33-3.37-2.33-6.67 0-1.81 0.72-3.45 0.72-1.63 2.04-2.85 1.31-1.22 3.15-1.95 1.83-0.72 4.02-0.72 2.04 0 3.8 0.8 1.76 0.8 3.04 2.05 1.28 1.27 2 2.86 0.72 1.59 0.72 3.19 0 2.66-1.26 4.76-1.26 2.09-3.74 3.72l-2.11 1.37 5.67 7.05q1.14-2.89 1.14-4.64v-0.96h5.86zm-17.31 13.64q1.11-0.07 2-0.29 0.89-0.23 1.73-0.65 0.83-0.43 1.67-1.08 0.83-0.64 1.79-1.53l-7.74-9.71q-1.75 1.11-2.84 1.96-1.09 0.85-1.7 1.65-0.62 0.8-0.84 1.63-0.22 0.83-0.22 1.87v0.56q0 1.11 0.52 2.13 0.52 1.02 1.35 1.78 0.83 0.76 1.91 1.22 1.08 0.47 2.22 0.46zm5.23-28.09q-0.67-1.82-3.33-1.82-3.78 0-3.78 3.9-0.01 0.59 0.09 1.01 0.09 0.43 0.28 0.8 0.18 0.37 0.46 0.72 0.28 0.36 0.69 0.8 0.25 0.56 1.59 1.96 2-1 3.22-2.39 1.23-1.38 1.23-2.98 0-0.96-0.45-1.93z"/>
						<path class="s1" d="m478.91 149.45v-33.32h-12.38v-5.78h30.99v5.78h-12.24v33.32z"/>
						<path fill-rule="evenodd" class="s1" d="m527.87 135.33q0 3.74-0.89 6.6-0.89 2.85-2.56 4.8-1.66 1.95-4.09 2.94-2.43 1.01-5.51 1.01-6.15 0-9.56-3.92-3.41-3.9-3.41-11.43 0-3.7 0.89-6.56 0.89-2.85 2.56-4.8 1.67-1.94 4.07-2.93 2.41-0.98 5.45-0.98 3.08 0 5.51 0.98 2.43 0.99 4.09 2.93 1.67 1.95 2.56 4.8 0.89 2.86 0.89 6.56zm-5.89 0q0-1.85-0.47-3.56-0.46-1.7-1.35-3-0.89-1.3-2.22-2.07-1.34-0.78-3.12-0.78-1.55 0-2.85 0.7-1.3 0.71-2.22 1.95-0.93 1.24-1.45 2.98-0.52 1.74-0.52 3.78 0 2 0.5 3.75 0.5 1.73 1.43 3.02 0.92 1.28 2.22 2 1.3 0.72 2.89 0.72 1.67 0 3.01-0.76 1.33-0.76 2.24-2.06 0.91-1.3 1.41-3.02 0.5-1.72 0.5-3.65z"/>
						<path class="s1" d="m558.48 149.45h-5.7l-0.15-1.59q-1.45 1.52-3.3 2.17-1.85 0.64-4.6 0.65-2.33 0-3.98-0.5-1.65-0.5-2.78-1.45-1.13-0.95-1.74-2.34-0.61-1.38-0.84-3.16v-22.39h5.86v19.86q0 2.12 1.02 3.27 1.02 1.15 3.13 1.15h0.41q1.7 0 2.98-0.63 1.28-0.63 2.13-1.8 0.86-1.17 1.28-2.78 0.43-1.62 0.43-3.58v-15.49h5.85z"/>
						<path class="s1" d="m567.68 149.45v-28.61h5.85v2.59q1.26-1.55 2.75-2.46 1.48-0.91 2.77-0.91h3.19v6.08q-8.71 0-8.71 8.52v14.79z"/>
						<path class="s1" d="m591.06 139.96q0.19 2.67 1.97 4.12 1.78 1.44 5.71 1.44 0.59-0.11 1.39-0.33 0.79-0.22 1.52-0.65 0.72-0.42 1.22-1.11 0.5-0.69 0.5-1.72 0-1.34-0.96-1.97-0.97-0.63-2.66-1.07-1.68-0.45-3.96-0.95-2.28-0.5-4.95-1.54-2.26-0.77-3.37-2.7-1.11-1.93-1.11-4.52 0-2.04 0.83-3.67 0.83-1.63 2.28-2.8 1.45-1.17 3.41-1.8 1.96-0.63 4.19-0.63 10.64 0 10.78 9.82h-5.7q0-4.26-5.45-4.26-0.97 0-1.82 0.28-0.85 0.28-1.52 0.74-0.67 0.46-1.06 1.07-0.38 0.62-0.38 1.32 0 1.41 1.9 2.17 1.91 0.76 5.4 1.46 2.92 0.78 4.84 1.52 1.9 0.74 3.02 1.69 1.11 0.94 1.55 2.22 0.45 1.28 0.45 3.1v0.22q0 1.93-0.84 3.61-0.83 1.69-2.26 2.95-1.43 1.26-3.33 1.98-1.91 0.73-4.06 0.73h-0.15q-0.15 0-0.37 0.03-0.22 0.04-0.37 0.04h-0.71q-5.78 0-8.58-2.72-2.8-2.73-2.8-8.07z"/>
					</g>
				</g>
				<g>
					<g>
						<path fill-rule="evenodd" class="s1" d="m1018.76 141.46v7.93h-11.69l-0.98-4.74-2.3 3.76-13.1-1.9 2.64-8.08q0.58-1.68 2.11-2.54l7.9-4.19-0.34-1.35 5.54-4.8 3.34 15.91zm-13.59-0.88l-0.98-4.78-6.65 3.67zm7.35-23.66l-4.01 3.55-2.85-2.42-2.6 2.42-4.96-4.62 3.71-3.52 2.81 2.45 2.76-2.45z"/>
						<path class="s1" d="m1056.41 138.37l-4.71 7.38q-3.55-0.8-6.34-0.8-3.91 0-6.82 2.64-0.95 0.82-1.41 1.16-0.83 0.64-2.79 0.64h-16.37v-7.93h21.12q-2.21-0.7-5.27-2.54-3.89-2.29-6.03-2.29-0.67 0-1.99 0.33 0.49-0.64 2.51-2.93 1.2-1.29 2.08-2.15 1.56-1.46 2.91-1.47 1.41 0 3.8 1.29l3.7 1.96q4.78 2.54 8.15 3.55 2.75 0.88 7.46 1.16z"/>
						<path class="s1" d="m1074.35 141.46v7.93h-10.53q-3.25 0-3.25-2.6v-1.5l-0.06-1.04v-21.4l6.37-6.73v22.37q0 1.9 0.32 2.44 0.32 0.53 2.07 0.53z"/>
						<path class="s1" d="m1082.74 149.39h-9.25v-7.93h9.49l-0.98-3.18 4.84-4.78 2.33 7.96h6.51v7.93h-10.31l-0.76-2.39zm-4.96 8.36l3.98-3.52 2.84 2.39 2.61-2.39 4.99 4.59-3.8 3.55-2.79-2.48-2.72 2.48z"/>
						<path class="s1" d="m1142.27 141.46h6.67l0.19 7.93h-7.07l-1.57-2.75-1.13 2.75h-10.25l-1.23-2.75-2.14 2.75h-11.66l-1.22-2.75-2.15 2.75h-15.79v-7.93h15.61l-2.7-5.97 4.02-4.99 5.14 10.96h8.54l-2.64-5.97 3.98-4.99 5.18 10.96h5.66q-1.07-3.39-2.63-4.99l4.53-6.24q3.03 3.8 3.03 8.26 0 1.57-0.37 2.97z"/>
						<path class="s1" d="m1165.96 121.08l-2.36 5.54-1.04-0.46 0.95 11.75q0 2.05-0.58 3.8-0.37 1.1-1.16 3.38-0.8 2.28-1.69 4.3h-11.78v-7.93h9.8l-1.41-17.63q-0.19 0-0.31-0.09-1.31-0.46-1.32-1.59 0-0.58 0.55-1.35l0.56-0.89 2.66-4.07q0 1.17 0.35 1.76 0.35 0.6 0.96 0.94 0.34 0.18 1.11 0.52z"/>
						<path class="s1" d="m1175.3 116.12l1.44 9.12-1.26 1.32v0.58q0 0.15 0.23 3.82 0.23 3.68 0.23 5.51 0 5.36-1.22 8.48-1.23 3.12-4.66 6.46 0.19-2.11 0.19-5.14 0-2.91-0.19-6.03l-0.97-15.34q0-0.24-0.1-1.07z"/>
						<path fill-rule="evenodd" class="s1" d="m1192.47 149.39h-3.09q-4.04 0-5.67-0.82-1.13-0.59-1.91-1.92-0.78-1.33-0.78-2.74 0-2.51 1.35-5.77 1.35-3.26 3.61-5.95 1.84-2.27 3.64-2.26 2.05-0.01 4.07 2.75 1.17 1.59 1.96 3.43 1.84 4.34 1.84 9.12 0 3.83-1.61 7.65-1.61 3.83-4.39 6.74-1.96 2.05-3.89 2.05-1.44 0-3.46-1.81-1.86-1.65-4.13-5.14l-0.43-0.58q0.46 0.09 0.61 0.15 2.21 0.52 3.62 0.52 2.97 0 5.38-1.65 2.12-1.44 3.28-3.77zm-0.46-7.93q-0.76-4.77-3.09-4.77-1.07 0-1.87 0.87-0.8 0.87-0.79 2.1 0 1.8 2.2 1.8z"/>
						<path class="s0" d="m1223.63 141.46h6.86v7.93h-7.01l-0.03 0.15q-1.62 4.84-4.25 8.36-2.82 3.77-5.21 3.77-3.15-0.01-8.05-7.78 2.48 0.83 4.19 0.83 2.94 0 5.88-2.15 2.14-1.55 3.95-5.2l0.24-0.46q-0.76-1.77-2.14-3.98-1.23-1.99-2.2-3.03l4.34-5.11 0.4 0.61q2.2 3.58 2.97 5.91z"/>
						<path fill-rule="evenodd" class="s0" d="m1261.37 141.46v7.93h-14.02l-2.69-1.77-2.02 1.77h-12.95v-7.93h7.04q1.87-3.27 3.64-5.75 5.18-7.35 8.79-7.35 2.17 0 3.73 1.91 1.56 1.92 1.56 4.52 0 2.23-1.04 4.53-0.21 0.46-1.07 2.14zm-10.22-21.64l-3.74 3.49-5.23-4.47 3.79-3.58zm-4.86 21.22l2.94-1.78q0.08-0.58 0.09-0.73 0-1.17-0.65-1.95-0.64-0.78-1.56-0.78-2.02 0-3.61 3.03z"/>
						<path class="s0" d="m1307.9 141.46h6.67l0.18 7.93h-7.07l-1.56-2.75-1.13 2.75h-10.25l-1.23-2.75-2.14 2.75h-11.66l-1.23-2.75-2.14 2.75h-15.8v-7.93h15.62l-2.7-5.97 4.01-4.99 5.15 10.96h8.53l-2.63-5.97 3.98-4.99 5.17 10.96h5.67q-1.08-3.39-2.63-4.99l4.53-6.24q3.02 3.8 3.02 8.26 0.01 1.57-0.36 2.97z"/>
						<path class="s0" d="m1335.02 141.46v7.93h-9.74q-1.87 0-2.51-0.18-1.25-0.4-1.5-1.78l-1.28 1.96h-6.06v-7.93h7.34v-18.48l6.37-6.89v22.07q0 0.21 0.03 1.96 0 0.33 0.21 0.84 0.22 0.5 1.38 0.5z"/>
						<path class="s0" d="m1351.88 121.08l-2.35 5.54-1.05-0.46 0.95 11.75q0 2.05-0.58 3.8-0.37 1.1-1.16 3.38-0.79 2.28-1.68 4.3h-11.79v-7.93h9.8l-1.41-17.63q-0.19 0-0.31-0.09-1.31-0.46-1.31-1.59 0-0.58 0.55-1.35l0.55-0.89 2.66-4.07q0 1.17 0.35 1.76 0.35 0.6 0.97 0.94 0.33 0.18 1.1 0.52z"/>
						<path fill-rule="evenodd" class="s0" d="m1387.64 136.29q-4.75 0.89-9.37 3.86-2.85 1.86-4.55 4.4-1.7 2.55-1.7 5.09 0 4.4 4.46 7.07 4.45 2.66 11.73 2.66 4.84 0 10.14-1.01-0.98 0.64-2.94 2.33-1.07 0.97-3 2.93l-1.96 1.99q-0.89 0.95-2.05 1.14-3.4 0.55-5.66 0.55-3.43 0-6.6-0.94-3.17-0.93-5-2.49-1.96-1.72-3.2-4.75-1.24-3.03-1.24-6.27 0-9.8 9.85-17.69-1.59-0.28-2.93-0.28-3.58 0-6.31 1.44l1.65-4.53q0.83-2.23 2.27-3.09 1.44-0.86 4.34-0.86 0.83 0 2.09 0.09l5.63 0.43q3.12 0.25 6.15 0.25 1.81 0 4.17-0.03 3.09-0.06 5.66-0.52l-3.95 7.65h-1.84l-0.64 0.06h-0.24l0.88 2.39q0.61 1.5 1.27 2.4 0.66 0.9 3.17 0.9h7.74v7.93h-9.76q-2.36 0-3.6-0.78-1.24-0.78-1.94-2.1-0.8-1.56-1.65-5.38zm-1.32 13.1l-3.77 3.52-5.17-4.5 3.8-3.55z"/>
						<path class="s0" d="m1422.5 141.46v7.93h-17.76v-7.93z"/>
						<path class="s0" d="m1438.72 141.46v7.93h-17.75v-7.93z"/>
						<path class="s0" d="m1454.94 141.46v7.93h-17.75v-7.93z"/>
						<path class="s0" d="m1471.17 141.46v7.93h-17.76v-7.93z"/>
						<path class="s0" d="m1482.06 130.23q3.04 3.58 3.04 8.14-0.01 2.57-1.5 6.67-0.83 2.24-1.75 4.35h-12.09v-7.93h10.44q-0.95-3.27-2.67-4.99zm-11.66 27.52l4.01-3.52 2.85 2.39 2.63-2.39 4.99 4.59-3.77 3.55-2.84-2.48-2.7 2.48z"/>
						<path class="s0" d="m1496.05 134.79q3.92 6 3.92 10.25 0 2.58-1.12 5.96-1.11 3.38-2.83 5.86-3.27 4.81-6.18 4.81-3.15-0.01-8.05-7.78 2.48 0.83 4.2 0.83 2.99 0 5.87-2.15 2.14-1.62 3.95-5.2l0.24-0.46q-0.76-1.77-2.14-3.98-1.22-1.99-2.2-3.03z"/>
						<path class="s0" d="m1512.61 111.35l-1.19 3.51q-2.39 0.25-3.86 0.8-2.6 0.98-4.56 3.3 0.31-2.56 1.84-4.34-2.27-0.49-2.27-2.79 0-1.01 1.23-3.09 2.14-3.58 5.72-3.58 2.36 0 2.36 1.01 0 0.15-0.65 1.47l-0.73 1.5q-1.19-0.52-2.51-0.52-2.05 0-3.37 1.32 1.87 1.96 5.33 1.95 1.07 0.01 2.66-0.54zm-0.95 4.77l1.41 9.12-1.19 1.32v0.58q0 0.15 0.21 3.82 0.22 3.68 0.22 5.51 0 5.36-1.23 8.48-1.22 3.12-4.62 6.46 0.18-2.11 0.18-5.14 0-2.91-0.18-6.03l-0.98-15.34q0-0.24-0.12-1.07z"/>
					</g>
				</g>
			</g>
			<g>
				<path class="s0" d="m889.76 124.97c4.45 52.85-34.78 99.32-87.63 103.77-52.85 4.47-99.33-34.76-103.78-87.62-4.47-52.85 34.76-99.32 87.62-103.77 52.85-4.47 99.31 34.76 103.79 87.62z"/>
				<g>
					<path class="s2" d="m878.19 187.09c-75.28-6.18-131.5-72.46-125.32-147.74l5.35 0.44c-5.94 72.34 48.08 136.01 120.41 141.95z"/>
				</g>
				<g>
					<g>
						<path class="s1" d="m935.25 189.87c2.88-0.04 5.18-1.43 5.16-3.1-0.02-1.6-2.16-2.88-4.85-2.96l-19.52-2.04-21.33-25.94-6.85-0.12 13.82 25.57-25.63 0.15-6.81-7.57-4.29-0.19 6.17 9.26-2.94 1.21 3.2 1.31-7.29 9 4.57-0.5 7.32-6.59 25.99 1.5-16.09 23.64 6.02 0.42 24.51-22.63c0 0 14.63-0.08 18.64-0.42q0.1 0 0.2 0z"/>
					</g>
					<g>
						<path class="s1" d="m916.7 178.76l-8.25 0.8-0.33-3.4 8.25-0.79z"/>
					</g>
					<g>
						<path class="s1" d="m915.62 197.45l-8.19-1.18 0.48-3.38 8.19 1.18z"/>
					</g>
				</g>
			</g>
		</g>
	</g>
</svg>
