<?xml version="1.0" encoding="utf-8"?>
<!-- Generator: Adobe Illustrator 25.0.1, SVG Export Plug-In . SVG Version: 6.00 Build 0)  -->
<svg version="1.0" id="katman_1" xmlns="http://www.w3.org/2000/svg" xmlns:xlink="http://www.w3.org/1999/xlink" x="0px" y="0px"
	 viewBox="0 0 434 281" style="enable-background:new 0 0 434 281;" xml:space="preserve">
<style type="text/css">
	.st0{fill-rule:evenodd;clip-rule:evenodd;fill:#CE1126;}
</style>
<desc>Created with Sketch.</desc>
<g id="rtx_logo">
	<path id="Fill-1" class="st0" d="M184.3,135.3l-7.2-16.6h6.7l3.6,9.4l3.4-9.4h6.5l-10.9,25.2h-6.2L184.3,135.3z M89.1,127.8
		c0.6,0.1,1.3,0.2,1.9,0.3l3.3-18.9c-0.6-0.1-1.2-0.2-1.9-0.3L89.1,127.8z M79.2,131.2l-14.5-12.3c-0.7,0.7-1.3,1.5-1.9,2.3
		l14.4,12.3C77.8,132.6,78.4,131.9,79.2,131.2L79.2,131.2z M104.4,113.4c-0.5-0.3-1-0.6-1.5-0.9l-9.5,16.6c0.5,0.3,1.1,0.6,1.6,0.9
		L104.4,113.4z M111.5,119.6l-14.4,12.2c0.4,0.4,0.7,0.8,1,1.2l14.4-12.2C112.2,120.4,111.9,120,111.5,119.6L111.5,119.6z
		 M75.4,137.7c0.3-1.1,0.7-2.2,1.2-3.2L58.9,128c-0.4,1-0.8,2.1-1.2,3.2L75.4,137.7z M100.6,140.6c0,7.1-5.7,12.8-12.8,12.8
		c-6.3,0-11.5-4.6-12.6-10.7l-17.7,6.5c0.4,1.4,0.9,2.7,1.4,4l17.6-6.5L62.2,159c0.9,1.3,1.9,2.5,3,3.6l13.4-11.4l-8.7,15.4
		c1.4,1,2.9,1.8,4.4,2.6l8.2-14.5l-2.9,16.5c1.8,0.5,3.6,0.8,5.4,1l2.7-15.4l2.7,15.4c2-0.2,3.8-0.5,5.7-1l-2.5-14.3l7.2,12.6
		c2-0.9,3.8-2,5.5-3.3l-6.6-11.5l10.1,8.5c1.6-1.6,3-3.4,4.3-5.3l-9-7.6l11,4.1c1-2.1,1.8-4.4,2.3-6.7l-9.7-3.6l10.3,0
		c0.1-1.2,0.2-2.4,0.2-3.6c0-1.4-0.1-2.8-0.3-4.2H99.8C100.3,137.7,100.6,139.1,100.6,140.6L100.6,140.6z M75.1,140.6
		c0-0.7,0.1-1.4,0.2-2.1H56.4c0,0.7-0.1,1.3-0.1,2c0,0.6,0,1.2,0.1,1.9h18.8C75.1,141.8,75.1,141.2,75.1,140.6L75.1,140.6z
		 M80.4,130.1c0.7-0.5,1.4-0.9,2.2-1.3l-9.5-16.6c-0.8,0.4-1.5,0.8-2.2,1.3L80.4,130.1z M81.3,109.3c0.7-0.1,1.4-0.3,2.1-0.4
		l3.3,18.9c-0.7,0.1-1.4,0.2-2.1,0.4L81.3,109.3z M251.2,171.7h2.9v-25.2h-2.9V171.7z M304.4,147.3c0.4,0.4,0.5,0.9,0.5,1.5
		c0,0.6-0.2,1.1-0.5,1.5c-0.4,0.4-0.8,0.6-1.4,0.6s-1.1-0.2-1.4-0.6c-0.4-0.4-0.5-0.9-0.5-1.5c0-0.6,0.2-1.1,0.5-1.5
		c0.4-0.4,0.8-0.6,1.4-0.6S304.1,146.9,304.4,147.3L304.4,147.3z M226.7,136.3v-9.5c0-2.1-0.8-3.1-2.3-3.1c-0.9,0-1.5,0.3-1.9,0.9
		c-0.4,0.6-0.7,1.4-0.7,2.5v9.3h-6.1v-25.9h6.1v10.2c0.5-0.8,1.2-1.4,2-1.8c0.9-0.4,1.8-0.6,2.9-0.6c2,0,3.5,0.6,4.6,1.9
		c1,1.2,1.5,3.1,1.5,5.6v10.7H226.7z M243.6,166c-0.3,0.8-0.7,1.4-1.2,2c-0.5,0.5-1.1,1-1.8,1.3c-0.7,0.3-1.5,0.5-2.4,0.5
		c-0.9,0-1.7-0.2-2.4-0.5c-0.7-0.3-1.3-0.7-1.8-1.3c-0.5-0.5-0.9-1.2-1.2-2c-0.3-0.8-0.4-1.7-0.4-2.6c0-1,0.1-1.8,0.4-2.6
		c0.3-0.8,0.7-1.4,1.2-2c0.5-0.5,1.1-1,1.8-1.3c0.7-0.3,1.5-0.5,2.4-0.5c0.9,0,1.7,0.2,2.4,0.5c0.7,0.3,1.3,0.7,1.8,1.3
		c0.5,0.5,0.9,1.2,1.2,2c0.3,0.8,0.4,1.7,0.4,2.6C244,164.3,243.9,165.2,243.6,166L243.6,166z M244.4,157c-0.8-0.8-1.7-1.4-2.8-1.9
		c-1.1-0.5-2.2-0.7-3.5-0.7c-1.2,0-2.4,0.2-3.5,0.7c-1.1,0.5-2,1.1-2.8,1.9c-0.8,0.8-1.4,1.7-1.8,2.8c-0.4,1.1-0.7,2.3-0.7,3.5
		c0,1.3,0.2,2.5,0.7,3.5c0.4,1.1,1.1,2,1.8,2.8c0.8,0.8,1.7,1.4,2.8,1.9c1.1,0.5,2.2,0.7,3.5,0.7c1.2,0,2.4-0.2,3.5-0.7
		c1.1-0.5,2-1.1,2.8-1.9c0.8-0.8,1.4-1.7,1.8-2.8c0.4-1.1,0.7-2.3,0.7-3.5c0-1.3-0.2-2.5-0.7-3.5C245.8,158.7,245.2,157.8,244.4,157
		L244.4,157z M301.6,171.7h2.9v-16.8h-2.9V171.7z M292.6,120c1,1.2,1.5,3.1,1.5,5.6v10.7h-6.1v-9.5c0-2.1-0.8-3.1-2.3-3.1
		c-0.9,0-1.5,0.3-1.9,0.9c-0.4,0.6-0.7,1.4-0.7,2.5v9.3H277v-17.6h6l0.1,2.2c0.5-0.9,1.1-1.5,2-2c0.9-0.5,1.9-0.7,3-0.7
		C290.1,118.2,291.6,118.8,292.6,120L292.6,120z M240.6,125.9c0.5-2.4,1.7-3.6,3.8-3.6c1,0,1.8,0.3,2.5,0.9c0.6,0.6,1,1.5,1.2,2.6
		H240.6z M253.1,126.9c0-1.4-0.2-2.6-0.6-3.7c-0.4-1.1-1-2-1.7-2.8c-0.7-0.8-1.6-1.3-2.7-1.8c-1.1-0.4-2.2-0.6-3.6-0.6
		c-1.4,0-2.6,0.2-3.7,0.7c-1.1,0.5-2.1,1.1-2.9,1.9c-0.8,0.8-1.4,1.8-1.9,2.9c-0.4,1.1-0.7,2.4-0.7,3.8c0,1.4,0.2,2.7,0.7,3.9
		c0.5,1.2,1.2,2.1,2.1,2.9c0.9,0.8,2,1.4,3.3,1.9c1.3,0.4,2.8,0.6,4.4,0.6c1.4,0,2.7-0.2,3.9-0.5c1.3-0.3,2.3-0.8,3.2-1.4l-1.9-3.9
		c-0.7,0.3-1.5,0.6-2.4,0.7c-0.8,0.2-1.6,0.3-2.3,0.3c-2.8,0-5.2-1-5.8-3h12.3C253.1,128.5,253.1,127.8,253.1,126.9L253.1,126.9z
		 M267.6,130.5c-0.7,0.8-1.6,1.2-2.8,1.2c-1.2,0-2.1-0.4-2.8-1.2c-0.7-0.8-1.1-1.8-1.1-3c0-1.2,0.3-2.3,1.1-3
		c0.7-0.8,1.6-1.2,2.8-1.2c1.2,0,2.1,0.4,2.8,1.2c0.7,0.8,1,1.8,1,3C268.7,128.7,268.3,129.7,267.6,130.5L267.6,130.5z M271.7,120.8
		c-0.9-0.8-1.9-1.5-3-2c-1.2-0.5-2.5-0.7-3.8-0.7c-1.4,0-2.7,0.2-3.8,0.7c-1.2,0.5-2.2,1.1-3,2c-0.9,0.8-1.5,1.8-2,3
		c-0.5,1.1-0.7,2.4-0.7,3.7s0.2,2.6,0.7,3.7c0.5,1.1,1.2,2.1,2,3c0.9,0.8,1.9,1.5,3,2c1.2,0.5,2.4,0.7,3.8,0.7
		c1.4,0,2.7-0.2,3.8-0.7c1.2-0.5,2.2-1.1,3-2c0.9-0.8,1.5-1.8,2-3c0.5-1.1,0.7-2.4,0.7-3.7s-0.2-2.6-0.7-3.7
		C273.2,122.6,272.6,121.7,271.7,120.8L271.7,120.8z M223.6,156.3c1,1.2,1.6,3,1.6,5.4v10h-2.9v-9.5c0-1.8-0.3-3.1-0.9-4
		c-0.6-0.8-1.6-1.3-3-1.3c-1.5,0-2.6,0.5-3.5,1.5c-0.8,1-1.2,2.4-1.2,4.1v9.1h-2.9v-16.8h2.7l0,3c0.4-0.9,1-1.7,1.7-2.3
		c1-0.8,2.3-1.2,3.8-1.2C221.1,154.4,222.6,155,223.6,156.3L223.6,156.3z M272.3,166c-0.3,0.8-0.7,1.4-1.2,2c-0.5,0.5-1.1,1-1.8,1.3
		c-0.7,0.3-1.5,0.5-2.4,0.5c-0.9,0-1.7-0.2-2.4-0.5c-0.7-0.3-1.3-0.7-1.8-1.3c-0.5-0.5-0.9-1.2-1.2-2c-0.3-0.8-0.4-1.7-0.4-2.6
		c0-1,0.1-1.8,0.4-2.6c0.3-0.8,0.7-1.4,1.2-2c0.5-0.5,1.1-1,1.8-1.3c0.7-0.3,1.5-0.5,2.4-0.5c0.9,0,1.7,0.2,2.4,0.5
		c0.7,0.3,1.3,0.7,1.8,1.3c0.5,0.5,0.9,1.2,1.2,2c0.3,0.8,0.4,1.7,0.4,2.6C272.7,164.3,272.6,165.2,272.3,166L272.3,166z M273.2,157
		c-0.8-0.8-1.7-1.4-2.8-1.9c-1.1-0.5-2.2-0.7-3.5-0.7c-1.2,0-2.4,0.2-3.5,0.7c-1.1,0.5-2,1.1-2.8,1.9c-0.8,0.8-1.4,1.7-1.8,2.8
		c-0.4,1.1-0.7,2.3-0.7,3.5c0,1.3,0.2,2.5,0.7,3.5c0.4,1.1,1.1,2,1.8,2.8c0.8,0.8,1.7,1.4,2.8,1.9c1.1,0.5,2.2,0.7,3.5,0.7
		c1.2,0,2.4-0.2,3.5-0.7c1.1-0.5,2-1.1,2.8-1.9c0.8-0.8,1.4-1.7,1.8-2.8c0.4-1.1,0.7-2.3,0.7-3.5c0-1.3-0.2-2.5-0.7-3.5
		C274.6,158.7,274,157.8,273.2,157L273.2,157z M168.8,130.3c-0.7,0.7-1.5,1.1-2.5,1.1s-1.9-0.4-2.6-1.1c-0.7-0.7-1-1.7-1-2.8
		c0-1.2,0.3-2.1,1-2.8c0.7-0.7,1.5-1.1,2.6-1.1s1.9,0.4,2.5,1.1c0.7,0.7,1,1.7,1,2.8C169.7,128.6,169.4,129.6,168.8,130.3
		L168.8,130.3z M175.5,118.7h-5.7l-0.1,2c-0.5-0.8-1.2-1.5-2.1-1.9c-0.9-0.5-1.8-0.7-2.9-0.7c-1.2,0-2.2,0.2-3.2,0.7
		c-1,0.5-1.9,1.1-2.6,2c-0.7,0.8-1.3,1.8-1.7,3c-0.4,1.1-0.6,2.4-0.6,3.7c0,1.4,0.2,2.6,0.6,3.7c0.4,1.1,0.9,2.1,1.6,2.9
		c0.7,0.8,1.5,1.5,2.5,1.9c1,0.5,2,0.7,3.2,0.7c1.1,0,2.1-0.2,3-0.7s1.6-1.1,2.1-1.9l0.1,2h5.7V118.7z M340.6,167.2
		c0,1.6-0.6,2.8-1.8,3.7c-1.2,0.9-2.9,1.4-5,1.4c-1.1,0-2.2-0.2-3.2-0.5c-1.1-0.3-1.9-0.7-2.5-1.2l1.2-2.1c1.5,0.9,3,1.3,4.6,1.3
		c1.2,0,2.2-0.2,2.9-0.6c0.7-0.4,1-1,1-1.8c0-0.4,0-0.7-0.2-1c-0.1-0.3-0.3-0.5-0.6-0.7c-0.3-0.2-0.7-0.4-1.2-0.6
		c-0.5-0.2-1.2-0.4-2-0.7c-1.8-0.5-3.1-1.2-3.9-2c-0.8-0.8-1.2-1.8-1.2-3.1c0-1.5,0.6-2.6,1.7-3.5c1.1-0.9,2.6-1.3,4.5-1.3
		c0.9,0,1.8,0.1,2.7,0.4c1,0.3,1.8,0.6,2.4,1l-1.1,2.1c-1.4-0.7-2.8-1.1-4.1-1.1c-2.3,0-3.4,0.7-3.4,2.1c0,0.7,0.3,1.3,0.8,1.7
		c0.5,0.4,1.4,0.8,2.7,1.2c1.1,0.3,2,0.6,2.7,1c0.7,0.3,1.3,0.7,1.8,1.1c0.5,0.4,0.8,0.9,1,1.4C340.5,165.9,340.6,166.5,340.6,167.2
		L340.6,167.2z M154.5,149.1h-8.8v22.5h-3v-22.5h-8.8v-2.6h20.7V149.1z M141.2,115.6h1.9c2.9,0,4.4,1.2,4.4,3.5
		c0,2.4-1.5,3.6-4.5,3.6h-1.9V115.6z M144.5,127.9l4.5,8.4h7.5l-6.4-10.2c1.2-0.7,2.2-1.7,2.9-2.9c0.7-1.2,1-2.5,1-4
		c0-1.4-0.2-2.6-0.7-3.7c-0.5-1.1-1.1-2-2-2.8c-0.9-0.8-1.9-1.3-3.2-1.7c-1.2-0.4-2.7-0.6-4.2-0.6h-9.3v25.9h6.5v-8.3h1.9
		L144.5,127.9z M160.8,156.9c0.9,0,1.7,0.2,2.3,0.5c0.6,0.3,1.1,0.8,1.5,1.3c0.4,0.5,0.7,1.1,0.8,1.8c0.1,0.5,0.2,1.1,0.2,1.6h-10.2
		c0.2-1.4,0.6-2.6,1.4-3.5C157.9,157.5,159.2,156.9,160.8,156.9L160.8,156.9z M166.4,156.7c-0.7-0.7-1.5-1.3-2.4-1.7
		c-0.9-0.4-1.9-0.6-3-0.6c-1.2,0-2.3,0.2-3.4,0.7c-1,0.4-1.9,1.1-2.6,1.9c-0.7,0.8-1.3,1.8-1.7,2.9c-0.4,1.1-0.6,2.4-0.6,3.7
		c0,2.7,0.8,4.9,2.4,6.4c1.6,1.5,3.9,2.3,6.8,2.3c1.2,0,2.4-0.1,3.5-0.4c1.1-0.3,2.1-0.6,2.8-1.1l-1.1-2.1c-1.7,0.7-3.4,1.1-5.1,1.1
		c-2.1,0-3.8-0.5-4.9-1.5c-0.9-0.9-1.5-2.1-1.6-3.7h12.9c0-0.2,0-0.4,0.1-0.6c0-0.2,0-0.5,0-1c0-1.3-0.2-2.4-0.5-3.4
		C167.6,158.3,167.1,157.5,166.4,156.7L166.4,156.7z M316.8,156.9c2.9,0,4.5,1.5,4.9,4.4c0,0.2,0.1,0.4,0.1,0.6c0,0,0,0,0,0.1h-10.1
		c0.2-1.3,0.6-2.4,1.3-3.3C313.9,157.5,315.2,156.9,316.8,156.9L316.8,156.9z M322.4,156.7c-0.7-0.7-1.5-1.3-2.4-1.7
		c-0.9-0.4-2-0.6-3.1-0.6c-1.2,0-2.3,0.2-3.3,0.7c-1,0.4-1.9,1.1-2.6,1.9c-0.7,0.8-1.3,1.8-1.7,2.9c-0.4,1.1-0.6,2.3-0.6,3.6
		c0,2.8,0.8,5,2.4,6.5c1.6,1.5,3.8,2.3,6.7,2.3c1.2,0,2.4-0.1,3.6-0.4c1.1-0.3,2.1-0.7,3-1.2l-1-2.2c-1.8,0.8-3.6,1.3-5.4,1.3
		c-3.9,0-6-1.8-6.4-5.4h12.8c0-0.2,0-0.4,0.1-0.6c0-0.2,0-0.5,0-1c0-1.2-0.2-2.4-0.5-3.4C323.6,158.3,323.1,157.4,322.4,156.7
		L322.4,156.7z M185.7,168.8l1.1,2.1c-0.7,0.4-1.6,0.7-2.5,1c-0.9,0.2-1.9,0.3-2.8,0.3c-1.4,0-2.7-0.2-3.8-0.6
		c-1.1-0.4-2.1-1-2.9-1.8c-0.8-0.8-1.4-1.7-1.8-2.8s-0.6-2.3-0.6-3.6c0-1.3,0.2-2.6,0.7-3.7c0.4-1.1,1.1-2,1.8-2.8
		c0.8-0.8,1.7-1.4,2.9-1.9c1.1-0.4,2.3-0.7,3.7-0.7c1.8,0,3.5,0.5,5.1,1.4l-1.1,2.1c-0.6-0.3-1.2-0.5-1.9-0.7
		c-0.7-0.1-1.3-0.2-2-0.2c-1.9,0-3.4,0.6-4.6,1.7c-1.1,1.1-1.7,2.7-1.7,4.6c0,2,0.6,3.6,1.7,4.7c1.1,1.1,2.7,1.7,4.7,1.7
		C182.9,169.7,184.3,169.4,185.7,168.8L185.7,168.8z M203.8,156.3c1.1,1.3,1.6,3.1,1.6,5.4v10h-2.9v-9.5c0-1.8-0.3-3.1-0.9-4
		c-0.6-0.8-1.6-1.3-3-1.3c-1.5,0-2.6,0.5-3.5,1.5c-0.8,1-1.2,2.4-1.2,4.1v9.1h-2.9v-25.2h2.9v11.2c0.4-0.9,1-1.6,1.7-2.1
		c1-0.7,2.2-1.1,3.7-1.1C201.2,154.4,202.7,155,203.8,156.3L203.8,156.3z M211,136.6c-0.9,0.2-1.8,0.2-2.8,0.2
		c-4.4,0-6.6-2.3-6.6-6.9v-6.3h-2.9v-4.9h2.9v-4.5h6.1v4.5h5.7l-1.5,4.9h-4.2v5.2c0,1.1,0.2,1.8,0.5,2.2c0.3,0.4,0.9,0.6,1.7,0.6
		c0.9,0,1.8-0.2,2.7-0.5l0.6,4.7C212.7,136.2,211.9,136.4,211,136.6L211,136.6z M291.9,167.9c-0.5,0.6-1.1,1-1.8,1.3
		c-0.7,0.3-1.5,0.5-2.3,0.5c-1.8,0-3.2-0.6-4.2-1.7c-1-1.1-1.5-2.7-1.5-4.6c0-0.9,0.1-1.8,0.4-2.6c0.3-0.8,0.7-1.5,1.2-2
		c0.5-0.6,1.1-1,1.8-1.3c0.7-0.3,1.5-0.5,2.3-0.5c0.9,0,1.6,0.2,2.4,0.5c0.7,0.3,1.3,0.7,1.8,1.3c0.5,0.6,0.9,1.2,1.2,2
		c0.3,0.8,0.4,1.7,0.4,2.6c0,0.9-0.1,1.7-0.4,2.5C292.8,166.7,292.4,167.3,291.9,167.9L291.9,167.9z M293.4,157.9
		c-0.5-0.9-1.2-1.7-2-2.3c-1.1-0.8-2.4-1.2-3.9-1.2c-1.2,0-2.3,0.2-3.3,0.7c-1,0.5-1.9,1.1-2.6,1.9c-0.7,0.8-1.3,1.8-1.7,2.8
		c-0.4,1.1-0.6,2.3-0.6,3.5c0,1.3,0.2,2.5,0.6,3.6c0.4,1.1,0.9,2,1.6,2.8c0.7,0.8,1.5,1.4,2.5,1.8c1,0.4,2,0.6,3.2,0.6
		c1.6,0,2.9-0.4,4.1-1.2c0.9-0.6,1.6-1.4,2.2-2.3v2c0,2.4-0.5,4.2-1.5,5.3c-1,1.1-2.6,1.7-4.7,1.7c-2.4,0-4.3-0.4-5.7-1.3l-0.7,2.3
		c0.3,0.2,0.7,0.4,1.2,0.6c0.5,0.2,1,0.3,1.6,0.5c0.6,0.1,1.2,0.2,1.8,0.3c0.6,0.1,1.3,0.1,1.9,0.1c6,0,9-3.3,9-9.9v-15.6h-2.8
		L293.4,157.9z"/>
</g>
</svg>
