<?xml version="1.0" encoding="UTF-8" standalone="no"?>
<svg
   id="Layer_1"
   data-name="Layer 1"
   viewBox="0 0 875.21997 521.20502"
   version="1.1"
   sodipodi:docname="Sami.svg"
   width="875.21997"
   height="521.20502"
   inkscape:version="1.3.2 (091e20e, 2023-11-25, custom)"
   xmlns:inkscape="http://www.inkscape.org/namespaces/inkscape"
   xmlns:sodipodi="http://sodipodi.sourceforge.net/DTD/sodipodi-0.dtd"
   xmlns="http://www.w3.org/2000/svg"
   xmlns:svg="http://www.w3.org/2000/svg">
  <sodipodi:namedview
     id="namedview4"
     pagecolor="#ffffff"
     bordercolor="#999999"
     borderopacity="1"
     inkscape:showpageshadow="2"
     inkscape:pageopacity="0"
     inkscape:pagecheckerboard="0"
     inkscape:deskcolor="#d1d1d1"
     inkscape:zoom="0.47658997"
     inkscape:cx="398.66554"
     inkscape:cy="193.03805"
     inkscape:window-width="1500"
     inkscape:window-height="912"
     inkscape:window-x="-8"
     inkscape:window-y="-8"
     inkscape:window-maximized="1"
     inkscape:current-layer="Layer_1" />
  <defs
     id="defs1">
    <style
       id="style1">
      .cls-1 {
        fill: #2d4c58;
      }

      .cls-2 {
        fill: #75aa53;
      }
    </style>
  </defs>
  <g
     id="g4"
     transform="matrix(0.94341109,0,0,0.94341109,-34.100268,-211.10304)">
    <polygon
       class="cls-1"
       points="471.18,525.65 416,525.65 390.79,557.05 488.17,557.05 498.06,574.38 542.15,574.38 467.64,436.79 441.31,469.59 "
       id="polygon1" />
    <polygon
       class="cls-1"
       points="711.7,436.79 657.28,510.92 602.41,436.79 554.19,436.79 554.13,436.79 554.13,574.38 592.9,574.38 592.9,489.09 657.4,576.28 721.32,489.23 721.32,574.38 760.08,574.38 760.08,436.79 759.81,436.79 "
       id="polygon2" />
    <rect
       class="cls-1"
       x="779.22998"
       y="436.79001"
       width="38.77"
       height="137.61"
       id="rect2" />
    <polygon
       class="cls-2"
       points="411.57,436.79 308.42,630.37 312.23,630.37 467.64,436.79 "
       id="polygon3" />
    <polygon
       class="cls-2"
       points="423.65,418.9 472.94,418.9 472.94,369.63 "
       id="polygon4" />
    <path
       class="cls-1"
       d="M 343.96,474.22 V 436.79 H 212.69 c -10.86,0.33 -16.14,3.44 -21.69,8.97 -5.55,5.55 -8.99,13.23 -8.99,21.69 0,17.21 12.16,24.59 25.25,31.06 l 78.43,38.75 H 183.06 v 37.12 h 136.25 l 25.81,-48.46 -110.03,-51.7 h 108.88 z"
       id="path4" />
  </g>
</svg>
