<?xml version="1.0" encoding="UTF-8" standalone="no"?>
<!-- Created with Inkscape (http://www.inkscape.org/) -->

<svg
   xmlns:dc="http://purl.org/dc/elements/1.1/"
   xmlns:cc="http://creativecommons.org/ns#"
   xmlns:rdf="http://www.w3.org/1999/02/22-rdf-syntax-ns#"
   xmlns:svg="http://www.w3.org/2000/svg"
   xmlns="http://www.w3.org/2000/svg"
   xmlns:sodipodi="http://sodipodi.sourceforge.net/DTD/sodipodi-0.dtd"
   xmlns:inkscape="http://www.inkscape.org/namespaces/inkscape"
   width="189.81679"
   height="69.312668"
   viewBox="0 0 50.222358 18.338977"
   version="1.1"
   id="svg16451"
   inkscape:version="0.92.0 r15299"
   sodipodi:docname="kuwait airways.svg">
  <defs
     id="defs16445">
    <clipPath
       id="clipPath16035"
       clipPathUnits="userSpaceOnUse">
      <path
         inkscape:connector-curvature="0"
         id="path16033"
         d="M 0,0 H 566.929 V 737.008 H 0 Z" />
    </clipPath>
    <radialGradient
       id="radialGradient16025"
       spreadMethod="pad"
       gradientTransform="matrix(10.175062,0,0,10.175062,30.224265,-25.3261)"
       gradientUnits="userSpaceOnUse"
       r="1"
       cy="0"
       cx="0"
       fy="0"
       fx="0">
      <stop
         id="stop16017"
         offset="0"
         style="stop-opacity:1;stop-color:#00aeef" />
      <stop
         id="stop16019"
         offset="0.47582"
         style="stop-opacity:1;stop-color:#00aeef" />
      <stop
         id="stop16021"
         offset="0.79884"
         style="stop-opacity:1;stop-color:#0b4379" />
      <stop
         id="stop16023"
         offset="1"
         style="stop-opacity:1;stop-color:#1e285a" />
    </radialGradient>
  </defs>
  <sodipodi:namedview
     id="base"
     pagecolor="#ffffff"
     bordercolor="#666666"
     borderopacity="1.0"
     inkscape:pageopacity="0.0"
     inkscape:pageshadow="2"
     inkscape:zoom="4.7506369"
     inkscape:cx="94.408396"
     inkscape:cy="34.156338"
     inkscape:document-units="mm"
     inkscape:current-layer="layer1"
     showgrid="false"
     fit-margin-top="0"
     fit-margin-left="0"
     fit-margin-right="0"
     fit-margin-bottom="0"
     units="px"
     inkscape:window-width="1280"
     inkscape:window-height="744"
     inkscape:window-x="-4"
     inkscape:window-y="-4"
     inkscape:window-maximized="1" />
  <metadata
     id="metadata16448">
    <rdf:RDF>
      <cc:Work
         rdf:about="">
        <dc:format>image/svg+xml</dc:format>
        <dc:type
           rdf:resource="http://purl.org/dc/dcmitype/StillImage" />
        <dc:title></dc:title>
      </cc:Work>
    </rdf:RDF>
  </metadata>
  <g
     inkscape:label="Layer 1"
     inkscape:groupmode="layer"
     id="layer1"
     transform="translate(-12.818731,35.849403)">
    <g
       id="g16697"
       transform="translate(0.13229142,-0.13229607)">
      <path
         inkscape:connector-curvature="0"
         id="path16027"
         style="fill:url(#radialGradient16025);stroke:none;stroke-width:0.35277778"
         d="m 12.818731,-30.517091 c 2.36855,1.256242 8.545336,5.834239 15.114764,7.695142 v 0 c 0.315736,0.08925 0.629003,0.17145 0.937683,0.246591 v 0 c 3.210984,0.781403 5.980289,0.803628 7.887053,0.6477 v 0 C 27.17467,-23.545849 24.142545,-26.271763 23.70757,-26.861255 v 0 c -0.04939,-0.06597 -0.07197,-0.103011 -0.07197,-0.103011 v 0 c -0.02822,-0.01235 1.553634,-1.545872 4.603398,-1.506361 v 0 c 3.809999,0.04868 6.390922,1.21038 6.390922,1.21038 v 0 c -1.332442,-0.800452 -2.686403,-1.322211 -3.834342,-1.660172 v 0 c -0.623005,-0.1905 -1.237544,-0.334433 -1.839383,-0.440266 v 0 c -0.72637,-0.133703 -1.172986,-0.166159 -1.172986,-0.166159 v 0 c -1.970264,-0.207433 -3.439584,0.223309 -4.664781,0.653697 v 0 c -1.146175,0.401814 -2.627136,1.159581 -4.589991,0.316795 v 0 c -0.843139,-0.361597 -1.432631,-0.481542 -2.402417,-0.373239 v 0 c -1.529292,-0.634294 -2.682875,-1.384653 -3.25755,-1.632303 v 0 z" />
      <path
         d="m 62.761304,-32.470527 c 0.01517,-0.0695 0.04339,-0.242711 -0.06138,-0.263878 -0.12312,-0.02434 -0.26917,0.315384 -0.309034,0.390878 -0.325261,0.618772 -0.267758,0.842433 -0.210255,1.812219 0.05715,0.969786 -0.07655,1.525059 -0.115006,1.703564 -0.03845,0.178859 -0.140405,0.45967 -0.01905,0.47237 0.121003,0.0127 0.191206,-0.102306 0.414514,-0.644525 0.223661,-0.542573 0.274814,-1.346553 0.280811,-1.83762 0.006,-0.451908 -0.06526,-0.902052 -0.02364,-1.350786 0.0088,-0.09384 0.02258,-0.188383 0.04304,-0.282222"
         style="fill:#20285c;fill-opacity:1;fill-rule:nonzero;stroke:none;stroke-width:0.35277778"
         id="path16039"
         inkscape:connector-curvature="0" />
      <path
         d="m 56.778863,-30.935873 c -0.0829,-0.03881 -0.217311,0.245533 -0.415219,0.536222 -0.198262,0.290336 -0.409223,0.542572 -0.805392,0.510117 -0.39617,-0.0321 -0.249414,-0.510117 -0.210961,-0.684389 0.03069,-0.140406 0.06209,-0.280106 0.08326,-0.421922 0.01129,-0.07761 0.02646,-0.161925 0.01799,-0.240595 -0.0049,-0.04657 -0.03457,-0.07126 -0.08361,-0.06526 -0.10407,0.0127 -0.209198,0.175331 -0.25647,0.258234 -0.06279,0.110066 -0.10548,0.230364 -0.147108,0.349603 -0.05715,0.164747 -0.09419,0.334433 -0.144286,0.500944 -0.0448,0.148167 -0.06385,0.219428 -0.06385,0.219428 -1.540228,0.98178 -4.941005,1.427339 -6.43643,1.472494 -1.495425,0.04551 -3.207103,-0.283986 -4.082698,-0.658636 -0.875594,-0.37465 -0.984249,-0.710494 -1.022702,-0.684742 -0.0381,0.02611 -0.287514,0.452262 -0.504825,0.704145 -0.216959,0.251883 -0.772936,0.697442 -1.105253,0.251883 -0.332317,-0.445558 -0.549628,-0.516819 -0.671336,-0.536222 -0.721783,-0.115006 -1.654881,1.014236 -1.834092,1.569508 -0.134055,0.329495 -0.312914,0.878417 -0.242711,0.878417 0.0702,0 0.07655,-0.03881 0.40252,-0.555272 0.410986,-0.651228 0.914047,-0.872067 1.271763,-0.794456 0.35807,0.07761 0.313267,0.600781 0.805392,0.619831 0.779639,0.0388 1.361017,-0.90417 1.44392,-0.994481 0.08326,-0.09066 0.05785,-0.09066 0.179211,-0.0194 0.121355,0.07091 2.217561,1.11125 4.542719,1.181806 3.406422,0.103364 7.247466,-1.882775 7.247819,-1.88595 0,0 0.0127,0.588081 0.517878,0.536222 0.773289,-0.04516 1.316567,-1.259416 1.463322,-1.569508 0.147109,-0.310092 0.09807,-0.456142 0.05115,-0.478014"
         style="fill:#20285c;fill-opacity:1;fill-rule:nonzero;stroke:none;stroke-width:0.35277778"
         id="path16043"
         inkscape:connector-curvature="0" />
      <path
         d="m 51.568441,-31.764548 c 0.348192,0.110772 0.600781,0.397228 0.639586,0.489303 0.03845,0.09208 0.0095,0.154869 0.0628,0.164747 0.03951,0.0071 0.122061,-0.08643 0.147108,-0.108303 0.176389,-0.155222 0.347133,-0.322439 0.500592,-0.500944 0.01975,-0.02293 0.03775,-0.04516 0.05327,-0.06738 0.02011,0.0088 0.04233,0.01552 0.06456,0.02258 0.347839,0.110772 0.600428,0.397228 0.639234,0.489303 0.0388,0.09208 0.0095,0.154869 0.06279,0.164747 0.03951,0.0071 0.122414,-0.08643 0.147108,-0.108303 0.176742,-0.155222 0.347486,-0.322439 0.500945,-0.500944 0.0829,-0.09666 0.134761,-0.177447 0.07902,-0.305506 -0.04762,-0.109361 -0.1397,-0.201436 -0.227894,-0.27693 -0.124884,-0.107245 -0.259998,-0.203553 -0.401461,-0.287514 -0.07232,-0.04304 -0.187325,-0.141464 -0.278342,-0.115006 -0.07479,0.02187 -0.151695,0.132292 -0.202142,0.186972 -0.130175,0.141464 -0.256116,0.28822 -0.375355,0.438856 -0.0018,0.0025 -0.0042,0.0053 -0.006,0.0078 -0.0508,-0.0896 -0.129116,-0.166511 -0.204611,-0.231069 -0.131586,-0.112889 -0.274108,-0.214489 -0.424391,-0.301273 -0.08043,-0.04621 -0.201084,-0.141463 -0.295275,-0.08043 -0.08043,0.05256 -0.1524,0.154517 -0.2159,0.225425 -0.11042,0.123825 -0.236714,0.25012 -0.328789,0.388761 -0.159809,0.242006 -0.04339,0.271286 0.06315,0.305153"
         style="fill:#20285c;fill-opacity:1;fill-rule:nonzero;stroke:none;stroke-width:0.35277778"
         id="path16047"
         inkscape:connector-curvature="0" />
      <path
         d="m 39.530464,-31.764548 c 0.348192,0.110772 0.600781,0.397228 0.639586,0.489303 0.03845,0.09208 0.0095,0.154869 0.06279,0.164747 0.03951,0.0071 0.122061,-0.08643 0.147108,-0.108303 0.176389,-0.155222 0.347133,-0.322439 0.500592,-0.500944 0.01976,-0.02293 0.03775,-0.04516 0.05327,-0.06738 0.02011,0.0088 0.04233,0.01552 0.06456,0.02258 0.347839,0.110772 0.600428,0.397228 0.639234,0.489303 0.03881,0.09208 0.0095,0.154869 0.06279,0.164747 0.03951,0.0071 0.122414,-0.08643 0.147108,-0.108303 0.176742,-0.155222 0.347486,-0.322439 0.500945,-0.500944 0.0829,-0.09666 0.134761,-0.177447 0.07902,-0.305506 -0.04763,-0.109361 -0.1397,-0.201436 -0.227894,-0.27693 -0.124884,-0.107245 -0.259998,-0.203553 -0.401461,-0.287514 -0.07232,-0.04304 -0.187325,-0.141464 -0.278342,-0.115006 -0.07479,0.02187 -0.151695,0.132292 -0.202142,0.186972 -0.130175,0.141464 -0.256116,0.28822 -0.375355,0.438856 -0.0018,0.0025 -0.0042,0.0053 -0.006,0.0078 -0.0508,-0.0896 -0.129116,-0.166511 -0.204611,-0.231069 -0.131586,-0.112889 -0.274108,-0.214489 -0.424391,-0.301273 -0.08043,-0.04621 -0.201084,-0.141463 -0.295275,-0.08043 -0.08043,0.05256 -0.1524,0.154517 -0.2159,0.225425 -0.11042,0.123825 -0.236714,0.25012 -0.328789,0.388761 -0.159809,0.242006 -0.04339,0.271286 0.06315,0.305153"
         style="fill:#20285c;fill-opacity:1;fill-rule:nonzero;stroke:none;stroke-width:0.35277778"
         id="path16051"
         inkscape:connector-curvature="0" />
      <path
         d="m 55.30397,-27.451664 c -0.124883,-0.106892 -0.259644,-0.203553 -0.401461,-0.287514 -0.07267,-0.04269 -0.187325,-0.141111 -0.278342,-0.114653 -0.07514,0.02152 -0.152047,0.131939 -0.202141,0.186973 -0.130175,0.141111 -0.255764,0.287866 -0.375356,0.438502 -0.0021,0.0028 -0.0039,0.0053 -0.006,0.0078 -0.0508,-0.08925 -0.129117,-0.166511 -0.204611,-0.231069 -0.131586,-0.112889 -0.274461,-0.214489 -0.424745,-0.301272 -0.08008,-0.04586 -0.20073,-0.141464 -0.294922,-0.08008 -0.08043,0.05221 -0.1524,0.154164 -0.2159,0.225072 -0.110419,0.123825 -0.237067,0.25012 -0.328436,0.388762 -0.160161,0.242358 -0.04374,0.271286 0.06279,0.305152 0.348192,0.110773 0.600781,0.397581 0.639234,0.489303 0.0388,0.09208 0.0099,0.155222 0.06315,0.164747 0.03951,0.0071 0.122061,-0.08643 0.147108,-0.108302 0.176389,-0.155223 0.347134,-0.322439 0.500592,-0.500945 0.01975,-0.02293 0.03775,-0.0448 0.05292,-0.06738 0.02046,0.0088 0.04269,0.01588 0.06491,0.02258 0.348191,0.110773 0.600427,0.397581 0.639233,0.489303 0.03881,0.09208 0.0099,0.155222 0.06315,0.164747 0.03916,0.0071 0.122061,-0.08643 0.147109,-0.108302 0.176388,-0.155223 0.347133,-0.322439 0.500238,-0.500945 0.08361,-0.09631 0.135114,-0.177447 0.07902,-0.305505 -0.04762,-0.109362 -0.1397,-0.201437 -0.227542,-0.276931"
         style="fill:#20285c;fill-opacity:1;fill-rule:nonzero;stroke:none;stroke-width:0.35277778"
         id="path16055"
         inkscape:connector-curvature="0" />
      <path
         d="m 44.39273,-27.451664 c -0.124883,-0.106892 -0.259644,-0.203553 -0.401461,-0.287514 -0.07267,-0.04269 -0.187325,-0.141111 -0.278342,-0.114653 -0.07514,0.02152 -0.152047,0.131939 -0.202141,0.186973 -0.130175,0.141111 -0.255764,0.287866 -0.375356,0.438502 -0.0021,0.0028 -0.0039,0.0053 -0.006,0.0078 -0.0508,-0.08925 -0.129117,-0.166511 -0.204611,-0.231069 -0.131586,-0.112889 -0.274461,-0.214489 -0.424745,-0.301272 -0.08008,-0.04586 -0.20073,-0.141464 -0.294922,-0.08008 -0.08043,0.05221 -0.1524,0.154164 -0.2159,0.225072 -0.110419,0.123825 -0.237067,0.25012 -0.328436,0.388762 -0.160161,0.242358 -0.04374,0.271286 0.06279,0.305152 0.348192,0.110773 0.600781,0.397581 0.639234,0.489303 0.0388,0.09208 0.0099,0.155222 0.06315,0.164747 0.03951,0.0071 0.122061,-0.08643 0.147108,-0.108302 0.176389,-0.155223 0.347134,-0.322439 0.500592,-0.500945 0.01975,-0.02293 0.03775,-0.0448 0.05292,-0.06738 0.02046,0.0088 0.04269,0.01588 0.06491,0.02258 0.348191,0.110773 0.600427,0.397581 0.639233,0.489303 0.03881,0.09208 0.0099,0.155222 0.06315,0.164747 0.03916,0.0071 0.122061,-0.08643 0.147109,-0.108302 0.176388,-0.155223 0.347133,-0.322439 0.500238,-0.500945 0.08361,-0.09631 0.135114,-0.177447 0.07902,-0.305505 -0.04762,-0.109362 -0.1397,-0.201437 -0.227542,-0.276931"
         style="fill:#20285c;fill-opacity:1;fill-rule:nonzero;stroke:none;stroke-width:0.35277778"
         id="path16059"
         inkscape:connector-curvature="0" />
      <path
         d="m 61.940884,-33.645383 c 0.125942,-0.300214 0.03916,-0.353483 0,-0.353483 -0.08714,0 -0.329494,0.43568 -0.590903,1.002594 -0.261761,0.566561 -0.256822,0.99307 -0.251883,1.283758 0.0049,0.290337 -0.0194,1.288698 -0.03881,1.399823 -0.109008,0.625827 -0.455436,1.051277 -0.944739,0.891469 -0.363361,-0.189089 -0.356305,-2.589036 -0.273402,-2.680053 0.381352,-0.420511 1.656644,-2.125839 1.698625,-2.1717 0.328789,-0.414161 0.288925,-0.669572 0.288925,-1.190625 0,-0.19685 -0.105834,-0.116416 -0.195792,-0.02117 -0.01517,0.01623 -1.591381,1.900061 -1.990372,2.618316 -0.343958,0.619125 -0.0956,2.786945 -0.220486,3.052939 -0.228247,0.485422 -0.862542,0.75812 -0.862542,0.75812 -0.0194,-0.140406 -0.09878,-0.438503 -0.398992,-0.7874 -0.300213,-0.348545 -0.7747,-0.1016 -0.959202,0.189088 -0.185561,0.2921 -0.520348,0.83432 -0.443089,1.20262 0.07761,0.367947 0.467783,0.505883 0.705203,0.505883 0.227541,0 0.472369,-0.09842 0.534458,-0.04692 0.101247,0.08361 -0.24377,0.268464 -0.416631,0.389466 -0.439561,0.30727 -1.005416,0.611364 -1.171575,0.708378 -0.138641,0.08079 -0.422275,0.195439 -0.383469,0.301978 0.02611,0.07197 0.122061,0.03598 0.177094,0.02681 0.140053,-0.02293 0.539398,-0.111125 0.771878,-0.154517 0.934508,-0.17533 1.115483,-0.616655 1.337381,-1.204383 0.186266,-0.493536 0.971902,-1.269294 1.085144,-1.269294 0.113242,0 0.02752,0.828322 0.615244,0.828322 1.686278,0 1.64712,-3.322814 1.632303,-4.001206 -0.01446,-0.678038 0.169686,-0.978605 0.295628,-1.278819"
         style="fill:#20285c;fill-opacity:1;fill-rule:nonzero;stroke:none;stroke-width:0.35277778"
         id="path16063"
         inkscape:connector-curvature="0" />
      <path
         d="m 42.115796,-20.611444 -1.347258,-1.594556 1.773766,-1.866899 h -0.623358 l -1.746956,1.831269 v -1.831269 h -1.334911 v 0.237772 l 0.06632,0.0025 c 0.436739,0.01799 0.519289,0.0956 0.519289,0.491067 v 3.633258 h 0.749299 v -2.095853 l 1.782587,2.095853 h 1.195916 v -0.235655 l -0.0642,-0.0046 c -0.334786,-0.02328 -0.561623,-0.178152 -0.970492,-0.662869"
         style="fill:#20285c;fill-opacity:1;fill-rule:nonzero;stroke:none;stroke-width:0.35277778"
         id="path16067"
         inkscape:connector-curvature="0" />
      <path
         d="m 46.510772,-21.457758 c 0,0.960261 -0.329847,1.407231 -1.038225,1.407231 -0.682625,0 -0.987425,-0.410634 -0.987425,-1.330678 v -2.691342 h -1.334558 v 0.239183 l 0.06809,0.0011 c 0.42545,0.0056 0.517525,0.09278 0.517525,0.490714 v 1.934633 c 0,1.194506 0.530578,1.774825 1.621719,1.774825 1.089378,0 1.596672,-0.580319 1.596672,-1.825625 v -2.614789 h -0.443794 z"
         style="fill:#20285c;fill-opacity:1;fill-rule:nonzero;stroke:none;stroke-width:0.35277778"
         id="path16071"
         inkscape:connector-curvature="0" />
      <path
         d="m 52.664416,-24.072688 -0.869597,2.971447 -1.014589,-2.971447 h -1.213556 v 0.240242 h 0.06914 c 0.291394,0 0.52458,0.201436 0.627591,0.53975 l -0.761999,2.171347 -0.883356,-2.951339 h -1.138767 v 0.240242 h 0.06915 c 0.249061,0 0.432505,0.189089 0.544689,0.561269 l 1.064683,3.613503 h 0.355247 l 1.007533,-2.888192 1.007181,2.888192 h 0.3302 l 1.281289,-4.415014 z"
         style="fill:#20285c;fill-opacity:1;fill-rule:nonzero;stroke:none;stroke-width:0.35277778"
         id="path16075"
         inkscape:connector-curvature="0" />
      <path
         d="m 56.70919,-20.541347 -1.404761,-3.531305 h -1.121833 v 0.23883 l 0.06809,0.0014 c 0.421922,0.0078 0.421922,0.128059 0.421922,0.178859 0,0.03528 -0.02505,0.133702 -0.09666,0.305505 l -1.456972,3.639608 h 0.467077 l 0.553862,-1.400175 h 1.554338 l 0.560211,1.400175 h 1.108781 v -0.23883 l -0.06773,-0.0014 c -0.276225,-0.0056 -0.40252,-0.132998 -0.586317,-0.592667 m -1.171928,-0.960261 h -1.234369 l 0.617361,-1.551164 z"
         style="fill:#20285c;fill-opacity:1;fill-rule:nonzero;stroke:none;stroke-width:0.35277778"
         id="path16079"
         inkscape:connector-curvature="0" />
      <path
         d="m 57.36324,-23.835198 0.06632,0.0025 c 0.441325,0.01799 0.519289,0.09137 0.519289,0.491067 v 3.633258 h 0.748947 v -4.364213 H 57.36324 Z"
         style="fill:#20285c;fill-opacity:1;fill-rule:nonzero;stroke:none;stroke-width:0.35277778"
         id="path16083"
         inkscape:connector-curvature="0" />
      <path
         d="M 62.776403,-24.072688 H 59.201 v 1.105606 h 0.202142 l 0.01129,-0.05539 c 0.07267,-0.363361 0.147108,-0.504825 0.305505,-0.581025 0.125237,-0.05997 0.269523,-0.0762 0.670278,-0.0762 h 0.236361 v 3.97122 h 0.7493 v -3.97122 h 0.236361 c 0.755298,0 0.855839,0.06773 0.976136,0.657225 l 0.01129,0.05539 h 0.176742 z"
         style="fill:#20285c;fill-opacity:1;fill-rule:nonzero;stroke:none;stroke-width:0.35277778"
         id="path16087"
         inkscape:connector-curvature="0" />
      <path
         d="m 39.704772,-17.531906 -0.157692,-0.394406 h -0.464608 l -0.155928,0.394406 h -0.08925 l 0.399698,-0.998361 c 0.01799,-0.04304 0.02857,-0.07691 0.02857,-0.09313 0,-0.04692 -0.04304,-0.06844 -0.138289,-0.0702 v -0.02858 h 0.283633 l 0.390878,0.982486 c 0.05362,0.134408 0.09454,0.177094 0.182739,0.179211 v 0.02858 z m -0.389114,-0.975078 -0.202494,0.509059 h 0.404989 z"
         style="fill:#20285c;fill-opacity:1;fill-rule:nonzero;stroke:none;stroke-width:0.35277778"
         id="path16091"
         inkscape:connector-curvature="0" />
      <path
         d="m 42.955055,-17.531835 v -1.004006 c 0,-0.123472 -0.03069,-0.152047 -0.164747,-0.157691 v -0.02858 h 0.336903 v 1.190272 z"
         style="fill:#20285c;fill-opacity:1;fill-rule:nonzero;stroke:none;stroke-width:0.35277778"
         id="path16095"
         inkscape:connector-curvature="0" />
      <path
         d="m 47.0483,-17.703991 c 0.06103,0.09137 0.136172,0.143228 0.200731,0.143228 v 0.02893 h -0.279753 l -0.37077,-0.552098 h -0.109714 v 0.552098 h -0.171802 v -1.004006 c 0,-0.119944 -0.03598,-0.154164 -0.1651,-0.157692 v -0.02858 h 0.487539 c 0.301272,0 0.4445,0.103717 0.4445,0.322792 0,0.116417 -0.04833,0.206022 -0.1397,0.256117 -0.04304,0.02364 -0.08079,0.03422 -0.157692,0.04657 z m -0.559506,-0.451556 c 0.140053,0 0.181328,-0.0018 0.224014,-0.01094 0.131234,-0.02505 0.191911,-0.100189 0.191911,-0.234597 0,-0.176036 -0.09666,-0.249414 -0.328083,-0.249414 -0.08043,0 -0.08784,0.0071 -0.08784,0.100189 z"
         style="fill:#20285c;fill-opacity:1;fill-rule:nonzero;stroke:none;stroke-width:0.35277778"
         id="path16099"
         inkscape:connector-curvature="0" />
      <path
         d="m 51.13583,-17.517512 h -0.06456 l -0.297745,-0.853369 -0.297391,0.853369 h -0.07161 l -0.295981,-1.004006 c -0.03387,-0.112888 -0.09137,-0.171802 -0.172155,-0.171802 v -0.02858 h 0.286808 l 0.261761,0.874536 0.236714,-0.674159 c -0.03034,-0.107244 -0.10407,-0.171802 -0.197203,-0.171802 v -0.02858 h 0.308681 l 0.300919,0.881944 0.258233,-0.881944 h 0.09313 z"
         style="fill:#20285c;fill-opacity:1;fill-rule:nonzero;stroke:none;stroke-width:0.35277778"
         id="path16103"
         inkscape:connector-curvature="0" />
      <path
         d="m 55.144479,-17.531906 -0.157692,-0.394406 h -0.464608 l -0.155928,0.394406 h -0.08925 l 0.399698,-0.998361 c 0.01799,-0.04304 0.02858,-0.07691 0.02858,-0.09313 0,-0.04692 -0.04304,-0.06844 -0.138289,-0.0702 v -0.02858 h 0.283633 l 0.390878,0.982486 c 0.05362,0.134408 0.09454,0.177094 0.182739,0.179211 v 0.02858 z m -0.389114,-0.975078 -0.202494,0.509059 h 0.404989 z"
         style="fill:#20285c;fill-opacity:1;fill-rule:nonzero;stroke:none;stroke-width:0.35277778"
         id="path16107"
         inkscape:connector-curvature="0" />
      <path
         d="m 58.699597,-18.083968 v 0.358422 c 0,0.129117 0.03069,0.159809 0.164747,0.1651 v 0.02858 h -0.336903 v -0.545041 l -0.258233,-0.401462 c -0.107597,-0.168627 -0.157692,-0.211666 -0.265289,-0.215194 v -0.02858 h 0.301272 l 0.351367,0.544689 0.344311,-0.544689 h 0.100542 z"
         style="fill:#20285c;fill-opacity:1;fill-rule:nonzero;stroke:none;stroke-width:0.35277778"
         id="path16111"
         inkscape:connector-curvature="0" />
      <path
         d="m 62.482363,-18.679174 c -0.204258,0.0127 -0.308328,0.07514 -0.308328,0.188383 0,0.09313 0.06985,0.162984 0.263525,0.259998 0.249061,0.127 0.338667,0.229305 0.338667,0.385233 0,0.197203 -0.168275,0.335139 -0.404989,0.335139 -0.06456,0 -0.119944,-0.0088 -0.274108,-0.0448 0,0 -0.03775,-0.0088 -0.07373,-0.0127 l -0.02857,-0.2794 h 0.02857 c 0.05398,0.166511 0.172156,0.258233 0.333375,0.258233 0.143581,0 0.24765,-0.08996 0.24765,-0.21343 0,-0.105834 -0.0702,-0.179211 -0.267053,-0.2794 -0.134761,-0.06844 -0.222602,-0.130881 -0.259997,-0.190147 -0.03598,-0.05221 -0.05398,-0.109362 -0.05398,-0.170392 0,-0.10407 0.04657,-0.188031 0.130881,-0.236714 0.07902,-0.0448 0.161572,-0.06103 0.328083,-0.06456 z"
         style="fill:#20285c;fill-opacity:1;fill-rule:nonzero;stroke:none;stroke-width:0.35277778"
         id="path16115"
         inkscape:connector-curvature="0" />
    </g>
  </g>
</svg>
