<?xml version="1.0" encoding="UTF-8" standalone="no"?>
<!-- Created with Inkscape (http://www.inkscape.org/) -->

<svg
   xmlns:dc="http://purl.org/dc/elements/1.1/"
   xmlns:cc="http://creativecommons.org/ns#"
   xmlns:rdf="http://www.w3.org/1999/02/22-rdf-syntax-ns#"
   xmlns:svg="http://www.w3.org/2000/svg"
   xmlns="http://www.w3.org/2000/svg"
   xmlns:sodipodi="http://sodipodi.sourceforge.net/DTD/sodipodi-0.dtd"
   xmlns:inkscape="http://www.inkscape.org/namespaces/inkscape"
   width="52.916668mm"
   height="9.9601822mm"
   viewBox="0 0 52.916668 9.9601822"
   version="1.1"
   id="svg8"
   inkscape:version="0.92.2 (5c3e80d, 2017-08-06)"
   sodipodi:docname="Salam Air Logo.svg">
  <defs
     id="defs2" />
  <sodipodi:namedview
     id="base"
     pagecolor="#ffffff"
     bordercolor="#666666"
     borderopacity="1.0"
     inkscape:pageopacity="0.0"
     inkscape:pageshadow="2"
     inkscape:zoom="2.8"
     inkscape:cx="124.15811"
     inkscape:cy="51.448524"
     inkscape:document-units="mm"
     inkscape:current-layer="layer1"
     showgrid="false"
     inkscape:window-width="1366"
     inkscape:window-height="705"
     inkscape:window-x="-8"
     inkscape:window-y="-8"
     inkscape:window-maximized="1" />
  <metadata
     id="metadata5">
    <rdf:RDF>
      <cc:Work
         rdf:about="">
        <dc:format>image/svg+xml</dc:format>
        <dc:type
           rdf:resource="http://purl.org/dc/dcmitype/StillImage" />
        <dc:title></dc:title>
      </cc:Work>
    </rdf:RDF>
  </metadata>
  <g
     inkscape:label="Layer 1"
     inkscape:groupmode="layer"
     id="layer1"
     transform="translate(122.18642,-276.04809)">
    <g
       id="g110"
       transform="matrix(0.23365761,0,0,0.23365761,-122.61998,275.18356)">
      <g
         id="g40">
        <g
           id="g28">
          <path
             id="path12"
             d="m 214.1,40.7 c -1,0.2 -3.5,0.2 -4.3,0 -0.2,-0.2 -0.2,-0.5 -0.2,-0.8 0,-1 0,-2 0,-3.1 0,-3.2 0,-6.5 0,-9.7 0,-1.3 0.2,-2.5 0.6,-3.7 0.6,-1.7 1.7,-3 3.3,-4 1.4,-0.8 2.9,-1.2 4.5,-1.5 1.4,-0.2 2.8,-0.2 4.2,-0.2 1.1,0 2.2,0.2 3.3,0.5 0.4,0.1 0.9,0.3 1.3,0.5 1.7,0.9 2,2.5 0.8,3.9 -0.1,0.1 -0.2,0.1 -0.3,0.2 -0.2,-0.1 -0.4,-0.1 -0.6,-0.2 -1.3,-0.6 -2.7,-1 -4.2,-1.1 -1.5,-0.1 -2.9,0 -4.3,0.3 -2.1,0.4 -3.6,1.8 -3.8,4.4 0,0.4 0,0.8 0,1.2 0,4 0,8.1 0,12.1 -0.2,0.4 -0.2,0.8 -0.3,1.2 z"
             class="st0"
             inkscape:connector-curvature="0"
             style="fill:#72993f" />
          <path
             id="path14"
             d="m 201,40.6 c -0.3,-0.6 -0.2,-1 -0.2,-1.5 0,-6.3 0,-12.6 0,-18.9 0,-0.3 0,-0.6 0,-0.8 0.1,-1.3 0.7,-2 2,-2.1 0.6,0 1.3,-0.1 1.9,0.2 0.6,0.2 0.6,0.3 0.7,0.9 0,0.2 0,0.4 0,0.6 0,6.7 0,13.4 0,20.1 0,1.5 0,1.5 -1.4,1.5 -0.7,0 -1.3,0 -2,0 -0.4,0 -0.7,0 -1,0 z"
             class="st0"
             inkscape:connector-curvature="0"
             style="fill:#72993f" />
          <path
             id="path16"
             d="m 194.6,40.6 c -0.4,0 -0.8,0 -1.3,0 -0.3,0 -0.5,-0.2 -0.6,-0.5 -0.2,-0.6 -0.5,-1.3 -0.7,-1.9 -0.6,-1.7 -1.2,-3.4 -1.7,-5.1 -0.1,-0.3 -0.2,-0.6 -0.3,-0.9 -0.4,-1.2 -1.3,-1.7 -2.5,-1.8 -0.2,0 -0.4,0 -0.6,0 -3,0 -6,0 -9.1,0 -0.4,0 -0.9,0.1 -1.3,0.2 -0.8,0.2 -1.3,0.7 -1.6,1.4 -0.1,0.3 -0.2,0.5 -0.3,0.8 -0.8,2.2 -1.5,4.4 -2.3,6.6 -0.4,1.3 -0.3,1.2 -1.8,1.2 -0.5,0 -0.9,0 -1.4,0 -0.9,-0.1 -1.5,-0.9 -1.2,-1.8 0.1,-0.4 0.3,-0.8 0.4,-1.2 3,-7.7 6,-15.4 9.1,-23.1 0.6,-1.5 1.2,-3 1.8,-4.5 0.1,-0.3 0.3,-0.7 0.4,-0.9 1.4,-2.2 4.7,-2.1 5.9,0.2 0.2,0.3 0.3,0.6 0.4,1 3.6,9.2 7.2,18.5 10.9,27.8 0.2,0.4 0.3,0.8 0.3,1.2 0.1,0.8 -0.5,1.4 -1.3,1.5 -0.4,-0.2 -0.8,-0.2 -1.2,-0.2 0,0 0,0 0,0 z M 182.2,27.5 c 1.1,0 2.1,0 3.2,0 0.2,0 0.5,0 0.7,0 0.8,-0.1 1.3,-0.7 1.3,-1.5 0,-0.2 -0.1,-0.5 -0.2,-0.7 -1.3,-3.5 -2.6,-7 -3.8,-10.5 -0.1,-0.2 -0.2,-0.4 -0.3,-0.6 -0.4,-0.5 -1,-0.5 -1.4,0 -0.1,0.2 -0.2,0.4 -0.3,0.7 -1.3,3.4 -2.6,6.9 -3.9,10.3 -0.1,0.4 -0.2,0.7 -0.2,1.1 0.1,0.5 0.5,1 1,1.1 0.2,0 0.5,0 0.7,0 1.1,0.1 2.1,0.1 3.2,0.1 z"
             class="st0"
             inkscape:connector-curvature="0"
             style="fill:#72993f" />
          <path
             id="path18"
             d="m 128.1,32.1 c 0,-2.1 0,-4.1 0,-6.2 0,-1.5 0.4,-2.8 1.2,-4.1 1,-1.8 2.6,-2.8 4.5,-3.4 1.2,-0.4 2.5,-0.5 3.7,-0.5 1.2,0 2.4,0.1 3.5,0.5 1.4,0.4 2.7,1.1 3.7,2.2 0.9,1 1.4,0.8 2.2,0 1.6,-1.7 3.7,-2.5 6,-2.6 1.7,-0.1 3.3,0 4.9,0.5 2.7,0.9 4.5,2.6 5.2,5.3 0.2,0.7 0.3,1.5 0.3,2.3 0,4.3 0,8.6 0,12.9 0,0.1 0,0.3 0,0.4 0,0.6 -0.3,0.9 -0.9,0.9 -1,0 -2,0 -3.1,0 -0.6,0 -0.7,-0.1 -0.7,-0.7 0,-0.3 0,-0.6 0,-0.8 0,-3.6 0,-7.2 0,-10.9 0,-0.9 -0.1,-1.8 -0.4,-2.7 -0.3,-1 -0.9,-1.7 -1.8,-2.2 -2.1,-1.2 -5,-1 -6.8,0.7 -0.9,0.8 -1.3,1.8 -1.5,3 -0.1,0.8 -0.2,1.6 -0.2,2.4 0,3.3 0,6.5 0,9.8 0,1.4 -0.2,1.5 -1.5,1.5 -0.8,0 -1.5,0 -2.3,0 -0.7,0 -0.8,-0.1 -0.8,-0.8 0,-0.3 0,-0.6 0,-0.8 0,-3 0,-6 0,-9 0,-0.9 0,-1.8 -0.1,-2.7 -0.3,-2.2 -1.3,-3.7 -3.5,-4.4 -1.5,-0.5 -2.9,-0.4 -4.3,0.2 -1.6,0.7 -2.4,2.1 -2.6,3.8 -0.1,0.9 -0.1,1.7 -0.1,2.6 0,3.2 0,6.4 0,9.6 0,1.6 0,1.6 -1.6,1.6 -0.7,0 -1.5,0 -2.2,0 -0.5,0 -0.7,-0.2 -0.8,-0.8 0,-0.3 0,-0.6 0,-0.8 0,-2.5 0,-4.7 0,-6.8 0,0 0,0 0,0 z"
             class="st0"
             inkscape:connector-curvature="0"
             style="fill:#72993f" />
          <path
             id="path20"
             d="m 105.1,23 c -1.6,-1.3 -1.4,-3.2 0.3,-4.1 1,-0.6 2.2,-0.8 3.3,-0.9 1.6,-0.1 3.2,-0.1 4.7,0 1.8,0.1 3.5,0.5 5,1.4 2.5,1.3 3.7,3.5 4,6.2 0.1,0.6 0.1,1.1 0.1,1.7 0,3.9 0,7.7 0,11.6 0,1.4 0,1.4 -1.5,1.5 -1.2,0.1 -2.4,0.2 -3.6,0.3 -0.2,0 -0.3,0 -0.5,0 -2.2,0 -4.4,0.1 -6.6,0 -1.7,-0.1 -3.4,-0.5 -5,-1.2 -0.7,-0.3 -1.3,-0.7 -1.8,-1.3 -0.5,-0.5 -0.9,-1.1 -1.2,-1.9 -0.6,-1.8 -0.6,-3.7 0.1,-5.5 0.4,-1.2 1.2,-2 2.3,-2.7 1.1,-0.7 2.4,-1 3.7,-1.2 1.1,-0.2 2.2,-0.2 3.3,-0.2 1.7,0 3.4,0 5.2,0.2 1,0.1 1.2,-0.1 1,-1.1 -0.4,-2.3 -1.7,-3.7 -4.1,-4 -1.7,-0.3 -3.5,-0.3 -5.2,0 -0.8,0.1 -1.6,0.4 -2.4,0.8 -0.4,0.1 -0.7,0.2 -1.1,0.4 z m 12.7,14 c 0,-0.1 0.1,-0.2 0.1,-0.3 0,-1.9 0,-3.8 0,-5.7 0,-0.4 -0.2,-0.6 -0.6,-0.7 -0.7,-0.1 -1.5,-0.2 -2.2,-0.3 -1.3,0 -2.5,0 -3.8,0 -0.8,0 -1.5,0.2 -2.3,0.4 -1.8,0.6 -2.8,2.4 -2.3,4.3 0.2,1 0.8,1.7 1.7,2.1 0.5,0.2 1.1,0.4 1.7,0.5 2.2,0.4 4.3,0.3 6.5,0 0.5,0 0.9,-0.1 1.2,-0.3 z"
             class="st0"
             inkscape:connector-curvature="0"
             style="fill:#72993f" />
          <path
             id="path22"
             d="m 97.4,40 c -0.3,0.1 -0.4,0.1 -0.5,0.1 -1.2,0 -2.3,0 -3.5,0 -0.5,0 -0.6,-0.1 -0.6,-0.6 0,-0.2 0,-0.5 0,-0.7 0,-9.2 0,-18.4 0,-27.6 0,-0.5 0.1,-1 0.1,-1.5 0.1,-0.8 0.7,-1.2 1.4,-1.4 0.8,-0.2 1.7,-0.2 2.5,0.1 0.5,0.2 0.6,0.3 0.7,0.8 0,0.3 0,0.6 0,0.8 0,9.5 0,19.1 0,28.6 -0.1,0.5 -0.1,0.9 -0.1,1.4 z"
             class="st0"
             inkscape:connector-curvature="0"
             style="fill:#72993f" />
          <path
             id="path24"
             d="m 82.2,27 c 0.3,-1.8 -0.4,-3.6 -2,-4.4 -0.5,-0.3 -1.1,-0.5 -1.7,-0.6 -1.7,-0.4 -3.4,-0.4 -5.1,-0.2 -1.2,0.2 -2.3,0.5 -3.4,1.1 -0.2,0.1 -0.3,0.1 -0.5,0.2 -1.3,-1 -1.5,-2.8 -0.2,-3.8 0.4,-0.3 0.9,-0.6 1.4,-0.7 0.9,-0.3 1.8,-0.5 2.8,-0.5 1.3,0 2.6,0 3.9,0 1.5,0 2.9,0.3 4.3,0.9 1.5,0.6 2.9,1.5 3.8,2.9 0.9,1.3 1.4,2.8 1.4,4.4 0.1,1.5 0,3.1 0,4.6 0,2.6 0,5.3 0,7.9 0,0.3 0,0.6 0,0.8 0,0.5 -0.2,0.7 -0.8,0.8 -0.6,0.1 -1.3,0.2 -1.9,0.2 -3.2,0.3 -6.5,0.4 -9.7,0.2 -1.6,-0.1 -3.3,-0.5 -4.8,-1.2 -2.3,-1.1 -3.4,-2.9 -3.4,-5.3 0,-0.8 0,-1.7 0.2,-2.5 0.4,-1.6 1.3,-2.8 2.7,-3.6 1.1,-0.6 2.3,-0.9 3.5,-1.1 1.4,-0.2 2.7,-0.2 4.1,-0.2 1.4,0 2.8,-0.1 4.2,0.2 C 81.6,27 81.9,27 82.2,27 Z m 0,10.1 c 0.3,-0.5 0.3,-0.9 0.3,-1.3 0,-1.4 0,-2.8 0,-4.2 0,-0.2 0,-0.4 0,-0.6 -0.1,-0.5 -0.2,-0.6 -0.6,-0.7 -0.8,-0.1 -1.5,-0.2 -2.3,-0.3 -1.1,0 -2.2,0 -3.4,0 -0.7,0 -1.3,0.1 -2,0.2 -1.8,0.4 -3.1,1.5 -3,3.9 0.1,1.1 0.6,1.9 1.5,2.5 0.4,0.2 0.8,0.4 1.2,0.5 1,0.3 2.1,0.4 3.1,0.4 1.2,0 2.5,0 3.7,-0.2 0.5,0 1,-0.1 1.5,-0.2 z"
             class="st0"
             inkscape:connector-curvature="0"
             style="fill:#72993f" />
          <path
             id="path26"
             d="m 38.9,33.5 c 0.3,0.1 0.5,0.2 0.7,0.3 2,1.1 4.2,1.9 6.5,2.2 1,0.2 2,0.3 3,0.3 1.4,0.1 2.9,-0.1 4.3,-0.4 0.8,-0.2 1.5,-0.5 2.1,-0.9 2,-1.4 2.3,-5 -0.2,-6.4 -1,-0.6 -2.1,-0.8 -3.2,-1.1 -2.3,-0.4 -4.6,-0.8 -6.8,-1.3 -1.4,-0.3 -2.7,-0.7 -3.9,-1.4 -1.2,-0.7 -2.3,-1.5 -3,-2.7 -0.6,-0.9 -0.9,-1.9 -1,-3 -0.1,-1.1 -0.1,-2.2 0.2,-3.3 0.5,-2 1.7,-3.5 3.4,-4.6 1.3,-0.8 2.7,-1.3 4.2,-1.6 1.6,-0.3 3.3,-0.4 4.9,-0.3 1.7,0 3.3,0.1 4.9,0.5 1.4,0.3 2.7,0.7 3.9,1.5 0.5,0.3 0.9,0.7 1.3,1.1 0.6,0.6 0.7,1.3 0.5,2.1 -0.3,0.8 -0.7,1.5 -1.4,2 -0.1,-0.1 -0.2,-0.1 -0.3,-0.1 -1.7,-1.3 -3.6,-2 -5.6,-2.5 -1.7,-0.4 -3.5,-0.5 -5.2,-0.4 -0.9,0.1 -1.8,0.3 -2.7,0.4 -0.2,0 -0.4,0.1 -0.6,0.2 -1.9,0.8 -2.8,2.2 -2.5,4.2 0.1,0.8 0.5,1.5 1.2,2.1 0.6,0.4 1.2,0.7 1.9,1 1.1,0.4 2.3,0.6 3.5,0.8 2.1,0.4 4.2,0.8 6.3,1.3 1.4,0.3 2.8,0.9 4.1,1.7 2.1,1.3 3.1,3.2 3.2,5.6 0.1,1.5 -0.1,2.9 -0.8,4.3 -1,2 -2.6,3.4 -4.7,4.2 -1.5,0.6 -3.1,1 -4.8,1.1 -0.6,0 -1.3,0.2 -1.9,0.2 -3.7,0 -7.2,-0.6 -10.6,-2 -0.5,-0.2 -1,-0.5 -1.5,-0.7 -0.8,-0.4 -1.3,-1 -0.8,-2.3 0.2,-0.7 0.7,-1.4 1.4,-2.1 z"
             class="st0"
             inkscape:connector-curvature="0"
             style="fill:#72993f" />
        </g>
        <g
           id="g38">
          <path
             id="path30"
             d="m 122,13.8 c -0.3,0.2 -0.5,0.3 -0.6,0.4 -0.4,0.3 -0.9,0.4 -1.4,0.5 -1.2,0.1 -2.5,0.1 -3.7,0 -0.3,0 -0.6,-0.1 -0.9,-0.2 -0.3,-0.1 -0.6,-0.4 -0.7,-0.8 -0.1,-0.4 0,-0.8 0.5,-1.1 0.5,0.1 1,0.5 1.6,0.3 0.3,-0.3 0.2,-0.6 0.2,-0.9 0,-1.3 0,-2.7 0,-4 0,-0.4 0,-0.8 0.1,-1.2 0.1,-0.5 0.3,-0.7 0.8,-0.7 0.3,0 0.6,0 1,0.2 0,0.2 0.1,0.5 0.1,0.9 0,1.4 0,2.7 0,4.1 0,0.3 0,0.6 0,0.8 0,0.7 0.3,0.9 1,0.8 0.5,-0.1 0.9,-0.4 1,-1 0.1,-0.4 0.1,-0.9 0.1,-1.4 0,-1.7 0,-3.4 0,-5.2 0,-0.3 0,-0.6 0,-0.8 0.1,-0.5 0.3,-0.8 0.8,-0.8 0.2,0 0.4,0 0.5,0 0.1,0 0.3,0.1 0.4,0.1 0.2,0.4 0.1,0.8 0.1,1.3 0,1.8 0,3.7 0,5.5 0,0.3 0,0.7 0.1,1 0.1,0.8 0.5,1.2 1.3,1.3 0.2,0 0.5,0 0.7,0 3.8,0 7.7,0 11.5,0 0.3,0 0.6,0 0.9,-0.1 0.7,-0.1 1.1,-0.5 1.2,-1.1 0.1,-0.3 0.1,-0.6 0.1,-0.9 0,-0.8 0,-1.5 0,-2.3 0,-0.2 0,-0.5 0,-0.7 0,-0.2 0.2,-0.4 0.4,-0.4 0.4,-0.1 0.8,-0.1 1.3,0.1 0,0.2 0.1,0.5 0.1,0.8 0,0.8 0,1.7 0,2.5 0,0.4 0.1,0.8 0.2,1.2 0.2,0.6 0.6,0.9 1.3,0.9 0.6,0 1.1,-0.2 1.3,-0.8 0.1,-0.4 0.2,-0.7 0.2,-1.1 0,-0.8 0,-1.7 0,-2.5 0,-0.2 0,-0.4 0,-0.6 0,-0.3 0.2,-0.5 0.5,-0.5 0.4,0 0.8,0 1.1,0 0.3,0.3 0.3,0.6 0.3,0.8 0,0.8 0,1.5 0,2.3 0,0.5 0,0.9 0.1,1.4 0.1,0.6 0.6,1 1.3,1.1 0.7,0 1.2,-0.2 1.4,-0.8 0.1,-0.3 0.1,-0.6 0.1,-0.9 0,-0.9 0,-1.8 0,-2.6 0,-0.2 0,-0.5 0,-0.7 0,-0.2 0.2,-0.4 0.4,-0.4 0.5,-0.1 0.9,-0.1 1.4,0.1 0,0.2 0.1,0.5 0.1,0.8 0,0.8 0,1.5 0,2.3 0,0.3 0,0.6 0,0.8 0.1,1 0.5,1.5 1.5,1.5 1.5,0 3,0 4.4,0 1,0 1.4,-0.5 1.5,-1.4 0,-0.4 0,-0.8 0,-1.2 0,-1.5 0,-3.1 0,-4.6 0,-0.4 0,-0.8 0,-1.2 0,-0.5 0.3,-0.8 0.8,-0.8 0.2,0 0.4,0 0.6,0 0.2,0 0.4,0.2 0.4,0.4 0,0.2 0,0.4 0,0.6 0,2.2 0,4.4 0,6.6 0,0.3 0,0.6 0,0.8 0,1.1 -1,2.1 -2.1,2.3 -0.5,0.1 -1,0.1 -1.5,0.1 -0.9,0 -1.9,0 -2.8,0 -0.1,0 -0.3,0 -0.4,0 -1.2,0 -2.5,-0.1 -3.5,-1 -0.8,0.5 -1.6,0.9 -2.5,0.9 -0.9,0 -1.7,-0.3 -2.4,-0.9 -1.7,1.3 -3.3,1.3 -4.8,0.1 -0.1,0 -0.1,0 -0.2,0 -0.9,0.7 -2,0.9 -3.1,0.9 -1,0 -2,0 -2.9,0 -2.5,0 -4.9,0 -7.4,0.1 -0.2,0 -0.5,0 -0.7,0 -0.9,0 -2.1,-0.1 -3.1,-1 z"
             class="st1"
             inkscape:connector-curvature="0"
             style="fill:#007c96" />
          <path
             id="path32"
             d="m 107.7,9 c 0.1,-0.1 0.1,-0.1 0.2,-0.1 1,-1.6 2.6,-1.7 4.2,-1.4 1.4,0.3 2,1.3 2,2.3 0,0.8 0,1.7 0,2.5 0,1.3 -1.1,2.2 -2.2,2.3 -0.7,0.1 -1.3,0.1 -2,0 -1.2,-0.2 -2,-0.9 -2.2,-2.1 -0.1,-0.3 0,-0.6 -0.1,-0.8 -0.2,-0.9 -1,-1.4 -1.9,-1.1 -0.5,0.2 -0.8,0.6 -0.9,1.1 -0.1,0.3 0,0.7 0,1 0,0.4 0,0.8 0,1.3 0,0.6 -0.2,0.7 -0.8,0.8 -0.1,0 -0.3,0 -0.4,0 -0.5,0 -0.7,-0.2 -0.7,-0.7 0,-0.9 -0.1,-1.8 0,-2.6 0.1,-1.4 0.9,-2.2 2.2,-2.6 0.6,-0.1 1.2,-0.2 1.9,0 0.2,0 0.4,0 0.7,0.1 z m 1.9,2 c 0,0.3 0,0.6 0.1,0.9 0.1,0.6 0.5,0.9 1.1,1 0.7,0.1 1.2,-0.2 1.4,-0.8 0.2,-0.7 0.2,-1.4 0,-2.2 -0.2,-0.6 -0.7,-0.9 -1.4,-0.8 -0.6,0.1 -1,0.4 -1.1,1 -0.1,0.3 -0.1,0.6 -0.1,0.9 z"
             class="st1"
             inkscape:connector-curvature="0"
             style="fill:#007c96" />
          <path
             id="path34"
             d="m 162.8,14.6 c -0.7,0.2 -1.2,0.2 -1.8,0 0,-0.2 -0.1,-0.5 -0.1,-0.7 0,-2.9 0,-5.8 0,-8.7 0,-0.1 0,-0.3 0,-0.4 0.1,-0.8 1,-1.3 1.7,-0.8 0.1,0.1 0.2,0.2 0.2,0.3 0,0.2 0,0.4 0,0.6 0,2.9 0,5.9 0,8.8 0.1,0.3 0.1,0.6 0,0.9 z"
             class="st1"
             inkscape:connector-curvature="0"
             style="fill:#007c96" />
          <path
             id="path36"
             d="m 203,14.9 -2.7,-2.7 c -0.1,-0.1 -0.1,-0.2 0,-0.3 L 203,9.2 c 0.1,-0.1 0.2,-0.1 0.3,0 l 2.7,2.7 c 0.1,0.1 0.1,0.2 0,0.3 l -2.7,2.7 c -0.1,0.1 -0.2,0.1 -0.3,0 z"
             class="st1"
             inkscape:connector-curvature="0"
             style="fill:#007c96" />
        </g>
      </g>
      <g
         id="g108">
        <linearGradient
           y2="35.536701"
           x2="23.158199"
           y1="35.536701"
           x1="1.8969001"
           gradientUnits="userSpaceOnUse"
           id="SVGID_1_">
          <stop
             id="stop42"
             style="stop-color:#00AACB"
             offset="0" />
          <stop
             id="stop44"
             style="stop-color:#00A7C8"
             offset="0.2524" />
          <stop
             id="stop46"
             style="stop-color:#009EBE"
             offset="0.4552" />
          <stop
             id="stop48"
             style="stop-color:#008EAD"
             offset="0.6406" />
          <stop
             id="stop50"
             style="stop-color:#017895"
             offset="0.8158" />
          <stop
             id="stop52"
             style="stop-color:#015C77"
             offset="0.9823" />
          <stop
             id="stop54"
             style="stop-color:#015973"
             offset="1" />
        </linearGradient>
        <path
           id="path57"
           d="m 12.2,25.2 c 0,0.2 0.1,0.3 0.3,0.4 2,2 4.1,4.1 6.1,6.1 1.2,1.2 2,2.6 2.7,4.1 0.5,1.1 1,2.3 1.3,3.5 0.1,0.3 0.1,0.7 0.2,1.1 0.2,0.5 0.2,1.1 0.3,1.6 0.1,0.7 0.2,1.4 0.2,2.1 0,0.6 0,1.1 0,1.7 0,0 0,0.1 0,0.1 0,0.1 0,0.3 -0.1,0.4 C 23,46.4 22.9,46.2 22.8,46.1 21.9,45.2 20.9,44.2 20,43.3 17.9,41.2 15.8,39.1 13.7,37 12.2,35.5 10.7,33.9 9.1,32.4 6.8,30.1 4.6,27.9 2.3,25.6 2.2,25.5 1.9,25.4 2.1,25.2 2.4,25.1 2.9,25 3.3,25 c 1.6,-0.2 3.3,-0.2 4.9,-0.1 0.6,0 1.2,0 1.7,0.1 0.8,0 1.5,0.1 2.3,0.2 z"
           class="st2"
           inkscape:connector-curvature="0"
           style="fill:url(#SVGID_1_)" />
        <linearGradient
           y2="14.7678"
           x2="23.116501"
           y1="14.7678"
           x1="1.9166"
           gradientUnits="userSpaceOnUse"
           id="SVGID_2_">
          <stop
             id="stop59"
             style="stop-color:#D5DD26"
             offset="0" />
          <stop
             id="stop61"
             style="stop-color:#D2DB27"
             offset="0.2404" />
          <stop
             id="stop63"
             style="stop-color:#C8D429"
             offset="0.4335" />
          <stop
             id="stop65"
             style="stop-color:#B7C82E"
             offset="0.6101" />
          <stop
             id="stop67"
             style="stop-color:#9FB834"
             offset="0.7769" />
          <stop
             id="stop69"
             style="stop-color:#81A33B"
             offset="0.9355" />
          <stop
             id="stop71"
             style="stop-color:#72993F"
             offset="1" />
        </linearGradient>
        <path
           id="path74"
           d="M 12.2,25.2 C 11.5,25.1 10.7,25 10,24.9 9.4,24.8 8.8,24.8 8.3,24.8 6.6,24.8 5,24.7 3.3,25 2.8,25.1 2.4,25.1 1.9,25.3 1.8,25.2 1.9,25.2 1.9,25.2 2.4,24.7 3,24.1 3.5,23.6 4,23.1 4.5,22.6 5,22.2 5.5,21.7 6,21.1 6.6,20.6 6.9,20.3 7.2,20 7.5,19.7 8.3,18.9 9.1,18.1 9.8,17.3 10.9,16.2 12,15.1 13.2,13.9 15.1,12 17,10.1 18.9,8.2 20.1,7 21.3,5.8 22.5,4.6 c 0,0 0.1,-0.1 0.1,-0.1 0.1,-0.1 0.2,-0.2 0.3,-0.1 0.1,0 0.2,0.2 0.2,0.3 0,0.3 0,0.7 0,1 0,1 0,2 -0.1,3 -0.1,1 -0.3,1.9 -0.5,2.8 -0.3,1.2 -0.7,2.3 -1.2,3.4 -0.9,2 -2.2,3.6 -3.8,5.1 -1.7,1.7 -3.4,3.4 -5.1,5.1 -0.1,0 -0.2,0 -0.2,0.1 z"
           class="st3"
           inkscape:connector-curvature="0"
           style="fill:url(#SVGID_2_)" />
        <linearGradient
           y2="23.190599"
           x2="26.1047"
           y1="28.9734"
           x1="22.766001"
           gradientUnits="userSpaceOnUse"
           id="SVGID_3_">
          <stop
             id="stop76"
             style="stop-color:#00AACB"
             offset="0" />
          <stop
             id="stop78"
             style="stop-color:#00A2C2"
             offset="0.1857" />
          <stop
             id="stop80"
             style="stop-color:#008BAA"
             offset="0.4884" />
          <stop
             id="stop82"
             style="stop-color:#016782"
             offset="0.8684" />
          <stop
             id="stop84"
             style="stop-color:#015973"
             offset="1" />
        </linearGradient>
        <path
           id="path87"
           d="m 29.4,25.1 c 0.1,0 0.1,0.1 0.2,0.1 0.1,0.1 0.1,0.2 0,0.3 -0.3,0.3 -0.7,0.6 -1,1 -0.6,0.6 -1.2,1.2 -1.8,1.8 -0.5,0.5 -1,1 -1.6,1.6 -0.3,0.3 -0.5,0.3 -0.8,0 -1.4,-1.4 -2.9,-2.8 -4.3,-4.3 -0.1,-0.1 -0.3,-0.3 0,-0.4 0.7,0.1 1.4,-0.2 2.1,-0.4 0.7,-0.2 1.4,-0.4 2.1,-0.6 1.4,-0.3 2.8,-0.3 4.1,0.3 0.3,0.1 0.5,0.3 0.8,0.4 0,0 0,0 0,0 0.1,0.2 0.1,0.2 0.2,0.2 z"
           class="st4"
           inkscape:connector-curvature="0"
           style="fill:url(#SVGID_3_)" />
        <linearGradient
           y2="22.8986"
           x2="29.280199"
           y1="22.8986"
           x1="20.1483"
           gradientUnits="userSpaceOnUse"
           id="SVGID_4_">
          <stop
             id="stop89"
             style="stop-color:#72993F"
             offset="0" />
          <stop
             id="stop91"
             style="stop-color:#81A33B"
             offset="6.451863e-02" />
          <stop
             id="stop93"
             style="stop-color:#9FB834"
             offset="0.2231" />
          <stop
             id="stop95"
             style="stop-color:#B7C82E"
             offset="0.3899" />
          <stop
             id="stop97"
             style="stop-color:#C8D429"
             offset="0.5665" />
          <stop
             id="stop99"
             style="stop-color:#D2DB27"
             offset="0.7596" />
          <stop
             id="stop101"
             style="stop-color:#D5DD26"
             offset="1" />
        </linearGradient>
        <path
           id="path104"
           d="M 29.3,25 C 29,24.9 28.8,24.7 28.5,24.6 27.2,24 25.8,24 24.4,24.3 c -0.7,0.2 -1.4,0.4 -2.1,0.6 -0.7,0.2 -1.4,0.4 -2.1,0.4 0.3,-0.4 0.6,-0.7 1,-1 1.1,-1.2 2.3,-2.3 3.5,-3.5 0.3,-0.3 0.3,-0.3 0.5,0 1.3,1.4 2.6,2.7 4,4 0,0.1 0.1,0.1 0.1,0.2 z"
           class="st5"
           inkscape:connector-curvature="0"
           style="fill:url(#SVGID_4_)" />
        <path
           id="path106"
           d="m 29.4,25.1 c 0,0 -0.1,0 -0.1,-0.1 0,0 0,0.1 0.1,0.1 z"
           class="st6"
           inkscape:connector-curvature="0"
           style="fill:#b5ca30" />
      </g>
    </g>
  </g>
  <style
     id="style10"
     type="text/css">
	.st0{fill:#72993F;}
	.st1{fill:#007C96;}
	.st2{fill:url(#SVGID_1_);}
	.st3{fill:url(#SVGID_2_);}
	.st4{fill:url(#SVGID_3_);}
	.st5{fill:url(#SVGID_4_);}
	.st6{fill:#B5CA30;}
</style>
</svg>
