<?xml version="1.0" encoding="utf-8"?>
<!-- Generator: Adobe Illustrator 23.0.0, SVG Export Plug-In . SVG Version: 6.00 Build 0)  -->
<svg version="1.1" id="Layer_1" xmlns="http://www.w3.org/2000/svg" xmlns:xlink="http://www.w3.org/1999/xlink" x="0px" y="0px"
	 viewBox="0 0 1710.7 1710.7" style="enable-background:new 0 0 1710.7 1710.7;" xml:space="preserve">
<style type="text/css">
	.st0{fill:#1C9B93;}
	.st1{fill:#36B4AE;}
</style>
<g>
	<path class="st0" d="M801.9,1192.9c204.8,0,331.1-100.7,431-100.7c53.7,0,99.2,45,99.2,45s-13.2-93.7-79.9-114.1
		c-66.6-20.4-182.7-30.1-247.2-30.1c-127.9,0-160.2,80.6-318.2,80.6s-220.4-9.7-220.4-9.7S559,1192.9,801.9,1192.9z"/>
	<path class="st1" d="M105.8,290.1c0,0,150.5-9.1,258.8,99.2c202.9,202.9,131.5,338.2,343.5,550.3
		c172.4,172.4,491.1,35.4,591.5,135.7c28.3,28.3,32.5,61.9,32.5,61.9s4-10.5,2.7-27.6c-2.1-28.3-32.5-104.5-115.2-119.8
		c-402.8-74.3-284.8-733.8-920.8-749.6C209.2,237.9,137.7,258.2,105.8,290.1z"/>
	<path class="st1" d="M1146.4,915.5c0,0-142.4-149.4-142.4-302c0-273,284.8-373.5,284.8-373.5s-83.3,66.6-83.3,105.8
		c0,0,143.5-113.9,298.3-113.9c70.9,0,101,33.3,101,33.3S1146.4,244.3,1146.4,915.5z"/>
	<path class="st1" d="M533.3,284.4c-54.1,36.4-102.8,80.3-144.5,130.3c15.9,17.2,29.7,33.9,42,50.3
		c47.3-58.8,105.1-108.9,170.5-147.3C580.3,305.4,557.6,294.2,533.3,284.4z M1253.6,255.4c-17.9,8.6-41.1,21.2-66.1,38.1
		c11,5.2,21.8,10.9,32.5,16.9c12.2-17.6,29.9-35.7,44.3-49C1260.8,259.4,1257.1,257.4,1253.6,255.4z M1390.6,356.6
		c-17,11.5-34,25-50.6,40.8c123.2,113.9,200.4,276.9,200.4,458c0,344.2-279.2,623.4-623.4,623.4c-344.3,0-623.5-279.2-623.5-623.4
		c0-139.2,45.7-267.9,122.9-371.8c-12.2-16.6-26.1-33.6-42-51.1c-91,116.6-145.3,263.5-145.3,422.8c0,379.8,307.9,687.8,687.9,687.8
		c379.8,0,687.9-307.9,687.9-687.8C1604.9,658.9,1522.5,481.8,1390.6,356.6z M1373,340.5c-22.2-19.8-45.7-38-70.3-54.7
		c-25.3,12.6-46.8,25.5-63,36.1c29.3,17.7,57,37.9,82.8,60C1339.1,366,1356.1,352.2,1373,340.5z M917,167.5
		c-132.2,0-255.7,37.3-360.6,101.9c24.2,10.6,46.6,22.4,67.7,35.5c87.4-46.6,187.1-73,292.9-73c87.6,0,170.9,18.1,246.5,50.7
		c23.8-17.1,46.5-30.4,65.5-40.4C1135.4,194.5,1029.3,167.5,917,167.5z"/>
</g>
</svg>
