<?xml version="1.0"?>
<svg viewBox="0 0 254.0354 175.30339" width="254.0354" height="175.30339" xmlns="http://www.w3.org/2000/svg">
  <path d="m 98.236049,81.697995 -7.276744,7.276745 c 4.961421,4.961415 6.615222,7.276747 6.945978,9.592066 0.330766,-0.330757 6.945977,-5.953691 6.945977,-7.938261 0,-2.97685 -1.98455,-3.969132 -6.615211,-8.93055 M 24.807084,126.35073 H 0 c 0,0 4.2998945,3.63839 4.2998945,11.24589 v 29.76852 c 0,7.6075 2.97685,7.6075 2.97685,7.6075 H 31.422306 c 5.622936,0 7.276743,-3.96914 7.276743,-5.95371 v -2.97685 c 0,0 -1.653807,3.63837 -8.93055,3.63837 H 18.191862 c -3.638373,0 -3.307613,-2.97684 -3.638373,-5.62293 v -16.53808 h 8.269029 c 2.646089,0 5.292178,0.33077 7.938263,1.65382 0,0 -2.646085,-6.61521 -10.915113,-6.61521 h -5.292179 v -5.29219 c 0,0 0,-4.63065 -0.992284,-5.9537 h 7.607505 c 6.615224,0 11.576641,0 16.868819,3.30762 0.33076,0.66152 -0.661522,-8.26905 -13.230445,-8.26905 m 38.36829,9.59209 c -7.938268,0 -9.922837,7.6075 -9.922837,7.6075 0,0 -0.330759,-7.27675 -6.61522,-7.27675 h -6.284461 c 0,0 3.638373,1.32305 3.638373,7.60751 v 23.15329 c 0,7.60748 2.976849,7.93827 2.976849,7.93827 h 10.253596 c -0.330762,0 -3.969137,-2.97684 -3.969137,-7.93827 v -20.50719 c 0,-0.99229 1.653808,-3.96913 5.953702,-3.96913 2.646089,0 5.292178,2.64608 5.292178,5.62291 v 19.18418 c 0,7.93825 2.976851,7.93825 2.976851,7.93825 h 10.253594 c 0,0 -3.969134,-2.64611 -3.969134,-7.93825 v -20.5072 c 0.330762,-0.99228 1.653807,-3.96914 5.622939,-3.96914 2.97685,0 5.622938,2.64609 5.622938,5.62294 v 19.18416 c 0,7.60749 2.97685,7.60749 2.97685,7.60749 h 10.253594 c 0,0 -3.969133,-2.64611 -3.969133,-7.93825 v -20.83796 c 0,-8.26902 -6.615221,-10.25361 -11.576637,-10.25361 -6.615223,0 -8.599789,5.62294 -9.26131,7.27675 -0.992284,-5.29216 -5.953701,-7.6075 -10.253595,-7.6075 m 42.998936,0.33075 h -6.284448 c 0,0 3.638378,1.65381 3.638378,7.60751 v 23.15329 c 0,7.60748 2.97685,7.60748 2.97685,7.60748 h 10.25359 c 0,0 -3.96914,-2.64605 -3.96914,-7.93824 V 144.5426 c 0,-8.26903 -4.63068,-8.26903 -6.61523,-8.26903 m 18.19188,0 h -6.28447 c 0,0 3.63838,1.32305 3.63838,7.60751 v 23.15329 c 0,7.60748 2.97684,7.93827 2.97684,7.93827 h 10.2536 c -0.33076,0 -3.96914,-2.97684 -3.96914,-7.93827 v -19.18416 c 0.33076,-1.65379 1.32304,-2.97684 2.6461,-3.96913 1.32304,-0.99228 2.97684,-1.32303 4.63066,-1.32303 2.31531,0 4.63064,0.99227 6.28444,2.97684 v -6.61522 c 0,0 -0.99228,-2.6461 -5.29216,-2.6461 -6.28446,0 -7.93828,7.60751 -7.93828,7.60751 -0.66153,-5.9537 -2.31531,-7.60751 -6.94597,-7.60751 m 65.15994,-8.93053 c 0,0 -2.31532,3.96912 -6.94601,7.6075 -2.97684,2.31532 -8.93055,5.29217 -8.93055,5.29217 h 6.61524 v 27.12243 c 0,7.6075 2.97686,7.6075 2.97686,7.6075 h 10.25358 c 0,0 -3.96912,-2.6461 -3.96912,-7.6075 v -26.79167 h 2.64609 c 3.30759,0 5.95368,1.65381 5.95368,1.65381 v -5.95371 h -8.59977 v -8.93053 m 25.46859,8.93053 c -10.58436,0 -16.20729,9.92285 -16.20729,20.50719 0,10.58438 6.946,18.52263 16.86881,18.52263 8.26905,0 10.91512,-2.97685 10.91512,-2.97685 v -6.28446 c -2.3153,3.96913 -5.29218,4.96142 -7.93827,4.96142 a 9.9228339,9.9228339 0 0 1 -4.29988,-0.99229 c -4.63064,-1.98457 -5.29218,-7.93827 -5.29218,-7.93827 3.63837,-4.29989 8.26902,-3.30762 13.89195,-9.59206 7.93828,-7.93828 2.31532,-16.20731 -7.93826,-16.20731 m -6.28446,21.49948 c 0,0 -1.32307,-17.86111 5.29219,-18.52261 h 0.33076 c 5.29217,0 3.96912,7.6075 2.3153,10.58434 -2.3153,4.96141 -5.62293,5.29217 -7.93825,7.93827 m -100.5514,-34.06839 c -2.64605,0 -4.63062,1.98457 -4.63062,4.63064 0,2.6461 1.98457,4.63068 4.63062,4.63068 2.64612,0 4.63068,-1.98458 4.63068,-4.63068 0,-2.64607 -1.98456,-4.63064 -4.63068,-4.63064 m 50.27571,12.56891 c -5.95369,0 -9.59208,2.97687 -9.59208,2.97687 v 6.61522 c 0,0 1.98456,-5.29219 7.60751,-5.29219 5.29219,0 5.62294,2.6461 5.62294,3.96913 0,0 0.66155,1.65382 -0.66153,3.96914 -2.31531,4.2999 -20.83794,4.96143 -18.19184,19.5149 0.99228,5.62293 4.96139,7.27675 9.59207,7.27675 4.63066,0 7.27673,-2.31532 8.59977,-4.63066 0.66153,4.29991 2.97687,4.63066 2.97687,4.63066 h 10.25357 c 0,0 -3.96912,-2.64611 -3.96912,-7.60749 v -21.83024 c -0.33076,-5.62295 -5.95368,-9.59209 -12.23816,-9.59209 m -3.30762,34.39916 c -2.31531,0 -3.96913,-2.31532 -3.96913,-4.9614 0,-9.59208 7.93828,-10.91514 9.92285,-13.56124 v 16.20732 c -0.9923,0.99227 -1.98457,2.31532 -5.95372,2.31532 m 87.32094,-34.72991 c -6.28446,0 -11.57663,3.96912 -11.57663,9.26131 0,4.63065 1.98456,7.60751 5.62294,10.2536 l 5.29218,3.30759 c 2.97684,1.65382 3.96912,3.63838 3.96912,5.62296 0,2.64609 -2.31532,6.28445 -7.60751,6.28445 -5.29217,0 -7.60749,-5.62293 -7.60749,-5.62293 v 6.946 c 0,0 3.96911,2.64605 9.59206,2.64605 6.94597,0 14.22273,-5.29217 13.89197,-12.56891 0,-2.64608 -0.99227,-4.96141 -2.31532,-6.61521 -2.31533,-3.30764 -6.61521,-5.2922 -9.92283,-7.60752 -1.98459,-1.32303 -2.97685,-3.30761 -2.97685,-3.96913 0,-1.32303 0.66152,-3.96914 5.95369,-3.96914 4.96142,0 7.27673,5.29219 7.27673,5.29219 v -6.61523 c 0,0.66154 -3.63835,-2.64608 -9.59206,-2.64608 M 81.697995,68.79831 h -3.969133 c 0,0 3.969133,2.315328 3.969133,7.607507 v 17.861099 c 0,11.576644 9.592074,22.491764 21.168715,22.491764 h 9.59206 c 5.95371,0 7.93827,-1.32306 11.24589,-4.63066 l 3.63838,-3.63837 c 1.98457,-2.31534 4.29988,-3.96913 4.29988,-10.253601 v -5.953698 c 0,-4.961416 -2.97685,-7.276746 -4.29988,-8.599789 l -3.30763,-3.30761 v 11.907399 c 0,0 2.31532,2.646085 3.63838,3.307615 4.96142,3.969128 0.99228,10.915124 -3.63838,10.915124 h -21.1687 -0.33076 C 92.613115,106.17431 84.674844,97.905283 84.344085,87.982455 v -9.592071 c 0,-9.592074 -2.64609,-9.592074 -2.64609,-9.592074 m 31.091545,12.899685 -7.27673,7.276745 c 4.9614,4.961415 6.61521,7.276747 6.94596,9.592066 0.33077,-0.330757 6.94598,-5.953691 6.94598,-7.938261 0,-2.97685 -1.98457,-4.299897 -6.61521,-8.93055 M 127.67379,0 122.71237,4.9614168 c -1.98456,1.9845668 -1.32304,5.9536992 2.6461,9.9228322 v 9.922835 c 0,0.992282 -0.99228,1.984566 -0.99228,1.984566 0,0 -5.95371,-5.292178 -11.24589,-5.292178 h -7.93827 c -4.96141,0 -8.930543,4.630655 -9.592064,4.961417 -2.646089,2.646089 -2.646089,7.607508 -0.66153,9.922834 l 5.622944,5.622937 c 0,0 -1.323041,-8.930549 0,-14.884249 0.33076,-1.323045 1.98457,-2.976848 3.63837,-2.976848 l 12.89968,9.922834 -14.88425,15.545771 c -0.66153,0.661521 -2.646086,1.984567 -4.630653,1.984567 -2.31533,0 -3.307611,-1.323046 -4.299891,-2.646091 v 7.276744 c 0,2.31533 3.307612,4.961416 6.284458,4.961416 h 19.845656 c 1.32306,0 2.97687,-0.330758 4.29991,-1.653803 l 6.61522,-6.615223 c 0.99228,-0.992287 1.32304,-2.315328 1.32304,-3.969134 v -7.607505 c 0,-7.276742 -5.62293,-12.899683 -5.62293,-12.899683 0,0 1.32305,-0.992284 1.32305,-3.969134 v -7.607504 c 0,0 2.31531,2.315328 2.64608,3.307609 l 4.29988,-4.299895 c 1.98457,-1.984565 -1.32302,-5.622937 -2.64608,-7.2767431 C 127.67379,4.2998945 127.67379,0 127.67379,0 m -24.80708,52.260258 c 1.98455,-0.992284 2.31532,-1.653808 3.96913,-3.638374 l 12.56891,-13.230445 c 0,0 6.94598,7.276745 9.26132,11.245878 0.99228,1.984567 2.31533,5.622941 -3.63838,5.622941 H 102.86671 M 85.997889,37.045242 h -3.638372 c 2.315327,1.323047 3.969131,5.292183 3.969131,7.607508 v 14.553489 c 0,3.969135 2.976852,18.19186 15.876532,18.19186 h 37.37601 v 23.814791 c 0,3.96914 -1.32303,6.28448 -2.31533,7.27676 l -5.62294,5.29217 h 2.64608 l 10.2536,-9.2613 c 1.98458,-2.31534 4.29989,-4.630658 4.29989,-11.907405 V 77.398099 l 4.29989,-4.299893 7.27676,-6.945982 c 0,5.9537 2.97684,8.599789 5.62294,8.599789 a 6.6152224,6.6152224 0 0 0 3.96913,-1.653807 l 6.61522,-6.284461 c 2.97685,-2.97685 4.63065,-12.238163 -2.64607,-12.238163 -4.63068,0 -9.92284,6.615222 -10.2536,7.276746 -1.65382,-0.992282 -2.97684,-3.30761 -2.97684,-3.30761 v 5.622937 c -0.66155,0.992283 -3.63839,3.307613 -5.95373,3.307613 h -5.9537 v -5.62294 c 0,-2.646089 0.99229,-5.62294 2.31533,-6.945983 l 5.62294,-5.292177 h -2.64608 L 142.8888,59.867763 c -1.98457,2.315328 -3.30761,6.615221 -3.30761,7.607505 H 97.243768 c -5.292178,0 -8.59979,-5.292177 -8.59979,-9.592073 V 46.968078 c 0,-8.930549 -2.31533,-9.922836 -2.646089,-9.922836 M 171.665,68.79831 c -0.99227,0 -1.98455,-0.330758 -3.30759,-1.323042 -1.32304,-0.992284 -3.63836,-4.299894 -3.63836,-4.299894 0.6615,-0.661524 2.64609,-1.323046 4.29988,-1.323046 1.32304,0 2.64607,0.330763 2.97687,0.992283 2.31531,2.976849 1.98456,5.953699 -0.3308,5.953699 M 154.13468,0 142.8888,10.253595 c -0.66152,0.661521 -3.30761,4.630654 -3.30761,9.26131 v 29.437739 c 0,1.984569 -1.32303,4.961417 -2.31533,5.953701 l -5.62294,5.292176 h 2.64608 l 10.58437,-9.592071 c 1.32305,-1.323044 3.96912,-4.630655 3.96912,-10.253594 V 12.238162 c 0,-4.2998953 1.98456,-6.6152232 2.97686,-7.6075065 L 156.78076,0 h -2.64608 m 1.6538,75.413535 v 11.576636 l 3.96914,4.299898 c 3.30761,3.307609 2.97687,9.592071 -6.94598,19.184141 a 19.845668,19.845668 0 0 1 -13.5612,6.28447 h -17.86111 l 10.58436,9.26131 h 7.27675 c 7.27674,0 13.89194,-2.97686 18.19186,-7.60751 3.96911,-4.2999 6.28446,-9.92283 5.95368,-15.87653 V 87.320935 c 0,-5.292178 -3.30761,-8.269027 -3.96912,-8.930551 -0.66154,0 -3.63838,-2.976849 -3.63838,-2.976849" style="fill:#D71A21" />
</svg>
