<svg xmlns="http://www.w3.org/2000/svg" viewBox="0 0 403.77 145.22"><defs><style>.cls-1{fill:#a38e5d;}.cls-2{fill:#b6a47c;}.cls-3{fill:#1e2947;}.cls-4{fill:#3f475b;}</style></defs><path class="cls-1" d="M331.6,49.57c.58-1.15,1.1-2.19,1.6-3.24-.72-.46-1.76-1.09-3.74-2.13l-.06.65c-.57,1.14-1.09,2.2-1.58,3.24a38.47,38.47,0,0,0,3.73,2.15Z"/><path class="cls-1" d="M281,50.48c.57-1.15,1.09-2.19,1.6-3.24-.72-.46-1.77-1.09-3.75-2.14l-.06.65c-.57,1.15-1.09,2.21-1.57,3.24a36.27,36.27,0,0,0,3.72,2.15Z"/><path class="cls-1" d="M394.43,62.5c-2.32.11-4.09.19-8.82.13,2.58-3.15,6.1-6,9.11-6a4.79,4.79,0,0,1,4.67,3.68c-.44,1.47-2.66,2.09-5,2.19m1.15-11.12c-3.13,0-5.7,1.84-8.24,4.62a8.79,8.79,0,0,0,.27-2l.84-11.83.48-.94-4.49,2c-1.27.58-1.38,1.1-1.24,2.37l1.38,13.75-2.29,3.15c-1.2,0-3.51,0-4.79-.06l0,0c-3,0-2.54-2.06-2.25-3.3l.59-2.44L374,56.28c-1.84,3.92-2.82,6.39-5.79,6.39H366c-2.28,0-3.36-1.46-5.91-5.6l-.21-.68-3.6,2.68a42.36,42.36,0,0,1,5.05,6.34c-3.07,5.65-10.6,9-14.41,9l3.73,3.43a3,3,0,0,0,2.23,1c2.86,0,9.49-5.46,10.59-12.24.91.88,2,1.1,3.65,1.1h2c2.11,0,3.09-1,4-2.8,1,2.22,1.89,2.8,4,2.8h16.94c5.15,0,8.07-4.84,8.07-9a7.05,7.05,0,0,0-6.64-7.25"/><path class="cls-1" d="M375,71s0,0,0,0l-.05.65c-.58,1.15-1.1,2.21-1.58,3.24A33.61,33.61,0,0,0,377.09,77h0l.06-.65c.57-1.15,1.09-2.21,1.57-3.24C378.05,72.64,377,72,375,71Z"/><path class="cls-1" d="M295.56,45.35c0,.8,2,12.16,2.47,16.49-.74.72-1.4.74-2.81.77l-4.48.06c-2.39,0-3.56.19-4.56-2.2a4,4,0,0,1,1.39-.22h1.22l2.09-4.45-3.31,0c-3.8,0-6.67-2.88-11.51-2.88a15,15,0,0,0-2.56.14l-3,5.32,2-.87c.38,0,.76,0,1.47,0,4.67,0,7,1.4,8.7,1.94a19.62,19.62,0,0,1-3.44,2.48c-1.83,1.09-5,.85-9.69.85-1.87,0-2.52,0-3.3-.51a12,12,0,0,0,.17-1.47l.55-18.41.49-.94-4.45,2c-1.22.54-1.37,1-1.37,1.89s1.81,12.3,2.29,16.54c-.69.67-1.38.69-2.75.72l-4.14.06c-2.77.06-3-1.35-1.62-5.91l-1.83-.48c-2.42,5.19-3.16,6.39-6,6.39H242c-1.6,0-2.74-.36-3.43-2.15h2.11l2.08-4.44-3.58,0c-3.69,0-9.64-2.89-13.57-2.89a8.45,8.45,0,0,0-1.72.15l-3,5.32,1.94-.89c.39,0,.78,0,1.49,0a25.23,25.23,0,0,1,5.87.66,16.51,16.51,0,0,0-10,14.91c0,7.6,6.4,11.36,12.21,11.36,3,0,6-1,6.92-2.08A35.41,35.41,0,0,0,242,78.24c-1.68.92-6.2,1.5-8.07,1.5-5.43,0-11-1.95-11.09-8.49.69-5.32,7.36-9.84,13.88-10.62,2.1,6.67,3.52,7,6.32,7h5.83c2.07,0,3.16-1.16,4-3.23.95,2.32,1.7,3.23,3.87,3.23h5c1.09,0,1.59-.2,1.92-.56a10.59,10.59,0,0,0,1.61-2.33c1.47,2.63,2.84,2.89,5,2.89h5c2.12,0,3.58-.39,6-2.89,1.55-1.6,2.59-2.65,3.46-3.37,1.48,4.61,2.2,6.26,4.76,6.26h6.39c1.12,0,1.6-.17,1.94-.5a9.81,9.81,0,0,0,2.77-6.34l.33-18.41.49-.94-4.44,2c-1.24.54-1.38,1-1.38,1.89"/><path class="cls-1" d="M229,72a35.68,35.68,0,0,0,3.74,2.15l0-.67c.59-1.14,1.11-2.2,1.6-3.24a40.4,40.4,0,0,0-3.73-2.13l0,.65C230,69.91,229.49,71,229,72"/><path class="cls-1" d="M340,50.31l-3.49,2.29c-1.15.73-1.18,1.07-1.18,1.37,0,1,2.11,4,3.6,8.59-1.54,1.84-5.14,3.29-8.92,3.29-3.41,0-6.29-1.28-6.29-4.34A14.44,14.44,0,0,1,325,55.58l-1.69-.74a15.8,15.8,0,0,0-2.46,7.58c-.06,5,2.74,8.56,9,8.56,7.51,0,11-4.34,11.51-9,.28-2.57-.51-7.13-1.45-10.7Z"/><path class="cls-1" d="M253,71.78c-.57,1.15-1.09,2.2-1.59,3.24a37.94,37.94,0,0,0,3.74,2.14l.06-.66c.57-1.14,1.09-2.2,1.57-3.24-.7-.46-1.74-1.1-3.72-2.15Z"/><path class="cls-1" d="M369.35,70.32a0,0,0,0,0,0,0l-.05.66c-.59,1.15-1.1,2.21-1.59,3.25a35.58,35.58,0,0,0,3.73,2.13h0l.06-.65c.57-1.15,1.09-2.21,1.57-3.24-.71-.46-1.74-1.1-3.72-2.15Z"/><path class="cls-1" d="M305.12,45.84l2.17,20.58-.19,1.78c2.11-2.27,2.59-2.84,2.68-5.32l.6-20.51.5-.92-4.5,2c-1.26.57-1.4,1.09-1.26,2.35"/><path class="cls-1" d="M347.53,68.21c2.11-2.28,2.61-2.86,2.68-5.32l.61-20.51.49-.93-4.49,2c-1.27.58-1.41,1.11-1.27,2.38l2.17,20.58Z"/><path class="cls-1" d="M247.34,71.12l-1.6,3.24a37.34,37.34,0,0,0,3.75,2.14l.06-.65c.57-1.15,1.09-2.21,1.57-3.24a40.83,40.83,0,0,0-3.72-2.15Z"/><path class="cls-1" d="M94.5,133.77,93,135.29l-.2-.44,1.45-1.44.28.36m.87,1.6-1.85,1.83a4.18,4.18,0,0,0-.1-.51l1.76-1.76c.06.14.13.28.19.44m.45,2-1.41,1.42-.4-.21,1.75-1.77c0,.19,0,.38.06.56m-3.95-4.06L93,132.14l.33.31-1.23,1.23c-.08-.13-.17-.26-.25-.37M90.72,132l.88-.89.38.24-.94.95-.32-.3m-1-.87-.35-.28.66-.64.39.23ZM88.36,130l-.35-.28.44-.44c.13.07.26.15.39.21ZM87,128.94l-.34-.26.22-.25.41.23ZM82.3,140.4l.46.17-.31.3a3.85,3.85,0,0,0-.38-.23Zm1.85.61a4.77,4.77,0,0,0,.51.13l-.66.67-.41-.23Zm2,.46.55.08-1.08,1.08-.43-.19Zm2.27.2h.64l-1.64,1.64-.48-.16Zm2.55.54-1.52,1.52-.55-.08,1.75-1.73Zm1,.88.33.29-.22.2a4.31,4.31,0,0,1-.75.15Zm-15.74-.94-.29-.31.54-.54c.13.07.26.16.39.22Zm-1.17-1.28-.3-.32.25-.24.37.26Zm3.06,1.24c.16.07.32.12.47.17l-1,1L77.2,143Zm2,.53.28.35-1.19,1.19-.43-.18ZM81.19,144c.12.1.22.21.32.3l-.23.24-.43,0h-.2Zm-10.91-3.91c0,.17.09.34.15.49l-.36.37a3.12,3.12,0,0,1-.53-.11Zm-2,.13-.33-.27,1.11-1.13a3.15,3.15,0,0,0,.43.19Zm-1.54-1.54.88-.88a3,3,0,0,0,.34.28l-.94.93c-.09-.12-.19-.23-.28-.33M66,137.54c-.08-.13-.15-.26-.22-.39l.6-.61c.1.11.21.2.31.32Zm-.84-1.62a3,3,0,0,1-.19-.45l.35-.34a2.87,2.87,0,0,0,.23.39Zm-.7-1.78a.42.42,0,0,1,0-.12l-.12-.35.12-.11.23.4ZM40,122.16c.24,0,2.3-.07,3.34-.06.73,0,2.46.11,2.44,1.29a2.57,2.57,0,0,1-.12.69,1.35,1.35,0,0,0-1.24-.79c-.47,0-2.76.69-3.49.67s-.74-.37-1.19-.37a1.35,1.35,0,0,0-1.27.84A1.74,1.74,0,0,1,40,122.16m-7.71-.83-.4-.41.32-.3.29.28c-.06.14-.14.29-.21.43M31.45,123l-.86-.85a2.34,2.34,0,0,0,.32-.31l.74.76c-.07.13-.14.26-.2.4m-.86,1.62-1.15-1.16.28-.33,1.09,1.08-.22.41m-.87,1.59-1.38-1.36c.09-.13.2-.24.29-.36l1.31,1.33c-.08.13-.14.25-.22.39m-.89,1.58-1.51-1.51.25-.36,1.48,1.48c-.08.13-.15.26-.22.39m-.9,1.58-1.61-1.61c.09-.13.17-.26.26-.37l1.57,1.57a4.1,4.1,0,0,1-.22.41m-.85,1.43-.06.11-1.67-1.65.24-.4,1.66,1.67a2.46,2.46,0,0,1-.17.27m-1,1.66-1.7-1.69.23-.39,1.69,1.7a2.36,2.36,0,0,0-.22.38m-1,1.53-1.7-1.71c.07-.13.15-.24.23-.38l1.72,1.7c-.09.13-.17.26-.25.39m-1,1.49-1.67-1.68.24-.38,1.69,1.69c-.09.13-.17.26-.26.37m-1,1.47-1.64-1.63.25-.38,1.65,1.65-.26.36m-1,1.43-1.56-1.56.24-.37L22.41,138a1.78,1.78,0,0,0-.27.36M21,139.7l-1.44-1.44.26-.37,1.47,1.46c-.1.12-.19.24-.29.35M19.83,141l-1.26-1.26.26-.36,1.31,1.32-.31.3m-1.31,1.16-1-1c.1-.11.19-.24.28-.35l1.08,1.09a3.37,3.37,0,0,1-.34.27m-1.46,1-.68-.68.3-.34.78.78a4.23,4.23,0,0,1-.4.24m-1.64.83-.26-.26.33-.32.37.38-.44.2m32.45-32.53c.37.13,4.39,1.61,6.7,2.51-.94,0-2,0-3,.06-.48,0-1,0-1.49,0l-1.5-.15c-1-.14-.85-.74-1.68-.86a1.55,1.55,0,0,0-1.47.72c0-1.61,1.35-2.7,2.48-2.32m35.77.48.47.14-.59.59c-.11-.09-.22-.19-.35-.28Zm1.85.61.45.17-1.08,1.07-.31-.3Zm2.13,1L86.08,115c-.09-.11-.18-.22-.28-.32l1.41-1.43.41.21M89,114.58l-1.89,1.88-.23-.39,1.81-1.8c.11.1.21.2.31.31m.78,1.06c.08.15.14.28.21.43L89,117h-.64Zm-4.28,4.27c.18,0,.37.06.54.09l-.38.39-.45-.18Zm2.09.39.5.12-.72.73-.43-.2Zm1.92.55L90,121l-1,1-.38-.24Zm1.72.74.4.24-1.28,1.28-.34-.29Zm1.83,1.26-1.51,1.52c-.1-.12-.18-.24-.28-.34l1.45-1.46.34.28m.89,1,.26.36-1.74,1.75-.21-.44Zm1,2.08-1,1-.44-.19,1.32-1.33c0,.16.11.32.15.49m-3.26,4.44c-2.22-1.26-10.47-5.85-10.47-5.85l8.41,1.8c3.74.79,6,2,5.92,3a4,4,0,0,0,.35-1.62c0-9.14-14.38-8.66-14.38-8.66l3.33-.77c3.86-.81,6-.59,6.35.2a6.3,6.3,0,0,0-.18-1.6c-1.08-3.46-3.31-4.65-10.32-6.39l-9.8-2.27c3.13,3.21,4.4,12,.81,16.08a3,3,0,0,0-1-2.18c-.58,2.32-1.94,5.16-5.12,4.79,0-.12.28-.64-.59-1.45-1.78-1.64-7.51-6.84-9.56-8.72-.12.69-.17.94-.42,2a3.9,3.9,0,0,1-3.67,3.3,4.55,4.55,0,0,1-3.23-2,4.85,4.85,0,0,0,2.94.93,2.24,2.24,0,0,1,.81-1.19c.51-.42,1.37-.69,1.53-1.72A1.34,1.34,0,0,0,52,116.34c-1.6.31-3.42.64-3.83.67a1.47,1.47,0,0,1-1-.22,1.31,1.31,0,0,0-.85-.22,1.6,1.6,0,0,0-1.33,1,2.11,2.11,0,0,1,1.85-2.72c.22,0,5.83-.33,7.43-.29a6.53,6.53,0,0,1,2.51.4c1.37.88,4.27,3,4.86,3.51,1.15-2.63.85-7.59-.5-8.58-9.08-1.82-19.21-.19-25.38-3.59-.84.43-3.36,1.68-4.1,2a13.36,13.36,0,0,1-1.37.58,4,4,0,0,1-.61.21c.13.06,2,1.17,4.36-1.22a35.51,35.51,0,0,0,7.1,2.94c-.74,2.31-6.68,6.8-10.42,10.31-6.07,5.67-12.63,21.73-18.57,23.79a14.31,14.31,0,0,0,2.62.31c7.82.13,11.78-7.33,13.1-9.19-2.17,5.45-4.34,8.46-5.56,8.4a14.17,14.17,0,0,0,13-2.63l-4.61-2.41s5.89,2.45,10.75,2.52c5.07.07,5.94-2.11,5.94-2.11l-5.74-3.22a17.76,17.76,0,0,0,7,1.89c7.31.12,11-6.89,11.46-10.64-.43.77-2.54,4.09-5.61,3.7a1.28,1.28,0,0,0-.09-1.64.83.83,0,0,0-.15-.11c-.45-.3-4-3.89-6.68-6.12-.18.7-.27,1-.54,2a3.4,3.4,0,0,1-3.22,2.63,3.83,3.83,0,0,1-3-2.13,3.44,3.44,0,0,0,2,1.19,2.25,2.25,0,0,1,1.31-1,2.53,2.53,0,0,0,1-.54,4.12,4.12,0,0,0,1.25-2.51,1.42,1.42,0,0,0-.84-1.37,4.71,4.71,0,0,0-2.41-.45c-1.44,0-2-.1-2.42-.52s-.44-.46-.88-.47a1.37,1.37,0,0,0-1,.53,1.73,1.73,0,0,1,1.75-1.83,1.78,1.78,0,0,1,.44.06c.47.13,5.48,1.44,6.47,1.93.59.28,6.16,4.7,6.16,4.7,1.15-.73,1.9-3.65,1.92-5.21.44-.22,1.23,0,2.3.8s4.45,3.9,4.87,4.38c-.67,5.3,2.65,15.69,7.74,15.77a3.9,3.9,0,0,0,1.43-.28c-.47-.22-.66-.67-.93-1.58l-.86-3.69s1.12,1.49,5.23,6c2.21,2.48,4.22,3.07,5.57,3.09a3.34,3.34,0,0,0,2.45-.74c-.64,0-1.37-.61-2.4-1.88L77,137.43c6.24,5.7,10.66,7,13.37,7a5.13,5.13,0,0,0,3.29-.82L80.46,131.8l15.62,8.69c1.83-5.42-2.17-8.9-4.38-10.15"/><path class="cls-1" d="M27.54,107.43l.35-1.62s1.56-.37,2.73-.61,2,1.5,2,1.5,2.76-.26,3.62-1.94c-.1-.43-4.6-.2-5.44-.14s-1.52-.59-2.89-1.77a3.44,3.44,0,0,0-2,2.85c0,1.34,1.47,1.75,1.65,1.73"/><path class="cls-1" d="M14,134.47l.69.69a3.11,3.11,0,0,0-.33.29l-.75-.75.39-.23M13,136.63l-1-1,.39-.24.95,1-.33.29m-1.3,1.17-1.28-1.28.4-.23,1.22,1.22-.34.29m-1.34,1.14-1.54-1.56c.14-.06.27-.14.41-.21l1.48,1.48c-.11.09-.22.2-.35.29m-1.49,1-1.68-1.67.42-.22,1.66,1.67a4,4,0,0,1-.4.22m-1.71.76L5.55,139l.42-.21,1.66,1.68a3.43,3.43,0,0,1-.45.16m-2,.46-1.35-1.35.44-.18,1.46,1.46-.55.07m-2.53-.07L2,140.42l.47-.16.89.89a5.67,5.67,0,0,1-.72-.1m12.84-7.54.45.45-.33.31-.5-.51.38-.25m1.49-.95.23.2c-.11.11-.23.21-.32.31l-.28-.28.37-.23m-.41,5.68c2.8-4.36,7.67-11.87,8.18-12.51-2.88,3.24-16.24,12-22.93,14a5.32,5.32,0,0,1-1.8-.23s.6,4.92,6.9,5c3.75.05,7.13-2.4,9.65-6.32"/><path class="cls-1" d="M126.52,26.24l-.31-.3c.05-.09.09-.18.14-.26l0-.05a1.21,1.21,0,0,1,.15.61m-.13,2.35-1.08-1.08.24-.39.91.91a5.35,5.35,0,0,1-.07.56m-.44,2-1.7-1.7c.09-.11.2-.23.29-.35l1.55,1.56c0,.16-.09.32-.14.49m-.64,1.83-2.2-2.21.29-.33L125.49,32a3,3,0,0,1-.18.45m-.77,1.68-2.66-2.66a3.13,3.13,0,0,1,.32-.3l2.54,2.54c-.07.15-.14.28-.2.42m-.92,1.56-3-3,.32-.3,3,2.95c-.08.13-.16.27-.24.39m-1,1.45-3.35-3.35a3.39,3.39,0,0,1,.34-.28l3.28,3.28c-.09.13-.19.24-.27.35m-1.09,1.39-3.64-3.65.34-.27,3.59,3.58-.29.34m-1.15,1.31-3.9-3.9c.12-.09.22-.18.35-.27l3.83,3.85-.28.32m-1.21,1.25L115,37l.37-.26,4.07,4.08c-.11.1-.2.21-.3.3m-1.27,1.2L113.54,38c.14-.08.26-.17.39-.26L118.2,42c-.1.11-.21.21-.31.3m-1.32,1.16-4.52-4.51c.12-.09.26-.17.38-.25l4.48,4.47c-.11.1-.24.19-.34.29m-1.35,1.11-4.67-4.67.37-.24,4.64,4.64c-.11.09-.24.18-.34.27m-1.39,1.08L109,40.84l.39-.23,4.76,4.77-.34.26m-1.43,1-4.9-4.89c.13-.09.26-.16.4-.24l4.86,4.86-.36.27m-1.46,1-5-5,.39-.24,5,4.95a2.58,2.58,0,0,1-.37.24m-1.49,1-5-5,.39-.23,5,5-.38.24m-1.51,1-5-5,.41-.24,5,5-.39.25m-1.54.92-5.05-5.05.39-.23,5.06,5c-.14.07-.26.15-.4.23m-1.56.91-5-5c.13-.09.25-.15.38-.23l5,5-.4.22m-1.57.89-5-5,.4-.24,5,5c-.14.08-.27.16-.4.22m-1.6.87-5-5,.4-.24,5,5-.4.21m-1.62.85-4.91-4.91.38-.23,4.94,4.93-.41.21m-1.64.84-4.84-4.84.4-.24,4.86,4.87-.42.21m-1.65.81L92,51l.41-.22,4.78,4.79-.43.19m-1.66.81-4.66-4.67.39-.23,4.69,4.69-.42.21m-1.69.78-4.55-4.55.41-.23,4.58,4.58-.44.2m-1.69.78-4.43-4.44.39-.22,4.47,4.46-.43.2M90,58.85l-4.29-4.3c.14-.07.26-.15.4-.23l4.34,4.34a3.57,3.57,0,0,1-.45.19m-1.71.76-4.16-4.17.4-.23,4.19,4.21-.43.19m-1.7.76-4-4L83,56.1,87,60.18l-.43.19m-1.69.79L81,57.2l.39-.22,4,4-.44.2M83.26,62l-3.9-3.89.4-.23,3.91,3.91-.41.21m-1.64.84L77.77,59l.4-.24L82,62.6c-.12.07-.27.13-.4.21M80,63.66,76.2,59.85l.4-.22,3.82,3.82-.41.21m-1.59.89L74.68,60.8a3.57,3.57,0,0,1,.38-.25l3.76,3.77-.4.23m-1.56.91-3.68-3.69.36-.25,3.71,3.7-.39.24m-1.53.92-3.61-3.6c.12-.09.25-.17.36-.26l3.63,3.63-.38.23m-1.52,1-3.51-3.5.36-.27,3.52,3.52-.37.25m-1.49,1-3.39-3.36.35-.29,3.42,3.42c-.14.08-.26.17-.38.23m-1.48,1-3.23-3.23.34-.31,3.26,3.27-.37.27m-1.45,1-3-3a3.31,3.31,0,0,0,.33-.32l3.09,3.12-.37.25M68,71.39l-2.85-2.85.29-.33,2.9,2.9-.34.28m-1.4,1.06L64,69.86a3.1,3.1,0,0,1,.27-.34l2.68,2.66-.35.27m-1.36,1.12-2.34-2.33a3.44,3.44,0,0,1,.28-.36l2.4,2.4c-.13.1-.23.19-.34.29m-1.34,1.12-2-2c.08-.12.16-.26.23-.38l2.1,2.09a3.11,3.11,0,0,0-.33.29m-1.3,1.16-1.65-1.63c.08-.12.16-.26.24-.39l1.72,1.73c-.11.09-.21.19-.31.29M61.31,77l-1.22-1.2c.07-.15.13-.27.21-.42l1.32,1.33-.31.29m-1.23,1.25-.73-.74c0-.15.1-.29.16-.45l.87.88-.3.31m-1.17,1.3-.23-.23c0-.16.1-.31.16-.46l.36.36-.29.33M112.3,38C102.18,44.49,87.69,52.77,78,58,62.21,66.68,58.58,76,57.23,82.25c3.6-4.27,25.36-14.1,41.61-20.66,18.64-7.52,28.78-16,29-29.48a27.54,27.54,0,0,0-1.45-8.94c-.33,4.16-6,9.62-14.07,14.82"/><path class="cls-1" d="M71.36,76.78l.11-.07,3.83,3.83-.48.14-3.76-3.74.28-.16Zm1.75-.89L77.17,80l-.47.16-4-4a4,4,0,0,0,.41-.21m1.69-.79L79,79.33l-.46.17-4.19-4.19.43-.21m1.71-.75,4.35,4.35-.47.17-4.31-4.33.43-.19m1.72-.73,4.45,4.43-.47.17L77.8,73.8l.43-.18M80,72.9l4.49,4.49-.45.17-4.48-4.49L80,72.9m1.75-.72,4.51,4.51-.45.18-4.5-4.51c.15-.06.3-.11.44-.18m1.78-.7L88,76l-.45.18-4.5-4.5.46-.18m1.77-.69,4.45,4.45a4.17,4.17,0,0,0-.44.19L84.85,71l.44-.17m1.78-.68,4.37,4.35-.44.2-4.38-4.38.45-.17m1.79-.69,4.22,4.23c-.13.07-.26.14-.4.2L88.4,69.6a4.9,4.9,0,0,0,.46-.18m1.79-.67,4,4-.4.21-4.1-4.09c.15-.06.29-.12.45-.17m1.79-.68,3.81,3.82-.38.23L92,68.24l.45-.17m1.79-.67,3.52,3.52c-.12.08-.24.16-.37.23l-3.6-3.58.45-.17m1.8-.69,3.15,3.16-.35.27-3.26-3.25.46-.18M97.82,66l2.72,2.72a4.19,4.19,0,0,1-.34.28l-2.83-2.83a4.7,4.7,0,0,1,.45-.17m1.77-.69,2.23,2.23c-.1.11-.21.2-.31.3l-2.37-2.35.45-.18m1.79-.69,1.67,1.68-.31.31-1.82-1.82.46-.17m1.77-.7L104.22,65l-.29.33-1.23-1.24.45-.17m1.75-.71.48.47c-.1.11-.21.22-.3.34l-.63-.62.45-.19m1.33-.54v0h0M72.91,81.26l-3.47-3.49a2.13,2.13,0,0,1,.4-.2l3.55,3.54c-.15,0-.32.09-.48.15M71,81.8,67.8,78.61l.42-.21,3.26,3.26L71,81.8M69,82.31,66.2,79.47l.4-.22,2.94,2.94-.5.12m-2,.51-2.47-2.49.4-.21,2.58,2.56-.51.14m-2,.46L63,81.22l.4-.23,2.17,2.17-.51.12m-2,.43-1.55-1.55.37-.25,1.71,1.71c-.19,0-.36,0-.53.09M61,84.13l-1-1,.36-.26L61.49,84l-.51.11m-2,.43-.24-.23L59,84l.46.44c-.19,0-.36.08-.53.11m-.18,2.29-1-1c0-.13.09-.21.1-.24a.76.76,0,0,1,.09-.18l.83.83c0,.18,0,.39,0,.62m-.25,2.21L57,87.59c.06-.16.12-.3.19-.45l1.38,1.39a4.89,4.89,0,0,1-.09.53m-.46,2-1.74-1.74c.06-.14.12-.29.19-.44l1.69,1.69c0,.16-.09.33-.14.49m-.62,1.85-1.85-1.85c.05-.14.12-.29.18-.44l1.83,1.83c-.05.15-.1.3-.16.46m-.74,1.73-1.88-1.87c.07-.14.12-.29.19-.44l1.89,1.89c-.07.13-.13.28-.2.42m-1,1.49-1.77-1.78c.08-.11.16-.25.25-.37L56,95.81a3.28,3.28,0,0,1-.3.33M54.14,97l-1.37-1.36a2.27,2.27,0,0,0,.32-.3l1.51,1.5c-.16.07-.32.11-.46.16m-2.41.07-.47-.48a2,2,0,0,0,.41-.2l.78.77c-.25,0-.5,0-.72-.09m5.52-11.81s-2.5,6.3-3.47,8.1a5.22,5.22,0,0,1-4.36,2.94c-1.63-.21-3.54-.44-5.52-.54-3.77-.18-8.28.3-10.25,1.4-1.56.86-4,4-4,4a3.48,3.48,0,0,0,3.29.09s-.81-.85-.78-1.14.27-.4.67-.67a2.13,2.13,0,0,0,2.3,1.65,2.69,2.69,0,0,0,2.37-2.07,2.18,2.18,0,0,0-.32-1.77c1.3,0,2.37.75,2.36,1.12a6,6,0,0,1-4,3.56c.26,1.21,2.93,1.46,2.82,2.2a1.43,1.43,0,0,1-.64.87c-.4.33,1.78,1,3.29,1.1,5.09.19,6.46-1.68,8.23-4.07a2.29,2.29,0,0,1,1.78-.87c1.37,0,10.39,5.52,19.91,5.67,9,.12,15.58-4.22,17-9.35A25,25,0,0,1,79.9,99c-9.06-.13-12.7-4.51-12.7-4.51a34.14,34.14,0,0,0,10.77,2C92.55,96.71,95.23,84.87,96.22,81c-2,1.28-8.88,5.78-22.26,5.56a20.62,20.62,0,0,1-9-1.76,72.41,72.41,0,0,0,14.3-1.19c15.92-3.26,26.25-10.63,28.48-22.25C96.34,66.23,80.1,71.49,71.07,76.17c-8.73,4.51-12.67,6.56-13.82,9.12"/><path class="cls-1" d="M68,60.86l.18.17c-.1.11-.2.22-.29.34l-.09-.09a3.23,3.23,0,0,0,.2-.42m.88-1.6.48.5-.29.32-.42-.42.23-.4m.9-1.57.81.81c-.1.11-.22.21-.32.31l-.73-.72.24-.4m.91-1.56,1.13,1.14c-.11.1-.22.19-.32.3l-1-1c.08-.14.16-.26.23-.4m1-1.5L73,56.06l-.32.29L71.35,55c.08-.13.15-.25.24-.37m1-1.5,1.73,1.71c-.11.1-.22.2-.33.32l-1.65-1.67c.09-.11.17-.24.25-.36m1-1.47,2,2-.34.3L73.3,52l.26-.37m1-1.44,2.28,2.27-.33.3-2.21-2.21.26-.36m1.06-1.42,2.54,2.54-.34.28-2.48-2.46.28-.36m1.07-1.38,2.78,2.76-.32.3-2.72-2.72.26-.34m1.13-1.35,3,3-.34.29-2.94-3c.1-.12.19-.23.29-.33M79,44.74l3.21,3.2-.34.27-3.16-3.14c.1-.12.19-.23.29-.33m1.17-1.3,3.4,3.38-.34.29-3.35-3.35c.09-.11.19-.21.29-.32m1.21-1.27,3.55,3.56a3.3,3.3,0,0,1-.35.28l-3.51-3.52c.11-.1.21-.22.31-.32m1.24-1.23,3.7,3.71a3.24,3.24,0,0,0-.35.27l-3.67-3.67.32-.31m1.27-1.21,3.82,3.83-.36.28-3.79-3.79c.1-.1.2-.21.33-.32m1.31-1.14,3.91,3.9-.36.28-3.9-3.9a4.29,4.29,0,0,0,.35-.28m1.33-1.14,4,4-.36.26-4-4c.11-.1.23-.19.35-.28m1.34-1.14,4.06,4.06a3.07,3.07,0,0,1-.36.27l-4-4,.35-.28m1.34-1.12,4.14,4.15L93,39.6l-4.14-4.13.35-.28m1.35-1.13,4.23,4.24-.36.26-4.22-4.22c.11-.1.22-.18.35-.28m1.34-1.12,4.34,4.34-.36.25-4.32-4.3.34-.29m1.35-1.12,4.44,4.44-.38.26-4.4-4.41c.11-.09.22-.2.34-.29m1.35-1.11,4.55,4.55a4.13,4.13,0,0,0-.38.25L94.24,31l.34-.27m1.35-1.12,4.65,4.65a1.26,1.26,0,0,1-.17.13l-.19.13-4.63-4.62.34-.29m1.35-1.12,4.77,4.77c-.13.09-.24.18-.36.25l-4.75-4.73.34-.29m1.36-1.11,4.87,4.87a3.32,3.32,0,0,0-.36.26L98.3,27.64l.34-.28M100,26.24l5,5-.37.25-4.93-4.93c.11-.09.22-.2.34-.29m1.35-1.11,5,5-.36.27-5-5,.34-.28M102.7,24l5.09,5.08c-.12.1-.23.19-.36.28l-5.07-5.08.34-.28m1.35-1.13,5.14,5.16-.35.25-5.13-5.11.34-.3m1.35-1.1L110.57,27c-.11.09-.22.19-.35.28l-5.16-5.16.34-.28m1.36-1.11,5.17,5.17c-.1.1-.21.19-.33.29L106.42,21c.1-.09.22-.18.34-.27m1.35-1.13,5.17,5.19L113,25l-5.18-5.18.34-.28m1.35-1.11,5.14,5.14a3.11,3.11,0,0,1-.33.29l-5.15-5.15.34-.28m1.35-1.13,5.09,5.1-.32.3-5.11-5.12.34-.28m1.34-1.12,5,5c-.11.1-.21.21-.32.3l-5-5.05.33-.28m1.35-1.13L118.42,20l-.32.3-4.94-4.93a3.17,3.17,0,0,1,.34-.3m1.33-1.13,4.79,4.79c-.1.11-.21.21-.31.33l-4.81-4.84.33-.28m1.32-1.14,4.63,4.62a4.28,4.28,0,0,0-.29.33l-4.66-4.67a4,4,0,0,1,.32-.28m1.3-1.18,4.43,4.44c-.08.12-.18.23-.27.34l-4.48-4.48a3.13,3.13,0,0,1,.32-.3m1.26-1.2,4.21,4.21a2.9,2.9,0,0,1-.25.36l-4.27-4.26c.09-.1.2-.21.31-.31M120,9.18l3.94,3.94c-.08.13-.14.27-.23.39l-4-4c.1-.12.19-.22.3-.33m1.22-1.25,3.59,3.59c-.07.13-.14.28-.2.42l-3.69-3.69a2.27,2.27,0,0,0,.3-.32m1.2-1.27,3.13,3.13-.17.45L122.07,7l.3-.33m1.17-1.29,2.5,2.5c0,.17-.08.34-.11.5l-2.69-2.68.3-.32m1.15-1.32,1.6,1.59c0,.2,0,.4,0,.59l-1.86-1.85a3,3,0,0,1,.28-.33m1-1.45.33.32c0,.24.08.49.1.74L125.52,3a1.08,1.08,0,0,0,.19-.44M72.24,59.09C78,55,91.11,47.54,105.48,39.16c11-6.45,22.54-17.1,22.75-29A19.63,19.63,0,0,0,125.52,0,17.83,17.83,0,0,1,125,2.64a85.46,85.46,0,0,1-8.51,9C111.65,16,86.69,36.09,83,39.64A81.65,81.65,0,0,0,65.33,64.76s1.2-1.56,6.91-5.67"/><path class="cls-2" d="M14.64,135.16l-.69-.69-.39.23.75.75A3.11,3.11,0,0,1,14.64,135.16Z"/><path class="cls-2" d="M13.35,136.34l-.95-1-.39.24,1,1Z"/><path class="cls-2" d="M17.19,132.76l-.23-.2-.37.23.28.28C17,133,17.08,132.87,17.19,132.76Z"/><path class="cls-2" d="M15.92,134l-.45-.45-.38.25.5.51Z"/><path class="cls-2" d="M3.35,141.15l-.89-.89-.47.16.64.63A5.67,5.67,0,0,0,3.35,141.15Z"/><path class="cls-2" d="M5.71,141.05l-1.46-1.46-.44.18,1.35,1.35Z"/><path class="cls-2" d="M10.73,138.65l-1.48-1.48c-.14.07-.27.15-.41.21l1.54,1.56C10.51,138.85,10.62,138.74,10.73,138.65Z"/><path class="cls-2" d="M12.06,137.51l-1.22-1.22-.4.23,1.28,1.28Z"/><path class="cls-2" d="M9.29,139.68,7.63,138l-.42.22,1.68,1.67A4,4,0,0,0,9.29,139.68Z"/><path class="cls-2" d="M7.63,140.5,6,138.82l-.42.21,1.63,1.63A3.43,3.43,0,0,0,7.63,140.5Z"/><path class="cls-2" d="M126.29,5.64l-1.6-1.59a3,3,0,0,0-.28.33l1.86,1.85C126.28,6,126.29,5.84,126.29,5.64Z"/><path class="cls-2" d="M126,7.87l-2.5-2.5-.3.32,2.69,2.68C126,8.21,126,8,126,7.87Z"/><path class="cls-2" d="M119.62,18.72l-4.79-4.79-.33.28,4.81,4.84C119.41,18.93,119.52,18.83,119.62,18.72Z"/><path class="cls-2" d="M125.5,9.79l-3.13-3.13-.3.33,3.26,3.25Z"/><path class="cls-2" d="M126,2.92l-.33-.32a1.08,1.08,0,0,1-.19.44l.62.62C126.12,3.41,126.07,3.16,126,2.92Z"/><path class="cls-2" d="M120.78,17.41l-4.63-4.62a4,4,0,0,0-.32.28l4.66,4.67A4.28,4.28,0,0,1,120.78,17.41Z"/><path class="cls-2" d="M121.88,16.05l-4.43-4.44a3.13,3.13,0,0,0-.32.3l4.48,4.48C121.7,16.28,121.8,16.17,121.88,16.05Z"/><path class="cls-2" d="M122.92,14.62l-4.21-4.21c-.11.1-.22.21-.31.31L122.67,15A2.9,2.9,0,0,0,122.92,14.62Z"/><path class="cls-2" d="M124.76,11.52l-3.59-3.59a2.27,2.27,0,0,1-.3.32l3.69,3.69C124.62,11.8,124.69,11.65,124.76,11.52Z"/><path class="cls-2" d="M123.89,13.12,120,9.18c-.11.11-.2.21-.3.33l4,4C123.75,13.39,123.81,13.25,123.89,13.12Z"/><path class="cls-2" d="M65,135.47a3,3,0,0,0,.19.45l.39-.4a2.87,2.87,0,0,1-.23-.39Z"/><path class="cls-2" d="M65.82,137.15c.08.13.14.26.22.39l.69-.68c-.1-.12-.21-.21-.31-.32Z"/><path class="cls-2" d="M64.34,133.67l.12.35a.42.42,0,0,0,0,.12l.19-.18-.23-.4Z"/><path class="cls-2" d="M25.35,129.22,27,130.87l.06-.11a2.46,2.46,0,0,0,.17-.27l-1.66-1.67Z"/><path class="cls-2" d="M24.4,130.73l1.7,1.69a2.36,2.36,0,0,1,.22-.38l-1.69-1.7Z"/><path class="cls-2" d="M67.65,137.78l-.88.88c.09.1.19.21.28.33l.94-.93A3,3,0,0,1,67.65,137.78Z"/><path class="cls-2" d="M84.66,141.14a4.77,4.77,0,0,1-.51-.13l-.56.57.41.23Z"/><path class="cls-2" d="M89.08,141.66h-.64L87,143.14l.48.16Z"/><path class="cls-2" d="M89.47,143.73,91,142.21l-.32-.29-1.75,1.73Z"/><path class="cls-2" d="M86.72,141.55l-.55-.08-1,1,.43.19Z"/><path class="cls-2" d="M68,139.93l.33.27L69.52,139a3.15,3.15,0,0,1-.43-.19Z"/><path class="cls-2" d="M86.64,128.68l.34.26.29-.28-.41-.23Z"/><path class="cls-2" d="M92.29,143.38l-.33-.29-.64.64a4.31,4.31,0,0,0,.75-.15Z"/><path class="cls-2" d="M23.45,132.24l1.7,1.71c.08-.13.16-.26.25-.39l-1.72-1.7C23.6,132,23.52,132.11,23.45,132.24Z"/><path class="cls-2" d="M82.76,140.57l-.46-.17-.23.24a3.85,3.85,0,0,1,.38.23Z"/><path class="cls-2" d="M80.34,143l-.28-.35L78.72,144l.43.18Z"/><path class="cls-2" d="M75.93,141.84l.29.31.64-.63c-.13-.06-.26-.15-.39-.22Z"/><path class="cls-2" d="M88,129.76l.35.28.48-.51c-.13-.06-.26-.14-.39-.21Z"/><path class="cls-2" d="M81.28,144.52l.23-.24c-.1-.09-.2-.2-.32-.3l-.54.55h.2Z"/><path class="cls-2" d="M74.75,140.55l.3.32.32-.3-.37-.26Z"/><path class="cls-2" d="M78.58,142.28c-.15-.05-.31-.1-.47-.17l-.91.92.35.27Z"/><path class="cls-2" d="M70.07,140.93l.36-.37c-.06-.15-.1-.32-.15-.49l-.74.75A3.12,3.12,0,0,0,70.07,140.93Z"/><path class="cls-2" d="M22.5,133.76l1.67,1.68c.09-.11.17-.24.26-.37l-1.69-1.69Z"/><path class="cls-2" d="M18.57,139.71,19.83,141l.31-.3-1.31-1.32Z"/><path class="cls-2" d="M17.5,141.12l1,1a3.37,3.37,0,0,0,.34-.27l-1.08-1.09C17.69,140.88,17.6,141,17.5,141.12Z"/><path class="cls-2" d="M16.38,142.46l.68.68a4.23,4.23,0,0,0,.4-.24l-.78-.78Z"/><path class="cls-2" d="M19.58,138.26,21,139.7c.1-.11.19-.23.29-.35l-1.47-1.46Z"/><path class="cls-2" d="M21.54,135.28l1.64,1.63.26-.36-1.65-1.65Z"/><path class="cls-2" d="M20.58,136.78l1.56,1.56a1.78,1.78,0,0,1,.27-.36l-1.59-1.57Z"/><path class="cls-2" d="M15.16,143.71l.26.26.44-.2-.37-.38Z"/><path class="cls-2" d="M89.38,130.84l.35.28.7-.69L90,130.2Z"/><path class="cls-2" d="M95.18,134.93l-1.76,1.76a4.18,4.18,0,0,1,.1.51l1.85-1.83C95.31,135.21,95.24,135.07,95.18,134.93Z"/><path class="cls-2" d="M94.22,133.41l-1.45,1.44.2.44,1.53-1.52Z"/><path class="cls-2" d="M93,132.14l-1.15,1.17c.08.11.17.24.25.37l1.23-1.23Z"/><path class="cls-2" d="M94,138.58l.4.21,1.41-1.42c0-.18,0-.37-.06-.56Z"/><path class="cls-2" d="M91.6,131.1l-.88.89.32.3.94-.95Z"/><path class="cls-2" d="M53.94,94.36l1.77,1.78a3.28,3.28,0,0,0,.3-.33L54.19,94C54.1,94.11,54,94.25,53.94,94.36Z"/><path class="cls-2" d="M70.54,58.5l-.81-.81-.24.4.73.72C70.32,58.71,70.44,58.61,70.54,58.5Z"/><path class="cls-2" d="M80.84,49.06l-3-3c-.1.1-.19.21-.29.33l2.94,3Z"/><path class="cls-2" d="M68.13,61,68,60.86a3.23,3.23,0,0,1-.2.42l.09.09C67.93,61.25,68,61.14,68.13,61Z"/><path class="cls-2" d="M71.77,57.27l-1.13-1.14c-.07.14-.15.26-.23.4l1,1C71.55,57.46,71.66,57.37,71.77,57.27Z"/><path class="cls-2" d="M79.5,50.18l-2.78-2.76c-.09.11-.17.23-.26.35l2.72,2.71Z"/><path class="cls-2" d="M76.87,52.49l-2.28-2.27-.26.36,2.21,2.21Z"/><path class="cls-2" d="M78.19,51.34,75.65,48.8l-.28.36,2.48,2.46Z"/><path class="cls-2" d="M75.58,53.66l-2-2L73.3,52,75.24,54Z"/><path class="cls-2" d="M73,56.06l-1.43-1.43c-.09.12-.16.24-.24.37l1.35,1.35Z"/><path class="cls-2" d="M74.29,54.84l-1.73-1.71c-.08.12-.16.25-.25.36L74,55.16C74.07,55,74.18,54.94,74.29,54.84Z"/><path class="cls-2" d="M69.31,59.76l-.48-.5-.23.4.42.42Z"/><path class="cls-2" d="M117.18,21.22l-5-5-.33.28,5,5.05C117,21.43,117.07,21.32,117.18,21.22Z"/><path class="cls-2" d="M106.38,30.16l-5-5-.34.28,5,5Z"/><path class="cls-2" d="M105,31.21l-5-5c-.12.09-.23.2-.34.29l4.93,4.93Z"/><path class="cls-2" d="M107.79,29.1,102.7,24l-.34.28,5.07,5.08C107.56,29.29,107.67,29.2,107.79,29.1Z"/><path class="cls-2" d="M109.19,28.05l-5.14-5.16-.34.3,5.13,5.11C109,28.21,109.08,28.14,109.19,28.05Z"/><path class="cls-2" d="M82.19,47.94,79,44.74c-.1.1-.19.21-.29.33l3.16,3.14Z"/><path class="cls-2" d="M100.41,34.37a1.26,1.26,0,0,0,.17-.13l-4.65-4.65-.34.29,4.63,4.62Z"/><path class="cls-2" d="M103.51,32.23l-4.87-4.87-.34.28,4.85,4.85A3.32,3.32,0,0,1,103.51,32.23Z"/><path class="cls-2" d="M114.6,23.58l-5.14-5.14-.34.28,5.15,5.15A3.11,3.11,0,0,0,114.6,23.58Z"/><path class="cls-2" d="M115.9,22.41l-5.09-5.1-.34.28,5.11,5.12Z"/><path class="cls-2" d="M110.57,27l-5.17-5.16-.34.28,5.16,5.16C110.35,27.14,110.46,27,110.57,27Z"/><path class="cls-2" d="M113.28,24.74l-5.17-5.19-.34.28L113,25Z"/><path class="cls-2" d="M111.93,25.85l-5.17-5.17c-.12.09-.24.18-.34.27l5.18,5.19C111.72,26,111.83,26,111.93,25.85Z"/><path class="cls-2" d="M102.05,33.24l-4.77-4.77-.34.29,4.75,4.73C101.81,33.42,101.92,33.33,102.05,33.24Z"/><path class="cls-2" d="M86.3,44.65l-3.7-3.71-.32.31L86,44.92A3.24,3.24,0,0,1,86.3,44.65Z"/><path class="cls-2" d="M87.69,43.56l-3.82-3.83-.33.32,3.79,3.79Z"/><path class="cls-2" d="M118.42,20l-4.92-4.93a3.17,3.17,0,0,0-.34.3l4.94,4.93Z"/><path class="cls-2" d="M89.09,42.49l-3.91-3.9a4.29,4.29,0,0,1-.35.28l3.9,3.9Z"/><path class="cls-2" d="M99.13,35.26l-4.55-4.55-.34.27,4.51,4.53A4.13,4.13,0,0,1,99.13,35.26Z"/><path class="cls-2" d="M84.91,45.73l-3.55-3.56c-.1.1-.2.22-.31.32L84.56,46A3.3,3.3,0,0,0,84.91,45.73Z"/><path class="cls-2" d="M83.55,46.82l-3.4-3.38c-.1.11-.2.21-.29.32l3.35,3.35Z"/><path class="cls-2" d="M91.91,40.37l-4.06-4.06-.35.28,4,4A3.07,3.07,0,0,0,91.91,40.37Z"/><path class="cls-2" d="M97.67,36.26l-4.44-4.44c-.12.09-.23.2-.34.29l4.4,4.41Z"/><path class="cls-2" d="M96.22,37.28l-4.34-4.34-.34.29,4.32,4.3Z"/><path class="cls-2" d="M94.77,38.3l-4.23-4.24c-.13.1-.24.18-.35.28l4.22,4.22Z"/><path class="cls-2" d="M93.33,39.34l-4.14-4.15-.35.28L93,39.6Z"/><path class="cls-2" d="M90.49,41.44l-4-4c-.12.09-.24.18-.35.28l4,4Z"/><path class="cls-2" d="M85.71,54.55,90,58.85a3.57,3.57,0,0,0,.45-.19l-4.34-4.34C86,54.4,85.85,54.48,85.71,54.55Z"/><path class="cls-2" d="M88.86,52.77l4.55,4.55.44-.2-4.58-4.58Z"/><path class="cls-2" d="M84.13,55.44l4.16,4.17.43-.19-4.19-4.21Z"/><path class="cls-2" d="M90.44,51.87l4.66,4.67.42-.21-4.69-4.69Z"/><path class="cls-2" d="M87.29,53.66l4.43,4.44.43-.2-4.47-4.46Z"/><path class="cls-2" d="M79.36,58.08,83.26,62l.41-.21-3.91-3.91Z"/><path class="cls-2" d="M82.54,56.32l4,4,.43-.19L83,56.1Z"/><path class="cls-2" d="M77.77,59l3.85,3.84c.13-.08.28-.14.4-.21l-3.85-3.87Z"/><path class="cls-2" d="M81,57.2l3.94,4,.44-.2-4-4Z"/><path class="cls-2" d="M92,51l4.76,4.76.43-.19-4.78-4.79Z"/><path class="cls-2" d="M104.44,43.66l5,5,.38-.24-5-5Z"/><path class="cls-2" d="M102.89,44.59l5,5,.39-.25-5-5Z"/><path class="cls-2" d="M101.35,45.51l5.05,5.05c.14-.08.26-.16.4-.23l-5.06-5Z"/><path class="cls-2" d="M106,42.73l5,5a2.58,2.58,0,0,0,.37-.24l-5-4.95Z"/><path class="cls-2" d="M93.57,50.08l4.84,4.84.42-.21L94,49.84Z"/><path class="cls-2" d="M99.81,46.43l5,5,.4-.22-5-5C100.06,46.28,99.94,46.34,99.81,46.43Z"/><path class="cls-2" d="M95.14,49.17l4.91,4.91.41-.21-4.94-4.93Z"/><path class="cls-2" d="M76.2,59.85,80,63.66l.41-.21L76.6,59.63Z"/><path class="cls-2" d="M96.69,48.27l5,5,.4-.21-5-5Z"/><path class="cls-2" d="M98.25,47.35l5,5c.13-.06.26-.14.4-.22l-5-5Z"/><path class="cls-2" d="M109,40.84l4.81,4.8.34-.26-4.76-4.77Z"/><path class="cls-2" d="M59.35,77.55l.73.74.3-.31-.87-.88C59.45,77.26,59.39,77.4,59.35,77.55Z"/><path class="cls-2" d="M60.09,75.84,61.31,77l.31-.29L60.3,75.42C60.22,75.57,60.16,75.69,60.09,75.84Z"/><path class="cls-2" d="M110.55,39.89l4.67,4.67c.1-.09.23-.18.34-.27l-4.64-4.64Z"/><path class="cls-2" d="M61.89,72.69l2,2a3.11,3.11,0,0,1,.33-.29l-2.1-2.09C62.05,72.43,62,72.57,61.89,72.69Z"/><path class="cls-2" d="M60.94,74.22l1.65,1.63c.1-.1.2-.2.31-.29l-1.72-1.73C61.1,74,61,74.1,60.94,74.22Z"/><path class="cls-2" d="M112.05,38.94l4.52,4.51c.1-.1.23-.19.34-.29l-4.48-4.47C112.31,38.77,112.17,38.85,112.05,38.94Z"/><path class="cls-2" d="M74.68,60.8l3.74,3.75.4-.23-3.76-3.77A3.57,3.57,0,0,0,74.68,60.8Z"/><path class="cls-2" d="M126.37,25.63l0,.05c0,.08-.09.17-.14.26l.31.3A1.21,1.21,0,0,0,126.37,25.63Z"/><path class="cls-2" d="M58.68,79.36l.23.23.29-.33-.36-.36C58.78,79.05,58.73,79.2,58.68,79.36Z"/><path class="cls-2" d="M68.93,64.94l3.39,3.36c.12-.06.24-.15.38-.23l-3.42-3.42Z"/><path class="cls-2" d="M70.3,63.84l3.51,3.5.37-.25-3.52-3.52Z"/><path class="cls-2" d="M71.72,62.78l3.61,3.6.38-.23-3.63-3.63C72,62.61,71.84,62.69,71.72,62.78Z"/><path class="cls-2" d="M73.18,61.77l3.68,3.69.39-.24-3.71-3.7Z"/><path class="cls-2" d="M62.89,71.24l2.34,2.33c.11-.1.21-.19.34-.29l-2.4-2.4A3.44,3.44,0,0,0,62.89,71.24Z"/><path class="cls-2" d="M67.61,66.09l3.23,3.23.37-.27L68,65.78Z"/><path class="cls-2" d="M64,69.86l2.6,2.59.35-.27-2.68-2.66A3.1,3.1,0,0,0,64,69.86Z"/><path class="cls-2" d="M65.14,68.54,68,71.39l.34-.28-2.9-2.9Z"/><path class="cls-2" d="M107.5,41.79l4.9,4.89.36-.27-4.86-4.86C107.76,41.63,107.63,41.7,107.5,41.79Z"/><path class="cls-2" d="M66.34,67.28l3,3,.37-.25L66.67,67A3.31,3.31,0,0,1,66.34,67.28Z"/><path class="cls-2" d="M120.59,32.65l3,3c.08-.12.16-.26.24-.39l-3-2.95Z"/><path class="cls-2" d="M115,37l4.14,4.12c.1-.09.19-.2.3-.3l-4.07-4.08Z"/><path class="cls-2" d="M116.47,35.94l3.9,3.9.28-.32-3.83-3.85C116.69,35.76,116.59,35.85,116.47,35.94Z"/><path class="cls-2" d="M121.88,31.47l2.66,2.66c.06-.14.13-.27.2-.42l-2.54-2.54A3.13,3.13,0,0,0,121.88,31.47Z"/><path class="cls-2" d="M124.25,28.92l1.7,1.7c0-.17.09-.33.14-.49l-1.55-1.56C124.45,28.69,124.34,28.81,124.25,28.92Z"/><path class="cls-2" d="M113.54,38l4.35,4.33c.1-.09.21-.19.31-.3l-4.27-4.29C113.8,37.79,113.68,37.88,113.54,38Z"/><path class="cls-2" d="M123.11,30.24l2.2,2.21a3,3,0,0,0,.18-.45l-2.09-2.09Z"/><path class="cls-2" d="M125.31,27.51l1.08,1.08a5.35,5.35,0,0,0,.07-.56l-.91-.91Z"/><path class="cls-2" d="M119.26,33.79l3.35,3.35c.08-.11.18-.22.27-.35l-3.28-3.28A3.39,3.39,0,0,0,119.26,33.79Z"/><path class="cls-2" d="M117.88,34.88l3.64,3.65.29-.34-3.59-3.58Z"/><path class="cls-2" d="M106.23,62.71h0Z"/><path class="cls-2" d="M105.38,63.72l-.48-.47-.45.19.63.62C105.17,63.94,105.28,63.83,105.38,63.72Z"/><path class="cls-2" d="M104.22,65,103.15,64l-.45.18,1.23,1.23Z"/><path class="cls-2" d="M99.59,65.35l-.45.18,2.37,2.35c.1-.1.21-.19.31-.3Z"/><path class="cls-2" d="M92,68.24l3.88,3.88.38-.23-3.81-3.82Z"/><path class="cls-2" d="M90.2,68.92,94.3,73l.4-.21-4-4C90.49,68.8,90.35,68.86,90.2,68.92Z"/><path class="cls-2" d="M97.37,66.21,100.2,69a4.19,4.19,0,0,0,.34-.28L97.82,66A4.7,4.7,0,0,0,97.37,66.21Z"/><path class="cls-2" d="M95.57,66.89l3.26,3.25.35-.27L96,66.71Z"/><path class="cls-2" d="M93.78,67.57l3.6,3.58c.13-.07.25-.15.37-.23L94.23,67.4Z"/><path class="cls-2" d="M103.05,66.34l-1.67-1.68-.46.17,1.82,1.82Z"/><path class="cls-2" d="M69.44,77.77l3.47,3.49c.16-.06.33-.1.48-.15l-3.55-3.54A2.13,2.13,0,0,0,69.44,77.77Z"/><path class="cls-2" d="M88.4,69.6l4.28,4.25c.14-.06.27-.13.4-.2l-4.22-4.23A4.9,4.9,0,0,1,88.4,69.6Z"/><path class="cls-2" d="M71.36,76.78h0l-.28.16,3.76,3.74.48-.14-3.83-3.83Z"/><path class="cls-2" d="M72.7,76.1l4,4,.47-.16-4.06-4.06A4,4,0,0,1,72.7,76.1Z"/><path class="cls-2" d="M86.62,70.28,91,74.66l.44-.2-4.37-4.35Z"/><path class="cls-2" d="M66.2,79.47,69,82.31l.5-.12L66.6,79.25Z"/><path class="cls-2" d="M74.37,75.31l4.19,4.19.46-.17L74.8,75.1Z"/><path class="cls-2" d="M81.3,72.36l4.5,4.51.45-.18-4.51-4.51C81.6,72.25,81.45,72.3,81.3,72.36Z"/><path class="cls-2" d="M64.59,80.33l2.47,2.49.51-.14L65,80.12Z"/><path class="cls-2" d="M83.06,71.66l4.5,4.5L88,76l-4.49-4.5Z"/><path class="cls-2" d="M79.55,73.07,84,77.56l.45-.17L80,72.9Z"/><path class="cls-2" d="M77.8,73.8l4.41,4.42.47-.17-4.45-4.43Z"/><path class="cls-2" d="M76.08,74.54l4.31,4.33.47-.17-4.35-4.35Z"/><path class="cls-2" d="M67.8,78.61,71,81.8l.49-.14L68.22,78.4Z"/><path class="cls-2" d="M55.58,91.07l1.85,1.85c.06-.16.11-.31.16-.46l-1.83-1.83C55.7,90.78,55.63,90.93,55.58,91.07Z"/><path class="cls-2" d="M56.31,89.33l1.74,1.74c.05-.16.09-.33.14-.49L56.5,88.89C56.43,89,56.37,89.19,56.31,89.33Z"/><path class="cls-2" d="M54.81,92.78l1.88,1.87c.07-.14.13-.29.2-.42L55,92.34C54.93,92.49,54.88,92.64,54.81,92.78Z"/><path class="cls-2" d="M63,81.22l2.06,2.06.51-.12L63.41,81Z"/><path class="cls-2" d="M60,83.16l1,1,.51-.11L60.37,82.9Z"/><path class="cls-2" d="M61.48,82.16,63,83.71l.53-.09-1.71-1.71Z"/><path class="cls-2" d="M58.7,84.33l.24.23c.17,0,.34-.06.53-.11L59,84Z"/><path class="cls-2" d="M57.85,85.58s-.05.11-.1.24l1,1c0-.23,0-.44,0-.62l-.83-.83A.76.76,0,0,0,57.85,85.58Z"/><path class="cls-2" d="M84.85,71l4.45,4.47a4.17,4.17,0,0,1,.44-.19L85.29,70.8Z"/><path class="cls-2" d="M57,87.59l1.48,1.47a4.89,4.89,0,0,0,.09-.53l-1.38-1.39C57.15,87.29,57.09,87.43,57,87.59Z"/><path class="cls-2" d="M31.87,120.92l.4.41c.07-.14.15-.29.21-.43l-.29-.28Z"/><path class="cls-2" d="M30.59,122.11l.86.85c.06-.14.13-.27.2-.4l-.74-.76A2.34,2.34,0,0,1,30.59,122.11Z"/><path class="cls-2" d="M26.32,127.72l1.61,1.61a4.1,4.1,0,0,0,.22-.41l-1.57-1.57C26.49,127.46,26.41,127.59,26.32,127.72Z"/><path class="cls-2" d="M28.34,124.81l1.38,1.36c.08-.14.14-.26.22-.39l-1.31-1.33C28.54,124.57,28.43,124.68,28.34,124.81Z"/><path class="cls-2" d="M29.44,123.42l1.15,1.16.22-.41-1.09-1.08Z"/><path class="cls-2" d="M27.32,126.24l1.51,1.52c.07-.14.14-.27.22-.4l-1.48-1.48Z"/><path class="cls-2" d="M91.63,121.83l-.4-.24L90,122.82l.34.29Z"/><path class="cls-2" d="M91.55,124.37l1.51-1.52-.34-.28L91.27,124C91.37,124.13,91.45,124.25,91.55,124.37Z"/><path class="cls-2" d="M92.47,125.93l1.74-1.75-.26-.36-1.69,1.67Z"/><path class="cls-2" d="M93.93,126.93l1-1c0-.17-.1-.33-.15-.48l-1.32,1.32Z"/><path class="cls-2" d="M90,121l-.46-.18-1,1,.38.24Z"/><path class="cls-2" d="M86,120c-.17,0-.36,0-.54-.09l-.29.3.45.18Z"/><path class="cls-2" d="M89,117l1-.94c-.07-.15-.13-.28-.21-.43L88.39,117Z"/><path class="cls-2" d="M88.09,120.42l-.5-.12-.65.65.43.2Z"/><path class="cls-2" d="M84.11,112.06l-.47-.14-.47.45c.13.09.24.19.35.28Z"/><path class="cls-2" d="M85.94,112.7l-.45-.16-.94.93.31.3Z"/><path class="cls-2" d="M86.08,115l1.54-1.54-.41-.21-1.41,1.43C85.9,114.81,86,114.92,86.08,115Z"/><path class="cls-2" d="M87.11,116.46,89,114.58c-.1-.11-.2-.21-.31-.31l-1.81,1.8Z"/><path class="cls-2" d="M51.26,96.62l.47.48c.22,0,.47.07.72.09l-.78-.77A2,2,0,0,1,51.26,96.62Z"/><path class="cls-2" d="M52.77,95.67,54.14,97c.14,0,.3-.09.46-.16l-1.51-1.5A2.27,2.27,0,0,1,52.77,95.67Z"/><path class="cls-3" d="M257.69,98.37v34.75h9.64V118.6h9.83c2.74,0,2.92-.8,3.53-4.95l-1.18.38-12.18.19v-7.9c0-1.61-.13-2.26-.84-3.15l-1.08-1.41H286.8l1.31.85V96.82H256.89Zm92.34,0v34.75h9.64V96.82H349.23Zm-33.85,20.41,5.66-12.45,5.61,12.45Zm12.6-20.55c-1.84-3.9-3.63-4.09-11.52-.56l1,.7.78,1.74-15.17,33h5.83l4.31-9.5h15.64l3,6.63c1.94,4.33,3.86,4.95,12.42.9l-1.18-.9Zm54.44,16.92h-5.78v-8.83a4.18,4.18,0,0,0-.85-3.15l-1.08-1.41h6.54c7.1,0,10,2,10,6.81,0,4.05-2.31,6.58-8.8,6.58m19.33,15.15c-2.65-4.09-5.74-8.79-8-11.66,5-2,7.66-5.36,7.66-9.78,0-7.9-5.78-12-15.6-12H367l.79,1.55v34.75h9.64V120.47h8c2.16,3.38,4.63,7.69,6.29,10.63,2.26,4,4,4.33,12.08,0ZM159.66,117.14v5.36a4.21,4.21,0,0,0,.84,3.14l.61.8A21,21,0,0,1,153.3,128c-7.8,0-14.24-5.4-14.24-15.66,0-7.1,3.11-10.77,10.53-10.77,6.49,0,11.86,1.18,18.48,3.29l.28-6.53a77.36,77.36,0,0,0-16.07-2.16c-14.35,0-24.5,5.31-24.5,18.8,0,13.16,11,18.49,23.69,18.49a50.78,50.78,0,0,0,17.77-3.77V115.35l-10.76-.1Zm69,11,1.07-1.41a4.23,4.23,0,0,0,.85-3.16V96.82H220.12l.8,1.55v34.75h31.37v-5.79l-1.32.86ZM207.53,98.37V118.6c0,7-2.78,10.05-10.49,10.05-8.19,0-10.67-3.28-10.67-10.57V96.82H175.92l.8,1.55v21.69c0,9.4,7.06,13.53,18.77,13.53,13.4,0,17.07-6.58,17.07-15l.05-21.78h-6.07Z"/><path class="cls-4" d="M138.67,103.26c-.25.12-.51.26-.74.4L135,106.59q-.21.34-.39.72Z"/><path class="cls-4" d="M141.82,102.17l-.45.11-7.61,7.61c0,.13,0,.27-.07.41Z"/><path class="cls-4" d="M140.7,105.35a7.44,7.44,0,0,1,2.28-2.29l1.32-1.31-.39,0-10.45,10.45c0,.12,0,.23,0,.36Z"/><path class="cls-4" d="M145.87,101.9l.42-.07.25-.25h-.36Z"/><path class="cls-4" d="M139.39,108.73c0-.15.07-.29.1-.45l-6.06,6.06c0,.12,0,.22,0,.33Z"/><path class="cls-4" d="M148.28,101.56h.34l0,0h-.34Z"/><path class="cls-4" d="M139.1,111.08a2.1,2.1,0,0,1,0-.36l-5.54,5.54a2.89,2.89,0,0,0,0,.29Z"/><path class="cls-4" d="M139.08,113.16c0-.11,0-.22,0-.32L133.89,118a2.61,2.61,0,0,0,.06.27Z"/><path class="cls-4" d="M150.38,101.53h0Z"/><path class="cls-4" d="M139.19,115a2.89,2.89,0,0,1,0-.29l-4.78,5a1.86,1.86,0,0,1,.1.25Z"/><path class="cls-4" d="M139.54,116.83l-.06-.27-4.57,4.57c0,.07.06.15.1.23Z"/><path class="cls-4" d="M140,118.45c0-.08,0-.16-.08-.25l-4.29,4.29c0,.06.07.15.11.22Z"/><path class="cls-4" d="M140.55,119.94c0-.08-.07-.15-.1-.23l-4,4,.14.19Z"/><path class="cls-4" d="M141.25,121.31l-.12-.21-3.79,3.79.16.17Z"/><path class="cls-4" d="M142.07,122.55l-.15-.18-3.56,3.55.18.17Z"/><path class="cls-4" d="M143,123.68l-.16-.16-3.35,3.34.19.15Z"/><path class="cls-4" d="M144.05,124.69l-.18-.14-3.15,3.15a2.25,2.25,0,0,0,.21.12Z"/><path class="cls-4" d="M145.22,125.59l-.19-.13-3,3,.21.11Z"/><path class="cls-4" d="M146.52,126.37l-.22-.13-2.84,2.85.25.08Z"/><polygon class="cls-4" points="175.93 96.82 175.97 96.91 176.06 96.82 175.93 96.82"/><polygon class="cls-4" points="177.79 96.82 176.56 98.05 176.67 98.27 178.12 96.82 177.79 96.82"/><path class="cls-4" d="M147.94,127l-.24-.1L145,129.62l.25.08Z"/><polygon class="cls-4" points="159.65 117.35 159.74 117.27 159.65 117.13 159.65 117.35"/><polygon class="cls-4" points="179.85 96.82 177.26 99.41 177.37 99.64 180.19 96.82 179.85 96.82"/><path class="cls-4" d="M149.51,127.49l-.26-.07-2.63,2.63.28.06Z"/><polygon class="cls-4" points="159.65 119.08 159.65 119.42 160.53 118.54 160.4 118.33 159.65 119.08"/><polygon class="cls-4" points="181.92 96.82 177.96 100.77 178.08 100.99 182.25 96.82 181.92 96.82"/><path class="cls-4" d="M151.25,127.81l-.29,0-2.61,2.61.3,0Z"/><polygon class="cls-4" points="159.65 121.15 159.65 121.48 161.33 119.8 161.19 119.6 159.65 121.15"/><path class="cls-4" d="M153.19,127.94h-.33l-2.65,2.65.3,0Z"/><polygon class="cls-4" points="183.98 96.82 178.66 102.13 178.77 102.36 184.32 96.82 183.98 96.82"/><path class="cls-4" d="M162.12,121.08l-.13-.21-2.32,2.32c0,.11,0,.22,0,.32Z"/><path class="cls-4" d="M155,127.87l-2.8,2.8h.33l2.83-2.83c-.12,0-.24,0-.36,0"/><polygon class="cls-4" points="179.48 103.72 186.36 96.83 186.36 96.82 186.04 96.82 179.36 103.5 179.48 103.72"/><path class="cls-4" d="M157.81,127.45l-.43.1-3,3,.37,0Z"/><path class="cls-4" d="M162.91,122.34l-.12-.2L160,124.9l.11.22Z"/><polygon class="cls-4" points="180.06 104.86 180.18 105.08 186.37 98.89 186.37 98.56 180.06 104.86"/><polygon class="cls-4" points="160.87 126.12 161.01 126.31 163.56 123.76 163.47 123.53 160.87 126.12"/><path class="cls-4" d="M180.73,106.25l.1.24,5.53-5.53v-.33Z"/><path class="cls-4" d="M160.75,126.57l-.53.2-3.52,3.53.39-.07Z"/><path class="cls-4" d="M164.13,125.26,164,125l-4.79,4.8.42-.1Z"/><path class="cls-4" d="M181.24,107.81a2.61,2.61,0,0,1,.06.27l5.07-5.06v-.33Z"/><path class="cls-4" d="M164.69,126.76l-.09-.24L162,129.13l.47-.13Z"/><path class="cls-4" d="M186.37,104.75l-4.85,4.85c0,.11,0,.21,0,.32l4.84-4.84Z"/><path class="cls-4" d="M165.17,128l-.12.12.14,0Z"/><polygon class="cls-4" points="181.54 111.64 181.54 111.98 186.36 107.14 186.36 106.81 181.54 111.64"/><polygon class="cls-4" points="181.53 113.71 181.53 114.05 186.37 109.22 186.37 108.88 181.53 113.71"/><polygon class="cls-4" points="181.53 115.77 181.53 116.11 186.37 111.28 186.37 110.94 181.53 115.77"/><polygon class="cls-4" points="181.52 117.85 181.52 118.19 186.37 113.34 186.37 113.01 181.52 117.85"/><path class="cls-4" d="M186.37,115.4v-.33l-4.82,4.81c0,.11,0,.22,0,.32Z"/><polygon class="cls-4" points="206.67 96.82 206.6 96.91 206.72 97.11 207.02 96.82 206.67 96.82"/><path class="cls-4" d="M186.37,117.47v-.34l-4.65,4.65a2.89,2.89,0,0,1,0,.29Z"/><path class="cls-4" d="M186.4,119.49c0-.1,0-.21,0-.32l-4.31,4.3.09.26Z"/><polygon class="cls-4" points="208.74 96.82 207.39 98.17 207.53 98.37 209.07 96.82 208.74 96.82"/><path class="cls-4" d="M186.59,121.37c0-.1,0-.2,0-.3l-3.9,3.9.11.23Z"/><polygon class="cls-4" points="207.52 100.1 207.52 100.44 210.2 97.76 210.21 97.42 207.52 100.1"/><path class="cls-4" d="M187,123.05l-.09-.24-3.5,3.49a2.39,2.39,0,0,1,.13.21Z"/><polygon class="cls-4" points="207.52 102.17 207.52 102.5 210.18 99.84 210.19 99.51 207.52 102.17"/><path class="cls-4" d="M187.55,124.54c0-.07-.07-.15-.11-.23l-3.14,3.14a1.37,1.37,0,0,0,.17.17Z"/><polygon class="cls-4" points="207.52 104.23 207.52 104.57 210.16 101.92 210.17 101.59 207.52 104.23"/><path class="cls-4" d="M188.37,125.78c-.05-.06-.1-.13-.15-.18l-2.82,2.82.19.14Z"/><polygon class="cls-4" points="207.52 106.29 207.52 106.63 210.15 104 210.15 103.67 207.52 106.29"/><polygon class="cls-4" points="207.52 108.36 207.52 108.69 210.13 106.08 210.13 105.75 207.52 108.36"/><path class="cls-4" d="M189.43,126.79l-.19-.14-2.59,2.57.22.12Z"/><polygon class="cls-4" points="207.52 110.42 207.52 110.76 210.1 108.17 210.12 107.83 207.52 110.42"/><path class="cls-4" d="M190.72,127.56a2.26,2.26,0,0,0-.22-.11l-2.44,2.43.24.1Z"/><polygon class="cls-4" points="221.12 96.82 220.46 97.48 220.57 97.7 221.46 96.82 221.12 96.82"/><path class="cls-4" d="M192.24,128.11,192,128l-2.35,2.35.26.07Z"/><polygon class="cls-4" points="207.52 112.48 207.52 112.81 210.09 110.26 210.09 109.92 207.52 112.48"/><polygon class="cls-4" points="223.19 96.82 221.17 98.84 221.28 99.06 223.52 96.82 223.19 96.82"/><path class="cls-4" d="M194,128.45l-.28,0-2.37,2.36.3,0Z"/><polygon class="cls-4" points="207.52 114.55 207.52 114.88 210.07 112.33 210.07 112 207.52 114.55"/><polygon class="cls-4" points="225.25 96.82 221.86 100.2 221.99 100.43 225.59 96.82 225.25 96.82"/><path class="cls-4" d="M195.85,128.62h-.32l-2.4,2.38c.1,0,.22,0,.32,0Z"/><polygon class="cls-4" points="207.52 116.61 207.52 116.95 210.05 114.41 210.06 114.08 207.52 116.61"/><polygon class="cls-4" points="227.32 96.82 222.57 101.57 222.67 101.78 227.65 96.82 227.32 96.82"/><path class="cls-4" d="M197.9,128.63h-.34l-2.48,2.48h.33Z"/><polygon class="cls-4" points="223.27 102.93 223.38 103.14 229.71 96.83 229.37 96.83 223.27 102.93"/><path class="cls-4" d="M210,116.5v-.34l-2.51,2.51c0,.13,0,.23,0,.34Z"/><path class="cls-4" d="M210,118.58v-.34l-2.61,2.62c0,.12,0,.25,0,.37Z"/><polygon class="cls-4" points="223.97 104.29 224.08 104.51 230.56 98.03 230.56 97.7 223.97 104.29"/><path class="cls-4" d="M200.16,128.44l-.4.06-2.63,2.63h.34Z"/><path class="cls-4" d="M209.93,120.73c0-.12,0-.23,0-.36l-3.1,3.11c-.06.17-.11.35-.18.51Z"/><path class="cls-4" d="M203,127.71c-.16.07-.35.12-.53.19L199.34,131l.38,0Z"/><path class="cls-4" d="M224.67,105.66c0,.08.07.15.1.23l5.79-5.79v-.33Z"/><path class="cls-4" d="M225.25,107.14c0,.08.05.16.08.25l5.23-5.22v-.35Z"/><path class="cls-4" d="M209.52,123.2c0-.14.07-.28.1-.44l-7.78,7.79.44-.11Z"/><path class="cls-4" d="M230.56,103.89l-4.93,4.93c0,.1,0,.2.05.3l4.88-4.9Z"/><path class="cls-4" d="M207.67,127.12a7.89,7.89,0,0,0,.72-1.06l-3.16,3.17a11.9,11.9,0,0,0,1.07-.74Z"/><polygon class="cls-4" points="225.74 110.78 225.74 111.11 230.56 106.3 230.56 105.96 225.74 110.78"/><polygon class="cls-4" points="225.74 112.85 225.74 113.17 230.56 108.35 230.56 108.02 225.74 112.85"/><polygon class="cls-4" points="225.74 114.91 225.74 115.25 230.56 110.41 230.56 110.09 225.74 114.91"/><polygon class="cls-4" points="225.74 116.97 225.74 117.3 230.56 112.48 230.56 112.15 225.74 116.97"/><polygon class="cls-4" points="225.72 119.05 225.72 119.39 230.56 114.55 230.56 114.21 225.72 119.05"/><path class="cls-4" d="M230.56,116.61v-.33l-4.88,4.87v.34Z"/><path class="cls-4" d="M230.56,118.67v-.33l-4.95,4.94c0,.12,0,.24,0,.36Z"/><path class="cls-4" d="M230.56,120.73v-.33l-5.07,5.07c0,.11,0,.24,0,.35Z"/><path class="cls-4" d="M230.56,122.8v-.33l-5.22,5.21,0,.37Z"/><path class="cls-4" d="M230.5,124.93l0-.37-5.38,5.38,0,.36Z"/><polygon class="cls-4" points="257.36 97.73 257.47 97.95 257.98 97.44 257.76 97.33 257.36 97.73"/><polygon class="cls-4" points="258.06 99.09 258.18 99.31 259.28 98.22 259.07 98.09 258.06 99.09"/><polygon class="cls-4" points="224.94 132.21 224.91 132.57 226.47 131.02 227.54 129.61 224.94 132.21"/><polygon class="cls-4" points="258.77 100.46 258.88 100.68 260.59 98.97 260.37 98.84 258.77 100.46"/><polygon class="cls-4" points="259.47 101.81 259.58 102.04 261.9 99.72 261.68 99.6 259.47 101.81"/><polygon class="cls-4" points="260.17 103.18 260.28 103.4 263.2 100.48 262.99 100.36 260.17 103.18"/><polygon class="cls-4" points="260.87 104.53 260.99 104.76 264.51 101.23 264.29 101.11 260.87 104.53"/><path class="cls-4" d="M265.69,102.12l-.15-.19-4,4,.1.23Z"/><path class="cls-4" d="M266.58,103.29l-.09-.12-.05-.07-4.33,4.33a2.5,2.5,0,0,0,.07.26Z"/><path class="cls-4" d="M267.22,104.71a2.61,2.61,0,0,0-.06-.27l-4.72,4.71a1.63,1.63,0,0,1,0,.31Z"/><polygon class="cls-4" points="262.51 111.15 262.51 111.48 267.33 106.66 267.33 106.33 262.51 111.15"/><polygon class="cls-4" points="262.51 113.21 262.51 113.55 267.33 108.73 267.33 108.39 262.51 113.21"/><polygon class="cls-4" points="262.51 115.27 262.51 115.61 267.33 110.79 267.33 110.45 262.51 115.27"/><polygon class="cls-4" points="262.51 117.34 262.51 117.67 267.33 112.86 267.33 112.52 262.51 117.34"/><polygon class="cls-4" points="262.51 119.41 262.51 119.74 267.33 114.92 267.33 114.58 262.51 119.41"/><polygon class="cls-4" points="262.51 121.47 262.51 121.81 267.33 116.98 267.33 116.65 262.51 121.47"/><polygon class="cls-4" points="262.51 123.53 262.51 123.87 267.33 119.04 267.33 118.71 262.51 123.53"/><polygon class="cls-4" points="262.51 125.59 262.51 125.93 267.33 121.11 267.33 120.78 262.51 125.59"/><polygon class="cls-4" points="262.51 127.65 262.51 128 267.33 123.17 267.33 122.84 262.51 127.65"/><polygon class="cls-4" points="262.51 129.72 262.51 130.06 267.33 125.24 267.33 124.91 262.51 129.72"/><polygon class="cls-4" points="262.51 131.79 262.51 132.12 267.33 127.3 267.33 126.96 262.51 131.79"/><polygon class="cls-4" points="263.24 133.12 263.58 133.12 267.34 129.37 267.34 129.03 263.24 133.12"/><polygon class="cls-4" points="265.3 133.12 265.64 133.12 267.33 131.43 267.33 131.1 265.3 133.12"/><path class="cls-4" d="M317.88,97.39l-.6.26h0c.16-.06.33-.11.48-.15Z"/><path class="cls-4" d="M321.35,96l-.53.19-.86.88.34,0Z"/><path class="cls-4" d="M324.18,95.22l-.41.07-2,2,.23.1Z"/><path class="cls-4" d="M326.15,95.31l-.26-.07L323,98.14l.15.17Z"/><path class="cls-4" d="M327.42,96.1a1.22,1.22,0,0,0-.17-.15l-3.42,3.4.12.22Z"/><path class="cls-4" d="M328.3,97.29l-.13-.2-3.65,3.65.1.23Z"/><polygon class="cls-4" points="325.18 102.14 325.28 102.37 328.98 98.66 328.87 98.44 325.18 102.14"/><polygon class="cls-4" points="325.84 103.55 325.94 103.78 329.64 100.07 329.54 99.85 325.84 103.55"/><polygon class="cls-4" points="326.5 104.95 326.6 105.19 330.31 101.47 330.2 101.25 326.5 104.95"/><polygon class="cls-4" points="327.16 106.35 327.26 106.58 330.97 102.87 330.86 102.65 327.16 106.35"/><polygon class="cls-4" points="327.82 107.75 327.92 107.99 331.63 104.27 331.52 104.05 327.82 107.75"/><polygon class="cls-4" points="328.48 109.16 328.58 109.39 332.29 105.68 332.19 105.46 328.48 109.16"/><polygon class="cls-4" points="329.14 110.56 329.24 110.8 332.95 107.08 332.85 106.86 329.14 110.56"/><polygon class="cls-4" points="329.8 111.97 329.9 112.2 333.62 108.49 333.51 108.26 329.8 111.97"/><polygon class="cls-4" points="330.45 113.37 330.56 113.6 334.27 109.89 334.16 109.66 330.45 113.37"/><polygon class="cls-4" points="331.12 114.78 331.22 115 334.93 111.29 334.83 111.06 331.12 114.78"/><polygon class="cls-4" points="349.23 96.82 349.29 96.94 349.4 96.82 349.23 96.82"/><polygon class="cls-4" points="331.77 116.18 331.88 116.41 335.6 112.69 335.49 112.46 331.77 116.18"/><polygon class="cls-4" points="351.13 96.82 349.88 98.07 349.99 98.29 351.48 96.82 351.13 96.82"/><polygon class="cls-4" points="353.2 96.82 350.58 99.44 350.7 99.66 353.53 96.82 353.2 96.82"/><polygon class="cls-4" points="332.44 117.59 332.54 117.81 336.26 114.09 336.15 113.87 332.44 117.59"/><polygon class="cls-4" points="333.1 118.99 333.21 119.22 336.92 115.49 336.81 115.27 333.1 118.99"/><polygon class="cls-4" points="355.26 96.82 351.28 100.8 351.39 101.02 355.6 96.82 355.26 96.82"/><polygon class="cls-4" points="333.76 120.39 333.86 120.62 337.58 116.9 337.47 116.67 333.76 120.39"/><polygon class="cls-4" points="357.33 96.82 351.99 102.17 352.09 102.38 357.66 96.82 357.33 96.82"/><polygon class="cls-4" points="352.8 103.74 359.67 96.87 359.67 96.82 359.39 96.82 352.69 103.53 352.8 103.74"/><polygon class="cls-4" points="334.42 121.79 334.52 122.02 338.24 118.3 338.13 118.07 334.42 121.79"/><polygon class="cls-4" points="353.39 104.89 353.5 105.11 359.67 98.93 359.67 98.6 353.39 104.89"/><polygon class="cls-4" points="335.07 123.19 335.19 123.42 338.9 119.71 338.8 119.48 335.07 123.19"/><path class="cls-4" d="M354.05,106.28l.1.24,5.52-5.52v-.33Z"/><polygon class="cls-4" points="335.74 124.61 335.85 124.83 339.57 121.1 339.45 120.88 335.74 124.61"/><polygon class="cls-4" points="336.4 126 336.5 126.23 340.23 122.51 340.12 122.28 336.4 126"/><path class="cls-4" d="M354.56,107.84l.06.28,5.05-5.06v-.33Z"/><polygon class="cls-4" points="337.06 127.41 337.17 127.64 340.89 123.91 340.78 123.69 337.06 127.41"/><path class="cls-4" d="M359.67,104.79l-4.84,4.84c0,.11,0,.23,0,.33l4.83-4.83Z"/><polygon class="cls-4" points="367.22 97.25 367.33 97.46 367.62 97.17 367.41 97.06 367.22 97.25"/><polygon class="cls-4" points="354.85 111.68 354.85 112.01 359.67 107.19 359.67 106.86 354.85 111.68"/><polygon class="cls-4" points="367.92 98.61 368.03 98.83 368.92 97.94 368.71 97.81 367.92 98.61"/><path class="cls-4" d="M341.55,125.31l-.11-.22-3.73,3.72c.05.08.08.15.12.22Z"/><path class="cls-4" d="M342.21,126.71l-.11-.22-3.62,3.62.13.2Z"/><polygon class="cls-4" points="368.62 99.97 368.74 100.19 370.23 98.69 370.02 98.57 368.62 99.97"/><polygon class="cls-4" points="354.85 113.74 354.85 114.08 359.67 109.25 359.67 108.92 354.85 113.74"/><polygon class="cls-4" points="354.85 115.8 354.85 116.14 359.67 111.32 359.67 110.99 354.85 115.8"/><path class="cls-4" d="M342.87,128.12l-.11-.23-3.27,3.28.2.13Z"/><polygon class="cls-4" points="369.32 101.33 369.44 101.56 371.54 99.45 371.32 99.33 369.32 101.33"/><polygon class="cls-4" points="354.85 117.86 354.85 118.21 359.67 113.39 359.67 113.05 354.85 117.86"/><path class="cls-4" d="M343.53,129.52l-.11-.22L341,131.77l.29,0Z"/><polygon class="cls-4" points="370.03 102.69 370.14 102.91 372.83 100.21 372.63 100.09 370.03 102.69"/><path class="cls-4" d="M344.44,130.68l-.19-.14-1.14,1.13.42-.09Z"/><polygon class="cls-4" points="354.85 119.93 354.85 120.27 359.67 115.45 359.67 115.12 354.85 119.93"/><polygon class="cls-4" points="370.73 104.06 370.84 104.28 374.15 100.97 373.94 100.84 370.73 104.06"/><polygon class="cls-4" points="354.85 121.99 354.85 122.33 359.67 117.51 359.67 117.17 354.85 121.99"/><path class="cls-4" d="M371.43,105.42c0,.07.07.14.11.22l3.91-3.92-.2-.12Z"/><polygon class="cls-4" points="354.85 124.06 354.85 124.39 359.67 119.57 359.67 119.24 354.85 124.06"/><path class="cls-4" d="M372,106.87a2.25,2.25,0,0,1,.08.24l4.25-4.24-.15-.18Z"/><path class="cls-4" d="M372.46,108.51a2.89,2.89,0,0,1,0,.29l4.67-4.66c0-.09-.07-.16-.1-.23Z"/><polygon class="cls-4" points="354.85 126.12 354.85 126.46 359.67 121.63 359.67 121.3 354.85 126.12"/><path class="cls-4" d="M372.62,110.42v.33l4.81-4.82v-.32Z"/><polygon class="cls-4" points="354.85 128.19 354.85 128.52 359.67 123.7 359.67 123.36 354.85 128.19"/><polygon class="cls-4" points="354.85 130.25 354.85 130.59 359.67 125.76 359.67 125.43 354.85 130.25"/><polygon class="cls-4" points="372.62 112.48 372.62 112.81 377.44 108 377.44 107.66 372.62 112.48"/><polygon class="cls-4" points="372.62 114.55 372.62 114.88 377.44 110.06 377.44 109.72 372.62 114.55"/><polygon class="cls-4" points="354.85 132.31 354.85 132.65 359.67 127.83 359.67 127.5 354.85 132.31"/><polygon class="cls-4" points="356.1 133.12 356.44 133.12 359.67 129.89 359.67 129.55 356.1 133.12"/><polygon class="cls-4" points="372.62 116.61 372.62 116.94 377.44 112.12 377.44 111.79 372.62 116.61"/><polygon class="cls-4" points="358.17 133.12 358.5 133.12 359.67 131.95 359.67 131.62 358.17 133.12"/><polygon class="cls-4" points="372.62 118.67 372.62 119.01 377.44 114.19 377.44 113.85 372.62 118.67"/><polygon class="cls-4" points="372.62 120.73 372.62 121.08 377.44 116.24 377.44 115.91 372.62 120.73"/><polygon class="cls-4" points="372.62 122.8 372.62 123.13 377.44 118.31 377.44 117.98 372.62 122.8"/><polygon class="cls-4" points="372.62 124.86 372.62 125.2 377.44 120.38 377.44 120.04 372.62 124.86"/><polygon class="cls-4" points="372.62 126.92 372.62 127.26 377.44 122.44 377.44 122.1 372.62 126.92"/><polygon class="cls-4" points="372.62 128.99 372.62 129.33 377.44 124.5 377.44 124.17 372.62 128.99"/><polygon class="cls-4" points="372.62 131.05 372.62 131.39 377.44 126.57 377.44 126.23 372.62 131.05"/><polygon class="cls-4" points="372.62 133.11 372.62 133.13 372.95 133.13 377.44 128.63 377.44 128.3 372.62 133.11"/><polygon class="cls-4" points="374.68 133.12 375.01 133.12 377.44 130.7 377.44 130.36 374.68 133.12"/><path class="cls-4" d="M390.31,119.85s0,0,0,0l0,0h0"/><polygon class="cls-4" points="376.75 133.12 377.07 133.12 377.44 132.76 377.44 132.42 376.75 133.12"/><path class="cls-4" d="M393.21,119.06l-.49.14L391,121a.82.82,0,0,0,.12.2Z"/><path class="cls-4" d="M395.05,119.27l-.14-.18-3.19,3.18.13.21Z"/><path class="cls-4" d="M395.93,120.46l-.14-.19-3.31,3.3.12.22Z"/><path class="cls-4" d="M396.79,121.66l-.14-.19-3.41,3.41.12.21Z"/><path class="cls-4" d="M397.63,122.88a1.27,1.27,0,0,0-.13-.19l-3.5,3.49a1.48,1.48,0,0,1,.13.21Z"/><path class="cls-4" d="M398.47,124.11l-.13-.2-3.56,3.56a2.25,2.25,0,0,1,.12.21Z"/><path class="cls-4" d="M399.3,125.34l-.13-.19-3.6,3.59.13.2Z"/><path class="cls-4" d="M400.13,126.58l-.14-.19-3.6,3.6a2.14,2.14,0,0,1,.13.19Z"/><path class="cls-4" d="M400.94,127.83l-.13-.2-3.56,3.55c.05.07.09.13.15.2Z"/><path class="cls-4" d="M401.63,128.87l-3.44,3.44.17.16,3.4-3.4-.13-.2"/><path class="cls-4" d="M402.55,130.3c0-.06-.07-.12-.11-.17l-3,3a.43.43,0,0,0,.25,0l.17-.06,2.72-2.72Z"/><path class="cls-4" d="M403.77,131.1l-.14-.1-.38.37c.18-.09.35-.17.52-.27"/></svg>