<svg version="1.1" id="Layer_1" xmlns="http://www.w3.org/2000/svg" xmlns:xlink="http://www.w3.org/1999/xlink" x="0px" y="0px"
	 width="100%" viewBox="0 0 2000 461" enable-background="new 0 0 2000 461" xml:space="preserve">
<path fill="none" opacity="1.000000" stroke="none" 
	d="
M241.000000,462.000000 
	C161.051468,462.000000 81.102951,462.000000 1.000000,462.000000 
	C1.000000,323.307556 1.000000,184.615021 1.388717,45.621975 
	C9.179294,45.879807 16.669888,45.902676 23.963989,47.111340 
	C37.868408,49.415352 51.401863,53.484619 63.645424,60.510727 
	C77.008018,68.179008 88.890953,77.779579 99.221085,89.480179 
	C111.050293,102.878738 120.434204,117.741486 128.191071,133.657303 
	C139.990784,157.868423 151.107925,182.412842 162.960709,206.597260 
	C170.775330,222.542206 180.900192,237.112747 192.871094,250.220459 
	C204.450089,262.899017 218.061508,272.960510 233.663025,280.461517 
	C243.013077,284.956909 252.437012,288.495728 262.592712,289.351898 
	C255.582199,291.732208 248.907242,294.239258 242.031952,295.933228 
	C228.745499,299.206848 215.373581,302.153046 201.979782,304.961670 
	C196.699036,306.069031 191.265030,306.445526 185.440826,307.108154 
	C176.692154,307.090454 168.403473,307.119354 159.678040,307.095734 
	C147.324402,305.354126 135.407516,303.665039 121.859993,301.744812 
	C124.633553,304.688141 126.293404,307.392365 128.706070,308.853638 
	C142.240463,317.051147 155.502777,325.897888 169.729874,332.699127 
	C186.026505,340.489685 203.587479,344.846191 222.214966,345.328613 
	C233.978073,345.742432 245.433868,345.882965 256.890076,345.929596 
	C257.959656,345.933960 259.031708,345.344116 260.535034,345.030457 
	C277.115204,343.946045 292.291168,338.657227 307.641418,334.165649 
	C323.459412,329.537262 339.160889,324.499451 355.034729,320.076447 
	C368.750702,316.254608 382.738403,315.380707 396.642395,319.138092 
	C402.190704,320.637482 407.494568,323.041351 413.164825,325.304901 
	C418.506897,325.082916 416.165619,320.980042 415.690002,319.233643 
	C411.224152,302.835968 402.861359,288.924347 387.110565,281.202637 
	C376.596436,276.048126 365.269379,272.573914 354.629913,267.648346 
	C333.050201,257.657990 315.390991,242.579361 303.318390,222.206024 
	C288.820831,197.740433 276.017059,172.277298 262.063049,147.480652 
	C255.908539,136.543915 249.265274,125.793015 241.883026,115.657616 
	C231.266449,101.081657 218.956177,87.988213 205.019409,76.359955 
	C187.276367,61.555874 167.587448,50.228931 146.061127,42.218582 
	C120.799538,32.818264 94.628700,28.941866 67.574387,29.855946 
	C44.573219,30.633085 22.156767,33.358974 1.000000,43.000000 
	C1.000000,29.020788 1.000000,15.041574 1.000000,1.000000 
	C81.692490,1.000000 162.384995,1.000000 243.273163,1.311079 
	C234.493698,2.985741 225.452591,4.016064 216.556229,5.777556 
	C193.110275,10.419892 171.456940,19.785248 150.854630,31.688314 
	C149.113922,32.694019 147.621780,34.475380 146.616928,36.239693 
	C146.213959,36.947216 147.119446,39.300220 147.975601,39.683239 
	C155.322830,42.970169 162.692169,46.274548 170.285843,48.907711 
	C172.967117,49.837460 176.524078,49.624424 179.266266,48.700935 
	C184.574432,46.913319 189.491867,43.998264 194.742477,42.000553 
	C208.975998,36.585087 223.723846,33.119144 238.729584,30.544504 
	C254.695724,27.805075 270.723907,27.085968 286.728790,29.220909 
	C306.086334,31.803074 325.087311,36.311447 343.405487,43.116688 
	C351.495453,46.122124 358.595154,47.223083 364.942291,40.059547 
	C365.687256,39.218750 366.844421,38.750725 367.784729,38.074051 
	C371.591492,35.334480 375.388153,32.580917 379.850677,29.353672 
	C377.481567,27.966717 376.030701,26.925632 374.433105,26.214037 
	C365.818512,22.376947 357.396820,17.917789 348.473145,15.009414 
	C336.269562,11.032061 323.724823,8.046862 311.228455,5.043455 
	C303.917358,3.286286 296.415863,2.321337 289.000000,0.999999 
	C859.666687,1.000000 1430.333374,1.000000 2001.000000,1.000000 
	C2001.000000,65.772827 2001.000000,130.425171 2000.622681,195.505920 
	C1992.021240,193.538895 1983.844971,190.960617 1975.562988,188.785645 
	C1957.693237,184.092819 1941.424072,188.013794 1926.782471,198.830673 
	C1922.002319,202.362183 1917.852539,206.746933 1912.999390,211.114990 
	C1912.645386,207.345184 1912.083252,203.908661 1912.043335,200.466125 
	C1911.910278,188.967468 1911.981934,188.966644 1900.670776,189.000931 
	C1894.019165,189.021103 1894.005737,189.021103 1894.005127,195.910416 
	C1894.000854,244.731506 1894.002197,293.552582 1894.001953,342.373688 
	C1894.001953,355.080414 1894.006470,354.861908 1906.954590,355.111237 
	C1911.784424,355.204285 1913.135132,353.785492 1913.103149,348.959991 
	C1912.896240,317.802521 1912.838745,286.641785 1913.072266,255.484680 
	C1913.176392,241.605087 1918.407471,229.108871 1928.738037,220.172333 
	C1945.454102,205.711990 1964.873657,201.563873 1986.145386,209.581772 
	C1987.835815,210.218979 1989.701294,210.458069 1991.303223,211.250305 
	C1994.307373,212.736038 1995.511963,211.079254 1996.623413,208.723770 
	C1998.011353,205.782379 1999.534912,202.904984 2001.000000,200.000000 
	C2001.000000,287.314575 2001.000000,374.629181 2001.000000,462.000000 
	C1432.640869,462.000000 864.281677,462.000000 295.718781,461.689636 
	C303.018341,460.200714 310.641296,459.519379 318.001923,457.747986 
	C337.977692,452.940674 357.199646,445.960205 375.355774,436.231537 
	C398.576141,423.789215 419.779572,408.530518 437.349487,388.868042 
	C446.890198,378.191010 455.753479,366.698212 463.458038,354.637878 
	C476.512207,334.203491 485.862762,311.999603 492.424622,288.527832 
	C496.980530,272.231232 498.207886,255.671097 498.874084,238.999573 
	C499.191040,231.067474 498.461853,223.078018 497.938263,215.132233 
	C497.405334,207.044815 497.225555,198.846420 495.687225,190.930573 
	C492.095795,172.449387 487.845886,154.026794 478.967041,137.226685 
	C471.953125,123.955307 464.692474,110.742279 456.475769,98.201546 
	C449.982117,88.290642 441.966644,79.359352 434.349030,70.224831 
	C433.411316,69.100357 430.061951,68.448311 429.012939,69.208817 
	C422.876282,73.657768 416.991058,78.478859 411.317780,83.509087 
	C410.619781,84.127960 411.107025,87.211487 412.032501,88.350655 
	C418.091949,95.809113 424.787292,102.770485 430.588043,110.415428 
	C441.811981,125.207703 450.634674,141.316742 457.565155,158.665726 
	C466.486572,180.998550 469.970306,204.199341 470.844910,227.903076 
	C471.153992,236.278290 470.250916,244.814301 468.882324,253.108765 
	C466.710388,266.271515 464.596497,279.564606 460.809143,292.312653 
	C454.621735,313.138947 444.996765,332.422668 432.361755,350.319946 
	C419.161255,369.018219 402.717651,384.288269 384.457092,397.558044 
	C367.811493,409.654297 349.299530,418.588043 329.563965,424.671600 
	C310.997009,430.394897 292.038696,433.836395 272.525177,434.046753 
	C258.729675,434.195465 245.082047,433.390137 231.430725,431.097229 
	C213.505875,428.086517 196.271088,422.791412 180.160599,414.749451 
	C167.809219,408.584015 156.102722,400.864532 144.870941,392.778442 
	C127.101639,379.985779 112.017624,364.202576 100.148849,345.828491 
	C92.473228,333.945801 85.883064,321.249969 79.911957,308.404663 
	C71.124283,289.500183 66.594002,269.155975 65.325020,248.511047 
	C64.383934,233.200409 65.373558,217.596848 67.221916,202.331879 
	C69.691185,181.938980 75.129333,162.059647 84.788925,143.774612 
	C91.103806,131.820938 98.716797,120.556992 105.556099,108.871590 
	C106.465286,107.318184 107.198784,104.300461 106.382179,103.320831 
	C101.326248,97.255531 95.803619,91.579254 90.618393,85.971077 
	C89.574738,86.425598 89.211037,86.485405 88.988358,86.695030 
	C73.326447,101.438705 63.687862,120.284851 55.421677,139.498947 
	C49.151112,154.074371 45.227825,169.800415 41.558342,185.321396 
	C35.925274,209.147888 34.916786,233.369446 37.879364,257.772064 
	C40.726475,281.223602 46.417622,303.884247 55.908440,325.497406 
	C65.432045,347.185242 78.191216,366.973236 94.123299,384.433563 
	C118.776176,411.451202 147.355148,433.286163 182.083206,445.883728 
	C195.377228,450.706116 209.155609,454.224731 222.792099,458.056915 
	C228.759491,459.733917 234.924652,460.707184 241.000000,462.000000 
M690.878174,168.617783 
	C691.761536,171.340546 693.097778,172.090103 695.953308,170.617050 
	C702.557983,167.210098 709.383484,164.234573 716.051453,160.946259 
	C721.143433,158.435120 726.131165,155.712570 731.279419,153.024506 
	C722.166077,136.333313 709.661438,124.128357 692.991089,116.599800 
	C672.097839,107.164124 650.228760,103.267204 627.256775,105.933044 
	C605.401184,108.469337 584.521912,113.651329 567.452332,128.425034 
	C558.322021,136.327286 551.672852,146.191544 548.937622,158.293884 
	C546.753235,167.959106 547.600769,177.560913 548.908691,187.253677 
	C551.534424,206.712082 562.198486,220.618011 578.925964,229.726395 
	C595.995483,239.021042 615.096985,241.791931 633.997864,245.087433 
	C646.488037,247.265152 658.928528,249.912888 671.203064,253.079819 
	C679.725159,255.278595 688.129700,259.531403 690.192810,268.767761 
	C693.726013,284.586243 690.398010,297.000092 673.088440,304.986572 
	C655.456299,313.121918 637.033691,313.971344 618.303650,308.923065 
	C600.365601,304.088196 585.113159,295.778137 576.863647,277.910522 
	C576.404114,276.915131 573.431030,276.182556 572.097778,276.654663 
	C567.918579,278.134552 563.896423,280.117157 559.937439,282.147034 
	C552.146973,286.141479 544.440063,290.298859 535.921997,294.799042 
	C540.864197,303.029877 545.108093,311.301392 550.468201,318.772064 
	C561.350525,333.939331 577.068176,341.741394 594.507996,347.439728 
	C615.276001,354.225525 636.559875,354.202850 657.614990,352.561646 
	C676.600220,351.081848 694.901672,344.969116 710.729736,333.529053 
	C723.966187,323.962067 733.496155,311.458313 735.903381,295.076752 
	C737.400269,284.889832 737.783386,274.261444 736.650146,264.055054 
	C735.767273,256.104126 733.113647,247.657928 728.882812,240.915314 
	C720.210388,227.094543 706.492371,219.262772 691.237488,213.915359 
	C672.103149,207.208069 652.020935,205.019165 632.346375,200.861938 
	C622.396179,198.759460 612.580322,195.723862 603.019653,192.242523 
	C599.850769,191.088623 596.392395,187.677277 595.271484,184.516113 
	C591.715149,174.486359 594.318481,161.984741 603.507141,155.430328 
	C616.263489,146.331055 631.036011,144.468109 646.238647,146.686874 
	C656.539246,148.190170 666.551636,150.805954 675.957703,155.738968 
	C681.839233,158.823486 686.878845,162.453720 690.878174,168.617783 
M755.156128,237.861771 
	C751.154053,252.850510 750.601990,267.971191 754.071472,283.089081 
	C756.773254,294.862061 759.755737,306.689392 767.177856,316.561676 
	C784.985046,340.247040 809.740906,350.150635 838.500366,352.031525 
	C851.804260,352.901581 864.668884,350.208679 877.184143,346.594543 
	C890.038635,342.882507 902.412415,337.618896 911.640503,327.007202 
	C914.031067,324.258148 914.306580,322.606445 911.617004,320.034973 
	C903.822693,312.582977 896.225830,304.924591 889.216248,298.003540 
	C880.515503,301.810150 872.226685,306.315308 863.396912,309.112671 
	C846.112427,314.588562 829.074585,313.447571 813.157410,304.022186 
	C804.249207,298.747223 799.720703,290.532440 797.735474,280.001007 
	C800.343628,280.001007 802.320374,280.001038 804.297119,280.001038 
	C826.123108,280.000977 847.949036,280.001648 869.775024,280.000580 
	C886.602661,279.999756 903.430298,280.000275 920.257935,279.990601 
	C922.593872,279.989258 924.921814,280.318939 925.011108,276.657959 
	C925.594238,252.742737 924.779358,229.169250 910.221924,208.544983 
	C902.434082,197.511444 892.624573,189.004944 879.999939,183.895874 
	C861.335266,176.342422 841.929260,175.225479 822.333923,178.113693 
	C805.411682,180.607880 790.541809,188.248306 777.962524,199.759338 
	C766.872925,209.907181 759.722961,222.705780 755.156128,237.861771 
M1230.538940,220.110931 
	C1225.038696,210.431839 1219.034912,201.232498 1209.926758,194.357590 
	C1197.483276,184.965073 1183.562866,178.639374 1168.221069,177.279709 
	C1150.853027,175.740479 1133.612305,176.991226 1116.893921,183.742798 
	C1096.936768,191.802261 1082.764282,205.262253 1073.702026,224.543686 
	C1063.774414,245.666321 1064.088013,267.709076 1069.288574,289.587036 
	C1074.908569,313.229889 1088.291748,331.744843 1110.845215,342.332062 
	C1132.712524,352.597229 1155.582397,354.646027 1179.159058,349.447388 
	C1194.828125,345.992371 1209.544189,340.590271 1222.015869,330.028625 
	C1227.775635,325.150909 1228.062744,323.586487 1222.878418,318.385742 
	C1216.409424,311.896271 1210.011597,305.332733 1203.398315,298.994110 
	C1202.557617,298.188446 1200.108643,297.849579 1199.235718,298.467743 
	C1182.406494,310.387238 1163.791748,314.423828 1143.627563,310.931763 
	C1133.057373,309.101166 1123.638916,304.408203 1117.274414,295.505463 
	C1114.173096,291.167236 1112.535767,285.782379 1109.828125,280.000916 
	C1113.624023,280.000916 1115.774048,280.000946 1117.924072,280.000916 
	C1156.076904,280.000092 1194.229614,280.002686 1232.382446,279.991425 
	C1235.146362,279.990601 1238.100464,280.676575 1238.046753,276.032471 
	C1237.830322,257.326508 1239.031982,238.466293 1230.538940,220.110931 
M1467.509155,330.004486 
	C1475.447266,337.920959 1485.339722,342.632141 1495.675049,346.200348 
	C1513.190674,352.247498 1531.295776,353.331116 1549.608521,350.873199 
	C1550.802246,350.712982 1552.370605,349.624298 1552.866211,348.552216 
	C1558.412720,336.553619 1563.890869,324.520081 1569.130005,312.384827 
	C1570.582397,309.020874 1571.184448,305.289764 1572.418823,300.857422 
	C1570.233643,301.662445 1569.138428,301.965454 1568.131958,302.451874 
	C1552.451172,310.030121 1536.117065,314.193756 1518.662476,310.920227 
	C1508.579468,309.029205 1499.081787,305.429993 1492.502441,296.916840 
	C1488.793823,292.118164 1485.921753,286.826233 1486.128906,280.001099 
	C1488.349121,280.001099 1490.162476,280.001160 1491.975952,280.001129 
	C1520.640381,280.000366 1549.305054,279.944611 1577.968994,280.067963 
	C1581.576294,280.083466 1583.694336,279.134705 1585.227905,275.646454 
	C1591.682983,260.962982 1598.294800,246.344315 1605.130737,231.834549 
	C1607.423218,226.968521 1607.083008,222.607468 1604.576416,218.152618 
	C1597.743408,206.009186 1589.289062,195.376648 1576.841797,188.473511 
	C1566.325806,182.641495 1555.140503,177.968597 1543.223877,177.260605 
	C1525.535278,176.209686 1507.973389,176.484940 1490.890747,183.701904 
	C1467.037964,193.779022 1451.948242,211.223267 1444.302002,235.248047 
	C1440.466919,247.297974 1440.141113,260.112823 1441.123047,272.737915 
	C1441.671875,279.795227 1442.494751,287.015411 1444.583008,293.730225 
	C1448.869385,307.512360 1455.909058,319.853729 1467.509155,330.004486 
M1402.005859,200.514603 
	C1390.348877,187.577332 1375.375977,180.721390 1358.464233,179.227509 
	C1340.933105,177.678879 1324.791138,182.758942 1310.625366,193.603378 
	C1307.293701,196.153900 1303.508423,198.111847 1299.547607,200.582031 
	C1298.972046,195.850052 1298.437622,191.804932 1297.998047,187.749542 
	C1297.518555,183.327835 1295.623901,180.810791 1290.669189,180.942581 
	C1282.257202,181.166321 1273.834961,180.992493 1265.417114,181.005188 
	C1259.024292,181.014816 1259.007446,181.028244 1259.006470,187.665878 
	C1259.000488,226.992645 1259.002075,266.319397 1259.003052,305.646179 
	C1259.003418,317.977448 1259.045288,330.308899 1258.984497,342.639832 
	C1258.971313,345.322449 1259.383545,347.066467 1262.725220,347.028656 
	C1273.888550,346.902344 1285.054565,346.930695 1296.218628,347.019470 
	C1299.006592,347.041595 1300.060059,345.976257 1300.020264,343.202271 
	C1299.917603,336.038391 1299.784546,328.864441 1300.038086,321.707794 
	C1300.933838,296.426086 1296.927856,270.807251 1304.986450,246.008682 
	C1308.122681,236.357559 1313.015625,228.003479 1322.327393,222.840805 
	C1330.655884,218.223312 1339.687134,218.412231 1348.562866,219.165985 
	C1362.182495,220.322617 1371.557007,229.861298 1376.011597,242.279190 
	C1379.649902,252.422012 1380.044556,263.001190 1380.017822,273.642120 
	C1379.960571,296.471527 1380.066772,319.301483 1379.939087,342.130280 
	C1379.918823,345.744659 1380.895142,347.140198 1384.711792,347.069031 
	C1396.039307,346.857727 1407.374268,346.906738 1418.704102,347.042084 
	C1421.943726,347.080780 1423.076050,345.960510 1423.034668,342.712036 
	C1422.631226,311.095306 1422.958496,279.453674 1421.764526,247.868774 
	C1421.101929,230.343140 1414.199585,214.472702 1402.005859,200.514603 
M376.835938,53.307987 
	C378.574036,50.354500 379.791260,46.870274 382.153107,44.552334 
	C387.998260,38.815819 394.367188,33.613003 401.400299,27.426365 
	C394.874207,26.735804 390.246368,29.218353 386.039062,31.633080 
	C365.697296,43.307964 346.646210,56.685547 331.502777,74.967537 
	C316.765961,92.758682 305.034241,111.943390 301.301788,135.309616 
	C298.904785,150.315216 299.635193,165.082947 303.926758,179.511154 
	C306.309357,187.521454 309.845703,195.249329 313.454590,202.822098 
	C322.379486,221.549698 335.010468,237.641190 349.733307,252.139801 
	C350.626923,253.019806 352.008789,253.404068 352.938843,253.899399 
	C352.938843,244.553619 353.899109,235.660767 352.730103,227.057251 
	C350.588196,211.293594 352.551788,195.833450 355.499359,180.631363 
	C359.812134,158.388153 366.549774,136.794586 377.971344,116.904770 
	C386.983154,101.211403 398.861908,88.024086 412.448334,76.313911 
	C426.609314,64.108490 442.754913,54.964684 460.062561,48.180679 
	C469.355194,44.538288 479.261810,42.348072 489.020447,40.050999 
	C495.039062,38.634285 501.300812,38.250526 507.453400,37.403008 
	C507.687134,36.946308 507.920868,36.489613 508.154572,36.032917 
	C504.965210,34.031094 502.012207,31.344210 498.544922,30.147718 
	C484.585052,25.330448 470.295563,24.272917 455.492859,25.812813 
	C430.178741,28.446203 407.242706,36.497570 387.108154,52.251450 
	C383.459961,55.105907 379.428894,57.471016 374.443115,60.822678 
	C375.389954,57.680931 375.946198,55.835175 376.835938,53.307987 
M1694.599731,121.003738 
	C1688.236938,120.040062 1684.111938,123.131798 1681.314331,128.459015 
	C1680.084961,130.800232 1679.028198,133.236679 1677.977173,135.666275 
	C1673.446045,146.141403 1669.042603,156.672836 1664.413696,167.104401 
	C1655.969971,186.133194 1647.356201,205.086411 1638.895386,224.107620 
	C1631.162109,241.492905 1623.626343,258.966339 1615.842163,276.328522 
	C1606.166016,297.910309 1596.298462,319.406219 1586.575195,340.966919 
	C1584.637451,345.263641 1582.977417,349.685547 1580.801270,354.996704 
	C1587.024902,354.996704 1592.615234,354.769043 1598.175171,355.081024 
	C1601.578613,355.271973 1603.274170,353.934845 1604.548706,350.982178 
	C1611.497803,334.883759 1618.763672,318.918274 1625.446533,302.711639 
	C1627.020996,298.893402 1628.849243,297.913849 1632.678101,297.925323 
	C1673.673096,298.048187 1714.668579,298.001068 1755.663940,298.001007 
	C1764.735107,298.000977 1764.458252,298.118927 1768.134155,306.805542 
	C1774.453003,321.737762 1781.122925,336.522247 1787.751465,351.321259 
	C1788.362793,352.685913 1789.690430,354.678986 1790.765381,354.731262 
	C1797.312744,355.049469 1803.883179,354.890167 1811.088013,354.890167 
	C1809.800903,351.209991 1809.011475,348.348969 1807.827637,345.661713 
	C1796.420044,319.768585 1785.104004,293.833374 1773.449341,268.051483 
	C1760.293091,238.947815 1746.718994,210.033295 1733.515381,180.950775 
	C1726.417358,165.316345 1719.899414,149.418121 1712.773804,133.796677 
	C1707.500977,122.237083 1706.647827,120.715446 1694.599731,121.003738 
M940.000549,307.500000 
	C940.003296,319.163910 940.109985,330.829285 939.945618,342.490845 
	C939.896179,346.002106 941.135498,347.103546 944.571350,347.052490 
	C955.399719,346.891571 966.240723,346.743439 977.059082,347.111145 
	C982.040894,347.280457 983.130798,345.533478 983.096680,340.853638 
	C982.895081,313.194855 982.959167,285.533752 983.016663,257.873596 
	C983.045837,243.864838 987.976501,231.774628 1000.644775,225.217941 
	C1014.475769,218.059525 1029.108643,219.131073 1043.197632,225.778717 
	C1046.127686,227.161224 1048.917358,228.841293 1052.272217,230.654800 
	C1058.201782,218.690201 1063.834595,207.460663 1069.262939,196.133286 
	C1069.739258,195.139359 1069.353760,192.935013 1068.554077,192.264557 
	C1065.039673,189.318649 1061.540894,186.059204 1057.459229,184.142639 
	C1046.954468,179.210037 1035.636353,178.293060 1024.093628,177.810928 
	C1009.920410,177.218918 998.043274,180.898712 988.597595,191.785400 
	C986.872620,193.773560 984.312256,195.036835 981.627136,197.009644 
	C980.978210,192.700760 980.100159,189.471863 980.107605,186.244995 
	C980.116333,182.421616 978.190369,181.939087 975.094055,181.973038 
	C965.597412,182.077194 956.098877,181.999191 946.601074,182.009811 
	C940.028015,182.017166 940.006348,182.030319 940.005127,188.527267 
	C939.997620,227.851517 940.000854,267.175751 940.000549,307.500000 
M1832.000000,335.499390 
	C1832.000000,338.163666 1832.000000,340.827972 1832.000000,343.492249 
	C1832.000000,355.043091 1832.000000,355.043121 1843.555664,354.997864 
	C1849.977661,354.972717 1849.995850,354.972687 1849.996582,348.371887 
	C1850.002075,299.083008 1849.999878,249.794113 1850.000000,200.505219 
	C1850.000122,188.957886 1850.000000,188.957886 1838.444458,189.002151 
	C1832.021240,189.026749 1832.003662,189.026749 1832.002930,195.624939 
	C1831.997681,241.916519 1832.000122,288.208099 1832.000000,335.499390 
M1839.752686,150.980331 
	C1840.915405,150.965729 1842.097168,151.082382 1843.237671,150.915466 
	C1851.226562,149.746094 1856.514648,141.646851 1854.877930,133.163864 
	C1853.507935,126.063293 1845.193726,121.043846 1837.875488,122.899208 
	C1831.101440,124.616608 1827.167603,129.257034 1827.011719,135.713943 
	C1826.821899,143.574936 1830.738525,148.588303 1839.752686,150.980331 
z"/>
<path fill="#2EBEBC" opacity="1.000000" stroke="none" 
	d="
M262.837769,289.111328 
	C252.437012,288.495728 243.013077,284.956909 233.663025,280.461517 
	C218.061508,272.960510 204.450089,262.899017 192.871094,250.220459 
	C180.900192,237.112747 170.775330,222.542206 162.960709,206.597260 
	C151.107925,182.412842 139.990784,157.868423 128.191071,133.657303 
	C120.434204,117.741486 111.050293,102.878738 99.221085,89.480179 
	C88.890953,77.779579 77.008018,68.179008 63.645424,60.510727 
	C51.401863,53.484619 37.868408,49.415352 23.963989,47.111340 
	C16.669888,45.902676 9.179294,45.879807 1.388717,45.160721 
	C1.000000,44.555553 1.000000,44.111111 1.000000,43.333332 
	C22.156767,33.358974 44.573219,30.633085 67.574387,29.855946 
	C94.628700,28.941866 120.799538,32.818264 146.061127,42.218582 
	C167.587448,50.228931 187.276367,61.555874 205.019409,76.359955 
	C218.956177,87.988213 231.266449,101.081657 241.883026,115.657616 
	C249.265274,125.793015 255.908539,136.543915 262.063049,147.480652 
	C276.017059,172.277298 288.820831,197.740433 303.318390,222.206024 
	C315.390991,242.579361 333.050201,257.657990 354.629913,267.648346 
	C365.269379,272.573914 376.596436,276.048126 387.110565,281.202637 
	C402.861359,288.924347 411.224152,302.835968 415.690002,319.233643 
	C416.165619,320.980042 418.506897,325.082916 413.329163,325.122375 
	C413.477509,318.010193 408.734467,314.215698 404.470581,310.541016 
	C392.312378,300.062714 377.287140,296.329651 361.926849,295.158142 
	C328.935333,292.641937 295.871826,291.069885 262.837769,289.111328 
z"/>
<path fill="#2EBEBC" opacity="1.000000" stroke="none" 
	d="
M241.468658,462.000000 
	C234.924652,460.707184 228.759491,459.733917 222.792099,458.056915 
	C209.155609,454.224731 195.377228,450.706116 182.083206,445.883728 
	C147.355148,433.286163 118.776176,411.451202 94.123299,384.433563 
	C78.191216,366.973236 65.432045,347.185242 55.908440,325.497406 
	C46.417622,303.884247 40.726475,281.223602 37.879364,257.772064 
	C34.916786,233.369446 35.925274,209.147888 41.558342,185.321396 
	C45.227825,169.800415 49.151112,154.074371 55.421677,139.498947 
	C63.687862,120.284851 73.326447,101.438705 88.988358,86.695030 
	C89.211037,86.485405 89.574738,86.425598 90.618393,85.971077 
	C95.803619,91.579254 101.326248,97.255531 106.382179,103.320831 
	C107.198784,104.300461 106.465286,107.318184 105.556099,108.871590 
	C98.716797,120.556992 91.103806,131.820938 84.788925,143.774612 
	C75.129333,162.059647 69.691185,181.938980 67.221916,202.331879 
	C65.373558,217.596848 64.383934,233.200409 65.325020,248.511047 
	C66.594002,269.155975 71.124283,289.500183 79.911957,308.404663 
	C85.883064,321.249969 92.473228,333.945801 100.148849,345.828491 
	C112.017624,364.202576 127.101639,379.985779 144.870941,392.778442 
	C156.102722,400.864532 167.809219,408.584015 180.160599,414.749451 
	C196.271088,422.791412 213.505875,428.086517 231.430725,431.097229 
	C245.082047,433.390137 258.729675,434.195465 272.525177,434.046753 
	C292.038696,433.836395 310.997009,430.394897 329.563965,424.671600 
	C349.299530,418.588043 367.811493,409.654297 384.457092,397.558044 
	C402.717651,384.288269 419.161255,369.018219 432.361755,350.319946 
	C444.996765,332.422668 454.621735,313.138947 460.809143,292.312653 
	C464.596497,279.564606 466.710388,266.271515 468.882324,253.108765 
	C470.250916,244.814301 471.153992,236.278290 470.844910,227.903076 
	C469.970306,204.199341 466.486572,180.998550 457.565155,158.665726 
	C450.634674,141.316742 441.811981,125.207703 430.588043,110.415428 
	C424.787292,102.770485 418.091949,95.809113 412.032501,88.350655 
	C411.107025,87.211487 410.619781,84.127960 411.317780,83.509087 
	C416.991058,78.478859 422.876282,73.657768 429.012939,69.208817 
	C430.061951,68.448311 433.411316,69.100357 434.349030,70.224831 
	C441.966644,79.359352 449.982117,88.290642 456.475769,98.201546 
	C464.692474,110.742279 471.953125,123.955307 478.967041,137.226685 
	C487.845886,154.026794 492.095795,172.449387 495.687225,190.930573 
	C497.225555,198.846420 497.405334,207.044815 497.938263,215.132233 
	C498.461853,223.078018 499.191040,231.067474 498.874084,238.999573 
	C498.207886,255.671097 496.980530,272.231232 492.424622,288.527832 
	C485.862762,311.999603 476.512207,334.203491 463.458038,354.637878 
	C455.753479,366.698212 446.890198,378.191010 437.349487,388.868042 
	C419.779572,408.530518 398.576141,423.789215 375.355774,436.231537 
	C357.199646,445.960205 337.977692,452.940674 318.001923,457.747986 
	C310.641296,459.519379 303.018341,460.200714 295.257507,461.689636 
	C277.312439,462.000000 259.624878,462.000000 241.468658,462.000000 
z"/>
<path fill="#2EBEBC" opacity="1.000000" stroke="none" 
	d="
M288.531342,0.999999 
	C296.415863,2.321337 303.917358,3.286286 311.228455,5.043455 
	C323.724823,8.046862 336.269562,11.032061 348.473145,15.009414 
	C357.396820,17.917789 365.818512,22.376947 374.433105,26.214037 
	C376.030701,26.925632 377.481567,27.966717 379.850677,29.353672 
	C375.388153,32.580917 371.591492,35.334480 367.784729,38.074051 
	C366.844421,38.750725 365.687256,39.218750 364.942291,40.059547 
	C358.595154,47.223083 351.495453,46.122124 343.405487,43.116688 
	C325.087311,36.311447 306.086334,31.803074 286.728790,29.220909 
	C270.723907,27.085968 254.695724,27.805075 238.729584,30.544504 
	C223.723846,33.119144 208.975998,36.585087 194.742477,42.000553 
	C189.491867,43.998264 184.574432,46.913319 179.266266,48.700935 
	C176.524078,49.624424 172.967117,49.837460 170.285843,48.907711 
	C162.692169,46.274548 155.322830,42.970169 147.975601,39.683239 
	C147.119446,39.300220 146.213959,36.947216 146.616928,36.239693 
	C147.621780,34.475380 149.113922,32.694019 150.854630,31.688314 
	C171.456940,19.785248 193.110275,10.419892 216.556229,5.777556 
	C225.452591,4.016064 234.493698,2.985741 243.734421,1.311079 
	C258.687561,1.000000 273.375122,1.000000 288.531342,0.999999 
z"/>
<path fill="#2EBEBC" opacity="1.000000" stroke="none" 
	d="
M2001.000000,199.600006 
	C1999.534912,202.904984 1998.011353,205.782379 1996.623413,208.723770 
	C1995.511963,211.079254 1994.307373,212.736038 1991.303223,211.250305 
	C1989.701294,210.458069 1987.835815,210.218979 1986.145386,209.581772 
	C1964.873657,201.563873 1945.454102,205.711990 1928.738037,220.172333 
	C1918.407471,229.108871 1913.176392,241.605087 1913.072266,255.484680 
	C1912.838745,286.641785 1912.896240,317.802521 1913.103149,348.959991 
	C1913.135132,353.785492 1911.784424,355.204285 1906.954590,355.111237 
	C1894.006470,354.861908 1894.001953,355.080414 1894.001953,342.373688 
	C1894.002197,293.552582 1894.000854,244.731506 1894.005127,195.910416 
	C1894.005737,189.021103 1894.019165,189.021103 1900.670776,189.000931 
	C1911.981934,188.966644 1911.910278,188.967468 1912.043335,200.466125 
	C1912.083252,203.908661 1912.645386,207.345184 1912.999390,211.114990 
	C1917.852539,206.746933 1922.002319,202.362183 1926.782471,198.830673 
	C1941.424072,188.013794 1957.693237,184.092819 1975.562988,188.785645 
	C1983.844971,190.960617 1992.021240,193.538895 2000.622681,195.967163 
	C2001.000000,197.066666 2001.000000,198.133347 2001.000000,199.600006 
z"/>
<path fill="#2EBEBC" opacity="1.000000" stroke="none" 
	d="
M690.690552,168.308655 
	C686.878845,162.453720 681.839233,158.823486 675.957703,155.738968 
	C666.551636,150.805954 656.539246,148.190170 646.238647,146.686874 
	C631.036011,144.468109 616.263489,146.331055 603.507141,155.430328 
	C594.318481,161.984741 591.715149,174.486359 595.271484,184.516113 
	C596.392395,187.677277 599.850769,191.088623 603.019653,192.242523 
	C612.580322,195.723862 622.396179,198.759460 632.346375,200.861938 
	C652.020935,205.019165 672.103149,207.208069 691.237488,213.915359 
	C706.492371,219.262772 720.210388,227.094543 728.882812,240.915314 
	C733.113647,247.657928 735.767273,256.104126 736.650146,264.055054 
	C737.783386,274.261444 737.400269,284.889832 735.903381,295.076752 
	C733.496155,311.458313 723.966187,323.962067 710.729736,333.529053 
	C694.901672,344.969116 676.600220,351.081848 657.614990,352.561646 
	C636.559875,354.202850 615.276001,354.225525 594.507996,347.439728 
	C577.068176,341.741394 561.350525,333.939331 550.468201,318.772064 
	C545.108093,311.301392 540.864197,303.029877 535.921997,294.799042 
	C544.440063,290.298859 552.146973,286.141479 559.937439,282.147034 
	C563.896423,280.117157 567.918579,278.134552 572.097778,276.654663 
	C573.431030,276.182556 576.404114,276.915131 576.863647,277.910522 
	C585.113159,295.778137 600.365601,304.088196 618.303650,308.923065 
	C637.033691,313.971344 655.456299,313.121918 673.088440,304.986572 
	C690.398010,297.000092 693.726013,284.586243 690.192810,268.767761 
	C688.129700,259.531403 679.725159,255.278595 671.203064,253.079819 
	C658.928528,249.912888 646.488037,247.265152 633.997864,245.087433 
	C615.096985,241.791931 595.995483,239.021042 578.925964,229.726395 
	C562.198486,220.618011 551.534424,206.712082 548.908691,187.253677 
	C547.600769,177.560913 546.753235,167.959106 548.937622,158.293884 
	C551.672852,146.191544 558.322021,136.327286 567.452332,128.425034 
	C584.521912,113.651329 605.401184,108.469337 627.256775,105.933044 
	C650.228760,103.267204 672.097839,107.164124 692.991089,116.599800 
	C709.661438,124.128357 722.166077,136.333313 731.279419,153.024506 
	C726.131165,155.712570 721.143433,158.435120 716.051453,160.946259 
	C709.383484,164.234573 702.557983,167.210098 695.953308,170.617050 
	C693.097778,172.090103 691.761536,171.340546 690.690552,168.308655 
z"/>
<path fill="#2EBEBC" opacity="1.000000" stroke="none" 
	d="
M755.303833,237.482773 
	C759.722961,222.705780 766.872925,209.907181 777.962524,199.759338 
	C790.541809,188.248306 805.411682,180.607880 822.333923,178.113693 
	C841.929260,175.225479 861.335266,176.342422 879.999939,183.895874 
	C892.624573,189.004944 902.434082,197.511444 910.221924,208.544983 
	C924.779358,229.169250 925.594238,252.742737 925.011108,276.657959 
	C924.921814,280.318939 922.593872,279.989258 920.257935,279.990601 
	C903.430298,280.000275 886.602661,279.999756 869.775024,280.000580 
	C847.949036,280.001648 826.123108,280.000977 804.297119,280.001038 
	C802.320374,280.001038 800.343628,280.001007 797.735474,280.001007 
	C799.720703,290.532440 804.249207,298.747223 813.157410,304.022186 
	C829.074585,313.447571 846.112427,314.588562 863.396912,309.112671 
	C872.226685,306.315308 880.515503,301.810150 889.216248,298.003540 
	C896.225830,304.924591 903.822693,312.582977 911.617004,320.034973 
	C914.306580,322.606445 914.031067,324.258148 911.640503,327.007202 
	C902.412415,337.618896 890.038635,342.882507 877.184143,346.594543 
	C864.668884,350.208679 851.804260,352.901581 838.500366,352.031525 
	C809.740906,350.150635 784.985046,340.247040 767.177856,316.561676 
	C759.755737,306.689392 756.773254,294.862061 754.071472,283.089081 
	C750.601990,267.971191 751.154053,252.850510 755.303833,237.482773 
M871.989441,224.498062 
	C864.491272,217.659622 855.245422,215.159378 845.538147,215.121399 
	C830.615356,215.063034 816.603394,218.425156 806.085205,230.099396 
	C802.494019,234.085236 798.624390,238.312775 799.388733,244.629822 
	C827.237915,244.629822 854.571655,244.629822 883.844788,244.629822 
	C879.644653,237.360992 876.075806,231.184631 871.989441,224.498062 
z"/>
<path fill="#2EBEBC" opacity="1.000000" stroke="none" 
	d="
M1230.695557,220.458801 
	C1239.031982,238.466293 1237.830322,257.326508 1238.046753,276.032471 
	C1238.100464,280.676575 1235.146362,279.990601 1232.382446,279.991425 
	C1194.229614,280.002686 1156.076904,280.000092 1117.924072,280.000916 
	C1115.774048,280.000946 1113.624023,280.000916 1109.828125,280.000916 
	C1112.535767,285.782379 1114.173096,291.167236 1117.274414,295.505463 
	C1123.638916,304.408203 1133.057373,309.101166 1143.627563,310.931763 
	C1163.791748,314.423828 1182.406494,310.387238 1199.235718,298.467743 
	C1200.108643,297.849579 1202.557617,298.188446 1203.398315,298.994110 
	C1210.011597,305.332733 1216.409424,311.896271 1222.878418,318.385742 
	C1228.062744,323.586487 1227.775635,325.150909 1222.015869,330.028625 
	C1209.544189,340.590271 1194.828125,345.992371 1179.159058,349.447388 
	C1155.582397,354.646027 1132.712524,352.597229 1110.845215,342.332062 
	C1088.291748,331.744843 1074.908569,313.229889 1069.288574,289.587036 
	C1064.088013,267.709076 1063.774414,245.666321 1073.702026,224.543686 
	C1082.764282,205.262253 1096.936768,191.802261 1116.893921,183.742798 
	C1133.612305,176.991226 1150.853027,175.740479 1168.221069,177.279709 
	C1183.562866,178.639374 1197.483276,184.965073 1209.926758,194.357590 
	C1219.034912,201.232498 1225.038696,210.431839 1230.695557,220.458801 
M1180.878540,221.479416 
	C1163.580566,213.549377 1146.288940,211.765427 1129.221436,221.974823 
	C1120.617432,227.121490 1114.282471,234.112381 1112.375610,244.595062 
	C1140.385010,244.595062 1167.911377,244.595062 1195.786865,244.595062 
	C1193.708374,234.928650 1189.872070,226.996506 1180.878540,221.479416 
z"/>
<path fill="#2EBEBC" opacity="1.000000" stroke="none" 
	d="
M1467.258301,329.754761 
	C1455.909058,319.853729 1448.869385,307.512360 1444.583008,293.730225 
	C1442.494751,287.015411 1441.671875,279.795227 1441.123047,272.737915 
	C1440.141113,260.112823 1440.466919,247.297974 1444.302002,235.248047 
	C1451.948242,211.223267 1467.037964,193.779022 1490.890747,183.701904 
	C1507.973389,176.484940 1525.535278,176.209686 1543.223877,177.260605 
	C1555.140503,177.968597 1566.325806,182.641495 1576.841797,188.473511 
	C1589.289062,195.376648 1597.743408,206.009186 1604.576416,218.152618 
	C1607.083008,222.607468 1607.423218,226.968521 1605.130737,231.834549 
	C1598.294800,246.344315 1591.682983,260.962982 1585.227905,275.646454 
	C1583.694336,279.134705 1581.576294,280.083466 1577.968994,280.067963 
	C1549.305054,279.944611 1520.640381,280.000366 1491.975952,280.001129 
	C1490.162476,280.001160 1488.349121,280.001099 1486.128906,280.001099 
	C1485.921753,286.826233 1488.793823,292.118164 1492.502441,296.916840 
	C1499.081787,305.429993 1508.579468,309.029205 1518.662476,310.920227 
	C1536.117065,314.193756 1552.451172,310.030121 1568.131958,302.451874 
	C1569.138428,301.965454 1570.233643,301.662445 1572.418823,300.857422 
	C1571.184448,305.289764 1570.582397,309.020874 1569.130005,312.384827 
	C1563.890869,324.520081 1558.412720,336.553619 1552.866211,348.552216 
	C1552.370605,349.624298 1550.802246,350.712982 1549.608521,350.873199 
	C1531.295776,353.331116 1513.190674,352.247498 1495.675049,346.200348 
	C1485.339722,342.632141 1475.447266,337.920959 1467.258301,329.754761 
M1519.063721,216.458389 
	C1513.022827,218.984863 1506.676392,220.970795 1501.015503,224.169678 
	C1493.308350,228.524826 1488.551392,235.371948 1487.193848,244.688492 
	C1514.934082,244.688492 1542.134521,244.688492 1569.838867,244.688492 
	C1569.633057,238.430771 1568.078247,232.956436 1564.037476,228.627365 
	C1551.884399,215.606613 1536.512573,213.493225 1519.063721,216.458389 
z"/>
<path fill="#2EBEBC" opacity="1.000000" stroke="none" 
	d="
M1402.259155,200.766556 
	C1414.199585,214.472702 1421.101929,230.343140 1421.764526,247.868774 
	C1422.958496,279.453674 1422.631226,311.095306 1423.034668,342.712036 
	C1423.076050,345.960510 1421.943726,347.080780 1418.704102,347.042084 
	C1407.374268,346.906738 1396.039307,346.857727 1384.711792,347.069031 
	C1380.895142,347.140198 1379.918823,345.744659 1379.939087,342.130280 
	C1380.066772,319.301483 1379.960571,296.471527 1380.017822,273.642120 
	C1380.044556,263.001190 1379.649902,252.422012 1376.011597,242.279190 
	C1371.557007,229.861298 1362.182495,220.322617 1348.562866,219.165985 
	C1339.687134,218.412231 1330.655884,218.223312 1322.327393,222.840805 
	C1313.015625,228.003479 1308.122681,236.357559 1304.986450,246.008682 
	C1296.927856,270.807251 1300.933838,296.426086 1300.038086,321.707794 
	C1299.784546,328.864441 1299.917603,336.038391 1300.020264,343.202271 
	C1300.060059,345.976257 1299.006592,347.041595 1296.218628,347.019470 
	C1285.054565,346.930695 1273.888550,346.902344 1262.725220,347.028656 
	C1259.383545,347.066467 1258.971313,345.322449 1258.984497,342.639832 
	C1259.045288,330.308899 1259.003418,317.977448 1259.003052,305.646179 
	C1259.002075,266.319397 1259.000488,226.992645 1259.006470,187.665878 
	C1259.007446,181.028244 1259.024292,181.014816 1265.417114,181.005188 
	C1273.834961,180.992493 1282.257202,181.166321 1290.669189,180.942581 
	C1295.623901,180.810791 1297.518555,183.327835 1297.998047,187.749542 
	C1298.437622,191.804932 1298.972046,195.850052 1299.547607,200.582031 
	C1303.508423,198.111847 1307.293701,196.153900 1310.625366,193.603378 
	C1324.791138,182.758942 1340.933105,177.678879 1358.464233,179.227509 
	C1375.375977,180.721390 1390.348877,187.577332 1402.259155,200.766556 
z"/>
<path fill="#2EBEBC" opacity="1.000000" stroke="none" 
	d="
M376.669189,53.648705 
	C375.946198,55.835175 375.389954,57.680931 374.443115,60.822678 
	C379.428894,57.471016 383.459961,55.105907 387.108154,52.251450 
	C407.242706,36.497570 430.178741,28.446203 455.492859,25.812813 
	C470.295563,24.272917 484.585052,25.330448 498.544922,30.147718 
	C502.012207,31.344210 504.965210,34.031094 508.154572,36.032917 
	C507.920868,36.489613 507.687134,36.946308 507.453400,37.403008 
	C501.300812,38.250526 495.039062,38.634285 489.020447,40.050999 
	C479.261810,42.348072 469.355194,44.538288 460.062561,48.180679 
	C442.754913,54.964684 426.609314,64.108490 412.448334,76.313911 
	C398.861908,88.024086 386.983154,101.211403 377.971344,116.904770 
	C366.549774,136.794586 359.812134,158.388153 355.499359,180.631363 
	C352.551788,195.833450 350.588196,211.293594 352.730103,227.057251 
	C353.899109,235.660767 352.938843,244.553619 352.938843,253.899399 
	C352.008789,253.404068 350.626923,253.019806 349.733307,252.139801 
	C335.010468,237.641190 322.379486,221.549698 313.454590,202.822098 
	C309.845703,195.249329 306.309357,187.521454 303.926758,179.511154 
	C299.635193,165.082947 298.904785,150.315216 301.301788,135.309616 
	C305.034241,111.943390 316.765961,92.758682 331.502777,74.967537 
	C346.646210,56.685547 365.697296,43.307964 386.039062,31.633080 
	C390.246368,29.218353 394.874207,26.735804 401.400299,27.426365 
	C394.367188,33.613003 387.998260,38.815819 382.153107,44.552334 
	C379.791260,46.870274 378.574036,50.354500 376.669189,53.648705 
z"/>
<path fill="#2EBEBC" opacity="1.000000" stroke="none" 
	d="
M1695.057617,121.003593 
	C1706.647827,120.715446 1707.500977,122.237083 1712.773804,133.796677 
	C1719.899414,149.418121 1726.417358,165.316345 1733.515381,180.950775 
	C1746.718994,210.033295 1760.293091,238.947815 1773.449341,268.051483 
	C1785.104004,293.833374 1796.420044,319.768585 1807.827637,345.661713 
	C1809.011475,348.348969 1809.800903,351.209991 1811.088013,354.890167 
	C1803.883179,354.890167 1797.312744,355.049469 1790.765381,354.731262 
	C1789.690430,354.678986 1788.362793,352.685913 1787.751465,351.321259 
	C1781.122925,336.522247 1774.453003,321.737762 1768.134155,306.805542 
	C1764.458252,298.118927 1764.735107,298.000977 1755.663940,298.001007 
	C1714.668579,298.001068 1673.673096,298.048187 1632.678101,297.925323 
	C1628.849243,297.913849 1627.020996,298.893402 1625.446533,302.711639 
	C1618.763672,318.918274 1611.497803,334.883759 1604.548706,350.982178 
	C1603.274170,353.934845 1601.578613,355.271973 1598.175171,355.081024 
	C1592.615234,354.769043 1587.024902,354.996704 1580.801270,354.996704 
	C1582.977417,349.685547 1584.637451,345.263641 1586.575195,340.966919 
	C1596.298462,319.406219 1606.166016,297.910309 1615.842163,276.328522 
	C1623.626343,258.966339 1631.162109,241.492905 1638.895386,224.107620 
	C1647.356201,205.086411 1655.969971,186.133194 1664.413696,167.104401 
	C1669.042603,156.672836 1673.446045,146.141403 1677.977173,135.666275 
	C1679.028198,133.236679 1680.084961,130.800232 1681.314331,128.459015 
	C1684.111938,123.131798 1688.236938,120.040062 1695.057617,121.003593 
M1720.138550,198.421906 
	C1711.996216,180.332520 1703.853882,162.243134 1695.339722,143.327881 
	C1675.552734,188.593445 1656.152954,232.973007 1636.709595,277.452515 
	C1676.084106,277.452515 1714.868164,277.452515 1754.827759,277.452515 
	C1750.170898,266.785370 1745.909424,257.002197 1741.630371,247.226776 
	C1734.603394,231.174179 1727.564941,215.126572 1720.138550,198.421906 
z"/>
<path fill="#2EBEBC" opacity="1.000000" stroke="none" 
	d="
M940.000549,307.000000 
	C940.000854,267.175751 939.997620,227.851517 940.005127,188.527267 
	C940.006348,182.030319 940.028015,182.017166 946.601074,182.009811 
	C956.098877,181.999191 965.597412,182.077194 975.094055,181.973038 
	C978.190369,181.939087 980.116333,182.421616 980.107605,186.244995 
	C980.100159,189.471863 980.978210,192.700760 981.627136,197.009644 
	C984.312256,195.036835 986.872620,193.773560 988.597595,191.785400 
	C998.043274,180.898712 1009.920410,177.218918 1024.093628,177.810928 
	C1035.636353,178.293060 1046.954468,179.210037 1057.459229,184.142639 
	C1061.540894,186.059204 1065.039673,189.318649 1068.554077,192.264557 
	C1069.353760,192.935013 1069.739258,195.139359 1069.262939,196.133286 
	C1063.834595,207.460663 1058.201782,218.690201 1052.272217,230.654800 
	C1048.917358,228.841293 1046.127686,227.161224 1043.197632,225.778717 
	C1029.108643,219.131073 1014.475769,218.059525 1000.644775,225.217941 
	C987.976501,231.774628 983.045837,243.864838 983.016663,257.873596 
	C982.959167,285.533752 982.895081,313.194855 983.096680,340.853638 
	C983.130798,345.533478 982.040894,347.280457 977.059082,347.111145 
	C966.240723,346.743439 955.399719,346.891571 944.571350,347.052490 
	C941.135498,347.103546 939.896179,346.002106 939.945618,342.490845 
	C940.109985,330.829285 940.003296,319.163910 940.000549,307.000000 
z"/>
<path fill="#2AA7A4" opacity="1.000000" stroke="none" 
	d="
M262.592712,289.351898 
	C295.871826,291.069885 328.935333,292.641937 361.926849,295.158142 
	C377.287140,296.329651 392.312378,300.062714 404.470581,310.541016 
	C408.734467,314.215698 413.477509,318.010193 413.074036,324.850952 
	C407.494568,323.041351 402.190704,320.637482 396.642395,319.138092 
	C382.738403,315.380707 368.750702,316.254608 355.034729,320.076447 
	C339.160889,324.499451 323.459412,329.537262 307.641418,334.165649 
	C292.291168,338.657227 277.115204,343.946045 260.059937,345.026794 
	C246.737549,345.025085 234.322647,345.027374 221.907761,345.029633 
	C203.587479,344.846191 186.026505,340.489685 169.729874,332.699127 
	C155.502777,325.897888 142.240463,317.051147 128.706070,308.853638 
	C126.293404,307.392365 124.633553,304.688141 121.859993,301.744812 
	C135.407516,303.665039 147.324402,305.354126 160.062775,307.213745 
	C169.223114,307.307800 177.561966,307.231323 185.900803,307.154816 
	C191.265030,306.445526 196.699036,306.069031 201.979782,304.961670 
	C215.373581,302.153046 228.745499,299.206848 242.031952,295.933228 
	C248.907242,294.239258 255.582199,291.732208 262.592712,289.351898 
z"/>
<path fill="#2EBEBC" opacity="1.000000" stroke="none" 
	d="
M1832.000000,334.999542 
	C1832.000122,288.208099 1831.997681,241.916519 1832.002930,195.624939 
	C1832.003662,189.026749 1832.021240,189.026749 1838.444458,189.002151 
	C1850.000000,188.957886 1850.000122,188.957886 1850.000000,200.505219 
	C1849.999878,249.794113 1850.002075,299.083008 1849.996582,348.371887 
	C1849.995850,354.972687 1849.977661,354.972717 1843.555664,354.997864 
	C1832.000000,355.043121 1832.000000,355.043091 1832.000000,343.492249 
	C1832.000000,340.827972 1832.000000,338.163666 1832.000000,334.999542 
z"/>
<path fill="#2EBEBC" opacity="1.000000" stroke="none" 
	d="
M1839.334106,150.965805 
	C1830.738525,148.588303 1826.821899,143.574936 1827.011719,135.713943 
	C1827.167603,129.257034 1831.101440,124.616608 1837.875488,122.899208 
	C1845.193726,121.043846 1853.507935,126.063293 1854.877930,133.163864 
	C1856.514648,141.646851 1851.226562,149.746094 1843.237671,150.915466 
	C1842.097168,151.082382 1840.915405,150.965729 1839.334106,150.965805 
z"/>
<path fill="#2EBEBC" opacity="1.000000" stroke="none" 
	d="
M222.214966,345.328613 
	C234.322647,345.027374 246.737549,345.025085 259.627502,345.026489 
	C259.031708,345.344116 257.959656,345.933960 256.890076,345.929596 
	C245.433868,345.882965 233.978073,345.742432 222.214966,345.328613 
z"/>
<path fill="#2EBEBC" opacity="1.000000" stroke="none" 
	d="
M185.440826,307.108154 
	C177.561966,307.231323 169.223114,307.307800 160.499542,307.266296 
	C168.403473,307.119354 176.692154,307.090454 185.440826,307.108154 
z"/>
<path fill="none" opacity="1.000000" stroke="none" 
	d="
M872.248169,224.753174 
	C876.075806,231.184631 879.644653,237.360992 883.844788,244.629822 
	C854.571655,244.629822 827.237915,244.629822 799.388733,244.629822 
	C798.624390,238.312775 802.494019,234.085236 806.085205,230.099396 
	C816.603394,218.425156 830.615356,215.063034 845.538147,215.121399 
	C855.245422,215.159378 864.491272,217.659622 872.248169,224.753174 
z"/>
<path fill="none" opacity="1.000000" stroke="none" 
	d="
M1181.160156,221.717499 
	C1189.872070,226.996506 1193.708374,234.928650 1195.786865,244.595062 
	C1167.911377,244.595062 1140.385010,244.595062 1112.375610,244.595062 
	C1114.282471,234.112381 1120.617432,227.121490 1129.221436,221.974823 
	C1146.288940,211.765427 1163.580566,213.549377 1181.160156,221.717499 
z"/>
<path fill="none" opacity="1.000000" stroke="none" 
	d="
M1519.461182,216.305573 
	C1536.512573,213.493225 1551.884399,215.606613 1564.037476,228.627365 
	C1568.078247,232.956436 1569.633057,238.430771 1569.838867,244.688492 
	C1542.134521,244.688492 1514.934082,244.688492 1487.193848,244.688492 
	C1488.551392,235.371948 1493.308350,228.524826 1501.015503,224.169678 
	C1506.676392,220.970795 1513.022827,218.984863 1519.461182,216.305573 
z"/>
<path fill="none" opacity="1.000000" stroke="none" 
	d="
M1720.334961,198.749390 
	C1727.564941,215.126572 1734.603394,231.174179 1741.630371,247.226776 
	C1745.909424,257.002197 1750.170898,266.785370 1754.827759,277.452515 
	C1714.868164,277.452515 1676.084106,277.452515 1636.709595,277.452515 
	C1656.152954,232.973007 1675.552734,188.593445 1695.339722,143.327881 
	C1703.853882,162.243134 1711.996216,180.332520 1720.334961,198.749390 
z"/>
</svg>