<?xml version="1.0" encoding="UTF-8" standalone="yes"?>
<svg viewBox="0 0 302.35999 302.35999" height="302.35999" width="302.35999" xml:space="preserve" version="1.2" baseProfile="tiny-ps" xmlns="http://www.w3.org/2000/svg">
  <title>bimi-svg-tiny-12-ps</title>
  <defs id="defs6"/>
  <g transform="matrix(1.3333333,0,0,-1.3333333,0,302.36)" id="g10">
    <g transform="scale(0.1)" id="g12">
      <path id="path14" d="M 194.852,660.359 176.02,601.648 h 38.953 z M 212.82,696.551 264.996,545.5 H 232.941 L 222.59,575.711 H 166.102 L 155.609,545.5 h -32.058 l 53.043,151.051 h 36.226" fill="#2e3192" fill-opacity="1" fill-rule="nonzero" stroke="none"/>
      <path id="path16" d="m 282.242,545.5 v 112.289 h 29.188 v -21.801 h 0.429 c 2.012,6.653 6.563,12.543 13.657,17.672 5.937,4.27 11.543,6.41 16.816,6.41 1.246,0 2.586,-0.14 4.023,-0.429 v -29.493 c -4.214,0.372 -7.57,0.563 -10.058,0.563 -14.473,0 -22.766,-7.313 -24.867,-21.941 V 545.5 h -29.188" fill="#2e3192" fill-opacity="1" fill-rule="nonzero" stroke="none"/>
      <path id="path18" d="m 384.738,611.898 h 44.848 c 0,15.012 -6.848,22.852 -20.555,23.524 -8.144,0.379 -14.468,-2.09 -18.976,-7.41 -3.735,-4.473 -5.512,-9.84 -5.317,-16.114 z m 75.18,-19.378 h -75.18 c -0.863,-7.79 0.289,-13.77 3.453,-17.95 4.981,-6.941 11.59,-10.398 19.832,-10.398 5.176,0 9.895,1.297 14.161,3.918 4.265,2.609 6.777,5.629 7.55,9.039 h 28.891 c -2.398,-10.25 -9.156,-19 -20.27,-26.219 -10.253,-6.738 -20.695,-10.109 -31.335,-10.109 -10.922,0 -20.747,2.801 -29.469,8.398 -10.254,6.653 -17.012,15.59 -20.27,26.801 -0.957,3.219 -1.679,7.781 -2.156,13.672 -0.668,8.078 -0.332,16.109 1.012,24.09 5.168,30.59 22.179,45.879 51.027,45.879 19.453,0 33.824,-7.411 43.121,-22.231 6.52,-10.262 9.778,-22.461 9.778,-36.621 0,-2.187 -0.051,-4.937 -0.145,-8.269" fill="#2e3192" fill-opacity="1" fill-rule="nonzero" stroke="none"/>
      <path id="path20" d="m 501.031,611.898 h 44.852 c 0,15.012 -6.852,22.852 -20.559,23.524 -8.144,0.379 -14.469,-2.09 -18.972,-7.41 -3.739,-4.473 -5.516,-9.84 -5.321,-16.114 z m 75.184,-19.378 h -75.184 c -0.863,-7.79 0.289,-13.77 3.453,-17.95 4.981,-6.941 11.594,-10.398 19.836,-10.398 5.176,0 9.891,1.297 14.16,3.918 4.262,2.609 6.778,5.629 7.547,9.039 h 28.891 c -2.395,-10.25 -9.152,-19 -20.266,-26.219 -10.254,-6.738 -20.699,-10.109 -31.339,-10.109 -10.922,0 -20.747,2.801 -29.469,8.398 -10.254,6.653 -17.012,15.59 -20.266,26.801 -0.957,3.219 -1.68,7.781 -2.16,13.672 -0.668,8.078 -0.332,16.109 1.012,24.09 5.172,30.59 22.183,45.879 51.031,45.879 19.453,0 33.82,-7.411 43.117,-22.231 6.52,-10.262 9.777,-22.461 9.777,-36.621 0,-2.187 -0.05,-4.937 -0.14,-8.269" fill="#2e3192" fill-opacity="1" fill-rule="nonzero" stroke="none"/>
      <path id="path22" d="m 597.629,670.621 v 25.93 h 29.18 v -25.93 z m 0,-138.801 v 125.969 h 29.18 V 524.551 c 0,-5.41 -1.582,-10.332 -4.743,-14.75 -3.164,-4.41 -7.285,-7.102 -12.363,-8.051 -6.137,-1.141 -14.758,-1.711 -25.871,-1.711 v 23.941 c 4.981,0 7.902,0.141 8.762,0.43 3.355,0.762 5.035,3.231 5.035,7.41" fill="#2e3192" fill-opacity="1" fill-rule="nonzero" stroke="none"/>
      <path id="path24" d="m 703.285,696.551 h 122.039 v -25.93 H 780.625 V 545.5 h -31.199 v 125.121 h -46.141 v 25.93" fill="#2e338f" fill-opacity="1" fill-rule="nonzero" stroke="none"/>
      <path id="path26" d="m 841.137,545.5 v 112.289 h 29.183 v -21.801 h 0.43 c 2.012,6.653 6.563,12.543 13.656,17.672 5.938,4.27 11.543,6.41 16.817,6.41 1.246,0 2.59,-0.14 4.023,-0.429 v -29.493 c -4.215,0.372 -7.566,0.563 -10.058,0.563 -14.473,0 -22.762,-7.313 -24.868,-21.941 V 545.5 h -29.183" fill="#2e338f" fill-opacity="1" fill-rule="nonzero" stroke="none"/>
      <path id="path28" d="m 984.449,591.949 v 6.422 c -3.449,-2.101 -8.051,-3.57 -13.797,-4.422 -4.41,-0.57 -8.867,-1.09 -13.371,-1.57 -3.832,-0.668 -7.019,-2.328 -9.558,-4.981 -2.539,-2.668 -3.809,-5.75 -3.809,-9.269 0,-3.418 0.957,-6.27 2.875,-8.547 2.301,-3.523 6.227,-5.273 11.789,-5.273 1.723,0 3.543,0.14 5.457,0.429 13.61,2.184 20.414,11.262 20.414,27.211 z M 1018.81,545.5 h -30.912 c -2.394,3.039 -3.449,6.789 -3.16,11.262 -5.847,-5.512 -11.07,-9.41 -15.668,-11.692 -5.851,-2.851 -12.75,-4.269 -20.699,-4.269 -23.101,0 -34.262,11.488 -33.496,34.48 0.863,20.047 11.836,31.867 32.922,35.489 10.73,0.378 20.555,2.082 29.465,5.121 5.078,1.808 7.476,6.039 7.187,12.687 -0.285,6.844 -6.664,10.262 -19.121,10.262 -12.168,0 -18.586,-6.129 -19.262,-18.391 h -27.597 c 0.289,26.129 15.91,39.192 46.859,39.192 11.024,0 19.934,-1.371 26.738,-4.129 C 1005.58,650 1012.34,639.5 1012.34,624.02 v -61.282 c 0,-5.027 2.15,-9.449 6.47,-13.25 V 545.5" fill="#2e338f" fill-opacity="1" fill-rule="nonzero" stroke="none"/>
      <path id="path30" d="m 1028.58,657.789 h 30.91 l 23.57,-82.219 23.58,82.219 h 31.05 L 1098.3,545.5 h -30.62 l -39.1,112.289" fill="#2e338f" fill-opacity="1" fill-rule="nonzero" stroke="none"/>
      <path id="path32" d="m 1176.21,611.898 h 44.85 c 0,15.012 -6.85,22.852 -20.56,23.524 -8.14,0.379 -14.47,-2.09 -18.97,-7.41 -3.74,-4.473 -5.52,-9.84 -5.32,-16.114 z m 75.18,-19.378 h -75.18 c -0.87,-7.79 0.29,-13.77 3.45,-17.95 4.98,-6.941 11.59,-10.398 19.83,-10.398 5.18,0 9.9,1.297 14.16,3.918 4.27,2.609 6.78,5.629 7.55,9.039 h 28.9 c -2.4,-10.25 -9.16,-19 -20.27,-26.219 -10.26,-6.738 -20.7,-10.109 -31.34,-10.109 -10.92,0 -20.75,2.801 -29.47,8.398 -10.25,6.653 -17.01,15.59 -20.27,26.801 -0.95,3.219 -1.68,7.781 -2.16,13.672 -0.66,8.078 -0.33,16.109 1.01,24.09 5.18,30.59 22.19,45.879 51.04,45.879 19.45,0 33.82,-7.411 43.12,-22.231 6.51,-10.262 9.77,-22.461 9.77,-36.621 0,-2.187 -0.05,-4.937 -0.14,-8.269" fill="#2e338f" fill-opacity="1" fill-rule="nonzero" stroke="none"/>
      <path id="path34" d="m 1272.09,696.551 h 29.32 V 545.5 h -29.32 v 151.051" fill="#2e338f" fill-opacity="1" fill-rule="nonzero" stroke="none"/>
      <path id="path36" d="m 1453.06,670.762 c -1.72,4.648 -6.03,6.976 -12.93,6.976 -9.78,0 -14.66,-4.988 -14.66,-14.957 0,-1.519 0.11,-2.832 0.36,-3.922 0.23,-1.089 0.59,-2.121 1.07,-3.058 0.48,-0.961 1.08,-1.879 1.8,-2.781 0.72,-0.911 1.61,-1.93 2.66,-3.071 0.67,-1.418 2.73,-3.937 6.18,-7.551 5.18,2.571 9.34,5.633 12.51,9.192 3.16,3.57 4.74,7.39 4.74,11.469 0,2.472 -0.57,4.941 -1.73,7.41 z M 1432.8,562.738 c 2.87,0.192 5.46,0.571 7.76,1.141 2.3,0.57 4.53,1.402 6.68,2.5 2.16,1.09 4.32,2.461 6.47,4.133 2.16,1.66 4.48,3.629 6.98,5.91 l -30.05,37.34 c -4.5,-2.852 -8.17,-5.371 -10.99,-7.551 -2.83,-2.191 -5.04,-4.313 -6.62,-6.352 -1.58,-2.039 -2.66,-4.129 -3.23,-6.269 -0.58,-2.129 -0.87,-4.539 -0.87,-7.192 v -2.136 c 0,-2.852 0.68,-5.582 2.02,-8.203 1.34,-2.61 3.09,-4.887 5.24,-6.84 2.16,-1.938 4.63,-3.508 7.41,-4.699 2.77,-1.18 5.65,-1.782 8.62,-1.782 z m 67.13,52.442 c 0,-10.539 -4.03,-22.282 -12.08,-35.192 l 28.47,-34.207 h -30.62 l -11.79,13.969 c -3.45,-3.52 -6.73,-6.48 -9.85,-8.91 -3.12,-2.418 -6.37,-4.371 -9.77,-5.84 -3.4,-1.469 -7.05,-2.539 -10.93,-3.211 -3.88,-0.66 -8.31,-0.988 -13.29,-0.988 -6.81,0 -12.92,1.09 -18.33,3.269 -5.41,2.192 -10.04,5.149 -13.87,8.91 -3.84,3.75 -6.83,8.122 -8.99,13.11 -2.15,4.988 -3.33,10.281 -3.52,15.89 v 2.282 c 0,4.648 0.45,8.898 1.37,12.75 0.9,3.847 2.3,7.367 4.17,10.547 1.87,3.179 4.26,6.171 7.18,8.98 2.92,2.801 6.45,5.57 10.57,8.332 l 8.48,5.84 -5.32,6.988 c -6.04,8.641 -9.05,17.199 -9.05,25.653 0,4.648 0.93,9.07 2.8,13.25 1.86,4.179 4.5,7.839 7.9,10.968 3.4,3.141 7.48,5.629 12.22,7.481 4.75,1.859 9.94,2.777 15.6,2.777 5.27,0 10.18,-1.019 14.73,-3.058 4.55,-2.04 8.48,-4.68 11.79,-7.911 3.31,-3.23 5.89,-6.89 7.76,-10.968 1.87,-4.09 2.81,-8.172 2.81,-12.262 0,-6.84 -1.63,-12.938 -4.89,-18.309 -3.26,-5.371 -8.1,-10.14 -14.52,-14.32 l -8.2,-5.27 22,-27.082 c 2.97,7.411 4.45,13.352 4.45,17.821 v 3.703 h 22.72 v -4.992" fill="#918f90" fill-opacity="1" fill-rule="nonzero" stroke="none"/>
      <path id="path38" d="m 1631.75,545.5 v 128.109 h -48.02 v 22.231 h 120.18 v -22.231 h -47.44 V 545.5 h -24.72" fill="#918f90" fill-opacity="1" fill-rule="nonzero" stroke="none"/>
      <path id="path40" d="m 1798.78,599.789 c 0,4.75 -0.6,9.313 -1.8,13.68 -1.2,4.371 -2.95,8.222 -5.25,11.543 -2.3,3.328 -5.17,5.988 -8.62,7.976 -3.45,2 -7.48,3 -12.08,3 -4.02,0 -7.71,-0.91 -11.07,-2.707 -3.35,-1.801 -6.23,-4.301 -8.62,-7.48 -2.4,-3.192 -4.27,-7.012 -5.61,-11.473 -1.34,-4.469 -2.01,-9.316 -2.01,-14.539 0,-5.129 0.65,-9.93 1.94,-14.391 1.3,-4.457 3.14,-8.339 5.53,-11.617 2.4,-3.269 5.28,-5.84 8.63,-7.691 3.36,-1.852 7.09,-2.781 11.21,-2.781 4.31,0 8.2,0.972 11.65,2.921 3.45,1.95 6.35,4.59 8.69,7.911 2.35,3.328 4.17,7.199 5.47,11.621 1.29,4.41 1.94,9.09 1.94,14.027 z m 22.85,0 c 0,-9.59 -1.15,-18.051 -3.45,-25.367 -2.3,-7.313 -5.6,-13.461 -9.92,-18.453 -4.31,-4.981 -9.61,-8.758 -15.88,-11.328 -6.28,-2.559 -13.39,-3.84 -21.35,-3.84 -15.91,0 -28.27,5.008 -37.08,15.031 -8.82,10.02 -13.23,24.668 -13.23,43.957 0,9.5 1.15,17.91 3.45,25.223 2.3,7.316 5.61,13.468 9.92,18.457 4.31,4.992 9.58,8.742 15.81,11.261 6.23,2.508 13.28,3.77 21.13,3.77 7.96,0 15.07,-1.262 21.35,-3.77 6.27,-2.519 11.57,-6.269 15.88,-11.261 4.32,-4.989 7.62,-11.141 9.92,-18.457 2.3,-7.313 3.45,-15.723 3.45,-25.223" fill="#918f90" fill-opacity="1" fill-rule="nonzero" stroke="none"/>
      <path id="path42" d="m 1940.37,545.5 h -22.14 l -0.57,6.129 c -3.74,-3.899 -8,-6.68 -12.79,-8.34 -4.8,-1.66 -10.74,-2.488 -17.83,-2.488 -6.04,0 -11.19,0.64 -15.46,1.918 -4.26,1.281 -7.85,3.133 -10.78,5.562 -2.92,2.418 -5.17,5.41 -6.75,8.981 -1.58,3.558 -2.66,7.617 -3.24,12.179 v 86.071 h 22.72 v -76.383 c 0,-5.41 1.31,-9.598 3.95,-12.539 2.63,-2.942 6.68,-4.418 12.15,-4.418 h 1.58 c 4.4,0 8.27,0.808 11.57,2.418 3.31,1.621 6.06,3.922 8.27,6.91 2.2,3 3.85,6.559 4.95,10.691 1.11,4.129 1.66,8.719 1.66,13.75 v 59.571 h 22.71 V 545.5" fill="#918f90" fill-opacity="1" fill-rule="nonzero" stroke="none"/>
      <path id="path44" d="m 1976.02,545.5 v 110.012 h 22.71 v -9.973 c 3.26,3.992 6.8,7.141 10.64,9.473 3.83,2.328 7.42,3.488 10.78,3.488 h 12.36 v -23.371 c -22.52,0 -33.78,-10.918 -33.78,-32.77 V 545.5 h -22.71" fill="#918f90" fill-opacity="1" fill-rule="nonzero" stroke="none"/>
      <path id="path46" d="m 2066.72,581.98 c 0.48,-6.839 3.02,-12.109 7.62,-15.82 4.6,-3.699 11.98,-5.551 22.14,-5.551 1.53,0.282 3.33,0.711 5.39,1.282 2.06,0.57 4.03,1.398 5.89,2.488 1.87,1.09 3.45,2.512 4.75,4.281 1.29,1.75 1.94,3.961 1.94,6.621 0,3.418 -1.25,5.938 -3.74,7.547 -2.49,1.621 -5.92,3.004 -10.28,4.141 -4.36,1.14 -9.49,2.351 -15.38,3.633 -5.89,1.289 -12.29,3.25 -19.19,5.91 -5.85,2 -10.21,5.468 -13.08,10.41 -2.88,4.937 -4.32,10.726 -4.32,17.379 0,5.23 1.08,9.929 3.24,14.109 2.15,4.18 5.1,7.77 8.84,10.762 3.74,2.988 8.14,5.289 13.23,6.906 5.08,1.621 10.49,2.422 16.24,2.422 27.5,0 41.45,-12.59 41.83,-37.762 h -22.14 c 0,10.934 -7.04,16.391 -21.13,16.391 -2.49,0 -4.84,-0.359 -7.04,-1.07 -2.21,-0.707 -4.17,-1.668 -5.89,-2.848 -1.73,-1.191 -3.09,-2.57 -4.1,-4.133 -1.01,-1.566 -1.51,-3.258 -1.51,-5.058 0,-3.61 2.46,-6.391 7.4,-8.34 4.94,-1.95 11.91,-3.821 20.92,-5.629 7.57,-1.992 13.82,-3.942 18.76,-5.84 4.93,-1.902 8.83,-4.063 11.71,-6.481 2.88,-2.429 4.89,-5.281 6.04,-8.55 1.15,-3.282 1.72,-7.25 1.72,-11.899 v -0.859 c 0,-4.942 -1.07,-9.57 -3.23,-13.891 -2.16,-4.332 -5.08,-8.101 -8.77,-11.332 -3.69,-3.23 -8,-5.769 -12.94,-7.629 -4.93,-1.851 -10.18,-2.769 -15.74,-2.769 h -0.57 l -1.44,-0.153 -1.44,-0.136 h -2.73 c -14.95,0 -26.04,3.488 -33.28,10.476 -7.23,6.981 -10.85,17.313 -10.85,30.992 h 21.13" fill="#918f90" fill-opacity="1" fill-rule="nonzero" stroke="none"/>
      <path id="path48" d="m 211.906,914.969 h -22.441 v 22.84 h 22.441 z m -38.558,0 h -22.442 v 22.84 h 22.442 z m 16.726,-63.86 v 29.582 h -20.605 c -15.91,0 -25.703,-12.652 -25.703,-31.621 0,-15.711 8.769,-29.172 22.441,-29.172 14.895,0 23.867,13.872 23.867,31.211 z m 61.004,-65.078 h -24.687 c -17.75,0 -32.235,12.039 -36.926,30.199 -7.145,-10.199 -15.914,-15.308 -26.113,-15.308 -26.114,0 -42.231,19.59 -42.231,47.949 0,30.598 16.117,49.57 42.231,49.57 h 50.39 V 833.77 c 0,-15.911 7.551,-24.481 22.848,-24.481 h 14.488 v -23.258" fill="#918f90" fill-opacity="1" fill-rule="nonzero" stroke="none"/>
      <path id="path50" d="M 387.797,800.309 V 786.031 H 244.172 v 23.258 h 118.937 c 0,12.652 -3.468,23.461 -10.613,32.43 -8.363,10.41 -20.195,15.511 -35.086,15.511 -5.097,0 -10.812,-1.218 -17.14,-3.878 -7.344,-3.063 -13.461,-7.34 -18.36,-12.852 -2.238,4.289 -5.918,10.199 -11.015,17.949 6.324,5.922 13.464,10.821 21.832,14.492 8.976,3.879 17.949,5.707 26.929,5.707 15.094,0 28.149,-3.668 39.168,-11.218 19.383,-12.848 28.973,-35.09 28.973,-67.121" fill="#918f90" fill-opacity="1" fill-rule="nonzero" stroke="none"/>
      <path id="path52" d="m 469.027,786.031 h -26.726 c -11.02,0 -19.383,3.469 -25.297,10.61 -5.508,6.531 -8.164,15.3 -8.164,26.519 v 94.461 h 22.648 V 832.34 c 0,-10 2.246,-16.52 6.528,-19.59 3.062,-2.238 8.98,-3.461 17.543,-3.461 h 13.468 v -23.258" fill="#918f90" fill-opacity="1" fill-rule="nonzero" stroke="none"/>
      <path id="path54" d="m 521.266,741.352 h -22.442 v 22.847 h 22.442 z m 34.07,44.679 h -94.051 v 23.258 h 21.832 c 6.731,0 11.422,2.242 13.871,6.941 1.633,3.051 2.45,8.36 2.45,15.5 v 46.918 h 22.644 v -45.699 c 0,-12.027 -1.629,-19.789 -5.102,-23.66 h 38.356 z m -72.629,-44.679 h -22.441 v 22.847 h 22.441 v -22.847" fill="#918f90" fill-opacity="1" fill-rule="nonzero" stroke="none"/>
      <path id="path56" d="m 548.625,786.031 v 23.258 h 20.813 c 11.625,0 17.335,7.961 17.335,24.07 v 45.289 h 23.055 V 834.18 c 0,-12.039 -1.223,-19.789 -3.672,-23.668 v -1.223 h 21.215 c 11.629,0 17.344,7.551 17.344,22.652 v 46.707 h 23.051 V 834.18 c 0,-13.258 -1.629,-21.629 -4.692,-24.891 h 22.235 c 11.632,0 17.343,7.551 17.343,22.441 v 46.918 h 23.055 V 834.59 c 0,-9.59 -1.633,-17.961 -5.105,-25.301 h 34.89 V 786.031 H 548.625" fill="#918f90" fill-opacity="1" fill-rule="nonzero" stroke="none"/>
      <path id="path58" d="m 806.945,822.949 c 0,-24.679 -11.422,-36.918 -34.273,-36.918 h -24.07 v 23.258 h 19.378 c 7.551,0 12.243,2.242 14.489,6.731 1.019,2.449 1.629,7.339 1.629,14.691 v 86.91 h 22.847 v -94.672" fill="#918f90" fill-opacity="1" fill-rule="nonzero" stroke="none"/>
      <path id="path60" d="M 850.617,786.031 H 827.973 V 917.82 h 22.644 V 786.031" fill="#918f90" fill-opacity="1" fill-rule="nonzero" stroke="none"/>
      <path id="path62" d="m 934.27,831.52 c 0,15.921 -8.563,26.531 -21.622,26.531 -12.039,0 -19.996,-11.629 -19.996,-25.512 0,-14.277 8.571,-25.898 21.012,-25.898 12.242,0 20.606,11.418 20.606,24.879 z m 23.46,-42.629 c 0,-24.282 -14.687,-36.52 -44.265,-36.52 v 18.16 c 14.277,0.41 21.422,9.989 21.828,25.91 -3.879,-6.941 -11.223,-10.41 -21.629,-10.41 -26.312,0 -43.863,19.379 -43.863,46.508 0,27.551 18.16,46.313 43.863,46.313 26.934,0 44.066,-19.993 44.066,-46.911 v -43.05" fill="#918f90" fill-opacity="1" fill-rule="nonzero" stroke="none"/>
      <path id="path64" d="m 1108.12,786.031 h -36.52 c -3.46,-21.832 -22.03,-33.871 -49.77,-33.871 v 19.59 c 18.97,0 28.35,9.379 28.35,28.969 v 77.929 h 22.85 v -69.359 h 35.09 v -23.258" fill="#2e338f" fill-opacity="1" fill-rule="nonzero" stroke="none"/>
      <path id="path66" d="m 1180.57,912.93 h -22.44 v 22.84 h 22.44 z m 2.45,-85.481 c 8.97,6.321 13.46,15.09 13.46,26.11 0,7.14 -2.03,13.062 -6.32,17.75 -4.69,5.101 -11.22,7.75 -19.59,7.75 -8.36,0 -14.89,-2.649 -19.58,-7.75 -4.28,-4.688 -6.53,-10.61 -6.53,-17.75 0,-10.821 4.49,-19.579 13.47,-26.11 3.67,-2.66 7.95,-5.308 12.64,-7.551 4.7,2.442 8.98,4.891 12.45,7.551 z m 55.49,-41.418 h -22.65 c -19.58,0 -34.68,3.668 -45.49,11.219 -10.61,-7.551 -25.7,-11.219 -45.08,-11.219 h -25.1 v 23.258 h 23.87 c 10.2,0 16.52,0.813 18.97,2.242 -6.52,4.899 -11.63,11.219 -15.09,18.77 -3.06,6.73 -4.7,13.879 -4.7,21.219 0,5.3 0.82,9.992 2.45,14.082 7.55,19.378 24.28,31.41 44.88,31.41 23.06,0 47.54,-15.711 47.54,-44.684 0,-7.539 -1.63,-14.68 -4.89,-21.617 -3.48,-7.961 -8.57,-14.281 -14.9,-19.18 2.24,-1.429 8.57,-2.242 18.98,-2.242 h 21.21 v -23.258" fill="#2e338f" fill-opacity="1" fill-rule="nonzero" stroke="none"/>
      <path id="path68" d="m 1230.17,786.031 v 23.258 h 20.81 c 11.63,0 17.34,7.961 17.34,24.07 v 45.289 h 23.06 V 834.18 c 0,-12.039 -1.23,-19.789 -3.67,-23.668 v -1.223 h 21.21 c 11.63,0 17.34,7.551 17.34,22.652 v 46.707 h 23.06 V 834.18 c 0,-13.258 -1.64,-21.629 -4.7,-24.891 h 22.24 c 11.63,0 17.34,7.551 17.34,22.441 v 46.918 h 23.05 V 834.59 c 0,-9.59 -1.63,-17.961 -5.1,-25.301 h 34.88 v -23.258 h -206.86" fill="#2e338f" fill-opacity="1" fill-rule="nonzero" stroke="none"/>
      <path id="path70" d="m 1524.01,786.031 h -93.44 v 23.258 h 21.21 c 6.74,0 11.22,2.242 13.67,6.941 1.63,3.051 2.45,8.36 2.45,15.5 v 85.891 h 22.65 v -84.672 c 0,-12.027 -1.64,-19.789 -4.9,-23.66 h 38.36 v -23.258" fill="#2e338f" fill-opacity="1" fill-rule="nonzero" stroke="none"/>
      <path id="path72" d="m 1576.46,822.949 c 0,-24.679 -11.43,-36.918 -34.28,-36.918 h -24.07 v 23.258 h 19.38 c 7.55,0 12.24,2.242 14.49,6.731 1.01,2.449 1.63,7.339 1.63,14.691 v 86.91 h 22.85 v -94.672" fill="#2e338f" fill-opacity="1" fill-rule="nonzero" stroke="none"/>
      <path id="path74" d="m 1706.22,791.539 h -22.44 v 22.641 h 22.44 z m 69.78,-5.508 h -5.3 c -15.72,0 -28.98,5.297 -39.99,15.91 -8.77,8.571 -13.87,17.75 -15.72,27.75 h -27.54 c -15.49,0 -26.11,-10.812 -26.11,-27.953 0,-7.547 2.45,-13.668 7.55,-18.359 5.1,-4.688 11.42,-7.141 18.56,-7.141 h 24.69 v -23.867 h -16.32 c -16.93,0 -30.4,3.879 -40.4,11.629 -11.22,8.969 -16.92,21.832 -16.92,38.762 0,16.929 4.69,29.777 14.07,38.558 8.36,7.95 19.79,11.828 33.87,11.828 h 25.09 c -3.88,22.653 -15.71,32.032 -35.71,32.032 -7.74,0 -13.05,-1.629 -15.91,-3.27 v 19.59 c 4.29,1.84 10.21,3.469 17.55,3.469 34.48,0 54.07,-17.34 58.75,-56.719 1.84,-14.891 6.74,-25.5 15.1,-32.02 5.71,-4.699 12.24,-6.941 19.39,-6.941 h 5.3 v -23.258" fill="#2e3192" fill-opacity="1" fill-rule="nonzero" stroke="none"/>
      <path id="path76" d="m 1814.58,786.031 h -45.08 v 23.258 h 45.08 v -23.258" fill="#2e3192" fill-opacity="1" fill-rule="nonzero" stroke="none"/>
      <path id="path78" d="m 1854.98,786.031 h -45.08 v 23.258 h 45.08 v -23.258" fill="#2e3192" fill-opacity="1" fill-rule="nonzero" stroke="none"/>
      <path id="path80" d="m 1895.39,786.031 h -45.08 v 23.258 h 45.08 v -23.258" fill="#2e3192" fill-opacity="1" fill-rule="nonzero" stroke="none"/>
      <path id="path82" d="m 1935.79,786.031 h -45.07 v 23.258 h 45.07 v -23.258" fill="#2e3192" fill-opacity="1" fill-rule="nonzero" stroke="none"/>
      <path id="path84" d="m 1976.19,786.031 h -45.07 v 23.258 h 45.07 v -23.258" fill="#2e3192" fill-opacity="1" fill-rule="nonzero" stroke="none"/>
      <path id="path86" d="m 2030.28,741.352 h -22.45 v 22.847 h 22.45 z m 0.61,81.597 c 0,-24.679 -11.42,-36.918 -34.07,-36.918 h -24.07 v 23.258 h 19.18 c 7.55,0 12.23,2.242 14.48,6.731 1.01,2.449 1.63,7.339 1.63,14.691 v 47.937 h 22.85 z m -39.17,-81.597 h -22.44 v 22.847 h 22.44 v -22.847" fill="#2e3192" fill-opacity="1" fill-rule="nonzero" stroke="none"/>
      <path id="path88" d="m 2097.21,878.648 v -74.457 c 0,-36.722 -16.11,-52.031 -51.21,-52.031 v 19.59 c 18.97,0 28.36,9.379 28.36,28.969 v 77.929 h 22.85" fill="#2e3192" fill-opacity="1" fill-rule="nonzero" stroke="none"/>
      <path id="path90" d="m 2140.88,786.031 h -22.65 V 917.82 h 22.65 z m 5.71,142.199 h -35.29 v 9.379 h 8.17 c -1.24,3.871 -1.84,6.121 -1.84,7.141 0,9.59 7.14,16.52 15.91,16.52 5.71,0 10,-3.059 12.85,-8.969 l -7.34,-3.879 c -0.62,3.058 -2.66,4.488 -5.72,4.488 -4.28,0 -6.93,-3.879 -6.93,-7.75 0,-3.469 1.22,-6.121 3.67,-7.551 h 16.52 v -9.379" fill="#2e3192" fill-opacity="1" fill-rule="nonzero" stroke="none"/>
      <path id="path92" d="m 1433.91,1439.81 c 16.63,-197 -129.6,-370.19 -326.59,-386.82 -196.996,-16.63 -370.179,129.59 -386.808,326.6 -16.637,196.99 129.582,370.17 326.578,386.8 197.01,16.63 370.18,-129.58 386.82,-326.58" fill="#2e338f" fill-opacity="1" fill-rule="nonzero" stroke="none"/>
      <path id="path94" d="m 1390.87,1211.3 c -280.59,23.03 -490.124,270.04 -467.097,550.64 l 19.93,-1.64 c -22.125,-269.6 179.207,-506.95 448.807,-529.07 l -1.64,-19.93" fill="#ffffff" fill-opacity="1" fill-rule="nonzero" stroke="none"/>
      <path id="path96" d="m 1603.52,1200.95 c 10.72,0.12 19.32,5.29 19.25,11.55 -0.08,5.94 -8.06,10.73 -18.09,11.03 l -72.77,7.58 -79.46,96.67 -25.55,0.47 51.51,-95.32 -95.52,-0.54 -25.35,28.24 -16.02,0.69 22.95,-34.54 -10.91,-4.5 11.9,-4.86 -27.17,-33.55 17.05,1.87 27.3,24.55 96.83,-5.62 -59.95,-88.07 22.43,-1.58 91.36,84.31 c 0,0 54.5,0.34 69.49,1.62 h 0.72" fill="#918f90" fill-opacity="1" fill-rule="nonzero" stroke="none"/>
      <path id="path98" d="m 1534.36,1242.32 -30.73,-2.97 -1.21,12.66 30.72,2.96 1.22,-12.65" fill="#918f90" fill-opacity="1" fill-rule="nonzero" stroke="none"/>
      <path id="path100" d="m 1530.36,1172.66 -30.54,4.41 1.81,12.57 30.55,-4.4 -1.82,-12.58" fill="#918f90" fill-opacity="1" fill-rule="nonzero" stroke="none"/>
    </g>
  </g>
</svg>