<?xml version="1.0" encoding="utf-8" standalone="yes"?>
<svg version="1.2" baseProfile="tiny-ps" viewBox="0 0 1700.79 1700.79" width="1701" height="1701" xmlns="http://www.w3.org/2000/svg">
  <title>Areej Travel and Tours</title>
  <g id="Layer_1">
    <g>
      <g>
        <g>
          <g>
            <path fill="#194299" d="m179.47 987l38.09 111.28h-23.39l-7.57-22.23h-41.26l-7.68 22.23h-23.39l38.74-111.28zm-13.14 26.68l-13.73 43.25h28.43z" />
            <path fill="#194299" d="m230.16 1098.28v-82.7h21.3v16.06h0.31q2.21-7.36 9.97-13.03 6.51-4.73 12.29-4.73 1.36 0 2.95 0.31v21.75q-4.62-0.42-7.37-0.42-15.83 0-18.15 16.17v46.59z" />
            <path fill="#194299" d="m359.9 1063.64h-54.88q-0.97 8.61 2.52 13.23 5.43 7.67 14.47 7.67 5.66 0 10.34-2.89 4.67-2.88 5.52-6.68h21.1q-2.64 11.36-14.81 19.32-11.25 7.47-22.89 7.47-11.98 0-21.52-6.2-11.22-7.33-14.79-19.74-1.04-3.57-1.58-10.08-0.74-8.92 0.73-17.73 5.67-33.82 37.28-33.82 21.29 0 31.49 16.4 7.14 11.33 7.14 26.96 0 2.41-0.12 6.09zm-54.88-14.27h32.74q0-16.57-15.01-17.33-8.93-0.4-13.85 5.46-4.11 4.96-3.88 11.87z" />
            <path fill="#194299" d="m444.81 1063.64h-54.89q-0.93 8.61 2.52 13.23 5.47 7.67 14.48 7.67 5.69 0 10.36-2.89 4.65-2.88 5.5-6.68h21.1q-2.64 11.36-14.79 19.32-11.24 7.47-22.91 7.47-11.95 0-21.5-6.2-11.24-7.33-14.81-19.74-1.05-3.57-1.58-10.08-0.74-8.92 0.73-17.73 5.67-33.82 37.27-33.82 21.3 0 31.5 16.4 7.13 11.33 7.13 26.96 0 2.41-0.11 6.09zm-54.89-14.27h32.74q0-16.57-15.01-17.33-8.92-0.4-13.85 5.46-4.1 4.96-3.88 11.87z" />
            <path fill="#194299" d="m460.47 1108.36v-92.78h21.3v98.13q0 5.98-3.46 10.88-3.45 4.87-9.03 5.92-6.71 1.27-18.89 1.27v-17.64q5.47 0 6.4-0.31 3.68-0.85 3.68-5.47zm0-102.24v-19.12h21.3v19.12z" />
            <path fill="#194299" d="m537.62 987h89.1v19.12h-32.63v92.16h-22.8v-92.16h-33.67z" />
            <path fill="#194299" d="m638.27 1098.28v-82.7h21.33v16.06h0.31q2.21-7.36 9.97-13.03 6.51-4.73 12.29-4.73 1.36 0 2.92 0.31v21.75q-4.62-0.42-7.34-0.42-15.86 0-18.15 16.17v46.59z" />
            <path fill="#194299" d="m768.01 1098.28h-22.57q-2.6-3.34-2.29-8.27-6.4 6.06-11.44 8.58-6.4 3.17-15.13 3.17-25.29 0-24.44-25.4 0.94-22.15 24.02-26.14 11.75-0.43 21.52-3.8 5.58-1.98 5.24-9.34-0.31-7.56-13.93-7.56-13.34 0.02-14.08 13.56h-20.16q0.31-28.86 34.24-28.89 12.06 0 19.51 3.06 14.78 6.09 14.78 23.2v45.14q0.03 5.55 4.73 9.74zm-25.09-34.21v-4.73q-3.76 2.32-10.05 3.26-4.85 0.62-9.77 1.16-4.19 0.74-7 3.68-2.77 2.95-2.77 6.83 0 3.76 2.09 6.28 2.52 3.88 8.61 3.88 1.9 0 3.99-0.31 14.9-2.4 14.9-20.05z" />
            <path fill="#194299" d="m775.15 1015.58h22.57l17.22 60.55 17.22-60.55h22.66l-28.75 82.7h-22.37z" />
            <path fill="#194299" d="m937.86 1063.64h-54.89q-0.96 8.61 2.52 13.23 5.44 7.67 14.47 7.67 5.67 0 10.34-2.89 4.67-2.88 5.52-6.68h21.1q-2.63 11.36-14.81 19.32-11.21 7.47-22.88 7.47-11.95 0-21.53-6.2-11.21-7.33-14.78-19.74-1.05-3.57-1.59-10.08-0.73-8.92 0.74-17.73 5.66-33.82 37.27-33.82 21.3 0 31.49 16.4 7.14 11.33 7.14 26.96 0 2.41-0.11 6.09zm-54.89-14.27h32.74q0-16.57-15.01-17.33-8.92-0.4-13.85 5.46-4.11 4.96-3.88 11.87z" />
            <path fill="#194299" d="m974.39 987v111.28h-21.41v-111.28z" />
            <path fill="#939598" d="m1119.14 1046.96q0 11.64-8.8 25.92l20.78 25.2h-22.37l-8.61-10.28q-3.77 3.88-7.19 6.54-3.4 2.69-7.14 4.31-3.71 1.64-7.96 2.38-4.25 0.7-9.71 0.73-7.45 0-13.4-2.43-5.92-2.41-10.11-6.54-4.22-4.17-6.57-9.66-2.35-5.53-2.58-11.73v-1.67q0-5.12 0.99-9.37 1.02-4.28 3.06-7.79 2.04-3.51 5.24-6.6 3.2-3.12 7.73-6.15l6.18-4.3-3.88-5.16q-6.6-9.54-6.6-18.89 0-5.12 2.04-9.77 2.04-4.61 5.78-8.07 3.71-3.45 8.92-5.52 5.18-2.04 11.38-2.04 5.78 0 10.76 2.27 4.99 2.26 8.61 5.8 3.63 3.6 5.67 8.1 2.04 4.5 2.04 9.04 0 7.53-3.57 13.48-3.57 5.92-10.59 10.53l-5.98 3.88 16.06 19.97q3.23-8.19 3.23-13.14v-2.72h16.59zm-49.02 38.63q3.14-0.2 5.66-0.82 2.52-0.65 4.9-1.84 2.35-1.22 4.73-3.06 2.35-1.81 5.07-4.33l-21.92-27.5q-4.95 3.14-8.04 5.55-3.09 2.4-4.82 4.67-1.75 2.27-2.38 4.62-0.62 2.35-0.62 5.29v1.59q0 3.14 1.47 6.03 1.48 2.89 3.83 5.04 2.35 2.15 5.41 3.46 3.06 1.33 6.28 1.3zm14.82-79.56q-1.9-5.15-9.43-5.15-10.71 0-10.71 11.05-0.03 1.67 0.26 2.86 0.25 1.21 0.79 2.26 0.51 1.05 1.3 2.04 0.79 1.02 1.95 2.27 0.71 1.58 4.51 5.55 5.66-2.83 9.12-6.77 3.48-3.91 3.48-8.44 0-2.72-1.27-5.47z" />
            <path fill="#939598" d="m1215.41 1098.28v-94.37h-35.06v-16.37h87.76v16.37h-34.66v94.37z" />
            <path fill="#939598" d="m1354.07 1058.29q0 10.59-2.52 18.69-2.52 8.07-7.25 13.6-4.7 5.52-11.58 8.32-6.89 2.86-15.61 2.86-17.42 0-27.07-11.1-9.66-11.04-9.66-32.37 0-10.48 2.52-18.58 2.52-8.07 7.25-13.59 4.73-5.5 11.55-8.3 6.8-2.78 15.41-2.78 8.72 0 15.61 2.78 6.88 2.8 11.58 8.3 4.73 5.52 7.25 13.59 2.52 8.1 2.52 18.58zm-16.68 0q0-5.24-1.33-10.08-1.31-4.82-3.83-8.5-2.52-3.68-6.28-5.86-3.8-2.21-8.84-2.21-4.39 0-8.07 1.98-3.68 2.01-6.29 5.52-2.63 3.52-4.1 8.44-1.48 4.93-1.48 10.71 0 5.66 1.42 10.62 1.41 4.9 4.05 8.55 2.6 3.63 6.29 5.67 3.68 2.04 8.18 2.04 4.73 0 8.53-2.16 3.76-2.15 6.34-5.83 2.58-3.68 3.99-8.55 1.42-4.87 1.42-10.34z" />
            <path fill="#939598" d="m1440.76 1098.28h-16.14l-0.43-4.5q-4.1 4.3-9.34 6.14-5.24 1.81-13.03 1.84-6.6 0-11.27-1.41-4.67-1.42-7.88-4.11-3.2-2.69-4.92-6.63-1.73-3.91-2.38-8.95v-63.41h16.59v56.25q0 6 2.89 9.26 2.89 3.26 8.87 3.26h1.16q4.81 0 8.44-1.79 3.62-1.78 6.03-5.1 2.44-3.31 3.63-7.87 1.21-4.59 1.21-10.14v-43.87h16.57z" />
            <path fill="#939598" d="m1466.82 1098.28v-81.03h16.57v7.34q3.56-4.39 7.78-6.97 4.2-2.58 7.85-2.58h9.03v17.22q-24.66 0-24.66 24.13v41.89z" />
            <path fill="#939598" d="m1533.03 1071.4q0.54 7.56 5.58 11.67 5.04 4.08 16.17 4.08 1.67-0.31 3.94-0.94 2.24-0.62 4.31-1.84 2.03-1.19 3.45-3.14 1.42-1.95 1.42-4.87 0-3.8-2.72-5.58-2.75-1.78-7.54-3.03-4.75-1.28-11.21-2.69-6.46-1.42-14.02-4.36-6.4-2.18-9.54-7.65-3.15-5.47-3.15-12.8 0-5.78 2.35-10.39 2.35-4.62 6.46-7.93 4.11-3.32 9.66-5.1 5.55-1.79 11.86-1.79 30.14 0 30.53 27.81h-16.14q0-12.06-15.43-12.06-2.75 0-5.16 0.79-2.41 0.8-4.3 2.1-1.9 1.3-3 3.03-1.08 1.75-1.08 3.74 0 3.99 5.38 6.14 5.41 2.16 15.29 4.14 8.27 2.21 13.71 4.3 5.38 2.1 8.55 4.79 3.15 2.66 4.39 6.29 1.28 3.62 1.28 8.78v0.62q0 5.47-2.38 10.22-2.35 4.79-6.4 8.36-4.05 3.57-9.43 5.61-5.41 2.06-11.5 2.06h-0.43q-0.42 0-1.04 0.09-0.63 0.11-1.05 0.11h-2.01q-16.37 0-24.3-7.7-7.93-7.73-7.93-22.86z" />
          </g>
        </g>
        <g>
          <g>
            <path fill="#939598" d="m189.5 1234.97v22.46h-33.11l-2.77-13.42-6.52 10.65-37.1-5.38 7.48-22.89q1.64-4.75 5.97-7.19l22.38-11.87-0.97-3.82 15.69-13.59 9.46 45.05zm-38.49-2.49l-2.77-13.54-18.83 10.4zm20.81-67.01l-11.36 10.05-8.07-6.85-7.36 6.85-14.05-13.08 10.51-9.97 7.96 6.94 7.81-6.94z" />
            <path fill="#939598" d="m296.13 1226.22l-13.34 20.9q-10.06-2.26-17.96-2.26-11.07 0-19.31 7.48-2.69 2.32-4 3.28-2.35 1.81-7.9 1.81h-46.36v-22.46h59.82q-6.26-1.98-14.93-7.19-11.02-6.48-17.08-6.48-1.9 0-5.63 0.93 1.38-1.81 7.11-8.3 3.39-3.65 5.89-6.09 4.41-4.13 8.24-4.16 3.99 0 10.76 3.65l10.48 5.55q13.54 7.2 23.08 10.06 7.79 2.49 21.13 3.28z" />
            <path fill="#939598" d="m346.94 1234.97v22.46h-29.83q-9.2 0-9.2-7.36v-4.25l-0.17-2.94v-60.61l18.04-19.06v63.35q0 5.38 0.91 6.91 0.9 1.5 5.86 1.5z" />
            <path fill="#939598" d="m370.7 1257.43h-26.2v-22.46h26.88l-2.78-9 13.71-13.54 6.6 22.54h18.44v22.46h-29.2l-2.16-6.77zm-14.04 23.68l11.27-9.97 8.04 6.77 7.39-6.77 14.14 13-10.77 10.06-7.9-7.03-7.7 7.03z" />
            <path fill="#939598" d="m539.3 1234.97h18.89l0.53 22.46h-20.02l-4.44-7.78-3.21 7.78h-29.02l-3.49-7.78-6.06 7.78h-33.02l-3.46-7.78-6.09 7.78h-44.72v-22.46h44.21l-7.64-16.9 11.38-14.14 14.56 31.04h24.19l-7.48-16.9 11.27-14.14 14.67 31.04h16.03q-3.03-9.6-7.45-14.13l12.83-17.67q8.58 10.76 8.58 23.39 0 4.45-1.04 8.41z" />
            <path fill="#939598" d="m606.39 1177.26l-6.68 15.69-2.95-1.31 2.69 33.28q0 5.81-1.64 10.76-1.05 3.12-3.29 9.58-2.26 6.45-4.78 12.17h-33.37v-22.46h27.76l-3.99-49.93q-0.54 0-0.88-0.25-3.71-1.3-3.74-4.5 0-1.65 1.56-3.83l1.58-2.52 7.54-11.52q0 3.31 0.99 4.98 0.99 1.7 2.72 2.66 0.96 0.51 3.14 1.47z" />
            <path fill="#939598" d="m632.84 1163.21l4.08 25.83-3.57 3.74v1.64q0 0.42 0.65 10.82 0.65 10.42 0.65 15.6 0 15.18-3.45 24.02-3.48 8.84-13.2 18.29 0.54-5.97 0.54-14.55 0-8.24-0.54-17.08l-2.75-43.45q0-0.68-0.28-3.03z" />
            <path fill="#939598" d="m681.47 1257.43h-8.75q-11.44 0-16.06-2.32-3.2-1.67-5.41-5.44-2.21-3.76-2.21-7.76 0-7.11 3.83-16.34 3.82-9.23 10.22-16.85 5.21-6.43 10.31-6.4 5.8-0.03 11.53 7.79 3.31 4.5 5.55 9.71 5.21 12.29 5.21 25.83 0 10.85-4.56 21.67-4.56 10.85-12.44 19.09-5.55 5.8-11.01 5.8-4.08 0-9.8-5.12-5.27-4.68-11.7-14.56l-1.22-1.64q1.31 0.25 1.73 0.42 6.26 1.47 10.25 1.47 8.41 0 15.24-4.67 6-4.08 9.29-10.68zm-1.3-22.46q-2.16-13.5-8.75-13.5-3.03 0-5.3 2.46-2.27 2.46-2.24 5.95 0 5.09 6.23 5.09z" />
            <path fill="#194299" d="m769.72 1234.97h19.43v22.46h-19.86l-0.08 0.43q-4.59 13.71-12.04 23.68-7.98 10.67-14.75 10.67-8.92-0.03-22.8-22.03 7.02 2.35 11.87 2.35 8.32 0 16.65-6.09 6.06-4.39 11.19-14.73l0.68-1.3q-2.16-5.01-6.07-11.27-3.48-5.64-6.23-8.58l12.3-14.48 1.13 1.73q6.23 10.14 8.41 16.74z" />
            <path fill="#194299" d="m876.6 1234.97v22.46h-39.7l-7.62-5.01-5.72 5.01h-36.68v-22.46h19.94q5.3-9.26 10.31-16.28 14.67-20.82 24.89-20.82 6.15 0 10.57 5.41 4.42 5.44 4.42 12.8 0 6.32-2.95 12.83-0.59 1.31-3.03 6.06zm-28.94-61.28l-10.6 9.88-14.81-12.66 10.74-10.14zm-13.77 60.1l8.33-5.04q0.22-1.64 0.25-2.07 0-3.31-1.84-5.52-1.81-2.21-4.42-2.21-5.72 0-10.22 8.58z" />
            <path fill="#194299" d="m1008.38 1234.97h18.89l0.51 22.46h-20.02l-4.42-7.78-3.2 7.78h-29.03l-3.48-7.78-6.06 7.78h-33.02l-3.49-7.78-6.06 7.78h-44.75v-22.46h44.24l-7.64-16.9 11.35-14.14 14.59 31.04h24.16l-7.45-16.9 11.27-14.14 14.64 31.04h16.06q-3.06-9.6-7.45-14.13l12.83-17.67q8.55 10.76 8.55 23.39 0.03 4.45-1.02 8.41z" />
            <path fill="#194299" d="m1085.19 1234.97v22.46h-27.58q-5.3 0-7.11-0.51-3.54-1.13-4.25-5.04l-3.63 5.55h-17.16v-22.46h20.79v-52.33l18.04-19.52v62.51q0 0.59 0.09 5.55 0 0.93 0.59 2.38 0.62 1.41 3.91 1.41z" />
            <path fill="#194299" d="m1132.94 1177.26l-6.65 15.69-2.98-1.31 2.69 33.28q0 5.81-1.64 10.76-1.05 3.12-3.28 9.58-2.24 6.45-4.76 12.17h-33.39v-22.46h27.75l-3.99-49.93q-0.54 0-0.88-0.25-3.71-1.3-3.71-4.5 0-1.65 1.56-3.83l1.56-2.52 7.53-11.52q0 3.31 0.99 4.98 0.99 1.7 2.75 2.66 0.93 0.51 3.11 1.47z" />
            <path fill="#194299" d="m1234.22 1220.33q-13.45 2.52-26.54 10.93-8.07 5.27-12.88 12.47-4.82 7.22-4.82 14.41 0 12.46 12.63 20.03 12.61 7.53 33.22 7.53 13.71 0 28.72-2.86-2.77 1.81-8.33 6.6-3.03 2.74-8.49 8.3l-5.55 5.63q-2.52 2.69-5.81 3.23-9.63 1.56-16.03 1.56-9.71 0-18.69-2.66-8.98-2.64-14.16-7.06-5.55-4.87-9.06-13.45-3.52-8.58-3.52-17.76 0-27.75 27.9-50.1-4.5-0.79-8.3-0.79-10.14 0-17.87 4.08l4.67-12.83q2.36-6.32 6.43-8.75 4.08-2.44 12.3-2.44 2.35 0 5.91 0.26l15.95 1.21q8.84 0.71 17.42 0.71 5.12 0 11.81-0.08 8.75-0.17 16.03-1.48l-11.19 21.67h-5.21l-1.81 0.17h-0.68l2.49 6.77q1.73 4.25 3.6 6.8 1.86 2.54 8.97 2.54h21.92v22.46h-27.64q-6.68 0-10.19-2.21-3.51-2.2-5.5-5.94-2.26-4.42-4.67-15.24zm-3.74 37.1l-10.68 9.97-14.64-12.74 10.76-10.06z" />
            <path fill="#194299" d="m1332.95 1234.97v22.46h-50.3v-22.46z" />
            <path fill="#194299" d="m1378.89 1234.97v22.46h-50.28v-22.46z" />
            <path fill="#194299" d="m1424.82 1234.97v22.46h-50.27v-22.46z" />
            <path fill="#194299" d="m1470.79 1234.97v22.46h-50.3v-22.46z" />
            <path fill="#194299" d="m1501.63 1203.17q8.61 10.14 8.61 23.05-0.03 7.28-4.25 18.89-2.35 6.35-4.95 12.32h-34.25v-22.46h29.57q-2.69-9.26-7.56-14.13zm-33.02 77.94l11.35-9.97 8.08 6.77 7.44-6.77 14.14 13-10.68 10.06-8.04-7.03-7.65 7.03z" />
            <path fill="#194299" d="m1541.25 1216.08q11.1 17 11.1 29.03 0 7.31-3.17 16.88-3.14 9.58-8.01 16.6-9.26 13.62-17.51 13.62-8.92-0.03-22.79-22.03 7.02 2.35 11.89 2.35 8.47 0 16.63-6.09 6.06-4.59 11.18-14.73l0.68-1.3q-2.15-5.01-6.06-11.27-3.45-5.64-6.23-8.58z" />
            <path fill="#194299" d="m1588.15 1149.7l-3.37 9.94q-6.77 0.71-10.93 2.27-7.36 2.77-12.91 9.34 0.87-7.25 5.21-12.29-6.43-1.39-6.43-7.9 0-2.86 3.48-8.75 6.06-10.14 16.2-10.14 6.68 0 6.68 2.86 0 0.42-1.84 4.16l-2.06 4.25q-3.37-1.47-7.11-1.47-5.81 0-9.55 3.74 5.3 5.55 15.1 5.52 3.03 0.03 7.53-1.53zm-2.69 13.51l3.99 25.83-3.37 3.74v1.64q0 0.42 0.6 10.82 0.62 10.42 0.62 15.6 0 15.18-3.48 24.02-3.46 8.84-13.09 18.29 0.51-5.97 0.51-14.55 0-8.24-0.51-17.08l-2.77-43.45q0-0.68-0.34-3.03z" />
          </g>
        </g>
      </g>
      <g>
        <path fill="#194299" d="m1120.93 617.13c12.6 149.71-98.5 281.29-248.18 293.89-149.68 12.66-281.32-98.41-293.92-248.12-12.66-149.71 98.44-281.29 248.15-293.92 149.68-12.63 281.29 98.44 293.95 248.15z" />
        <g>
          <path fill="#d9d9d9" d="m1088.19 790.77c-213.2-17.5-372.43-205.22-354.92-418.42l15.15 1.25c-16.83 204.87 136.17 385.19 341.02 402.02z" />
        </g>
        <g>
          <g>
            <path fill="#939598" d="m1279.79 804.64c8.16-0.11 14.67-4.05 14.62-8.78-0.06-4.53-6.12-8.15-13.74-8.38l-55.28-5.78-60.41-73.46-19.4-0.34 39.14 72.42-72.59 0.42-19.29-21.44-12.15-0.54 17.48 26.23-8.33 3.43 9.06 3.71-20.64 25.48 12.94-1.41 20.73-18.67 73.61 4.25-45.57 66.95 17.05 1.19 69.41-64.09c0 0 41.44-0.22 52.79-1.19q0.29 0 0.57 0z" />
          </g>
          <g>
            <path fill="#939598" d="m1227.26 773.18l-23.37 2.26-0.93-9.63 23.36-2.23z" />
          </g>
          <g>
            <path fill="#939598" d="m1224.2 826.11l-23.2-3.34 1.36-9.57 23.2 3.34z" />
          </g>
        </g>
      </g>
    </g>
  </g>
</svg>