<?xml version="1.0" encoding="utf-8"?>
<!-- Generator: Adobe Illustrator 19.0.0, SVG Export Plug-In . SVG Version: 6.00 Build 0)  -->
<svg version="1.1" id="Layer_1" xmlns="http://www.w3.org/2000/svg" xmlns:xlink="http://www.w3.org/1999/xlink" x="0px" y="0px"
	 viewBox="0 0 1423 192.1" style="enable-background:new 0 0 1423 192.1;" xml:space="preserve">
<style type="text/css">
	.st0{fill:#23378B;}
	.st1{fill:#9D9D9C;}
	.st2{fill:#FFFFFF;}
</style>
<g>
	<g>
		<path class="st0" d="M23,72.4l13.5,39.3h-8.3l-2.7-7.9H11l-2.7,7.9H0l13.7-39.3H23z M18.4,81.8L13.5,97h10L18.4,81.8z"/>
		<path class="st0" d="M40.9,111.6V82.4h7.5v5.7h0.1c0.5-1.7,1.7-3.3,3.5-4.6c1.5-1.1,3-1.7,4.3-1.7c0.3,0,0.7,0,1,0.1v7.7
			c-1.1-0.1-2-0.1-2.6-0.1c-3.7,0-5.9,1.9-6.4,5.7v16.5H40.9z"/>
		<path class="st0" d="M86.7,99.4H67.3c-0.2,2,0.1,3.6,0.9,4.7c1.3,1.8,3,2.7,5.1,2.7c1.3,0,2.6-0.3,3.7-1c1.1-0.7,1.7-1.5,1.9-2.4
			h7.4c-0.6,2.7-2.4,4.9-5.2,6.8c-2.6,1.8-5.3,2.6-8.1,2.6c-2.8,0-5.3-0.7-7.6-2.2c-2.6-1.7-4.4-4.1-5.2-7c-0.2-0.8-0.4-2-0.6-3.6
			C59.5,98,59.6,96,60,93.9c1.3-8,5.7-11.9,13.2-11.9c5,0,8.7,1.9,11.1,5.8c1.7,2.7,2.5,5.8,2.5,9.5C86.8,97.8,86.8,98.5,86.7,99.4z
			 M67.3,94.4h11.6c0-3.9-1.8-5.9-5.3-6.1c-2.1-0.1-3.7,0.5-4.9,1.9C67.8,91.3,67.3,92.7,67.3,94.4z"/>
		<path class="st0" d="M116.7,99.4H97.3c-0.2,2,0.1,3.6,0.9,4.7c1.3,1.8,3,2.7,5.1,2.7c1.3,0,2.6-0.3,3.7-1c1.1-0.7,1.7-1.5,1.9-2.4
			h7.5c-0.6,2.7-2.4,4.9-5.2,6.8c-2.6,1.8-5.3,2.6-8.1,2.6c-2.8,0-5.3-0.7-7.6-2.2c-2.6-1.7-4.4-4.1-5.2-7c-0.2-0.8-0.4-2-0.6-3.6
			C89.5,98,89.6,96,90,93.9c1.3-8,5.7-11.9,13.2-11.9c5,0,8.7,1.9,11.1,5.8c1.7,2.7,2.5,5.8,2.5,9.5
			C116.8,97.8,116.7,98.5,116.7,99.4z M97.3,94.4h11.6c0-3.9-1.8-5.9-5.3-6.1c-2.1-0.1-3.7,0.5-4.9,1.9
			C97.7,91.3,97.3,92.7,97.3,94.4z"/>
		<path class="st0" d="M122.2,115.2V82.4h7.5v34.7c0,1.4-0.4,2.7-1.2,3.8c-0.8,1.1-1.9,1.8-3.2,2.1c-1.6,0.3-3.8,0.4-6.7,0.4v-6.2
			c1.3,0,2,0,2.3-0.1C121.8,116.9,122.2,116.3,122.2,115.2z M122.2,79.1v-6.7h7.5v6.7H122.2z"/>
		<path class="st0" d="M149.5,72.4h31.5v6.7h-11.5v32.5h-8V79.1h-11.9V72.4z"/>
		<path class="st0" d="M185,111.6V82.4h7.5v5.7h0.1c0.5-1.7,1.7-3.3,3.5-4.6c1.5-1.1,3-1.7,4.3-1.7c0.3,0,0.7,0,1,0.1v7.7
			c-1.1-0.1-2-0.1-2.6-0.1c-3.7,0-5.9,1.9-6.4,5.7v16.5H185z"/>
		<path class="st0" d="M230.8,111.6h-8c-0.6-0.8-0.9-1.8-0.8-2.9c-1.5,1.4-2.9,2.4-4,3c-1.5,0.7-3.3,1.1-5.3,1.1c-6,0-8.8-3-8.6-9
			c0.2-5.2,3.1-8.3,8.5-9.2c2.8-0.1,5.3-0.5,7.6-1.3c1.3-0.5,1.9-1.6,1.9-3.3c-0.1-1.8-1.7-2.7-4.9-2.7c-3.1,0-4.8,1.6-5,4.8H205
			C205,85.3,209.1,82,217,82c2.8,0,5.1,0.4,6.9,1.1c3.5,1.4,5.2,4.2,5.2,8.2v15.9c0,1.3,0.6,2.5,1.7,3.4V111.6z M222,99.6v-1.7
			c-0.9,0.5-2.1,0.9-3.6,1.2c-1.1,0.1-2.3,0.3-3.4,0.4c-1,0.2-1.8,0.6-2.5,1.3c-0.7,0.7-1,1.5-1,2.4c0,0.9,0.2,1.6,0.7,2.2
			c0.6,0.9,1.6,1.4,3,1.4c0.4,0,0.9,0,1.4-0.1C220.2,106.1,222,103.7,222,99.6z"/>
		<path class="st0" d="M233.4,82.4h8l6.1,21.4l6.1-21.4h8l-10.2,29.2h-7.9L233.4,82.4z"/>
		<path class="st0" d="M290.8,99.4h-19.4c-0.2,2,0.1,3.6,0.9,4.7c1.3,1.8,3,2.7,5.1,2.7c1.3,0,2.6-0.3,3.7-1
			c1.1-0.7,1.7-1.5,1.9-2.4h7.5c-0.6,2.7-2.4,4.9-5.2,6.8c-2.6,1.8-5.3,2.6-8.1,2.6c-2.8,0-5.3-0.7-7.6-2.2c-2.6-1.7-4.4-4.1-5.2-7
			c-0.2-0.8-0.4-2-0.6-3.6c-0.2-2.1-0.1-4.2,0.3-6.3c1.3-8,5.7-11.9,13.2-11.9c5,0,8.7,1.9,11.1,5.8c1.7,2.7,2.5,5.8,2.5,9.5
			C290.8,97.8,290.8,98.5,290.8,99.4z M271.4,94.4H283c0-3.9-1.8-5.9-5.3-6.1c-2.1-0.1-3.7,0.5-4.9,1.9
			C271.8,91.3,271.4,92.7,271.4,94.4z"/>
		<path class="st0" d="M296.1,72.4h7.6v39.3h-7.6V72.4z"/>
		<path class="st1" d="M354.8,93.5c0,2.7-1,5.8-3.1,9.2l7.3,8.9h-7.9l-3-3.6c-0.9,0.9-1.7,1.7-2.5,2.3c-0.8,0.6-1.6,1.1-2.5,1.5
			c-0.9,0.4-1.8,0.7-2.8,0.8c-1,0.2-2.1,0.3-3.4,0.3c-1.8,0-3.3-0.3-4.7-0.9c-1.4-0.6-2.6-1.3-3.6-2.3c-1-1-1.8-2.1-2.3-3.4
			c-0.6-1.3-0.9-2.7-0.9-4.1v-0.6c0-1.2,0.1-2.3,0.4-3.3c0.2-1,0.6-1.9,1.1-2.7c0.5-0.8,1.1-1.6,1.9-2.3c0.8-0.7,1.7-1.5,2.7-2.2
			l2.2-1.5l-1.4-1.8c-1.6-2.2-2.3-4.5-2.3-6.7c0-1.2,0.2-2.4,0.7-3.4c0.5-1.1,1.2-2,2-2.9c0.9-0.8,1.9-1.5,3.2-1.9
			c1.2-0.5,2.6-0.7,4-0.7c1.4,0,2.6,0.3,3.8,0.8c1.2,0.5,2.2,1.2,3,2.1c0.9,0.8,1.5,1.8,2,2.9c0.5,1.1,0.7,2.1,0.7,3.2
			c0,1.8-0.4,3.4-1.3,4.8c-0.8,1.4-2.1,2.6-3.7,3.7l-2.1,1.4l5.7,7c0.8-1.9,1.1-3.5,1.1-4.6v-1h5.9V93.5z M337.5,107.2
			c0.7-0.1,1.4-0.1,2-0.3c0.6-0.1,1.2-0.4,1.7-0.6c0.6-0.3,1.1-0.6,1.7-1.1c0.6-0.4,1.2-0.9,1.8-1.5l-7.7-9.7
			c-1.2,0.7-2.1,1.4-2.8,2c-0.7,0.6-1.3,1.1-1.7,1.7c-0.4,0.5-0.7,1.1-0.8,1.6c-0.1,0.6-0.2,1.2-0.2,1.9v0.6c0,0.7,0.2,1.5,0.5,2.1
			c0.3,0.7,0.8,1.3,1.4,1.8c0.6,0.5,1.2,0.9,1.9,1.2c0.7,0.3,1.5,0.5,2.2,0.5H337.5z M342.7,79.1c-0.4-1.2-1.6-1.8-3.3-1.8
			c-2.5,0-3.8,1.3-3.8,3.9c0,0.4,0,0.7,0.1,1c0.1,0.3,0.2,0.6,0.3,0.8c0.1,0.2,0.3,0.5,0.5,0.7c0.2,0.2,0.4,0.5,0.7,0.8
			c0.2,0.4,0.7,1,1.6,2c1.3-0.7,2.4-1.5,3.2-2.4c0.8-0.9,1.2-1.9,1.2-3C343.2,80.4,343,79.8,342.7,79.1L342.7,79.1z"/>
		<path class="st1" d="M388.8,111.6V78.3h-12.4v-5.8h31v5.8h-12.2v33.3H388.8z"/>
		<path class="st1" d="M437.8,97.5c0,2.5-0.3,4.7-0.9,6.6c-0.6,1.9-1.4,3.5-2.6,4.8c-1.1,1.3-2.5,2.3-4.1,2.9c-1.6,0.7-3.5,1-5.5,1
			c-4.1,0-7.3-1.3-9.6-3.9c-2.3-2.6-3.4-6.4-3.4-11.4c0-2.5,0.3-4.7,0.9-6.6c0.6-1.9,1.4-3.5,2.6-4.8c1.1-1.3,2.5-2.3,4.1-2.9
			c1.6-0.7,3.4-1,5.4-1c2,0,3.9,0.3,5.5,1c1.6,0.7,3,1.6,4.1,2.9c1.1,1.3,2,2.9,2.6,4.8C437.5,92.9,437.8,95,437.8,97.5z
			 M431.9,97.5c0-1.2-0.2-2.4-0.5-3.6c-0.3-1.1-0.8-2.1-1.4-3c-0.6-0.9-1.3-1.6-2.2-2.1c-0.9-0.5-1.9-0.8-3.1-0.8
			c-1,0-2,0.2-2.9,0.7c-0.9,0.5-1.6,1.1-2.2,1.9c-0.6,0.8-1.1,1.8-1.4,3c-0.3,1.2-0.5,2.4-0.5,3.8c0,1.3,0.2,2.6,0.5,3.7
			c0.3,1.2,0.8,2.2,1.4,3c0.6,0.9,1.4,1.5,2.2,2c0.9,0.5,1.8,0.7,2.9,0.7c1.1,0,2.1-0.3,3-0.8c0.9-0.5,1.6-1.2,2.2-2.1
			c0.6-0.9,1.1-1.9,1.4-3C431.7,100,431.9,98.8,431.9,97.5z"/>
		<path class="st1" d="M468.4,111.6h-5.7l-0.1-1.6c-1,1-2.1,1.7-3.3,2.2c-1.2,0.4-2.8,0.6-4.6,0.6c-1.6,0-2.9-0.2-4-0.5
			c-1.1-0.3-2-0.8-2.8-1.4c-0.8-0.6-1.3-1.4-1.7-2.3c-0.4-0.9-0.7-2-0.8-3.2V83h5.9v19.9c0,1.4,0.3,2.5,1,3.3
			c0.7,0.8,1.7,1.1,3.1,1.1h0.4c1.1,0,2.1-0.2,3-0.6c0.9-0.4,1.6-1,2.1-1.8c0.6-0.8,1-1.7,1.3-2.8c0.3-1.1,0.4-2.3,0.4-3.6V83h5.9
			V111.6z"/>
		<path class="st1" d="M477.6,111.6V83h5.9v2.6c0.8-1,1.8-1.9,2.7-2.5c1-0.6,1.9-0.9,2.8-0.9h3.2v6.1c-5.8,0-8.7,2.8-8.7,8.5v14.8
			H477.6z"/>
		<path class="st1" d="M501,102.2c0.1,1.8,0.8,3.1,2,4.1c1.2,1,3.1,1.4,5.7,1.4c0.4-0.1,0.9-0.2,1.4-0.3c0.5-0.1,1-0.4,1.5-0.6
			c0.5-0.3,0.9-0.7,1.2-1.1c0.3-0.5,0.5-1,0.5-1.7c0-0.9-0.3-1.5-1-2c-0.6-0.4-1.5-0.8-2.7-1.1c-1.1-0.3-2.4-0.6-4-0.9
			c-1.5-0.3-3.2-0.8-4.9-1.5c-1.5-0.5-2.6-1.4-3.4-2.7c-0.7-1.3-1.1-2.8-1.1-4.5c0-1.4,0.3-2.6,0.8-3.7c0.6-1.1,1.3-2,2.3-2.8
			c1-0.8,2.1-1.4,3.4-1.8c1.3-0.4,2.7-0.6,4.2-0.6c7.1,0,10.7,3.3,10.8,9.8H512c0-2.8-1.8-4.3-5.4-4.3c-0.6,0-1.2,0.1-1.8,0.3
			c-0.6,0.2-1.1,0.4-1.5,0.7c-0.4,0.3-0.8,0.7-1.1,1.1c-0.3,0.4-0.4,0.8-0.4,1.3c0,0.9,0.6,1.7,1.9,2.2c1.3,0.5,3.1,1,5.4,1.5
			c2,0.5,3.6,1,4.8,1.5c1.3,0.5,2.3,1.1,3,1.7c0.7,0.6,1.3,1.4,1.6,2.2c0.3,0.9,0.4,1.9,0.4,3.1v0.2c0,1.3-0.3,2.5-0.8,3.6
			c-0.6,1.1-1.3,2.1-2.3,2.9c-1,0.8-2.1,1.5-3.3,2c-1.3,0.5-2.6,0.7-4.1,0.7h-0.1c-0.1,0-0.2,0-0.4,0c-0.1,0-0.3,0-0.4,0h-0.7
			c-3.9,0-6.7-0.9-8.6-2.7c-1.9-1.8-2.8-4.5-2.8-8.1H501z"/>
	</g>
</g>
<g>
	<path class="st0" d="M799.6,88c4.5,52.9-34.8,99.3-87.6,103.8c-52.9,4.5-99.3-34.8-103.8-87.6C603.8,51.3,643,4.8,695.9,0.3
		C748.7-4.1,795.2,35.1,799.6,88z"/>
	<g>
		<path class="st2" d="M788.1,149.3c-75.3-6.2-131.5-72.5-125.3-147.7l5.3,0.4c-5.9,72.3,48.1,136,120.4,142L788.1,149.3z"/>
	</g>
	<g>
		<path class="st1" d="M845.1,152.1c2.9,0,5.2-1.4,5.2-3.1c0-1.6-2.2-2.9-4.9-3l-19.5-2L804.6,118l-6.9-0.1l13.8,25.6l-25.6,0.2
			l-6.8-7.6l-4.3-0.2l6.2,9.3l-2.9,1.2l3.2,1.3l-7.3,9l4.6-0.5l7.3-6.6l26,1.5l-16.1,23.6l6,0.4l24.5-22.6c0,0,14.6-0.1,18.6-0.4
			C845,152.1,845.1,152.1,845.1,152.1z"/>
		<polygon class="st1" points="826.6,141 818.3,141.7 818,138.3 826.3,137.6 		"/>
		<polygon class="st1" points="825.5,159.6 817.3,158.5 817.8,155.1 826,156.3 		"/>
	</g>
</g>
<g>
	<g>
		<path class="st1" d="M936.4,111.6h-6.5c-4.7,0-8.5-3.2-9.7-7.9c-1.9,2.7-4.2,4-6.8,4c-6.8,0-11.1-5.1-11.1-12.6
			c0-8,4.2-13,11.1-13h13.2v17c0,4.2,2,6.4,6,6.4h3.8V111.6z M920.4,94.6v-7.8H915c-4.2,0-6.7,3.3-6.7,8.3c0,4.1,2.3,7.7,5.9,7.7
			C918,102.8,920.4,99.1,920.4,94.6z M916,77.8h-5.9v-6h5.9V77.8z M926.1,77.8h-5.9v-6h5.9V77.8z"/>
		<path class="st1" d="M972.2,107.9v3.7h-37.7v-6.1h31.2c0-3.3-0.9-6.2-2.8-8.5c-2.2-2.7-5.3-4.1-9.2-4.1c-1.3,0-2.8,0.3-4.5,1
			c-1.9,0.8-3.5,1.9-4.8,3.4c-0.6-1.1-1.6-2.7-2.9-4.7c1.7-1.6,3.5-2.8,5.7-3.8c2.4-1,4.7-1.5,7.1-1.5c4,0,7.4,1,10.3,2.9
			C969.7,93.7,972.2,99.5,972.2,107.9z"/>
		<path class="st1" d="M993.5,111.6h-7c-2.9,0-5.1-0.9-6.6-2.8c-1.4-1.7-2.1-4-2.1-7V77.1h5.9v22.4c0,2.6,0.6,4.3,1.7,5.1
			c0.8,0.6,2.4,0.9,4.6,0.9h3.5V111.6z"/>
		<path class="st1" d="M997.1,123.4h-5.9v-6h5.9V123.4z M1016.1,111.6h-24.7v-6.1h5.7c1.8,0,3-0.6,3.6-1.8c0.4-0.8,0.6-2.2,0.6-4.1
			V87.4h5.9v12c0,3.2-0.4,5.2-1.3,6.2h10.1V111.6z M1007.2,123.4h-5.9v-6h5.9V123.4z"/>
		<path class="st1" d="M1014.4,111.6v-6.1h5.5c3,0,4.5-2.1,4.5-6.3V87.4h6V99c0,3.2-0.3,5.2-1,6.2v0.3h5.6c3,0,4.5-2,4.5-5.9V87.4h6
			V99c0,3.5-0.4,5.7-1.2,6.5h5.8c3,0,4.5-2,4.5-5.9V87.4h6v11.6c0,2.5-0.4,4.7-1.3,6.6h9.1v6.1H1014.4z"/>
		<path class="st1" d="M1082.1,102c0,6.5-3,9.7-9,9.7h-6.3v-6.1h5.1c2,0,3.2-0.6,3.8-1.8c0.3-0.6,0.4-1.9,0.4-3.9V77.1h6V102z"/>
		<path class="st1" d="M1093.6,111.6h-5.9V77.1h5.9V111.6z"/>
		<path class="st1" d="M1121.6,110.9c0,6.4-3.9,9.6-11.6,9.6v-4.8c3.7-0.1,5.6-2.6,5.7-6.8c-1,1.8-2.9,2.7-5.7,2.7
			c-6.9,0-11.5-5.1-11.5-12.2c0-7.2,4.8-12.1,11.5-12.1c7.1,0,11.6,5.2,11.6,12.3V110.9z M1115.5,99.7c0-4.2-2.2-7-5.7-7
			c-3.2,0-5.2,3-5.2,6.7c0,3.7,2.2,6.8,5.5,6.8C1113.3,106.2,1115.5,103.2,1115.5,99.7z"/>
		<path class="st0" d="M1161.1,111.6h-9.6c-0.9,5.7-5.8,8.9-13.1,8.9v-5.1c5,0,7.4-2.5,7.4-7.6V87.4h6v18.2h9.2V111.6z"/>
		<path class="st0" d="M1195.3,111.6h-5.9c-5.1,0-9.1-1-11.9-2.9c-2.8,2-6.7,2.9-11.8,2.9h-6.6v-6.1h6.3c2.7,0,4.3-0.2,5-0.6
			c-1.7-1.3-3.1-2.9-4-4.9c-0.8-1.8-1.2-3.6-1.2-5.6c0-1.4,0.2-2.6,0.6-3.7c2-5.1,6.4-8.2,11.8-8.2c6,0,12.5,4.1,12.5,11.7
			c0,2-0.4,3.9-1.3,5.7c-0.9,2.1-2.2,3.7-3.9,5c0.6,0.4,2.2,0.6,5,0.6h5.6V111.6z M1180.7,100.8c2.4-1.7,3.5-4,3.5-6.8
			c0-1.9-0.5-3.4-1.7-4.7c-1.2-1.3-2.9-2-5.1-2c-2.2,0-3.9,0.7-5.1,2c-1.1,1.2-1.7,2.8-1.7,4.7c0,2.8,1.2,5.1,3.5,6.8
			c1,0.7,2.1,1.4,3.3,2C1178.7,102.1,1179.8,101.5,1180.7,100.8z M1180.1,78.4h-5.9v-6h5.9V78.4z"/>
		<path class="st0" d="M1193.1,111.6v-6.1h5.5c3,0,4.5-2.1,4.5-6.3V87.4h6V99c0,3.2-0.3,5.2-1,6.2v0.3h5.6c3,0,4.5-2,4.5-5.9V87.4h6
			V99c0,3.5-0.4,5.7-1.2,6.5h5.8c3,0,4.5-2,4.5-5.9V87.4h6v11.6c0,2.5-0.4,4.7-1.3,6.6h9.1v6.1H1193.1z"/>
		<path class="st0" d="M1270.1,111.6h-24.5v-6.1h5.6c1.8,0,2.9-0.6,3.6-1.8c0.4-0.8,0.6-2.2,0.6-4.1V77.1h5.9v22.2
			c0,3.2-0.4,5.2-1.3,6.2h10.1V111.6z"/>
		<path class="st0" d="M1283.9,102c0,6.5-3,9.7-9,9.7h-6.3v-6.1h5.1c2,0,3.2-0.6,3.8-1.8c0.3-0.6,0.4-1.9,0.4-3.9V77.1h6V102z"/>
		<path class="st0" d="M1336.2,111.6h-1.4c-4.1,0-7.6-1.4-10.5-4.2c-2.3-2.2-3.6-4.7-4.1-7.3h-7.2c-4.1,0-6.8,2.8-6.8,7.3
			c0,2,0.6,3.6,2,4.8s3,1.9,4.9,1.9h6.5v6.3h-4.3c-4.4,0-8-1-10.6-3c-2.9-2.4-4.4-5.7-4.4-10.2s1.2-7.8,3.7-10.1
			c2.2-2.1,5.2-3.1,8.9-3.1h6.6c-1-5.9-4.1-8.4-9.4-8.4c-2,0-3.4,0.4-4.2,0.9v-5.1c1.1-0.5,2.7-0.9,4.6-0.9c9,0,14.2,4.5,15.4,14.9
			c0.5,3.9,1.8,6.7,4,8.4c1.5,1.2,3.2,1.8,5.1,1.8h1.4V111.6z M1317.9,110.2h-5.9v-5.9h5.9V110.2z"/>
		<path class="st0" d="M1346.3,111.6h-11.8v-6.1h11.8V111.6z"/>
		<path class="st0" d="M1356.9,111.6h-11.8v-6.1h11.8V111.6z"/>
		<path class="st0" d="M1367.5,111.6h-11.8v-6.1h11.8V111.6z"/>
		<path class="st0" d="M1378.1,111.6h-11.8v-6.1h11.8V111.6z"/>
		<path class="st0" d="M1382.1,123.4h-5.9v-6h5.9V123.4z M1392.4,102c0,6.5-3,9.7-8.9,9.7h-6.3v-6.1h5c2,0,3.2-0.6,3.8-1.8
			c0.3-0.6,0.4-1.9,0.4-3.9V87.4h6V102z M1392.2,123.4h-5.9v-6h5.9V123.4z"/>
		<path class="st0" d="M1409.8,87.4v19.5c0,9.6-4.2,13.6-13.4,13.6v-5.1c5,0,7.4-2.5,7.4-7.6V87.4H1409.8z"/>
		<path class="st0" d="M1422.7,74.4h-9.3v-2.5h2.1c-0.3-1-0.5-1.6-0.5-1.9c0-2.5,1.9-4.3,4.2-4.3c1.5,0,2.6,0.8,3.4,2.4l-1.9,1
			c-0.2-0.8-0.7-1.2-1.5-1.2c-1.1,0-1.8,1-1.8,2c0,0.9,0.3,1.6,1,2h4.3V74.4z M1421.2,111.6h-5.9V77.1h5.9V111.6z"/>
	</g>
</g>
</svg>
