<?xml version="1.0" encoding="UTF-8"?>
<svg xmlns="http://www.w3.org/2000/svg" xmlns:xlink="http://www.w3.org/1999/xlink" width="350px" height="51px" viewBox="0 0 350 51" version="1.1">
<g id="surface1">
<path style=" stroke:none;fill-rule:evenodd;fill:rgb(9.803922%,25.882354%,60.000002%);fill-opacity:1;" d="M 10 20.488281 L 13.230469 29.9375 L 11.246094 29.9375 L 10.605469 28.050781 L 7.105469 28.050781 L 6.453125 29.9375 L 4.46875 29.9375 L 7.757812 20.488281 Z M 8.886719 22.753906 L 7.71875 26.425781 L 10.132812 26.425781 Z M 8.886719 22.753906 "/>
<path style=" stroke:none;fill-rule:nonzero;fill:rgb(9.803922%,25.882354%,60.000002%);fill-opacity:1;" d="M 14.300781 29.9375 L 14.300781 22.914062 L 16.105469 22.914062 L 16.105469 24.277344 L 16.132812 24.277344 C 16.257812 23.859375 16.539062 23.492188 16.980469 23.171875 C 17.347656 22.902344 17.695312 22.769531 18.019531 22.769531 C 18.097656 22.769531 18.179688 22.777344 18.269531 22.796875 L 18.269531 24.644531 C 18.011719 24.621094 17.800781 24.609375 17.648438 24.609375 C 16.75 24.609375 16.238281 25.066406 16.105469 25.980469 L 16.105469 29.9375 Z M 14.300781 29.9375 "/>
<path style=" stroke:none;fill-rule:evenodd;fill:rgb(9.803922%,25.882354%,60.000002%);fill-opacity:1;" d="M 25.304688 26.996094 L 20.648438 26.996094 C 20.59375 27.484375 20.667969 27.859375 20.863281 28.121094 C 21.171875 28.554688 21.578125 28.773438 22.089844 28.773438 C 22.410156 28.773438 22.703125 28.691406 22.96875 28.527344 C 23.230469 28.363281 23.386719 28.171875 23.4375 27.957031 L 25.226562 27.957031 C 25.078125 28.601562 24.65625 29.148438 23.96875 29.597656 C 23.332031 30.023438 22.6875 30.234375 22.027344 30.234375 C 21.351562 30.234375 20.742188 30.058594 20.203125 29.707031 C 19.566406 29.292969 19.148438 28.734375 18.949219 28.03125 C 18.890625 27.828125 18.84375 27.542969 18.8125 27.175781 C 18.773438 26.667969 18.792969 26.167969 18.875 25.667969 C 19.195312 23.753906 20.25 22.796875 22.039062 22.796875 C 23.242188 22.796875 24.132812 23.261719 24.710938 24.1875 C 25.113281 24.832031 25.3125 25.59375 25.3125 26.480469 C 25.3125 26.617188 25.3125 26.789062 25.304688 26.996094 Z M 20.648438 25.785156 L 23.425781 25.785156 C 23.425781 24.84375 23 24.355469 22.152344 24.3125 C 21.648438 24.289062 21.257812 24.445312 20.976562 24.777344 C 20.746094 25.054688 20.636719 25.390625 20.648438 25.785156 Z M 20.648438 25.785156 "/>
<path style=" stroke:none;fill-rule:evenodd;fill:rgb(9.803922%,25.882354%,60.000002%);fill-opacity:1;" d="M 32.507812 26.996094 L 27.851562 26.996094 C 27.796875 27.484375 27.871094 27.859375 28.066406 28.121094 C 28.375 28.554688 28.78125 28.773438 29.292969 28.773438 C 29.613281 28.773438 29.90625 28.691406 30.171875 28.527344 C 30.433594 28.363281 30.589844 28.171875 30.636719 27.957031 L 32.425781 27.957031 C 32.277344 28.601562 31.859375 29.148438 31.171875 29.597656 C 30.539062 30.023438 29.890625 30.234375 29.230469 30.234375 C 28.554688 30.234375 27.945312 30.058594 27.40625 29.707031 C 26.769531 29.292969 26.351562 28.734375 26.148438 28.03125 C 26.089844 27.828125 26.046875 27.542969 26.015625 27.175781 C 25.972656 26.667969 25.996094 26.167969 26.078125 25.667969 C 26.398438 23.753906 27.453125 22.796875 29.238281 22.796875 C 30.445312 22.796875 31.335938 23.261719 31.910156 24.1875 C 32.3125 24.832031 32.515625 25.59375 32.515625 26.480469 C 32.515625 26.617188 32.511719 26.789062 32.507812 26.996094 Z M 27.851562 25.785156 L 30.628906 25.785156 C 30.628906 24.84375 30.203125 24.355469 29.355469 24.3125 C 28.851562 24.289062 28.457031 24.445312 28.179688 24.777344 C 27.949219 25.054688 27.839844 25.390625 27.851562 25.785156 Z M 27.851562 25.785156 "/>
<path style=" stroke:none;fill-rule:nonzero;fill:rgb(9.803922%,25.882354%,60.000002%);fill-opacity:1;" d="M 33.835938 30.792969 L 33.835938 22.914062 L 35.640625 22.914062 L 35.640625 31.25 C 35.640625 31.589844 35.542969 31.894531 35.347656 32.171875 C 35.152344 32.449219 34.898438 32.617188 34.582031 32.675781 C 34.203125 32.75 33.667969 32.785156 32.980469 32.785156 L 32.980469 31.285156 C 33.289062 31.285156 33.46875 31.277344 33.523438 31.257812 C 33.730469 31.210938 33.835938 31.054688 33.835938 30.792969 Z M 33.835938 22.109375 L 33.835938 20.488281 L 35.640625 20.488281 L 35.640625 22.109375 Z M 33.835938 22.109375 "/>
<path style=" stroke:none;fill-rule:nonzero;fill:rgb(9.803922%,25.882354%,60.000002%);fill-opacity:1;" d="M 40.378906 20.488281 L 47.9375 20.488281 L 47.9375 22.109375 L 45.167969 22.109375 L 45.167969 29.9375 L 43.234375 29.9375 L 43.234375 22.109375 L 40.378906 22.109375 Z M 40.378906 20.488281 "/>
<path style=" stroke:none;fill-rule:nonzero;fill:rgb(9.803922%,25.882354%,60.000002%);fill-opacity:1;" d="M 48.914062 29.9375 L 48.914062 22.914062 L 50.726562 22.914062 L 50.726562 24.277344 L 50.75 24.277344 C 50.875 23.859375 51.15625 23.492188 51.597656 23.171875 C 51.964844 22.902344 52.3125 22.769531 52.640625 22.769531 C 52.714844 22.769531 52.796875 22.777344 52.886719 22.796875 L 52.886719 24.644531 C 52.625 24.621094 52.417969 24.609375 52.265625 24.609375 C 51.367188 24.609375 50.855469 25.066406 50.726562 25.980469 L 50.726562 29.9375 Z M 48.914062 29.9375 "/>
<path style=" stroke:none;fill-rule:evenodd;fill:rgb(9.803922%,25.882354%,60.000002%);fill-opacity:1;" d="M 59.921875 29.9375 L 58.003906 29.9375 C 57.859375 29.75 57.792969 29.515625 57.8125 29.234375 C 57.449219 29.578125 57.125 29.820312 56.839844 29.964844 C 56.480469 30.144531 56.050781 30.234375 55.558594 30.234375 C 54.128906 30.234375 53.4375 29.515625 53.484375 28.078125 C 53.539062 26.824219 54.214844 26.082031 55.523438 25.855469 C 56.1875 25.832031 56.796875 25.722656 57.347656 25.535156 C 57.664062 25.421875 57.8125 25.15625 57.792969 24.738281 C 57.773438 24.3125 57.378906 24.097656 56.609375 24.097656 C 55.855469 24.097656 55.457031 24.484375 55.417969 25.25 L 53.707031 25.25 C 53.722656 23.617188 54.691406 22.796875 56.609375 22.796875 C 57.292969 22.796875 57.84375 22.882812 58.265625 23.054688 C 59.101562 23.402344 59.519531 24.058594 59.519531 25.027344 L 59.519531 28.859375 C 59.519531 29.175781 59.65625 29.449219 59.921875 29.6875 Z M 57.792969 27.03125 L 57.792969 26.628906 C 57.578125 26.761719 57.292969 26.855469 56.9375 26.90625 C 56.664062 26.941406 56.390625 26.976562 56.109375 27.007812 C 55.875 27.046875 55.675781 27.152344 55.515625 27.320312 C 55.359375 27.484375 55.28125 27.679688 55.28125 27.898438 C 55.28125 28.113281 55.339844 28.289062 55.460938 28.433594 C 55.601562 28.652344 55.84375 28.761719 56.191406 28.761719 C 56.296875 28.761719 56.410156 28.753906 56.527344 28.734375 C 57.371094 28.597656 57.792969 28.03125 57.792969 27.03125 Z M 57.792969 27.03125 "/>
<path style=" stroke:none;fill-rule:nonzero;fill:rgb(9.803922%,25.882354%,60.000002%);fill-opacity:1;" d="M 60.527344 22.914062 L 62.441406 22.914062 L 63.902344 28.058594 L 65.363281 22.914062 L 67.28125 22.914062 L 64.84375 29.9375 L 62.945312 29.9375 Z M 60.527344 22.914062 "/>
<path style=" stroke:none;fill-rule:evenodd;fill:rgb(9.803922%,25.882354%,60.000002%);fill-opacity:1;" d="M 74.328125 26.996094 L 69.671875 26.996094 C 69.617188 27.484375 69.6875 27.859375 69.882812 28.121094 C 70.191406 28.554688 70.601562 28.773438 71.113281 28.773438 C 71.433594 28.773438 71.726562 28.691406 71.988281 28.527344 C 72.253906 28.363281 72.410156 28.171875 72.457031 27.957031 L 74.246094 27.957031 C 74.097656 28.601562 73.679688 29.148438 72.992188 29.597656 C 72.355469 30.023438 71.710938 30.234375 71.050781 30.234375 C 70.375 30.234375 69.765625 30.058594 69.222656 29.707031 C 68.589844 29.292969 68.171875 28.734375 67.96875 28.03125 C 67.910156 27.828125 67.867188 27.542969 67.835938 27.175781 C 67.792969 26.667969 67.816406 26.167969 67.898438 25.667969 C 68.21875 23.753906 69.273438 22.796875 71.058594 22.796875 C 72.261719 22.796875 73.152344 23.261719 73.730469 24.1875 C 74.132812 24.832031 74.335938 25.59375 74.335938 26.480469 C 74.335938 26.617188 74.332031 26.789062 74.328125 26.996094 Z M 69.671875 25.785156 L 72.449219 25.785156 C 72.449219 24.84375 72.023438 24.355469 71.175781 24.3125 C 70.671875 24.289062 70.277344 24.445312 70 24.777344 C 69.769531 25.054688 69.65625 25.390625 69.671875 25.785156 Z M 69.671875 25.785156 "/>
<path style=" stroke:none;fill-rule:nonzero;fill:rgb(9.803922%,25.882354%,60.000002%);fill-opacity:1;" d="M 75.609375 20.488281 L 77.425781 20.488281 L 77.425781 29.9375 L 75.609375 29.9375 Z M 75.609375 20.488281 "/>
<path style=" stroke:none;fill-rule:evenodd;fill:rgb(57.647061%,58.431375%,59.607846%);fill-opacity:1;" d="M 89.703125 25.578125 C 89.703125 26.238281 89.453125 26.972656 88.957031 27.78125 L 90.71875 29.921875 L 88.820312 29.921875 L 88.089844 29.046875 C 87.878906 29.269531 87.675781 29.453125 87.480469 29.605469 C 87.289062 29.757812 87.085938 29.878906 86.875 29.96875 C 86.664062 30.0625 86.441406 30.128906 86.199219 30.171875 C 85.960938 30.210938 85.683594 30.234375 85.375 30.234375 C 84.957031 30.234375 84.578125 30.164062 84.238281 30.027344 C 83.90625 29.890625 83.621094 29.707031 83.382812 29.472656 C 83.144531 29.234375 82.957031 28.960938 82.824219 28.652344 C 82.691406 28.339844 82.621094 28.007812 82.605469 27.65625 L 82.605469 27.511719 C 82.605469 27.222656 82.632812 26.957031 82.691406 26.71875 C 82.75 26.476562 82.835938 26.253906 82.949219 26.054688 C 83.066406 25.855469 83.214844 25.671875 83.394531 25.496094 C 83.574219 25.320312 83.792969 25.144531 84.050781 24.972656 L 84.574219 24.609375 L 84.246094 24.167969 C 83.871094 23.628906 83.683594 23.09375 83.683594 22.566406 C 83.683594 22.273438 83.742188 22 83.859375 21.734375 C 83.972656 21.472656 84.136719 21.246094 84.347656 21.050781 C 84.558594 20.855469 84.808594 20.699219 85.105469 20.582031 C 85.398438 20.464844 85.71875 20.40625 86.070312 20.40625 C 86.398438 20.40625 86.703125 20.472656 86.984375 20.601562 C 87.265625 20.726562 87.507812 20.890625 87.714844 21.09375 C 87.917969 21.296875 88.078125 21.527344 88.195312 21.78125 C 88.308594 22.035156 88.367188 22.292969 88.367188 22.546875 C 88.367188 22.976562 88.265625 23.355469 88.066406 23.691406 C 87.863281 24.027344 87.5625 24.328125 87.167969 24.589844 L 86.660156 24.917969 L 88.019531 26.613281 C 88.203125 26.148438 88.296875 25.777344 88.296875 25.496094 L 88.296875 25.265625 L 89.703125 25.265625 Z M 85.542969 28.859375 C 85.722656 28.847656 85.882812 28.828125 86.023438 28.789062 C 86.167969 28.753906 86.304688 28.703125 86.441406 28.632812 C 86.574219 28.566406 86.707031 28.480469 86.84375 28.375 C 86.976562 28.273438 87.117188 28.148438 87.273438 28.007812 L 85.414062 25.671875 C 85.132812 25.847656 84.90625 26.007812 84.730469 26.140625 C 84.554688 26.277344 84.417969 26.410156 84.320312 26.539062 C 84.222656 26.667969 84.15625 26.796875 84.121094 26.929688 C 84.085938 27.066406 84.066406 27.214844 84.066406 27.382812 L 84.066406 27.515625 C 84.066406 27.695312 84.109375 27.863281 84.191406 28.027344 C 84.277344 28.191406 84.382812 28.335938 84.515625 28.457031 C 84.648438 28.578125 84.800781 28.675781 84.976562 28.75 C 85.148438 28.824219 85.324219 28.863281 85.507812 28.859375 Z M 86.800781 22.101562 C 86.695312 21.8125 86.425781 21.664062 86 21.664062 C 85.394531 21.664062 85.09375 21.976562 85.09375 22.605469 C 85.089844 22.699219 85.097656 22.777344 85.113281 22.847656 C 85.128906 22.914062 85.152344 22.980469 85.183594 23.039062 C 85.210938 23.097656 85.246094 23.15625 85.292969 23.210938 C 85.335938 23.269531 85.390625 23.335938 85.457031 23.40625 C 85.5 23.496094 85.625 23.652344 85.839844 23.875 C 86.160156 23.714844 86.417969 23.523438 86.613281 23.300781 C 86.8125 23.078125 86.910156 22.839844 86.910156 22.585938 C 86.910156 22.429688 86.871094 22.277344 86.800781 22.121094 Z M 86.800781 22.101562 "/>
<path style=" stroke:none;fill-rule:nonzero;fill:rgb(57.647061%,58.431375%,59.607846%);fill-opacity:1;" d="M 97.867188 29.9375 L 97.867188 21.921875 L 94.894531 21.921875 L 94.894531 20.53125 L 102.339844 20.53125 L 102.339844 21.921875 L 99.398438 21.921875 L 99.398438 29.9375 Z M 97.867188 29.9375 "/>
<path style=" stroke:none;fill-rule:evenodd;fill:rgb(57.647061%,58.431375%,59.607846%);fill-opacity:1;" d="M 109.628906 26.542969 C 109.628906 27.140625 109.558594 27.671875 109.414062 28.128906 C 109.273438 28.585938 109.066406 28.972656 108.800781 29.285156 C 108.535156 29.597656 108.207031 29.832031 107.816406 29.992188 C 107.429688 30.152344 106.988281 30.234375 106.496094 30.234375 C 105.507812 30.234375 104.742188 29.921875 104.199219 29.292969 C 103.652344 28.664062 103.378906 27.75 103.378906 26.542969 C 103.378906 25.949219 103.449219 25.421875 103.59375 24.964844 C 103.734375 24.507812 103.941406 24.121094 104.207031 23.808594 C 104.476562 23.496094 104.800781 23.261719 105.183594 23.105469 C 105.570312 22.945312 106.007812 22.867188 106.496094 22.867188 C 106.988281 22.867188 107.429688 22.945312 107.816406 23.105469 C 108.207031 23.261719 108.535156 23.496094 108.800781 23.808594 C 109.066406 24.121094 109.273438 24.507812 109.414062 24.964844 C 109.558594 25.421875 109.628906 25.949219 109.628906 26.542969 Z M 108.214844 26.542969 C 108.214844 26.246094 108.175781 25.960938 108.101562 25.683594 C 108.027344 25.414062 107.917969 25.171875 107.777344 24.964844 C 107.632812 24.753906 107.457031 24.589844 107.242188 24.464844 C 107.027344 24.339844 106.777344 24.277344 106.496094 24.277344 C 106.246094 24.277344 106.019531 24.335938 105.808594 24.445312 C 105.601562 24.558594 105.421875 24.714844 105.277344 24.914062 C 105.128906 25.113281 105.011719 25.351562 104.929688 25.632812 C 104.84375 25.910156 104.804688 26.214844 104.804688 26.542969 C 104.804688 26.863281 104.84375 27.164062 104.921875 27.445312 C 105.003906 27.722656 105.117188 27.964844 105.265625 28.171875 C 105.414062 28.375 105.589844 28.535156 105.800781 28.652344 C 106.007812 28.765625 106.238281 28.824219 106.496094 28.824219 C 106.761719 28.824219 107.003906 28.765625 107.21875 28.640625 C 107.429688 28.519531 107.609375 28.355469 107.753906 28.144531 C 107.902344 27.9375 108.015625 27.695312 108.09375 27.417969 C 108.175781 27.144531 108.214844 26.851562 108.214844 26.542969 Z M 108.214844 26.542969 "/>
<path style=" stroke:none;fill-rule:nonzero;fill:rgb(57.647061%,58.431375%,59.607846%);fill-opacity:1;" d="M 116.980469 29.9375 L 115.613281 29.9375 L 115.578125 29.554688 C 115.34375 29.800781 115.082031 29.972656 114.785156 30.078125 C 114.488281 30.179688 114.121094 30.234375 113.679688 30.234375 C 113.304688 30.234375 112.988281 30.195312 112.722656 30.113281 C 112.457031 30.035156 112.234375 29.917969 112.054688 29.765625 C 111.875 29.613281 111.734375 29.425781 111.636719 29.203125 C 111.539062 28.980469 111.472656 28.726562 111.433594 28.441406 L 111.433594 23.054688 L 112.84375 23.054688 L 112.84375 27.832031 C 112.84375 28.171875 112.925781 28.4375 113.089844 28.621094 C 113.25 28.804688 113.503906 28.898438 113.839844 28.898438 L 113.9375 28.898438 C 114.210938 28.898438 114.449219 28.847656 114.65625 28.746094 C 114.859375 28.644531 115.03125 28.5 115.167969 28.3125 C 115.304688 28.125 115.40625 27.902344 115.472656 27.644531 C 115.542969 27.382812 115.578125 27.097656 115.578125 26.78125 L 115.578125 23.054688 L 116.980469 23.054688 Z M 116.980469 29.9375 "/>
<path style=" stroke:none;fill-rule:nonzero;fill:rgb(57.647061%,58.431375%,59.607846%);fill-opacity:1;" d="M 119.191406 29.9375 L 119.191406 23.054688 L 120.597656 23.054688 L 120.597656 23.679688 C 120.800781 23.429688 121.019531 23.234375 121.257812 23.085938 C 121.496094 22.941406 121.71875 22.867188 121.921875 22.867188 L 122.691406 22.867188 L 122.691406 24.332031 C 121.292969 24.332031 120.597656 25.015625 120.597656 26.378906 L 120.597656 29.9375 Z M 119.191406 29.9375 "/>
<path style=" stroke:none;fill-rule:nonzero;fill:rgb(57.647061%,58.431375%,59.607846%);fill-opacity:1;" d="M 124.808594 27.65625 C 124.839844 28.082031 124.996094 28.414062 125.28125 28.648438 C 125.566406 28.878906 126.023438 28.992188 126.652344 28.992188 C 126.746094 28.976562 126.859375 28.949219 126.988281 28.914062 C 127.113281 28.878906 127.234375 28.828125 127.351562 28.757812 C 127.46875 28.691406 127.566406 28.601562 127.644531 28.492188 C 127.726562 28.378906 127.765625 28.242188 127.765625 28.078125 C 127.765625 27.863281 127.6875 27.703125 127.535156 27.601562 C 127.378906 27.5 127.167969 27.414062 126.894531 27.34375 C 126.628906 27.273438 126.308594 27.195312 125.945312 27.117188 C 125.578125 27.035156 125.183594 26.914062 124.753906 26.746094 C 124.394531 26.621094 124.125 26.40625 123.945312 26.097656 C 123.769531 25.785156 123.679688 25.425781 123.679688 25.007812 C 123.679688 24.683594 123.746094 24.386719 123.878906 24.125 C 124.011719 23.863281 124.195312 23.640625 124.425781 23.453125 C 124.660156 23.265625 124.933594 23.121094 125.246094 23.019531 C 125.558594 22.917969 125.894531 22.867188 126.253906 22.867188 C 127.957031 22.867188 128.820312 23.65625 128.84375 25.230469 L 127.472656 25.230469 C 127.472656 24.546875 127.035156 24.207031 126.164062 24.207031 C 126.007812 24.207031 125.863281 24.226562 125.726562 24.273438 C 125.589844 24.316406 125.46875 24.378906 125.359375 24.449219 C 125.253906 24.523438 125.167969 24.609375 125.105469 24.707031 C 125.046875 24.808594 125.015625 24.914062 125.015625 25.027344 C 125.015625 25.253906 125.167969 25.425781 125.472656 25.546875 C 125.777344 25.671875 126.210938 25.785156 126.769531 25.898438 C 127.238281 26.023438 127.625 26.144531 127.929688 26.265625 C 128.234375 26.382812 128.476562 26.519531 128.65625 26.671875 C 128.835938 26.824219 128.957031 27 129.027344 27.207031 C 129.101562 27.410156 129.136719 27.660156 129.136719 27.953125 L 129.136719 28.003906 C 129.136719 28.3125 129.070312 28.601562 128.933594 28.871094 C 128.800781 29.144531 128.621094 29.378906 128.394531 29.582031 C 128.164062 29.785156 127.898438 29.941406 127.59375 30.058594 C 127.285156 30.175781 126.960938 30.234375 126.617188 30.234375 L 126.582031 30.234375 C 126.558594 30.234375 126.527344 30.238281 126.492188 30.242188 C 126.457031 30.246094 126.425781 30.25 126.402344 30.25 L 126.234375 30.25 C 125.308594 30.25 124.621094 30.03125 124.171875 29.597656 C 123.722656 29.160156 123.5 28.511719 123.5 27.65625 Z M 124.808594 27.65625 "/>
<path style=" stroke:none;fill-rule:evenodd;fill:rgb(57.647061%,58.431375%,59.607846%);fill-opacity:1;" d="M 227.550781 28.015625 L 227.550781 29.925781 L 224.742188 29.925781 L 224.507812 28.785156 L 223.953125 29.6875 L 220.808594 29.230469 L 221.441406 27.289062 C 221.535156 27.019531 221.703125 26.8125 221.949219 26.675781 L 223.847656 25.667969 L 223.765625 25.34375 L 225.09375 24.1875 L 225.898438 28.015625 Z M 224.285156 27.804688 L 224.050781 26.65625 L 222.453125 27.539062 Z M 226.050781 22.113281 L 225.089844 22.96875 L 224.402344 22.382812 L 223.777344 22.96875 L 222.585938 21.855469 L 223.480469 21.007812 L 224.152344 21.597656 L 224.816406 21.007812 Z M 226.050781 22.113281 "/>
<path style=" stroke:none;fill-rule:nonzero;fill:rgb(57.647061%,58.431375%,59.607846%);fill-opacity:1;" d="M 236.59375 27.273438 L 235.464844 29.046875 C 234.894531 28.921875 234.386719 28.855469 233.941406 28.855469 C 233.3125 28.855469 232.769531 29.066406 232.300781 29.492188 C 232.148438 29.621094 232.035156 29.714844 231.964844 29.769531 C 231.832031 29.871094 231.605469 29.925781 231.292969 29.925781 L 227.359375 29.925781 L 227.359375 28.015625 L 232.433594 28.015625 C 232.082031 27.902344 231.65625 27.699219 231.167969 27.40625 C 230.546875 27.039062 230.0625 26.855469 229.71875 26.855469 C 229.613281 26.855469 229.453125 26.878906 229.242188 26.933594 C 229.320312 26.832031 229.519531 26.597656 229.84375 26.230469 C 230.035156 26.023438 230.203125 25.851562 230.34375 25.710938 C 230.59375 25.476562 230.828125 25.359375 231.042969 25.359375 C 231.269531 25.359375 231.574219 25.460938 231.957031 25.667969 L 232.84375 26.140625 C 233.609375 26.546875 234.261719 26.832031 234.800781 26.992188 C 235.242188 27.136719 235.839844 27.226562 236.59375 27.273438 Z M 236.59375 27.273438 "/>
<path style=" stroke:none;fill-rule:nonzero;fill:rgb(57.647061%,58.431375%,59.607846%);fill-opacity:1;" d="M 240.902344 28.015625 L 240.902344 29.925781 L 238.375 29.925781 C 237.855469 29.925781 237.59375 29.714844 237.59375 29.296875 L 237.59375 28.9375 L 237.578125 28.6875 L 237.578125 23.539062 L 239.109375 21.921875 L 239.109375 27.300781 C 239.109375 27.605469 239.136719 27.800781 239.1875 27.890625 C 239.238281 27.972656 239.402344 28.015625 239.683594 28.015625 Z M 240.902344 28.015625 "/>
<path style=" stroke:none;fill-rule:nonzero;fill:rgb(57.647061%,58.431375%,59.607846%);fill-opacity:1;" d="M 242.917969 29.925781 L 240.699219 29.925781 L 240.699219 28.015625 L 242.976562 28.015625 L 242.742188 27.25 L 243.90625 26.101562 L 244.464844 28.015625 L 246.027344 28.015625 L 246.027344 29.925781 L 243.550781 29.925781 L 243.367188 29.347656 Z M 241.726562 31.933594 L 242.683594 31.089844 L 243.367188 31.664062 L 243.992188 31.089844 L 245.191406 32.191406 L 244.28125 33.046875 L 243.609375 32.449219 L 242.957031 33.046875 Z M 241.726562 31.933594 "/>
<path style=" stroke:none;fill-rule:nonzero;fill:rgb(57.647061%,58.431375%,59.607846%);fill-opacity:1;" d="M 257.21875 28.015625 L 258.820312 28.015625 L 258.867188 29.925781 L 257.167969 29.925781 L 256.792969 29.261719 L 256.519531 29.925781 L 254.058594 29.925781 L 253.761719 29.261719 L 253.25 29.925781 L 250.449219 29.925781 L 250.15625 29.261719 L 249.636719 29.925781 L 245.84375 29.925781 L 245.84375 28.015625 L 249.59375 28.015625 L 248.945312 26.582031 L 249.914062 25.378906 L 251.148438 28.015625 L 253.199219 28.015625 L 252.566406 26.582031 L 253.519531 25.378906 L 254.765625 28.015625 L 256.125 28.015625 C 255.953125 27.472656 255.742188 27.074219 255.492188 26.816406 L 256.582031 25.316406 C 257.066406 25.925781 257.308594 26.585938 257.308594 27.300781 C 257.308594 27.554688 257.277344 27.792969 257.21875 28.015625 Z M 257.21875 28.015625 "/>
<path style=" stroke:none;fill-rule:nonzero;fill:rgb(57.647061%,58.431375%,59.607846%);fill-opacity:1;" d="M 262.910156 23.113281 L 262.34375 24.445312 L 262.09375 24.335938 L 262.320312 27.164062 C 262.320312 27.492188 262.277344 27.796875 262.183594 28.078125 C 262.125 28.253906 262.03125 28.523438 261.902344 28.890625 C 261.777344 29.253906 261.640625 29.601562 261.5 29.925781 L 258.667969 29.925781 L 258.667969 28.015625 L 261.023438 28.015625 L 260.683594 23.773438 C 260.652344 23.773438 260.628906 23.769531 260.609375 23.753906 C 260.398438 23.679688 260.292969 23.550781 260.292969 23.371094 C 260.292969 23.277344 260.335938 23.167969 260.425781 23.046875 L 260.558594 22.832031 L 261.199219 21.851562 C 261.199219 22.039062 261.226562 22.183594 261.28125 22.277344 C 261.339844 22.371094 261.414062 22.449219 261.511719 22.503906 C 261.566406 22.53125 261.65625 22.574219 261.78125 22.628906 Z M 262.910156 23.113281 "/>
<path style=" stroke:none;fill-rule:nonzero;fill:rgb(57.647061%,58.431375%,59.607846%);fill-opacity:1;" d="M 265.15625 21.921875 L 265.5 24.113281 L 265.199219 24.433594 L 265.199219 24.570312 C 265.199219 24.59375 265.214844 24.902344 265.253906 25.492188 C 265.289062 26.082031 265.308594 26.523438 265.308594 26.816406 C 265.308594 27.675781 265.210938 28.355469 265.015625 28.855469 C 264.816406 29.355469 264.445312 29.875 263.894531 30.410156 C 263.925781 30.070312 263.941406 29.660156 263.941406 29.171875 C 263.941406 28.707031 263.925781 28.222656 263.894531 27.722656 L 263.664062 24.03125 C 263.664062 23.992188 263.65625 23.910156 263.636719 23.773438 Z M 265.15625 21.921875 "/>
<path style=" stroke:none;fill-rule:evenodd;fill:rgb(57.647061%,58.431375%,59.607846%);fill-opacity:1;" d="M 269.277344 29.925781 L 268.535156 29.925781 C 267.890625 29.925781 267.4375 29.859375 267.175781 29.726562 C 266.992188 29.632812 266.839844 29.476562 266.714844 29.265625 C 266.589844 29.050781 266.527344 28.832031 266.527344 28.605469 C 266.527344 28.203125 266.636719 27.742188 266.851562 27.21875 C 267.070312 26.695312 267.359375 26.21875 267.71875 25.785156 C 268.015625 25.421875 268.304688 25.242188 268.59375 25.242188 C 268.921875 25.242188 269.25 25.460938 269.570312 25.902344 C 269.757812 26.160156 269.917969 26.433594 270.042969 26.730469 C 270.335938 27.425781 270.484375 28.15625 270.484375 28.921875 C 270.484375 29.539062 270.355469 30.152344 270.097656 30.761719 C 269.839844 31.378906 269.488281 31.917969 269.042969 32.386719 C 268.730469 32.714844 268.417969 32.878906 268.109375 32.878906 C 267.878906 32.878906 267.601562 32.734375 267.277344 32.441406 C 266.980469 32.179688 266.648438 31.765625 266.285156 31.207031 L 266.183594 31.066406 C 266.257812 31.082031 266.304688 31.09375 266.328125 31.101562 C 266.683594 31.1875 266.972656 31.226562 267.199219 31.226562 C 267.675781 31.226562 268.105469 31.09375 268.492188 30.832031 C 268.832031 30.601562 269.09375 30.296875 269.277344 29.925781 Z M 269.167969 28.015625 C 269.046875 27.25 268.800781 26.867188 268.425781 26.867188 C 268.253906 26.867188 268.105469 26.9375 267.976562 27.078125 C 267.847656 27.21875 267.785156 27.386719 267.789062 27.582031 C 267.789062 27.871094 267.964844 28.015625 268.316406 28.015625 Z M 269.167969 28.015625 "/>
<path style=" stroke:none;fill-rule:nonzero;fill:rgb(9.803922%,25.882354%,60.000002%);fill-opacity:1;" d="M 276.765625 28.015625 L 278.414062 28.015625 L 278.414062 29.925781 L 276.726562 29.925781 L 276.722656 29.960938 C 276.460938 30.734375 276.121094 31.40625 275.699219 31.972656 C 275.25 32.574219 274.832031 32.878906 274.449219 32.878906 C 273.945312 32.875 273.300781 32.253906 272.515625 31.007812 C 272.910156 31.140625 273.246094 31.207031 273.519531 31.207031 C 273.992188 31.207031 274.464844 31.035156 274.933594 30.6875 C 275.277344 30.441406 275.59375 30.023438 275.882812 29.4375 L 275.941406 29.328125 C 275.820312 29.042969 275.648438 28.722656 275.425781 28.371094 C 275.230469 28.050781 275.054688 27.808594 274.898438 27.640625 L 275.941406 26.410156 L 276.035156 26.558594 C 276.390625 27.132812 276.625 27.605469 276.75 27.980469 Z M 276.765625 28.015625 "/>
<path style=" stroke:none;fill-rule:evenodd;fill:rgb(9.803922%,25.882354%,60.000002%);fill-opacity:1;" d="M 285.832031 28.015625 L 285.832031 29.925781 L 282.460938 29.925781 L 281.816406 29.5 L 281.332031 29.925781 L 278.21875 29.925781 L 278.21875 28.015625 L 279.910156 28.015625 C 280.210938 27.492188 280.503906 27.03125 280.785156 26.632812 C 281.613281 25.453125 282.320312 24.863281 282.898438 24.863281 C 283.246094 24.863281 283.542969 25.019531 283.792969 25.324219 C 284.042969 25.632812 284.167969 25.996094 284.167969 26.410156 C 284.167969 26.769531 284.085938 27.132812 283.917969 27.5 C 283.882812 27.574219 283.796875 27.746094 283.660156 28.015625 Z M 283.375 22.808594 L 282.476562 23.648438 L 281.21875 22.574219 L 282.128906 21.714844 Z M 282.207031 27.914062 L 282.914062 27.488281 C 282.925781 27.394531 282.933594 27.335938 282.933594 27.3125 C 282.933594 27.125 282.882812 26.96875 282.78125 26.84375 C 282.675781 26.71875 282.550781 26.65625 282.40625 26.65625 C 282.082031 26.65625 281.792969 26.898438 281.539062 27.382812 Z M 282.207031 27.914062 "/>
<path style=" stroke:none;fill-rule:nonzero;fill:rgb(9.803922%,25.882354%,60.000002%);fill-opacity:1;" d="M 297.007812 28.015625 L 298.609375 28.015625 L 298.652344 29.925781 L 296.953125 29.925781 L 296.578125 29.261719 L 296.308594 29.925781 L 293.847656 29.925781 L 293.550781 29.261719 L 293.035156 29.925781 L 290.234375 29.925781 L 289.941406 29.261719 L 289.425781 29.925781 L 285.628906 29.925781 L 285.628906 28.015625 L 289.382812 28.015625 L 288.734375 26.582031 L 289.699219 25.378906 L 290.933594 28.015625 L 292.984375 28.015625 L 292.351562 26.582031 L 293.308594 25.378906 L 294.550781 28.015625 L 295.914062 28.015625 C 295.738281 27.472656 295.527344 27.074219 295.28125 26.816406 L 296.367188 25.316406 C 296.851562 25.925781 297.09375 26.585938 297.09375 27.300781 C 297.09375 27.554688 297.066406 27.792969 297.007812 28.015625 Z M 297.007812 28.015625 "/>
<path style=" stroke:none;fill-rule:nonzero;fill:rgb(9.803922%,25.882354%,60.000002%);fill-opacity:1;" d="M 303.523438 28.015625 L 303.523438 29.925781 L 301.183594 29.925781 C 300.882812 29.925781 300.683594 29.910156 300.578125 29.878906 C 300.378906 29.816406 300.257812 29.671875 300.21875 29.453125 L 299.910156 29.925781 L 298.457031 29.925781 L 298.457031 28.015625 L 300.21875 28.015625 L 300.21875 23.570312 L 301.75 21.914062 L 301.75 27.222656 C 301.75 27.257812 301.75 27.414062 301.757812 27.695312 C 301.757812 27.746094 301.773438 27.8125 301.808594 27.894531 C 301.84375 27.976562 301.953125 28.015625 302.136719 28.015625 Z M 303.523438 28.015625 "/>
<path style=" stroke:none;fill-rule:nonzero;fill:rgb(9.803922%,25.882354%,60.000002%);fill-opacity:1;" d="M 307.574219 23.113281 L 307.007812 24.445312 L 306.753906 24.335938 L 306.984375 27.164062 C 306.984375 27.492188 306.9375 27.796875 306.84375 28.078125 C 306.785156 28.253906 306.691406 28.523438 306.566406 28.890625 C 306.4375 29.253906 306.304688 29.601562 306.164062 29.925781 L 303.332031 29.925781 L 303.332031 28.015625 L 305.683594 28.015625 L 305.34375 23.773438 C 305.316406 23.773438 305.289062 23.769531 305.269531 23.753906 C 305.0625 23.679688 304.957031 23.550781 304.957031 23.371094 C 304.957031 23.277344 305 23.167969 305.089844 23.046875 L 305.21875 22.832031 L 305.859375 21.851562 C 305.859375 22.039062 305.886719 22.183594 305.945312 22.277344 C 306 22.371094 306.078125 22.449219 306.175781 22.503906 C 306.230469 22.53125 306.316406 22.574219 306.441406 22.628906 Z M 307.574219 23.113281 "/>
<path style=" stroke:none;fill-rule:evenodd;fill:rgb(9.803922%,25.882354%,60.000002%);fill-opacity:1;" d="M 316.164062 26.773438 C 315.402344 26.914062 314.652344 27.226562 313.910156 27.703125 C 313.457031 28 313.089844 28.351562 312.820312 28.757812 C 312.546875 29.167969 312.410156 29.578125 312.410156 29.984375 C 312.410156 30.691406 312.765625 31.257812 313.480469 31.683594 C 314.195312 32.113281 315.132812 32.324219 316.300781 32.324219 C 317.074219 32.324219 317.886719 32.242188 318.734375 32.082031 C 318.578125 32.183594 318.34375 32.371094 318.027344 32.640625 C 317.859375 32.796875 317.617188 33.03125 317.308594 33.347656 L 316.835938 33.824219 C 316.695312 33.976562 316.53125 34.070312 316.34375 34.101562 C 315.800781 34.1875 315.347656 34.234375 314.984375 34.234375 C 314.4375 34.234375 313.90625 34.15625 313.398438 34.007812 C 312.890625 33.855469 312.492188 33.65625 312.199219 33.40625 C 311.886719 33.132812 311.628906 32.75 311.429688 32.265625 C 311.230469 31.777344 311.132812 31.277344 311.132812 30.757812 C 311.132812 29.183594 311.921875 27.765625 313.5 26.5 C 313.242188 26.457031 313.007812 26.433594 312.792969 26.433594 C 312.222656 26.433594 311.714844 26.550781 311.277344 26.78125 L 311.675781 25.691406 C 311.808594 25.332031 311.988281 25.085938 312.21875 24.945312 C 312.453125 24.808594 312.796875 24.738281 313.261719 24.738281 C 313.394531 24.738281 313.5625 24.746094 313.765625 24.761719 L 315.117188 24.863281 C 315.617188 24.90625 316.109375 24.925781 316.59375 24.925781 C 316.886719 24.925781 317.21875 24.921875 317.597656 24.917969 C 318.089844 24.910156 318.542969 24.867188 318.957031 24.792969 L 318.007812 26.632812 L 317.566406 26.632812 L 317.410156 26.648438 L 317.355469 26.648438 L 317.566406 27.222656 C 317.664062 27.464844 317.765625 27.65625 317.871094 27.800781 C 317.976562 27.945312 318.230469 28.015625 318.632812 28.015625 L 320.492188 28.015625 L 320.492188 29.925781 L 318.148438 29.925781 C 317.769531 29.925781 317.480469 29.863281 317.28125 29.738281 C 317.082031 29.609375 316.929688 29.441406 316.816406 29.230469 C 316.6875 28.980469 316.554688 28.550781 316.417969 27.9375 Z M 315.84375 29.925781 L 314.941406 30.769531 L 313.699219 29.6875 L 314.609375 28.835938 Z M 315.84375 29.925781 "/>
<path style=" stroke:none;fill-rule:nonzero;fill:rgb(9.803922%,25.882354%,60.000002%);fill-opacity:1;" d="M 324.535156 28.015625 L 324.535156 29.925781 L 320.269531 29.925781 L 320.269531 28.015625 Z M 324.535156 28.015625 "/>
<path style=" stroke:none;fill-rule:nonzero;fill:rgb(9.803922%,25.882354%,60.000002%);fill-opacity:1;" d="M 328.433594 28.015625 L 328.433594 29.925781 L 324.167969 29.925781 L 324.167969 28.015625 Z M 328.433594 28.015625 "/>
<path style=" stroke:none;fill-rule:nonzero;fill:rgb(9.803922%,25.882354%,60.000002%);fill-opacity:1;" d="M 332.328125 28.015625 L 332.328125 29.925781 L 328.066406 29.925781 L 328.066406 28.015625 Z M 332.328125 28.015625 "/>
<path style=" stroke:none;fill-rule:nonzero;fill:rgb(9.803922%,25.882354%,60.000002%);fill-opacity:1;" d="M 336.226562 28.015625 L 336.226562 29.925781 L 331.960938 29.925781 L 331.960938 28.015625 Z M 336.226562 28.015625 "/>
<path style=" stroke:none;fill-rule:nonzero;fill:rgb(9.803922%,25.882354%,60.000002%);fill-opacity:1;" d="M 338.84375 25.316406 C 339.332031 25.890625 339.574219 26.542969 339.574219 27.273438 C 339.574219 27.683594 339.453125 28.21875 339.214844 28.878906 C 339.082031 29.238281 338.941406 29.585938 338.792969 29.925781 L 335.890625 29.925781 L 335.890625 28.015625 L 338.398438 28.015625 C 338.246094 27.492188 338.03125 27.089844 337.757812 26.816406 Z M 336.042969 31.933594 L 337.007812 31.089844 L 337.691406 31.664062 L 338.324219 31.089844 L 339.523438 32.191406 L 338.617188 33.046875 L 337.933594 32.449219 L 337.285156 33.046875 Z M 336.042969 31.933594 "/>
<path style=" stroke:none;fill-rule:nonzero;fill:rgb(9.803922%,25.882354%,60.000002%);fill-opacity:1;" d="M 342.203125 26.410156 C 342.832031 27.375 343.148438 28.195312 343.148438 28.878906 C 343.148438 29.292969 343.058594 29.769531 342.878906 30.3125 C 342.699219 30.851562 342.472656 31.324219 342.199219 31.722656 C 341.675781 32.492188 341.179688 32.878906 340.714844 32.878906 C 340.207031 32.875 339.5625 32.253906 338.78125 31.007812 C 339.175781 31.140625 339.511719 31.207031 339.789062 31.207031 C 340.265625 31.207031 340.738281 31.035156 341.199219 30.6875 C 341.542969 30.429688 341.855469 30.011719 342.148438 29.4375 L 342.203125 29.328125 C 342.082031 29.042969 341.910156 28.722656 341.691406 28.371094 C 341.496094 28.050781 341.320312 27.808594 341.164062 27.640625 Z M 342.203125 26.410156 "/>
<path style=" stroke:none;fill-rule:nonzero;fill:rgb(9.803922%,25.882354%,60.000002%);fill-opacity:1;" d="M 346.183594 20.773438 L 345.898438 21.617188 C 345.515625 21.65625 345.207031 21.722656 344.96875 21.808594 C 344.554688 21.96875 344.1875 22.230469 343.875 22.605469 C 343.925781 22.191406 344.070312 21.84375 344.316406 21.558594 C 343.953125 21.480469 343.769531 21.257812 343.769531 20.886719 C 343.769531 20.726562 343.871094 20.480469 344.066406 20.144531 C 344.410156 19.570312 344.867188 19.285156 345.441406 19.285156 C 345.820312 19.285156 346.007812 19.363281 346.007812 19.527344 C 346.007812 19.550781 345.957031 19.667969 345.851562 19.878906 L 345.675781 20.242188 C 345.484375 20.15625 345.285156 20.117188 345.074219 20.117188 C 344.746094 20.117188 344.476562 20.222656 344.261719 20.433594 C 344.5625 20.746094 344.988281 20.90625 345.542969 20.902344 C 345.714844 20.90625 345.929688 20.859375 346.183594 20.773438 Z M 345.953125 21.921875 L 346.292969 24.113281 L 346.007812 24.433594 L 346.007812 24.570312 C 346.007812 24.59375 346.023438 24.902344 346.058594 25.492188 C 346.09375 26.082031 346.109375 26.523438 346.109375 26.816406 C 346.109375 27.675781 346.011719 28.355469 345.816406 28.855469 C 345.621094 29.355469 345.25 29.875 344.707031 30.410156 C 344.734375 30.070312 344.75 29.660156 344.75 29.171875 C 344.75 28.707031 344.734375 28.222656 344.707031 27.722656 L 344.46875 24.03125 C 344.46875 23.992188 344.460938 23.910156 344.441406 23.773438 Z M 345.953125 21.921875 "/>
<path style=" stroke:none;fill-rule:nonzero;fill:rgb(9.803922%,25.882354%,60.000002%);fill-opacity:1;" d="M 196.5625 24.050781 C 197.632812 36.761719 188.207031 47.941406 175.511719 49.011719 C 162.816406 50.089844 151.652344 40.652344 150.582031 27.933594 C 149.507812 15.21875 158.933594 4.042969 171.628906 2.972656 C 184.324219 1.894531 195.484375 11.332031 196.5625 24.050781 Z M 196.5625 24.050781 "/>
<path style=" stroke:none;fill-rule:nonzero;fill:rgb(100%,100%,100%);fill-opacity:1;" d="M 193.78125 38.992188 C 175.699219 37.507812 162.195312 21.5625 163.679688 3.453125 L 164.964844 3.558594 C 163.535156 20.960938 176.511719 36.277344 193.886719 37.707031 Z M 193.78125 38.992188 "/>
<path style=" stroke:none;fill-rule:nonzero;fill:rgb(57.647061%,58.431375%,59.607846%);fill-opacity:1;" d="M 207.488281 39.664062 C 208.179688 39.652344 208.734375 39.316406 208.730469 38.917969 C 208.722656 38.53125 208.210938 38.222656 207.5625 38.203125 L 202.875 37.714844 L 197.75 31.472656 L 196.105469 31.445312 L 199.425781 37.59375 L 193.269531 37.632812 L 191.632812 35.8125 L 190.601562 35.765625 L 192.085938 37.992188 L 191.378906 38.285156 L 192.148438 38.597656 L 190.394531 40.765625 L 191.492188 40.644531 L 193.25 39.058594 L 199.496094 39.417969 L 195.628906 45.105469 L 197.078125 45.207031 L 202.964844 39.761719 C 202.964844 39.761719 206.476562 39.742188 207.441406 39.664062 C 207.457031 39.664062 207.472656 39.664062 207.488281 39.664062 Z M 207.488281 39.664062 "/>
<path style=" stroke:none;fill-rule:nonzero;fill:rgb(57.647061%,58.431375%,59.607846%);fill-opacity:1;" d="M 203.035156 36.988281 L 201.050781 37.183594 L 200.972656 36.363281 L 202.953125 36.175781 Z M 203.035156 36.988281 "/>
<path style=" stroke:none;fill-rule:nonzero;fill:rgb(57.647061%,58.431375%,59.607846%);fill-opacity:1;" d="M 202.773438 41.484375 L 200.808594 41.203125 L 200.921875 40.386719 L 202.890625 40.671875 Z M 202.773438 41.484375 "/>
</g>
</svg>
